<svg xmlns="http://www.w3.org/2000/svg" xmlns:xlink="http://www.w3.org/1999/xlink" width="1080" zoomAndPan="magnify" viewBox="0 0 810 809.999993" height="1080" preserveAspectRatio="xMidYMid meet" version="1.0"><defs><clipPath id="id1"><path d="M 154.851562 39.09375 L 655.101562 39.09375 L 655.101562 771 L 154.851562 771 Z M 154.851562 39.09375 " clip-rule="nonzero"/></clipPath><clipPath id="id2"><path d="M 154.851562 130 L 655.101562 130 L 655.101562 316 L 154.851562 316 Z M 154.851562 130 " clip-rule="nonzero"/></clipPath><clipPath id="id3"><path d="M 154.851562 436 L 655.101562 436 L 655.101562 442 L 154.851562 442 Z M 154.851562 436 " clip-rule="nonzero"/></clipPath><clipPath id="id4"><path d="M 154.851562 517 L 655.101562 517 L 655.101562 522 L 154.851562 522 Z M 154.851562 517 " clip-rule="nonzero"/></clipPath><clipPath id="id5"><path d="M 154.851562 39.09375 L 655.101562 39.09375 L 655.101562 771 L 154.851562 771 Z M 154.851562 39.09375 " clip-rule="nonzero"/></clipPath></defs><rect x="-81" width="972" fill="#ffffff" y="-80.999999" height="971.999992" fill-opacity="1"/><rect x="-81" width="972" fill="#ffffff" y="-80.999999" height="971.999992" fill-opacity="1"/><path fill="#ffffff" d="M 186.113281 41.472656 L 623.824219 41.472656 C 639.882812 41.472656 652.902344 54.5 652.902344 70.5625 L 652.902344 739.621094 C 652.902344 755.6875 639.882812 768.710938 623.824219 768.710938 L 186.113281 768.710938 C 170.050781 768.710938 157.03125 755.6875 157.03125 739.621094 L 157.03125 70.5625 C 157.03125 54.5 170.050781 41.472656 186.113281 41.472656 Z M 186.113281 41.472656 " fill-opacity="1" fill-rule="nonzero"/><g clip-path="url(#id1)"><path fill="#2d3277" d="M 623.824219 770.890625 L 186.113281 770.890625 C 168.875 770.890625 154.851562 756.863281 154.851562 739.621094 L 154.851562 70.5625 C 154.851562 53.320312 168.875 39.292969 186.113281 39.292969 L 623.824219 39.292969 C 641.0625 39.292969 655.085938 53.320312 655.085938 70.5625 L 655.085938 739.621094 C 655.085938 756.863281 641.0625 770.890625 623.824219 770.890625 Z M 186.113281 43.65625 C 171.28125 43.65625 159.214844 55.726562 159.214844 70.5625 L 159.214844 739.621094 C 159.214844 754.457031 171.28125 766.527344 186.113281 766.527344 L 623.824219 766.527344 C 638.65625 766.527344 650.722656 754.457031 650.722656 739.621094 L 650.722656 70.5625 C 650.722656 55.726562 638.65625 43.65625 623.824219 43.65625 Z M 186.113281 43.65625 " fill-opacity="1" fill-rule="nonzero"/></g><path fill="#7b98c9" d="M 157.03125 132.542969 L 652.902344 132.542969 L 652.902344 312.96875 L 157.03125 312.96875 Z M 157.03125 132.542969 " fill-opacity="1" fill-rule="nonzero"/><g clip-path="url(#id2)"><path fill="#2d3277" d="M 652.902344 315.148438 L 157.03125 315.148438 C 155.828125 315.148438 154.851562 314.171875 154.851562 312.964844 L 154.851562 132.542969 C 154.851562 131.335938 155.828125 130.359375 157.03125 130.359375 L 652.902344 130.359375 C 654.109375 130.359375 655.085938 131.335938 655.085938 132.542969 L 655.085938 312.964844 C 655.085938 314.171875 654.109375 315.148438 652.902344 315.148438 Z M 159.214844 310.785156 L 650.722656 310.785156 L 650.722656 134.722656 L 159.214844 134.722656 Z M 159.214844 310.785156 " fill-opacity="1" fill-rule="nonzero"/></g><path fill="#ffd100" d="M 550.792969 277.96875 C 550.792969 278.238281 550.734375 278.511719 550.617188 278.78125 C 550.503906 279.050781 550.328125 279.320312 550.09375 279.589844 C 549.859375 279.859375 549.570312 280.128906 549.222656 280.398438 C 548.871094 280.667969 548.464844 280.933594 548 281.199219 C 547.539062 281.464844 547.015625 281.730469 546.4375 281.992188 C 545.863281 282.253906 545.226562 282.515625 544.539062 282.777344 C 543.847656 283.035156 543.101562 283.292969 542.300781 283.546875 C 541.5 283.804688 540.644531 284.054688 539.734375 284.304688 C 538.824219 284.558594 537.859375 284.804688 536.84375 285.050781 C 535.828125 285.292969 534.757812 285.535156 533.636719 285.777344 C 532.515625 286.015625 531.34375 286.25 530.121094 286.484375 C 528.898438 286.714844 527.628906 286.945312 526.304688 287.171875 C 524.984375 287.394531 523.617188 287.617188 522.199219 287.835938 C 520.78125 288.050781 519.320312 288.265625 517.8125 288.476562 C 516.304688 288.683594 514.75 288.890625 513.152344 289.089844 C 511.558594 289.292969 509.917969 289.488281 508.234375 289.679688 C 506.554688 289.871094 504.832031 290.058594 503.070312 290.242188 C 501.308594 290.421875 499.507812 290.597656 497.671875 290.773438 C 495.832031 290.945312 493.957031 291.109375 492.046875 291.273438 C 490.136719 291.433594 488.195312 291.589844 486.21875 291.738281 C 484.242188 291.890625 482.230469 292.035156 480.191406 292.175781 C 478.152344 292.3125 476.085938 292.449219 473.988281 292.574219 C 471.890625 292.703125 469.765625 292.824219 467.617188 292.941406 C 465.46875 293.058594 463.292969 293.167969 461.097656 293.269531 C 458.898438 293.375 456.683594 293.472656 454.445312 293.5625 C 452.203125 293.65625 449.949219 293.738281 447.671875 293.816406 C 445.394531 293.898438 443.105469 293.96875 440.796875 294.035156 C 438.492188 294.101562 436.171875 294.160156 433.839844 294.214844 C 431.507812 294.265625 429.164062 294.3125 426.8125 294.351562 C 424.460938 294.390625 422.101562 294.425781 419.734375 294.453125 C 417.367188 294.476562 414.996094 294.496094 412.621094 294.511719 C 410.246094 294.523438 407.871094 294.53125 405.492188 294.53125 C 403.113281 294.53125 400.738281 294.523438 398.363281 294.511719 C 395.988281 294.496094 393.617188 294.476562 391.25 294.453125 C 388.882812 294.425781 386.523438 294.390625 384.171875 294.351562 C 381.820312 294.3125 379.480469 294.265625 377.144531 294.214844 C 374.8125 294.160156 372.496094 294.101562 370.1875 294.035156 C 367.882812 293.96875 365.589844 293.898438 363.316406 293.816406 C 361.039062 293.738281 358.78125 293.65625 356.542969 293.5625 C 354.304688 293.472656 352.085938 293.375 349.890625 293.269531 C 347.691406 293.167969 345.519531 293.058594 343.367188 292.941406 C 341.21875 292.824219 339.097656 292.703125 337 292.574219 C 334.902344 292.449219 332.832031 292.3125 330.792969 292.175781 C 328.753906 292.035156 326.746094 291.890625 324.769531 291.738281 C 322.792969 291.589844 320.847656 291.433594 318.9375 291.273438 C 317.027344 291.109375 315.152344 290.945312 313.316406 290.773438 C 311.476562 290.597656 309.675781 290.421875 307.914062 290.242188 C 306.152344 290.058594 304.429688 289.871094 302.75 289.679688 C 301.070312 289.488281 299.429688 289.292969 297.832031 289.089844 C 296.234375 288.890625 294.683594 288.683594 293.175781 288.476562 C 291.664062 288.265625 290.203125 288.050781 288.785156 287.835938 C 287.371094 287.617188 286 287.394531 284.679688 287.171875 C 283.359375 286.945312 282.085938 286.714844 280.863281 286.484375 C 279.640625 286.25 278.46875 286.015625 277.347656 285.777344 C 276.226562 285.535156 275.160156 285.292969 274.144531 285.050781 C 273.125 284.804688 272.164062 284.558594 271.253906 284.304688 C 270.34375 284.054688 269.488281 283.804688 268.6875 283.546875 C 267.886719 283.292969 267.140625 283.035156 266.449219 282.777344 C 265.757812 282.515625 265.125 282.253906 264.546875 281.992188 C 263.96875 281.730469 263.449219 281.464844 262.984375 281.199219 C 262.519531 280.933594 262.113281 280.667969 261.765625 280.398438 C 261.417969 280.128906 261.125 279.859375 260.890625 279.589844 C 260.660156 279.320312 260.484375 279.050781 260.367188 278.78125 C 260.25 278.511719 260.191406 278.238281 260.191406 277.96875 C 260.191406 277.695312 260.25 277.425781 260.367188 277.15625 C 260.484375 276.882812 260.660156 276.613281 260.890625 276.34375 C 261.125 276.074219 261.417969 275.804688 261.765625 275.539062 C 262.113281 275.269531 262.519531 275.003906 262.984375 274.738281 C 263.449219 274.46875 263.96875 274.207031 264.546875 273.941406 C 265.125 273.679688 265.757812 273.417969 266.449219 273.160156 C 267.140625 272.898438 267.886719 272.644531 268.6875 272.386719 C 269.488281 272.132812 270.34375 271.878906 271.253906 271.628906 C 272.164062 271.378906 273.125 271.132812 274.144531 270.886719 C 275.160156 270.640625 276.226562 270.398438 277.347656 270.160156 C 278.46875 269.921875 279.640625 269.683594 280.863281 269.453125 C 282.085938 269.21875 283.359375 268.992188 284.679688 268.765625 C 286 268.539062 287.371094 268.320312 288.785156 268.101562 C 290.203125 267.882812 291.664062 267.667969 293.175781 267.460938 C 294.683594 267.25 296.234375 267.046875 297.832031 266.84375 C 299.429688 266.644531 301.070312 266.449219 302.75 266.253906 C 304.429688 266.0625 306.152344 265.878906 307.914062 265.695312 C 309.675781 265.511719 311.476562 265.335938 313.316406 265.164062 C 315.152344 264.992188 317.027344 264.824219 318.9375 264.664062 C 320.847656 264.503906 322.792969 264.347656 324.769531 264.195312 C 326.746094 264.046875 328.753906 263.898438 330.792969 263.761719 C 332.832031 263.621094 334.902344 263.488281 337 263.359375 C 339.097656 263.234375 341.21875 263.109375 343.367188 262.996094 C 345.519531 262.878906 347.691406 262.769531 349.890625 262.664062 C 352.085938 262.5625 354.304688 262.464844 356.542969 262.371094 C 358.78125 262.28125 361.039062 262.195312 363.316406 262.117188 C 365.589844 262.039062 367.882812 261.964844 370.1875 261.902344 C 372.496094 261.835938 374.8125 261.777344 377.144531 261.722656 C 379.480469 261.667969 381.820312 261.625 384.171875 261.582031 C 386.523438 261.542969 388.882812 261.511719 391.25 261.484375 C 393.617188 261.457031 395.988281 261.4375 398.363281 261.425781 C 400.738281 261.410156 403.113281 261.40625 405.492188 261.40625 C 407.871094 261.40625 410.246094 261.410156 412.621094 261.425781 C 414.996094 261.4375 417.367188 261.457031 419.734375 261.484375 C 422.101562 261.511719 424.460938 261.542969 426.8125 261.582031 C 429.164062 261.625 431.507812 261.667969 433.839844 261.722656 C 436.171875 261.777344 438.492188 261.835938 440.796875 261.902344 C 443.105469 261.964844 445.394531 262.039062 447.671875 262.117188 C 449.945312 262.195312 452.203125 262.28125 454.445312 262.371094 C 456.683594 262.464844 458.898438 262.5625 461.097656 262.664062 C 463.292969 262.769531 465.46875 262.878906 467.617188 262.996094 C 469.765625 263.109375 471.890625 263.234375 473.988281 263.359375 C 476.085938 263.488281 478.152344 263.621094 480.191406 263.761719 C 482.230469 263.898438 484.242188 264.046875 486.21875 264.195312 C 488.195312 264.347656 490.136719 264.503906 492.046875 264.664062 C 493.957031 264.824219 495.832031 264.992188 497.671875 265.164062 C 499.507812 265.335938 501.308594 265.511719 503.070312 265.695312 C 504.832031 265.878906 506.554688 266.0625 508.234375 266.253906 C 509.917969 266.449219 511.558594 266.644531 513.152344 266.84375 C 514.75 267.046875 516.304688 267.25 517.8125 267.460938 C 519.320312 267.667969 520.785156 267.882812 522.199219 268.101562 C 523.617188 268.320312 524.984375 268.539062 526.304688 268.765625 C 527.628906 268.992188 528.898438 269.21875 530.121094 269.453125 C 531.34375 269.683594 532.515625 269.921875 533.636719 270.160156 C 534.757812 270.398438 535.828125 270.640625 536.84375 270.886719 C 537.859375 271.132812 538.824219 271.378906 539.734375 271.628906 C 540.644531 271.878906 541.5 272.132812 542.300781 272.386719 C 543.101562 272.644531 543.847656 272.898438 544.539062 273.160156 C 545.226562 273.417969 545.863281 273.679688 546.4375 273.941406 C 547.015625 274.207031 547.539062 274.46875 548 274.738281 C 548.464844 275.003906 548.871094 275.269531 549.222656 275.539062 C 549.570312 275.804688 549.859375 276.074219 550.09375 276.34375 C 550.328125 276.613281 550.503906 276.882812 550.617188 277.15625 C 550.734375 277.425781 550.792969 277.695312 550.792969 277.96875 Z M 550.792969 277.96875 " fill-opacity="1" fill-rule="nonzero"/><path fill="#2d3277" d="M 405.492188 296.714844 C 366.601562 296.714844 330.027344 294.984375 302.503906 291.847656 C 258.011719 286.777344 258.011719 280.601562 258.011719 277.96875 C 258.011719 275.332031 258.011719 269.160156 302.503906 264.085938 C 330.027344 260.949219 366.601562 259.222656 405.492188 259.222656 C 444.382812 259.222656 480.960938 260.949219 508.484375 264.085938 C 552.976562 269.160156 552.976562 275.332031 552.976562 277.96875 C 552.976562 280.601562 552.976562 286.777344 508.484375 291.847656 C 480.960938 294.984375 444.382812 296.714844 405.492188 296.714844 Z M 262.367188 278.019531 C 262.402344 278.019531 264.621094 283.28125 304.6875 287.703125 C 331.847656 290.699219 367.648438 292.351562 405.492188 292.351562 C 443.335938 292.351562 479.136719 290.699219 506.300781 287.703125 C 544.433594 283.492188 548.28125 278.523438 548.59375 277.96875 C 548.28125 277.414062 544.433594 272.441406 506.300781 268.234375 C 479.136719 265.234375 443.335938 263.585938 405.492188 263.585938 C 367.648438 263.585938 331.847656 265.234375 304.6875 268.234375 C 264.441406 272.675781 262.386719 277.964844 262.367188 278.019531 Z M 548.617188 278.019531 L 548.632812 278.019531 Z M 548.617188 278.019531 " fill-opacity="1" fill-rule="nonzero"/><path fill="#ffffff" d="M 304.589844 155.394531 L 506.394531 155.394531 L 506.394531 182.726562 L 304.589844 182.726562 Z M 304.589844 155.394531 " fill-opacity="1" fill-rule="nonzero"/><path fill="#2d3277" d="M 506.394531 184.90625 L 304.589844 184.90625 C 303.386719 184.90625 302.410156 183.929688 302.410156 182.726562 L 302.410156 155.394531 C 302.410156 154.191406 303.386719 153.214844 304.589844 153.214844 L 506.394531 153.214844 C 507.601562 153.214844 508.578125 154.191406 508.578125 155.394531 L 508.578125 182.726562 C 508.578125 183.929688 507.601562 184.90625 506.394531 184.90625 Z M 306.773438 180.542969 L 504.214844 180.542969 L 504.214844 157.578125 L 306.773438 157.578125 Z M 306.773438 180.542969 " fill-opacity="1" fill-rule="nonzero"/><path fill="#fff159" d="M 320.582031 274.035156 L 312.921875 274.035156 L 312.921875 182.726562 L 326.167969 182.726562 Z M 320.582031 274.035156 " fill-opacity="1" fill-rule="nonzero"/><path fill="#2d3277" d="M 320.582031 276.214844 L 312.921875 276.214844 C 311.714844 276.214844 310.742188 275.238281 310.742188 274.035156 L 310.742188 182.726562 C 310.742188 181.519531 311.714844 180.542969 312.921875 180.542969 L 326.167969 180.542969 C 326.769531 180.542969 327.34375 180.792969 327.757812 181.230469 C 328.167969 181.667969 328.382812 182.257812 328.34375 182.859375 L 322.757812 274.167969 C 322.6875 275.316406 321.734375 276.214844 320.582031 276.214844 Z M 315.101562 271.851562 L 318.53125 271.851562 L 323.851562 184.90625 L 315.101562 184.90625 Z M 315.101562 271.851562 " fill-opacity="1" fill-rule="nonzero"/><path fill="#fff159" d="M 490.40625 274.035156 L 498.066406 274.035156 L 498.066406 182.726562 L 484.820312 182.726562 Z M 490.40625 274.035156 " fill-opacity="1" fill-rule="nonzero"/><path fill="#2d3277" d="M 498.066406 276.214844 L 490.40625 276.214844 C 489.25 276.214844 488.296875 275.316406 488.226562 274.167969 L 482.640625 182.859375 C 482.605469 182.257812 482.816406 181.667969 483.230469 181.230469 C 483.640625 180.792969 484.21875 180.542969 484.820312 180.542969 L 498.066406 180.542969 C 499.269531 180.542969 500.246094 181.519531 500.246094 182.726562 L 500.246094 274.035156 C 500.246094 275.238281 499.269531 276.214844 498.066406 276.214844 Z M 492.457031 271.851562 L 495.882812 271.851562 L 495.882812 184.90625 L 487.136719 184.90625 Z M 492.457031 271.851562 " fill-opacity="1" fill-rule="nonzero"/><path fill="#fff159" d="M 511.726562 229.984375 L 555.761719 229.984375 L 555.761719 274.035156 L 511.726562 274.035156 Z M 511.726562 229.984375 " fill-opacity="1" fill-rule="nonzero"/><path fill="#2d3277" d="M 555.761719 276.214844 L 511.726562 276.214844 C 510.519531 276.214844 509.546875 275.238281 509.546875 274.035156 L 509.546875 229.984375 C 509.546875 228.777344 510.519531 227.804688 511.726562 227.804688 L 555.761719 227.804688 C 556.964844 227.804688 557.941406 228.777344 557.941406 229.984375 L 557.941406 274.035156 C 557.941406 275.238281 556.964844 276.214844 555.761719 276.214844 Z M 513.90625 271.851562 L 553.582031 271.851562 L 553.582031 232.167969 L 513.90625 232.167969 Z M 513.90625 271.851562 " fill-opacity="1" fill-rule="nonzero"/><path fill="#7b98c9" d="M 522.59375 229.984375 L 514.726562 206.949219 L 527.972656 220.203125 L 533.742188 164.503906 L 540.1875 218.339844 C 540.1875 218.339844 552.8125 198.460938 552.8125 199.289062 C 552.8125 200.117188 545.152344 229.984375 545.152344 229.984375 Z M 522.59375 229.984375 " fill-opacity="1" fill-rule="nonzero"/><path fill="#2d3277" d="M 545.152344 232.167969 L 522.59375 232.167969 C 521.660156 232.167969 520.832031 231.574219 520.527344 230.691406 L 512.664062 207.65625 C 512.335938 206.695312 512.714844 205.636719 513.574219 205.097656 C 514.4375 204.5625 515.554688 204.691406 516.269531 205.40625 L 526.277344 215.417969 L 531.574219 164.28125 C 531.6875 163.175781 532.617188 162.332031 533.726562 162.324219 C 534.816406 162.378906 535.777344 163.144531 535.910156 164.246094 L 541.625 212.007812 C 551.433594 196.589844 551.601562 196.644531 553.410156 197.171875 C 554.339844 197.441406 554.992188 198.320312 554.992188 199.289062 C 554.992188 199.621094 554.992188 200.394531 547.265625 230.527344 C 547.019531 231.492188 546.148438 232.167969 545.152344 232.167969 Z M 524.152344 227.804688 L 543.460938 227.804688 C 544.859375 222.339844 546.519531 215.820312 547.890625 210.363281 C 546.027344 213.242188 543.972656 216.445312 542.027344 219.507812 C 541.53125 220.285156 540.601562 220.667969 539.703125 220.464844 C 538.804688 220.261719 538.128906 219.511719 538.019531 218.597656 L 533.898438 184.164062 L 530.144531 220.425781 C 530.054688 221.261719 529.496094 221.976562 528.703125 222.257812 C 527.914062 222.539062 527.027344 222.339844 526.433594 221.742188 L 519.828125 215.136719 Z M 524.152344 227.804688 " fill-opacity="1" fill-rule="nonzero"/><path fill="#2d3277" d="M 405.492188 184.90625 C 404.289062 184.90625 403.3125 183.929688 403.3125 182.726562 L 403.3125 155.394531 C 403.3125 154.191406 404.289062 153.214844 405.492188 153.214844 C 406.699219 153.214844 407.675781 154.191406 407.675781 155.394531 L 407.675781 182.726562 C 407.675781 183.929688 406.699219 184.90625 405.492188 184.90625 Z M 405.492188 184.90625 " fill-opacity="1" fill-rule="nonzero"/><path fill="#2d3277" d="M 355.144531 169.0625 C 355.144531 169.554688 355.050781 170.03125 354.859375 170.488281 C 354.671875 170.945312 354.402344 171.347656 354.054688 171.695312 C 353.703125 172.046875 353.300781 172.316406 352.84375 172.503906 C 352.386719 172.691406 351.914062 172.789062 351.417969 172.789062 C 350.925781 172.789062 350.449219 172.691406 349.992188 172.503906 C 349.539062 172.316406 349.132812 172.046875 348.785156 171.695312 C 348.4375 171.347656 348.167969 170.945312 347.976562 170.488281 C 347.789062 170.03125 347.695312 169.554688 347.695312 169.0625 C 347.695312 168.566406 347.789062 168.089844 347.976562 167.632812 C 348.167969 167.179688 348.4375 166.773438 348.785156 166.425781 C 349.132812 166.074219 349.539062 165.808594 349.992188 165.617188 C 350.449219 165.429688 350.925781 165.332031 351.417969 165.332031 C 351.914062 165.332031 352.386719 165.429688 352.84375 165.617188 C 353.300781 165.808594 353.703125 166.074219 354.054688 166.425781 C 354.402344 166.773438 354.671875 167.179688 354.859375 167.632812 C 355.050781 168.089844 355.144531 168.566406 355.144531 169.0625 Z M 355.144531 169.0625 " fill-opacity="1" fill-rule="nonzero"/><path fill="#2d3277" d="M 463.292969 169.0625 C 463.292969 169.554688 463.199219 170.03125 463.007812 170.488281 C 462.820312 170.945312 462.550781 171.347656 462.203125 171.695312 C 461.851562 172.046875 461.449219 172.316406 460.992188 172.503906 C 460.535156 172.691406 460.0625 172.789062 459.566406 172.789062 C 459.074219 172.789062 458.597656 172.691406 458.140625 172.503906 C 457.683594 172.316406 457.28125 172.046875 456.933594 171.695312 C 456.582031 171.347656 456.3125 170.945312 456.125 170.488281 C 455.9375 170.03125 455.839844 169.554688 455.839844 169.0625 C 455.839844 168.566406 455.9375 168.089844 456.125 167.632812 C 456.3125 167.179688 456.582031 166.773438 456.933594 166.425781 C 457.28125 166.074219 457.683594 165.808594 458.140625 165.617188 C 458.597656 165.429688 459.074219 165.332031 459.566406 165.332031 C 460.0625 165.332031 460.535156 165.429688 460.992188 165.617188 C 461.449219 165.808594 461.851562 166.074219 462.203125 166.425781 C 462.550781 166.773438 462.820312 167.179688 463.007812 167.632812 C 463.199219 168.089844 463.292969 168.566406 463.292969 169.0625 Z M 463.292969 169.0625 " fill-opacity="1" fill-rule="nonzero"/><path fill="#ffffff" d="M 243.996094 194.835938 L 299.882812 194.835938 L 299.882812 274.035156 L 243.996094 274.035156 Z M 243.996094 194.835938 " fill-opacity="1" fill-rule="nonzero"/><path fill="#2d3277" d="M 299.882812 276.214844 L 243.996094 276.214844 C 242.792969 276.214844 241.816406 275.238281 241.816406 274.035156 L 241.816406 194.835938 C 241.816406 193.632812 242.792969 192.65625 243.996094 192.65625 L 299.882812 192.65625 C 301.085938 192.65625 302.0625 193.632812 302.0625 194.835938 L 302.0625 274.035156 C 302.0625 275.238281 301.085938 276.214844 299.882812 276.214844 Z M 246.179688 271.851562 L 297.699219 271.851562 L 297.699219 197.019531 L 246.179688 197.019531 Z M 246.179688 271.851562 " fill-opacity="1" fill-rule="nonzero"/><path fill="#2d3277" d="M 299.878906 221.140625 L 243.996094 221.140625 C 242.792969 221.140625 241.816406 220.164062 241.816406 218.960938 C 241.816406 217.753906 242.792969 216.777344 243.996094 216.777344 L 299.878906 216.777344 C 301.085938 216.777344 302.0625 217.753906 302.0625 218.960938 C 302.0625 220.164062 301.085938 221.140625 299.878906 221.140625 Z M 299.878906 221.140625 " fill-opacity="1" fill-rule="nonzero"/><path fill="#2d3277" d="M 299.878906 252.09375 L 243.996094 252.09375 C 242.792969 252.09375 241.816406 251.117188 241.816406 249.914062 C 241.816406 248.707031 242.792969 247.730469 243.996094 247.730469 L 299.878906 247.730469 C 301.085938 247.730469 302.0625 248.707031 302.0625 249.914062 C 302.0625 251.117188 301.085938 252.09375 299.878906 252.09375 Z M 299.878906 252.09375 " fill-opacity="1" fill-rule="nonzero"/><path fill="#2d3277" d="M 275.457031 208.304688 L 268.425781 208.304688 C 267.21875 208.304688 266.242188 207.328125 266.242188 206.121094 C 266.242188 204.917969 267.21875 203.941406 268.425781 203.941406 L 275.457031 203.941406 C 276.664062 203.941406 277.640625 204.917969 277.640625 206.121094 C 277.640625 207.328125 276.664062 208.304688 275.457031 208.304688 Z M 275.457031 208.304688 " fill-opacity="1" fill-rule="nonzero"/><path fill="#2d3277" d="M 275.457031 264.933594 L 268.425781 264.933594 C 267.21875 264.933594 266.242188 263.957031 266.242188 262.753906 C 266.242188 261.546875 267.21875 260.570312 268.425781 260.570312 L 275.457031 260.570312 C 276.664062 260.570312 277.640625 261.546875 277.640625 262.753906 C 277.640625 263.957031 276.664062 264.933594 275.457031 264.933594 Z M 275.457031 264.933594 " fill-opacity="1" fill-rule="nonzero"/><path fill="#2d3277" d="M 275.457031 236.617188 L 268.425781 236.617188 C 267.21875 236.617188 266.242188 235.640625 266.242188 234.4375 C 266.242188 233.230469 267.21875 232.253906 268.425781 232.253906 L 275.457031 232.253906 C 276.664062 232.253906 277.640625 233.230469 277.640625 234.4375 C 277.640625 235.640625 276.664062 236.617188 275.457031 236.617188 Z M 275.457031 236.617188 " fill-opacity="1" fill-rule="nonzero"/><path fill="#2d3277" d="M 221.410156 76.621094 L 193.492188 76.621094 C 192.289062 76.621094 191.3125 75.644531 191.3125 74.441406 C 191.3125 73.234375 192.289062 72.257812 193.492188 72.257812 L 221.410156 72.257812 C 222.617188 72.257812 223.59375 73.234375 223.59375 74.441406 C 223.59375 75.644531 222.617188 76.621094 221.410156 76.621094 Z M 221.410156 76.621094 " fill-opacity="1" fill-rule="nonzero"/><path fill="#2d3277" d="M 221.410156 90.871094 L 193.492188 90.871094 C 192.289062 90.871094 191.3125 89.894531 191.3125 88.6875 C 191.3125 87.484375 192.289062 86.507812 193.492188 86.507812 L 221.410156 86.507812 C 222.617188 86.507812 223.59375 87.484375 223.59375 88.6875 C 223.59375 89.894531 222.617188 90.871094 221.410156 90.871094 Z M 221.410156 90.871094 " fill-opacity="1" fill-rule="nonzero"/><path fill="#2d3277" d="M 221.410156 105.121094 L 193.492188 105.121094 C 192.289062 105.121094 191.3125 104.144531 191.3125 102.9375 C 191.3125 101.734375 192.289062 100.757812 193.492188 100.757812 L 221.410156 100.757812 C 222.617188 100.757812 223.59375 101.734375 223.59375 102.9375 C 223.59375 104.144531 222.617188 105.121094 221.410156 105.121094 Z M 221.410156 105.121094 " fill-opacity="1" fill-rule="nonzero"/><path fill="#2d3277" d="M 612.300781 101.800781 L 576.851562 101.800781 C 575.757812 101.800781 574.835938 100.992188 574.691406 99.910156 L 570.707031 70.351562 L 564.367188 70.351562 C 563.160156 70.351562 562.183594 69.375 562.183594 68.171875 C 562.183594 66.964844 563.160156 65.988281 564.367188 65.988281 L 572.617188 65.988281 C 573.707031 65.988281 574.632812 66.796875 574.777344 67.878906 L 578.757812 97.4375 L 612.300781 97.4375 C 613.503906 97.4375 614.480469 98.414062 614.480469 99.617188 C 614.480469 100.824219 613.503906 101.800781 612.300781 101.800781 Z M 612.300781 101.800781 " fill-opacity="1" fill-rule="nonzero"/><path fill="#2d3277" d="M 610.742188 93.769531 L 575.769531 93.769531 C 574.679688 93.769531 573.753906 92.960938 573.609375 91.878906 L 571.203125 74.027344 C 571.121094 73.402344 571.308594 72.773438 571.722656 72.300781 C 572.136719 71.824219 572.738281 71.554688 573.367188 71.554688 L 615.421875 71.554688 C 616.097656 71.554688 616.734375 71.867188 617.148438 72.402344 C 617.5625 72.9375 617.703125 73.632812 617.53125 74.289062 L 612.851562 92.140625 C 612.597656 93.101562 611.730469 93.769531 610.742188 93.769531 Z M 577.675781 89.40625 L 609.058594 89.40625 L 612.59375 75.917969 L 575.859375 75.917969 Z M 577.675781 89.40625 " fill-opacity="1" fill-rule="nonzero"/><path fill="#2d3277" d="M 583.285156 111.390625 C 579.441406 111.390625 576.3125 108.257812 576.3125 104.414062 C 576.3125 100.566406 579.441406 97.4375 583.285156 97.4375 C 587.132812 97.4375 590.261719 100.566406 590.261719 104.414062 C 590.261719 108.257812 587.132812 111.390625 583.285156 111.390625 Z M 583.285156 101.800781 C 581.84375 101.800781 580.671875 102.972656 580.671875 104.414062 C 580.671875 105.851562 581.84375 107.027344 583.285156 107.027344 C 584.726562 107.027344 585.898438 105.851562 585.898438 104.414062 C 585.898438 102.972656 584.726562 101.800781 583.285156 101.800781 Z M 583.285156 101.800781 " fill-opacity="1" fill-rule="nonzero"/><path fill="#2d3277" d="M 605.5 111.390625 C 601.65625 111.390625 598.527344 108.257812 598.527344 104.414062 C 598.527344 100.566406 601.65625 97.4375 605.5 97.4375 C 609.347656 97.4375 612.476562 100.566406 612.476562 104.414062 C 612.476562 108.257812 609.347656 111.390625 605.5 111.390625 Z M 605.5 101.800781 C 604.0625 101.800781 602.890625 102.972656 602.890625 104.414062 C 602.890625 105.851562 604.0625 107.027344 605.5 107.027344 C 606.941406 107.027344 608.113281 105.851562 608.113281 104.414062 C 608.113281 102.972656 606.941406 101.800781 605.5 101.800781 Z M 605.5 101.800781 " fill-opacity="1" fill-rule="nonzero"/><path fill="#7b98c9" d="M 431.230469 79.382812 L 431.230469 67.667969 L 422.328125 67.667969 L 422.328125 58.765625 L 410.621094 58.765625 L 410.621094 67.667969 L 399.847656 67.667969 L 399.847656 58.765625 L 388.136719 58.765625 L 388.136719 67.667969 L 379.238281 67.667969 L 379.238281 79.382812 L 388.136719 79.382812 L 388.136719 90.160156 L 379.238281 90.160156 L 379.238281 101.871094 L 388.136719 101.871094 L 388.136719 110.773438 L 399.847656 110.773438 L 399.847656 101.871094 L 410.621094 101.871094 L 410.621094 110.773438 L 422.328125 110.773438 L 422.328125 101.871094 L 431.230469 101.871094 L 431.230469 90.160156 L 422.328125 90.160156 L 422.328125 79.382812 Z M 410.621094 90.160156 L 399.847656 90.160156 L 399.847656 79.382812 L 410.621094 79.382812 Z M 410.621094 90.160156 " fill-opacity="1" fill-rule="nonzero"/><path fill="#2d3277" d="M 422.328125 112.957031 L 410.621094 112.957031 C 409.414062 112.957031 408.4375 111.980469 408.4375 110.773438 L 408.4375 104.054688 L 402.027344 104.054688 L 402.027344 110.773438 C 402.027344 111.980469 401.050781 112.957031 399.847656 112.957031 L 388.136719 112.957031 C 386.929688 112.957031 385.957031 111.980469 385.957031 110.773438 L 385.957031 104.054688 L 379.238281 104.054688 C 378.03125 104.054688 377.054688 103.078125 377.054688 101.871094 L 377.054688 90.160156 C 377.054688 88.953125 378.03125 87.976562 379.238281 87.976562 L 385.957031 87.976562 L 385.957031 81.5625 L 379.238281 81.5625 C 378.03125 81.5625 377.054688 80.585938 377.054688 79.382812 L 377.054688 67.667969 C 377.054688 66.464844 378.03125 65.488281 379.238281 65.488281 L 385.957031 65.488281 L 385.957031 58.765625 C 385.957031 57.5625 386.929688 56.585938 388.136719 56.585938 L 399.847656 56.585938 C 401.050781 56.585938 402.027344 57.5625 402.027344 58.765625 L 402.027344 65.488281 L 408.4375 65.488281 L 408.4375 58.765625 C 408.4375 57.5625 409.414062 56.585938 410.621094 56.585938 L 422.328125 56.585938 C 423.535156 56.585938 424.511719 57.5625 424.511719 58.765625 L 424.511719 65.488281 L 431.230469 65.488281 C 432.433594 65.488281 433.410156 66.464844 433.410156 67.667969 L 433.410156 79.382812 C 433.410156 80.585938 432.433594 81.5625 431.230469 81.5625 L 424.511719 81.5625 L 424.511719 87.976562 L 431.230469 87.976562 C 432.433594 87.976562 433.410156 88.953125 433.410156 90.160156 L 433.410156 101.871094 C 433.410156 103.078125 432.433594 104.054688 431.230469 104.054688 L 424.511719 104.054688 L 424.511719 110.773438 C 424.511719 111.980469 423.535156 112.957031 422.328125 112.957031 Z M 412.800781 108.59375 L 420.148438 108.59375 L 420.148438 101.871094 C 420.148438 100.667969 421.125 99.691406 422.328125 99.691406 L 429.046875 99.691406 L 429.046875 92.339844 L 422.328125 92.339844 C 421.125 92.339844 420.148438 91.363281 420.148438 90.160156 L 420.148438 79.382812 C 420.148438 78.175781 421.125 77.199219 422.328125 77.199219 L 429.046875 77.199219 L 429.046875 69.851562 L 422.328125 69.851562 C 421.125 69.851562 420.148438 68.875 420.148438 67.667969 L 420.148438 60.949219 L 412.800781 60.949219 L 412.800781 67.667969 C 412.800781 68.875 411.824219 69.851562 410.621094 69.851562 L 399.847656 69.851562 C 398.640625 69.851562 397.664062 68.875 397.664062 67.667969 L 397.664062 60.949219 L 390.316406 60.949219 L 390.316406 67.667969 C 390.316406 68.875 389.339844 69.851562 388.136719 69.851562 L 381.417969 69.851562 L 381.417969 77.199219 L 388.136719 77.199219 C 389.339844 77.199219 390.316406 78.175781 390.316406 79.382812 L 390.316406 90.160156 C 390.316406 91.363281 389.339844 92.339844 388.136719 92.339844 L 381.417969 92.339844 L 381.417969 99.691406 L 388.136719 99.691406 C 389.339844 99.691406 390.316406 100.667969 390.316406 101.871094 L 390.316406 108.59375 L 397.664062 108.59375 L 397.664062 101.871094 C 397.664062 100.667969 398.640625 99.691406 399.847656 99.691406 L 410.621094 99.691406 C 411.824219 99.691406 412.800781 100.667969 412.800781 101.871094 Z M 410.621094 92.339844 L 399.847656 92.339844 C 398.640625 92.339844 397.664062 91.363281 397.664062 90.160156 L 397.664062 79.382812 C 397.664062 78.175781 398.640625 77.199219 399.847656 77.199219 L 410.621094 77.199219 C 411.824219 77.199219 412.800781 78.175781 412.800781 79.382812 L 412.800781 90.160156 C 412.800781 91.363281 411.824219 92.339844 410.621094 92.339844 Z M 402.027344 87.976562 L 408.4375 87.976562 L 408.4375 81.5625 L 402.027344 81.5625 Z M 402.027344 87.976562 " fill-opacity="1" fill-rule="nonzero"/><path fill="#ffffff" d="M 255.917969 414.046875 L 210.882812 414.046875 C 202.804688 414.046875 196.253906 407.496094 196.253906 399.414062 L 196.253906 354.363281 C 196.253906 346.28125 202.804688 339.730469 210.882812 339.730469 L 255.917969 339.730469 C 263.996094 339.730469 270.546875 346.28125 270.546875 354.363281 L 270.546875 399.414062 C 270.546875 407.496094 263.996094 414.046875 255.917969 414.046875 Z M 255.917969 414.046875 " fill-opacity="1" fill-rule="nonzero"/><path fill="#2d3277" d="M 256.007812 416.226562 L 210.796875 416.226562 C 201.574219 416.226562 194.074219 408.726562 194.074219 399.503906 L 194.074219 354.277344 C 194.074219 345.050781 201.574219 337.550781 210.796875 337.550781 L 256.007812 337.550781 C 265.226562 337.550781 272.726562 345.050781 272.726562 354.277344 L 272.726562 399.503906 C 272.726562 408.726562 265.226562 416.226562 256.007812 416.226562 Z M 210.796875 341.914062 C 203.980469 341.914062 198.4375 347.457031 198.4375 354.277344 L 198.4375 399.503906 C 198.4375 406.316406 203.980469 411.863281 210.796875 411.863281 L 256.007812 411.863281 C 262.820312 411.863281 268.367188 406.316406 268.367188 399.503906 L 268.367188 354.277344 C 268.367188 347.457031 262.820312 341.914062 256.007812 341.914062 Z M 210.796875 341.914062 " fill-opacity="1" fill-rule="nonzero"/><path fill="#fff159" d="M 370.648438 414.046875 L 325.609375 414.046875 C 317.53125 414.046875 310.984375 407.496094 310.984375 399.414062 L 310.984375 354.363281 C 310.984375 346.28125 317.53125 339.730469 325.609375 339.730469 L 370.648438 339.730469 C 378.726562 339.730469 385.273438 346.28125 385.273438 354.363281 L 385.273438 399.414062 C 385.273438 407.496094 378.726562 414.046875 370.648438 414.046875 Z M 370.648438 414.046875 " fill-opacity="1" fill-rule="nonzero"/><path fill="#2d3277" d="M 370.734375 416.226562 L 325.523438 416.226562 C 316.304688 416.226562 308.804688 408.726562 308.804688 399.503906 L 308.804688 354.277344 C 308.804688 345.050781 316.304688 337.550781 325.523438 337.550781 L 370.734375 337.550781 C 379.957031 337.550781 387.457031 345.050781 387.457031 354.277344 L 387.457031 399.503906 C 387.457031 408.726562 379.957031 416.226562 370.734375 416.226562 Z M 325.523438 341.914062 C 318.707031 341.914062 313.164062 347.457031 313.164062 354.277344 L 313.164062 399.503906 C 313.164062 406.316406 318.707031 411.863281 325.523438 411.863281 L 370.734375 411.863281 C 377.550781 411.863281 383.09375 406.316406 383.09375 399.503906 L 383.09375 354.277344 C 383.09375 347.457031 377.550781 341.914062 370.734375 341.914062 Z M 325.523438 341.914062 " fill-opacity="1" fill-rule="nonzero"/><path fill="#7b98c9" d="M 485.375 414.046875 L 440.339844 414.046875 C 432.261719 414.046875 425.710938 407.496094 425.710938 399.414062 L 425.710938 354.363281 C 425.710938 346.28125 432.261719 339.730469 440.339844 339.730469 L 485.375 339.730469 C 493.453125 339.730469 500.003906 346.28125 500.003906 354.363281 L 500.003906 399.414062 C 500.003906 407.496094 493.453125 414.046875 485.375 414.046875 Z M 485.375 414.046875 " fill-opacity="1" fill-rule="nonzero"/><path fill="#2d3277" d="M 485.464844 416.226562 L 440.25 416.226562 C 431.03125 416.226562 423.53125 408.726562 423.53125 399.503906 L 423.53125 354.277344 C 423.53125 345.050781 431.03125 337.550781 440.25 337.550781 L 485.464844 337.550781 C 494.683594 337.550781 502.183594 345.050781 502.183594 354.277344 L 502.183594 399.503906 C 502.183594 408.726562 494.683594 416.226562 485.464844 416.226562 Z M 440.25 341.914062 C 433.4375 341.914062 427.894531 347.457031 427.894531 354.277344 L 427.894531 399.503906 C 427.894531 406.316406 433.4375 411.863281 440.25 411.863281 L 485.464844 411.863281 C 492.277344 411.863281 497.820312 406.316406 497.820312 399.503906 L 497.820312 354.277344 C 497.820312 347.457031 492.277344 341.914062 485.464844 341.914062 Z M 440.25 341.914062 " fill-opacity="1" fill-rule="nonzero"/><path fill="#ffd100" d="M 600.105469 414.046875 L 555.066406 414.046875 C 546.988281 414.046875 540.441406 407.496094 540.441406 399.414062 L 540.441406 354.363281 C 540.441406 346.28125 546.988281 339.730469 555.066406 339.730469 L 600.105469 339.730469 C 608.183594 339.730469 614.730469 346.28125 614.730469 354.363281 L 614.730469 399.414062 C 614.730469 407.496094 608.183594 414.046875 600.105469 414.046875 Z M 600.105469 414.046875 " fill-opacity="1" fill-rule="nonzero"/><path fill="#2d3277" d="M 600.191406 416.226562 L 554.980469 416.226562 C 545.761719 416.226562 538.257812 408.726562 538.257812 399.503906 L 538.257812 354.277344 C 538.257812 345.050781 545.761719 337.550781 554.980469 337.550781 L 600.191406 337.550781 C 609.410156 337.550781 616.914062 345.050781 616.914062 354.277344 L 616.914062 399.503906 C 616.914062 408.726562 609.410156 416.226562 600.191406 416.226562 Z M 554.980469 341.914062 C 548.164062 341.914062 542.621094 347.457031 542.621094 354.277344 L 542.621094 399.503906 C 542.621094 406.316406 548.164062 411.863281 554.980469 411.863281 L 600.191406 411.863281 C 607.007812 411.863281 612.550781 406.316406 612.550781 399.503906 L 612.550781 354.277344 C 612.550781 347.457031 607.007812 341.914062 600.191406 341.914062 Z M 554.980469 341.914062 " fill-opacity="1" fill-rule="nonzero"/><g clip-path="url(#id3)"><path fill="#2d3277" d="M 652.902344 441.324219 L 157.03125 441.324219 C 155.828125 441.324219 154.851562 440.347656 154.851562 439.144531 C 154.851562 437.9375 155.828125 436.960938 157.03125 436.960938 L 652.902344 436.960938 C 654.109375 436.960938 655.085938 437.9375 655.085938 439.144531 C 655.085938 440.347656 654.109375 441.324219 652.902344 441.324219 Z M 652.902344 441.324219 " fill-opacity="1" fill-rule="nonzero"/></g><g clip-path="url(#id4)"><path fill="#2d3277" d="M 652.902344 521.777344 L 157.03125 521.777344 C 155.828125 521.777344 154.851562 520.800781 154.851562 519.597656 C 154.851562 518.390625 155.828125 517.414062 157.03125 517.414062 L 652.902344 517.414062 C 654.109375 517.414062 655.085938 518.390625 655.085938 519.597656 C 655.085938 520.800781 654.109375 521.777344 652.902344 521.777344 Z M 652.902344 521.777344 " fill-opacity="1" fill-rule="nonzero"/></g><path fill="#2d3277" d="M 305.425781 466.699219 L 190.460938 466.699219 C 189.253906 466.699219 188.277344 465.722656 188.277344 464.519531 C 188.277344 463.3125 189.253906 462.335938 190.460938 462.335938 L 305.425781 462.335938 C 306.628906 462.335938 307.605469 463.3125 307.605469 464.519531 C 307.605469 465.722656 306.628906 466.699219 305.425781 466.699219 Z M 305.425781 466.699219 " fill-opacity="1" fill-rule="nonzero"/><path fill="#2d3277" d="M 247.15625 494.488281 L 190.460938 494.488281 C 189.253906 494.488281 188.277344 493.511719 188.277344 492.308594 C 188.277344 491.101562 189.253906 490.125 190.460938 490.125 L 247.15625 490.125 C 248.359375 490.125 249.335938 491.101562 249.335938 492.308594 C 249.335938 493.511719 248.359375 494.488281 247.15625 494.488281 Z M 247.15625 494.488281 " fill-opacity="1" fill-rule="nonzero"/><path fill="#2d3277" d="M 337.03125 494.488281 L 267.082031 494.488281 C 265.875 494.488281 264.902344 493.511719 264.902344 492.308594 C 264.902344 491.101562 265.875 490.125 267.082031 490.125 L 337.03125 490.125 C 338.234375 490.125 339.210938 491.101562 339.210938 492.308594 C 339.210938 493.511719 338.234375 494.488281 337.03125 494.488281 Z M 337.03125 494.488281 " fill-opacity="1" fill-rule="nonzero"/><path fill="#2d3277" d="M 478.191406 495.585938 C 476.984375 495.585938 476.007812 494.609375 476.007812 493.40625 L 476.007812 470.121094 L 474.152344 471.976562 C 473.300781 472.828125 471.921875 472.828125 471.070312 471.976562 C 470.21875 471.125 470.21875 469.742188 471.070312 468.890625 L 476.648438 463.308594 C 477.269531 462.6875 478.207031 462.5 479.023438 462.835938 C 479.839844 463.175781 480.371094 463.972656 480.371094 464.851562 L 480.371094 493.40625 C 480.371094 494.609375 479.394531 495.585938 478.191406 495.585938 Z M 478.191406 495.585938 " fill-opacity="1" fill-rule="nonzero"/><path fill="#2d3277" d="M 485.195312 495.585938 L 472.609375 495.585938 C 471.40625 495.585938 470.429688 494.609375 470.429688 493.40625 C 470.429688 492.199219 471.40625 491.222656 472.609375 491.222656 L 485.195312 491.222656 C 486.398438 491.222656 487.375 492.199219 487.375 493.40625 C 487.375 494.609375 486.398438 495.585938 485.195312 495.585938 Z M 485.195312 495.585938 " fill-opacity="1" fill-rule="nonzero"/><path fill="#2d3277" d="M 502.839844 495.585938 C 501.636719 495.585938 500.660156 494.609375 500.660156 493.40625 L 500.660156 470.121094 L 498.804688 471.976562 C 497.953125 472.828125 496.570312 472.828125 495.71875 471.976562 C 494.867188 471.125 494.867188 469.742188 495.71875 468.890625 L 501.300781 463.308594 C 501.921875 462.6875 502.859375 462.5 503.675781 462.835938 C 504.492188 463.175781 505.023438 463.972656 505.023438 464.851562 L 505.023438 493.40625 C 505.023438 494.609375 504.046875 495.585938 502.839844 495.585938 Z M 502.839844 495.585938 " fill-opacity="1" fill-rule="nonzero"/><path fill="#2d3277" d="M 509.847656 495.585938 L 497.261719 495.585938 C 496.058594 495.585938 495.082031 494.609375 495.082031 493.40625 C 495.082031 492.199219 496.058594 491.222656 497.261719 491.222656 L 509.847656 491.222656 C 511.050781 491.222656 512.027344 492.199219 512.027344 493.40625 C 512.027344 494.609375 511.050781 495.585938 509.847656 495.585938 Z M 509.847656 495.585938 " fill-opacity="1" fill-rule="nonzero"/><path fill="#2d3277" d="M 540.535156 495.585938 L 527.953125 495.585938 C 527.144531 495.585938 526.402344 495.140625 526.023438 494.425781 C 525.644531 493.714844 525.691406 492.847656 526.148438 492.179688 L 538.355469 474.175781 L 538.355469 471.148438 C 538.355469 468.878906 536.511719 467.035156 534.242188 467.035156 C 531.976562 467.035156 530.132812 468.878906 530.132812 471.148438 L 530.132812 475.332031 C 530.132812 476.539062 529.15625 477.515625 527.953125 477.515625 C 526.746094 477.515625 525.769531 476.539062 525.769531 475.332031 L 525.769531 471.148438 C 525.769531 466.472656 529.570312 462.671875 534.242188 462.671875 C 538.917969 462.671875 542.71875 466.472656 542.71875 471.148438 L 542.71875 474.847656 C 542.71875 475.28125 542.585938 475.710938 542.339844 476.070312 L 532.066406 491.222656 L 540.535156 491.222656 C 541.742188 491.222656 542.71875 492.199219 542.71875 493.40625 C 542.71875 494.609375 541.742188 495.585938 540.535156 495.585938 Z M 540.535156 495.585938 " fill-opacity="1" fill-rule="nonzero"/><path fill="#2d3277" d="M 558.179688 495.585938 C 556.976562 495.585938 556 494.609375 556 493.40625 L 556 483 L 546.894531 483 C 546.078125 483 545.332031 482.542969 544.957031 481.820312 C 544.582031 481.09375 544.640625 480.222656 545.113281 479.558594 L 556.402344 463.59375 C 556.949219 462.816406 557.9375 462.484375 558.84375 462.773438 C 559.746094 463.0625 560.363281 463.902344 560.363281 464.851562 L 560.363281 478.636719 L 565.1875 478.636719 C 566.390625 478.636719 567.367188 479.613281 567.367188 480.816406 C 567.367188 482.019531 566.390625 483 565.1875 483 L 560.363281 483 L 560.363281 493.40625 C 560.363281 494.609375 559.386719 495.585938 558.179688 495.585938 Z M 551.109375 478.636719 L 556 478.636719 L 556 471.714844 Z M 551.109375 478.636719 " fill-opacity="1" fill-rule="nonzero"/><path fill="#2d3277" d="M 589.585938 495.585938 L 583.292969 495.585938 C 582.085938 495.585938 581.109375 494.609375 581.109375 493.40625 C 581.109375 492.199219 582.085938 491.222656 583.292969 491.222656 L 589.585938 491.222656 C 591.851562 491.222656 593.695312 489.378906 593.695312 487.113281 C 593.695312 484.84375 591.851562 483 589.585938 483 L 583.292969 483 C 582.085938 483 581.109375 482.019531 581.109375 480.816406 L 581.109375 464.851562 C 581.109375 463.648438 582.085938 462.671875 583.292969 462.671875 L 595.875 462.671875 C 597.082031 462.671875 598.058594 463.648438 598.058594 464.851562 C 598.058594 466.058594 597.082031 467.035156 595.875 467.035156 L 585.472656 467.035156 L 585.472656 478.636719 L 589.585938 478.636719 C 594.257812 478.636719 598.058594 482.4375 598.058594 487.113281 C 598.058594 491.785156 594.257812 495.585938 589.585938 495.585938 Z M 589.585938 495.585938 " fill-opacity="1" fill-rule="nonzero"/><path fill="#2d3277" d="M 613.523438 495.585938 C 612.316406 495.585938 611.339844 494.609375 611.339844 493.40625 L 611.339844 470.121094 L 609.484375 471.976562 C 608.632812 472.828125 607.253906 472.828125 606.402344 471.976562 C 605.550781 471.125 605.550781 469.742188 606.402344 468.890625 L 611.980469 463.308594 C 612.601562 462.6875 613.539062 462.5 614.355469 462.835938 C 615.171875 463.175781 615.703125 463.972656 615.703125 464.851562 L 615.703125 493.40625 C 615.703125 494.609375 614.726562 495.585938 613.523438 495.585938 Z M 613.523438 495.585938 " fill-opacity="1" fill-rule="nonzero"/><path fill="#2d3277" d="M 620.527344 495.585938 L 607.941406 495.585938 C 606.738281 495.585938 605.761719 494.609375 605.761719 493.40625 C 605.761719 492.199219 606.738281 491.222656 607.941406 491.222656 L 620.527344 491.222656 C 621.734375 491.222656 622.707031 492.199219 622.707031 493.40625 C 622.707031 494.609375 621.734375 495.585938 620.527344 495.585938 Z M 620.527344 495.585938 " fill-opacity="1" fill-rule="nonzero"/><path fill="#2d3277" d="M 520.101562 471.050781 C 520.101562 471.476562 520.023438 471.886719 519.859375 472.28125 C 519.695312 472.675781 519.464844 473.023438 519.164062 473.324219 C 518.859375 473.625 518.511719 473.855469 518.121094 474.019531 C 517.726562 474.183594 517.316406 474.265625 516.890625 474.265625 C 516.464844 474.265625 516.054688 474.183594 515.660156 474.019531 C 515.269531 473.855469 514.921875 473.625 514.621094 473.324219 C 514.320312 473.023438 514.085938 472.675781 513.921875 472.28125 C 513.761719 471.886719 513.679688 471.476562 513.679688 471.050781 C 513.679688 470.625 513.761719 470.214844 513.921875 469.820312 C 514.085938 469.429688 514.320312 469.082031 514.621094 468.777344 C 514.921875 468.476562 515.269531 468.246094 515.660156 468.082031 C 516.054688 467.917969 516.464844 467.839844 516.890625 467.839844 C 517.316406 467.839844 517.726562 467.917969 518.121094 468.082031 C 518.511719 468.246094 518.859375 468.476562 519.164062 468.777344 C 519.464844 469.082031 519.695312 469.429688 519.859375 469.820312 C 520.023438 470.214844 520.101562 470.625 520.101562 471.050781 Z M 520.101562 471.050781 " fill-opacity="1" fill-rule="nonzero"/><path fill="#2d3277" d="M 520.101562 484.03125 C 520.101562 484.457031 520.023438 484.867188 519.859375 485.257812 C 519.695312 485.652344 519.464844 486 519.164062 486.300781 C 518.859375 486.601562 518.511719 486.835938 518.121094 487 C 517.726562 487.160156 517.316406 487.242188 516.890625 487.242188 C 516.464844 487.242188 516.054688 487.160156 515.660156 487 C 515.269531 486.835938 514.921875 486.601562 514.621094 486.300781 C 514.320312 486 514.085938 485.652344 513.921875 485.257812 C 513.761719 484.867188 513.679688 484.457031 513.679688 484.03125 C 513.679688 483.605469 513.761719 483.195312 513.921875 482.800781 C 514.085938 482.40625 514.320312 482.058594 514.621094 481.757812 C 514.921875 481.457031 515.269531 481.222656 515.660156 481.0625 C 516.054688 480.898438 516.464844 480.816406 516.890625 480.816406 C 517.316406 480.816406 517.726562 480.898438 518.121094 481.0625 C 518.511719 481.222656 518.859375 481.457031 519.164062 481.757812 C 519.464844 482.058594 519.695312 482.40625 519.859375 482.800781 C 520.023438 483.195312 520.101562 483.605469 520.101562 484.03125 Z M 520.101562 484.03125 " fill-opacity="1" fill-rule="nonzero"/><path fill="#2d3277" d="M 575.761719 471.050781 C 575.761719 471.476562 575.679688 471.886719 575.519531 472.28125 C 575.355469 472.675781 575.121094 473.023438 574.820312 473.324219 C 574.519531 473.625 574.171875 473.855469 573.78125 474.019531 C 573.386719 474.183594 572.976562 474.265625 572.550781 474.265625 C 572.125 474.265625 571.714844 474.183594 571.320312 474.019531 C 570.925781 473.855469 570.582031 473.625 570.277344 473.324219 C 569.976562 473.023438 569.746094 472.675781 569.582031 472.28125 C 569.417969 471.886719 569.339844 471.476562 569.339844 471.050781 C 569.339844 470.625 569.417969 470.214844 569.582031 469.820312 C 569.746094 469.429688 569.976562 469.082031 570.277344 468.777344 C 570.582031 468.476562 570.925781 468.246094 571.320312 468.082031 C 571.714844 467.917969 572.125 467.839844 572.550781 467.839844 C 572.976562 467.839844 573.386719 467.917969 573.78125 468.082031 C 574.171875 468.246094 574.519531 468.476562 574.820312 468.777344 C 575.121094 469.082031 575.355469 469.429688 575.519531 469.820312 C 575.679688 470.214844 575.761719 470.625 575.761719 471.050781 Z M 575.761719 471.050781 " fill-opacity="1" fill-rule="nonzero"/><path fill="#2d3277" d="M 575.761719 484.03125 C 575.761719 484.457031 575.679688 484.867188 575.519531 485.257812 C 575.355469 485.652344 575.121094 486 574.820312 486.300781 C 574.519531 486.601562 574.171875 486.835938 573.78125 487 C 573.386719 487.160156 572.976562 487.242188 572.550781 487.242188 C 572.125 487.242188 571.714844 487.160156 571.320312 487 C 570.925781 486.835938 570.582031 486.601562 570.277344 486.300781 C 569.976562 486 569.746094 485.652344 569.582031 485.257812 C 569.417969 484.867188 569.339844 484.457031 569.339844 484.03125 C 569.339844 483.605469 569.417969 483.195312 569.582031 482.800781 C 569.746094 482.40625 569.976562 482.058594 570.277344 481.757812 C 570.582031 481.457031 570.925781 481.222656 571.320312 481.0625 C 571.714844 480.898438 572.125 480.816406 572.550781 480.816406 C 572.976562 480.816406 573.386719 480.898438 573.78125 481.0625 C 574.171875 481.222656 574.519531 481.457031 574.820312 481.757812 C 575.121094 482.058594 575.355469 482.40625 575.519531 482.800781 C 575.679688 483.195312 575.761719 483.605469 575.761719 484.03125 Z M 575.761719 484.03125 " fill-opacity="1" fill-rule="nonzero"/><path fill="#fff159" d="M 436.5 494.488281 C 435.484375 494.488281 434.511719 494.007812 433.894531 493.199219 C 433.289062 492.398438 433.097656 491.375 433.371094 490.386719 L 435.421875 483 L 426.761719 483 C 425.746094 483 424.78125 482.511719 424.171875 481.699219 C 423.566406 480.886719 423.375 479.816406 423.667969 478.84375 L 427.890625 464.644531 C 428.296875 463.285156 429.570312 462.335938 430.988281 462.335938 L 439.152344 462.335938 C 440.195312 462.335938 441.179688 462.839844 441.785156 463.691406 C 442.386719 464.539062 442.546875 465.632812 442.210938 466.617188 L 440.328125 472.082031 L 448.410156 472.082031 C 449.640625 472.082031 450.746094 472.765625 451.296875 473.867188 C 451.847656 474.96875 451.734375 476.265625 450.996094 477.25 L 439.070312 493.1875 C 438.453125 494.015625 437.515625 494.488281 436.5 494.488281 Z M 436.5 494.488281 " fill-opacity="1" fill-rule="nonzero"/><path fill="#2d3277" d="M 439.152344 464.519531 C 439.875 464.519531 440.382812 465.226562 440.148438 465.910156 L 437.75 472.871094 C 437.515625 473.554688 438.023438 474.261719 438.742188 474.261719 L 448.410156 474.261719 C 449.273438 474.261719 449.769531 475.25 449.25 475.941406 L 437.324219 491.882812 C 437.101562 492.179688 436.796875 492.308594 436.5 492.308594 C 435.871094 492.308594 435.261719 491.730469 435.472656 490.972656 L 437.921875 482.148438 C 438.105469 481.480469 437.601562 480.816406 436.910156 480.816406 L 426.761719 480.816406 C 426.058594 480.816406 425.554688 480.140625 425.757812 479.46875 L 429.980469 465.269531 C 430.113281 464.824219 430.523438 464.519531 430.988281 464.519531 L 439.152344 464.519531 M 439.152344 460.152344 L 430.988281 460.152344 C 428.613281 460.152344 426.480469 461.746094 425.800781 464.023438 L 421.574219 478.222656 C 421.089844 479.851562 421.40625 481.636719 422.425781 483.003906 C 423.441406 484.367188 425.0625 485.179688 426.761719 485.179688 L 432.550781 485.179688 L 431.269531 489.804688 C 430.8125 491.453125 431.136719 493.171875 432.160156 494.519531 C 433.183594 495.867188 434.808594 496.671875 436.5 496.671875 C 438.207031 496.671875 439.78125 495.878906 440.816406 494.496094 L 452.742188 478.558594 C 453.976562 476.90625 454.171875 474.734375 453.25 472.890625 C 452.324219 471.046875 450.472656 469.898438 448.410156 469.898438 L 443.386719 469.898438 L 444.269531 467.328125 C 444.839844 465.679688 444.574219 463.84375 443.558594 462.425781 C 442.546875 461.003906 440.898438 460.152344 439.152344 460.152344 Z M 439.152344 460.152344 " fill-opacity="1" fill-rule="nonzero"/><path fill="#7b98c9" d="M 341.546875 689.476562 L 232.105469 689.476562 C 224.027344 689.476562 217.480469 682.925781 217.480469 674.84375 L 217.480469 565.367188 C 217.480469 557.289062 224.027344 550.738281 232.105469 550.738281 L 341.546875 550.738281 C 349.625 550.738281 356.175781 557.289062 356.175781 565.367188 L 356.175781 674.84375 C 356.175781 682.925781 349.625 689.476562 341.546875 689.476562 Z M 341.546875 689.476562 " fill-opacity="1" fill-rule="nonzero"/><path fill="#2d3277" d="M 341.632812 691.660156 L 232.019531 691.660156 C 222.800781 691.660156 215.296875 684.15625 215.296875 674.933594 L 215.296875 565.28125 C 215.296875 556.058594 222.800781 548.554688 232.019531 548.554688 L 341.632812 548.554688 C 350.855469 548.554688 358.355469 556.058594 358.355469 565.28125 L 358.355469 674.933594 C 358.355469 684.15625 350.855469 691.660156 341.632812 691.660156 Z M 232.019531 552.917969 C 225.203125 552.917969 219.660156 558.464844 219.660156 565.28125 L 219.660156 674.933594 C 219.660156 681.75 225.203125 687.296875 232.019531 687.296875 L 341.632812 687.296875 C 348.449219 687.296875 353.992188 681.75 353.992188 674.933594 L 353.992188 565.28125 C 353.992188 558.464844 348.449219 552.917969 341.632812 552.917969 Z M 232.019531 552.917969 " fill-opacity="1" fill-rule="nonzero"/><path fill="#7b98c9" d="M 341.632812 550.738281 L 232.019531 550.738281 C 223.988281 550.738281 217.480469 557.25 217.480469 565.28125 L 217.480469 674.933594 C 217.480469 682.964844 223.988281 689.476562 232.019531 689.476562 L 341.632812 689.476562 C 349.664062 689.476562 356.175781 682.964844 356.175781 674.933594 L 356.175781 565.28125 C 356.175781 557.25 349.664062 550.738281 341.632812 550.738281 Z M 341.632812 550.738281 " fill-opacity="1" fill-rule="nonzero"/><path fill="#2d3277" d="M 341.632812 691.660156 L 232.019531 691.660156 C 222.800781 691.660156 215.296875 684.15625 215.296875 674.933594 L 215.296875 565.28125 C 215.296875 556.058594 222.800781 548.554688 232.019531 548.554688 L 341.632812 548.554688 C 350.855469 548.554688 358.355469 556.058594 358.355469 565.28125 L 358.355469 674.933594 C 358.355469 684.15625 350.855469 691.660156 341.632812 691.660156 Z M 232.019531 552.917969 C 225.203125 552.917969 219.660156 558.464844 219.660156 565.28125 L 219.660156 674.933594 C 219.660156 681.75 225.203125 687.296875 232.019531 687.296875 L 341.632812 687.296875 C 348.449219 687.296875 353.992188 681.75 353.992188 674.933594 L 353.992188 565.28125 C 353.992188 558.464844 348.449219 552.917969 341.632812 552.917969 Z M 232.019531 552.917969 " fill-opacity="1" fill-rule="nonzero"/><path fill="#ffd100" d="M 341.632812 723.347656 L 232.019531 723.347656 C 223.988281 723.347656 217.480469 729.863281 217.480469 737.894531 L 217.480469 768.710938 L 356.175781 768.710938 L 356.175781 737.894531 C 356.175781 729.863281 349.664062 723.347656 341.632812 723.347656 Z M 341.632812 723.347656 " fill-opacity="1" fill-rule="nonzero"/><path fill="#2d3277" d="M 356.175781 770.890625 L 217.480469 770.890625 C 216.273438 770.890625 215.296875 769.914062 215.296875 768.710938 L 215.296875 737.894531 C 215.296875 728.671875 222.800781 721.167969 232.019531 721.167969 L 341.632812 721.167969 C 350.855469 721.167969 358.355469 728.671875 358.355469 737.894531 L 358.355469 768.710938 C 358.355469 769.914062 357.378906 770.890625 356.175781 770.890625 Z M 219.660156 766.527344 L 353.992188 766.527344 L 353.992188 737.894531 C 353.992188 731.078125 348.449219 725.53125 341.632812 725.53125 L 232.019531 725.53125 C 225.203125 725.53125 219.660156 731.078125 219.660156 737.894531 Z M 219.660156 766.527344 " fill-opacity="1" fill-rule="nonzero"/><path fill="#fff159" d="M 391 670.390625 L 401.601562 664.816406 L 412.207031 670.390625 L 410.179688 658.582031 L 418.761719 650.214844 L 406.902344 648.492188 L 401.601562 637.746094 L 396.300781 648.492188 L 384.445312 650.214844 L 393.023438 658.582031 Z M 391 670.390625 " fill-opacity="1" fill-rule="nonzero"/><path fill="#2d3277" d="M 412.207031 672.574219 C 411.859375 672.574219 411.511719 672.488281 411.191406 672.324219 L 401.601562 667.28125 L 392.011719 672.324219 C 391.277344 672.707031 390.386719 672.644531 389.714844 672.15625 C 389.042969 671.667969 388.707031 670.839844 388.847656 670.019531 L 390.679688 659.339844 L 382.921875 651.777344 C 382.328125 651.199219 382.113281 650.332031 382.371094 649.539062 C 382.628906 648.75 383.308594 648.175781 384.128906 648.054688 L 394.851562 646.496094 L 399.644531 636.777344 C 400.015625 636.035156 400.773438 635.5625 401.601562 635.5625 C 402.433594 635.5625 403.191406 636.035156 403.558594 636.777344 L 408.351562 646.496094 L 419.074219 648.054688 C 419.894531 648.175781 420.578125 648.75 420.835938 649.539062 C 421.089844 650.332031 420.875 651.199219 420.28125 651.777344 L 412.523438 659.339844 L 414.355469 670.019531 C 414.496094 670.839844 414.160156 671.667969 413.488281 672.15625 C 413.109375 672.433594 412.660156 672.574219 412.207031 672.574219 Z M 401.601562 662.632812 C 401.949219 662.632812 402.300781 662.71875 402.617188 662.882812 L 409.308594 666.402344 L 408.03125 658.949219 C 407.910156 658.242188 408.144531 657.519531 408.660156 657.019531 L 414.074219 651.738281 L 406.589844 650.648438 C 405.878906 650.546875 405.265625 650.101562 404.949219 649.457031 L 401.601562 642.675781 L 398.257812 649.457031 C 397.9375 650.101562 397.324219 650.546875 396.613281 650.648438 L 389.132812 651.738281 L 394.546875 657.019531 C 395.058594 657.519531 395.296875 658.242188 395.171875 658.949219 L 393.894531 666.402344 L 400.585938 662.882812 C 400.90625 662.71875 401.253906 662.632812 401.601562 662.632812 Z M 401.601562 662.632812 " fill-opacity="1" fill-rule="nonzero"/><path fill="#fff159" d="M 450.328125 648.492188 L 445.027344 637.746094 L 439.726562 648.492188 L 427.867188 650.214844 L 436.449219 658.582031 L 434.421875 670.390625 L 445.027344 664.816406 L 455.628906 670.390625 L 453.605469 658.582031 L 462.183594 650.214844 Z M 450.328125 648.492188 " fill-opacity="1" fill-rule="nonzero"/><path fill="#2d3277" d="M 455.628906 672.574219 C 455.285156 672.574219 454.933594 672.488281 454.617188 672.324219 L 445.027344 667.28125 L 435.4375 672.324219 C 434.703125 672.707031 433.8125 672.644531 433.140625 672.15625 C 432.46875 671.667969 432.132812 670.839844 432.273438 670.019531 L 434.105469 659.339844 L 426.347656 651.777344 C 425.75 651.199219 425.539062 650.332031 425.792969 649.539062 C 426.050781 648.75 426.734375 648.175781 427.554688 648.054688 L 438.277344 646.496094 L 443.070312 636.777344 C 443.4375 636.035156 444.195312 635.5625 445.027344 635.5625 C 445.855469 635.5625 446.613281 636.035156 446.980469 636.777344 L 451.777344 646.496094 L 462.496094 648.054688 C 463.320312 648.175781 464 648.75 464.257812 649.539062 C 464.515625 650.332031 464.300781 651.199219 463.707031 651.777344 L 455.949219 659.339844 L 457.78125 670.019531 C 457.921875 670.839844 457.585938 671.667969 456.914062 672.15625 C 456.53125 672.433594 456.082031 672.574219 455.628906 672.574219 Z M 445.027344 662.632812 C 445.375 662.632812 445.722656 662.71875 446.039062 662.882812 L 452.734375 666.402344 L 451.453125 658.949219 C 451.332031 658.242188 451.570312 657.519531 452.082031 657.019531 L 457.496094 651.738281 L 450.015625 650.648438 C 449.304688 650.546875 448.691406 650.101562 448.371094 649.457031 L 445.027344 642.675781 L 441.679688 649.457031 C 441.363281 650.101562 440.75 650.546875 440.039062 650.648438 L 432.554688 651.738281 L 437.96875 657.019531 C 438.484375 657.519531 438.71875 658.242188 438.597656 658.949219 L 437.320312 666.402344 L 444.011719 662.882812 C 444.328125 662.71875 444.675781 662.632812 445.027344 662.632812 Z M 445.027344 662.632812 " fill-opacity="1" fill-rule="nonzero"/><path fill="#fff159" d="M 493.753906 648.492188 L 488.449219 637.746094 L 483.148438 648.492188 L 471.292969 650.214844 L 479.871094 658.582031 L 477.847656 670.390625 L 488.449219 664.816406 L 499.054688 670.390625 L 497.027344 658.582031 L 505.609375 650.214844 Z M 493.753906 648.492188 " fill-opacity="1" fill-rule="nonzero"/><path fill="#2d3277" d="M 499.054688 672.574219 C 498.707031 672.574219 498.359375 672.488281 498.039062 672.324219 L 488.449219 667.28125 L 478.863281 672.324219 C 478.128906 672.707031 477.238281 672.644531 476.566406 672.15625 C 475.894531 671.667969 475.558594 670.839844 475.695312 670.019531 L 477.527344 659.339844 L 469.769531 651.777344 C 469.175781 651.199219 468.960938 650.332031 469.21875 649.539062 C 469.476562 648.75 470.15625 648.175781 470.980469 648.054688 L 481.699219 646.496094 L 486.496094 636.777344 C 486.863281 636.035156 487.621094 635.5625 488.449219 635.5625 C 489.28125 635.5625 490.039062 636.035156 490.40625 636.777344 L 495.199219 646.496094 L 505.921875 648.054688 C 506.742188 648.175781 507.425781 648.75 507.683594 649.539062 C 507.9375 650.332031 507.726562 651.199219 507.128906 651.777344 L 499.371094 659.339844 L 501.203125 670.019531 C 501.34375 670.839844 501.007812 671.667969 500.335938 672.15625 C 499.957031 672.433594 499.507812 672.574219 499.054688 672.574219 Z M 488.449219 662.632812 C 488.800781 662.632812 489.148438 662.71875 489.464844 662.882812 L 496.15625 666.402344 L 494.878906 658.949219 C 494.757812 658.242188 494.992188 657.519531 495.507812 657.019531 L 500.921875 651.738281 L 493.4375 650.648438 C 492.730469 650.546875 492.113281 650.101562 491.796875 649.457031 L 488.449219 642.675781 L 485.105469 649.457031 C 484.785156 650.101562 484.171875 650.546875 483.460938 650.648438 L 475.980469 651.738281 L 481.394531 657.019531 C 481.910156 657.519531 482.144531 658.242188 482.023438 658.949219 L 480.742188 666.402344 L 487.4375 662.882812 C 487.753906 662.71875 488.101562 662.632812 488.449219 662.632812 Z M 488.449219 662.632812 " fill-opacity="1" fill-rule="nonzero"/><path fill="#fff159" d="M 537.175781 648.492188 L 531.875 637.746094 L 526.574219 648.492188 L 514.71875 650.214844 L 523.296875 658.582031 L 521.269531 670.390625 L 531.875 664.816406 L 542.480469 670.390625 L 540.453125 658.582031 L 549.03125 650.214844 Z M 537.175781 648.492188 " fill-opacity="1" fill-rule="nonzero"/><path fill="#2d3277" d="M 521.269531 672.574219 C 520.820312 672.574219 520.367188 672.433594 519.988281 672.15625 C 519.316406 671.667969 518.980469 670.839844 519.121094 670.019531 L 520.953125 659.339844 L 513.195312 651.777344 C 512.601562 651.199219 512.386719 650.332031 512.644531 649.539062 C 512.898438 648.75 513.582031 648.175781 514.402344 648.054688 L 525.125 646.496094 L 529.917969 636.777344 C 530.285156 636.035156 531.042969 635.5625 531.875 635.5625 C 532.703125 635.5625 533.460938 636.035156 533.832031 636.777344 L 538.625 646.496094 L 549.347656 648.054688 C 550.167969 648.175781 550.851562 648.75 551.109375 649.539062 C 551.363281 650.332031 551.148438 651.199219 550.554688 651.777344 L 542.796875 659.339844 L 544.628906 670.019531 C 544.769531 670.839844 544.433594 671.667969 543.761719 672.15625 C 543.089844 672.644531 542.199219 672.707031 541.464844 672.324219 L 531.875 667.28125 L 522.285156 672.324219 C 521.964844 672.488281 521.617188 672.574219 521.269531 672.574219 Z M 531.875 662.632812 C 532.222656 662.632812 532.570312 662.71875 532.890625 662.882812 L 539.582031 666.402344 L 538.304688 658.949219 C 538.183594 658.242188 538.417969 657.519531 538.933594 657.019531 L 544.347656 651.738281 L 536.863281 650.648438 C 536.152344 650.546875 535.539062 650.101562 535.222656 649.457031 L 531.875 642.675781 L 528.53125 649.457031 C 528.210938 650.101562 527.597656 650.546875 526.886719 650.648438 L 519.402344 651.738281 L 524.820312 657.019531 C 525.332031 657.519531 525.566406 658.242188 525.445312 658.949219 L 524.167969 666.402344 L 530.859375 662.882812 C 531.175781 662.71875 531.527344 662.632812 531.875 662.632812 Z M 531.875 662.632812 " fill-opacity="1" fill-rule="nonzero"/><path fill="#ffffff" d="M 580.601562 648.492188 L 575.300781 637.746094 L 569.996094 648.492188 L 558.140625 650.214844 L 566.722656 658.582031 L 564.695312 670.390625 L 575.300781 664.816406 L 585.902344 670.390625 L 583.878906 658.582031 L 592.457031 650.214844 Z M 580.601562 648.492188 " fill-opacity="1" fill-rule="nonzero"/><path fill="#2d3277" d="M 585.902344 672.574219 C 585.554688 672.574219 585.207031 672.488281 584.890625 672.324219 L 575.300781 667.28125 L 565.710938 672.324219 C 564.976562 672.707031 564.085938 672.644531 563.414062 672.15625 C 562.742188 671.667969 562.40625 670.839844 562.546875 670.019531 L 564.378906 659.339844 L 556.621094 651.777344 C 556.023438 651.199219 555.8125 650.332031 556.066406 649.539062 C 556.324219 648.75 557.007812 648.175781 557.828125 648.054688 L 568.550781 646.496094 L 573.34375 636.777344 C 573.710938 636.035156 574.46875 635.5625 575.300781 635.5625 C 576.128906 635.5625 576.886719 636.035156 577.253906 636.777344 L 582.050781 646.496094 L 592.769531 648.054688 C 593.59375 648.175781 594.273438 648.75 594.53125 649.539062 C 594.789062 650.332031 594.574219 651.199219 593.980469 651.777344 L 586.222656 659.339844 L 588.054688 670.019531 C 588.191406 670.839844 587.855469 671.667969 587.183594 672.15625 C 586.804688 672.433594 586.355469 672.574219 585.902344 672.574219 Z M 575.300781 662.632812 C 575.648438 662.632812 575.996094 662.71875 576.3125 662.882812 L 583.007812 666.402344 L 581.726562 658.949219 C 581.605469 658.242188 581.839844 657.519531 582.355469 657.019531 L 587.769531 651.738281 L 580.289062 650.648438 C 579.578125 650.546875 578.964844 650.101562 578.644531 649.457031 L 575.300781 642.675781 L 571.953125 649.457031 C 571.636719 650.101562 571.023438 650.546875 570.3125 650.648438 L 562.828125 651.738281 L 568.242188 657.019531 C 568.757812 657.519531 568.992188 658.242188 568.871094 658.949219 L 567.59375 666.402344 L 574.285156 662.882812 C 574.601562 662.71875 574.949219 662.632812 575.300781 662.632812 Z M 575.300781 662.632812 " fill-opacity="1" fill-rule="nonzero"/><path fill="#2d3277" d="M 476.691406 572.003906 L 386.195312 572.003906 C 384.992188 572.003906 384.015625 571.027344 384.015625 569.824219 C 384.015625 568.617188 384.992188 567.640625 386.195312 567.640625 L 476.691406 567.640625 C 477.894531 567.640625 478.871094 568.617188 478.871094 569.824219 C 478.871094 571.027344 477.894531 572.003906 476.691406 572.003906 Z M 476.691406 572.003906 " fill-opacity="1" fill-rule="nonzero"/><path fill="#2d3277" d="M 450.3125 606.914062 L 386.195312 606.914062 C 384.992188 606.914062 384.015625 605.933594 384.015625 604.730469 C 384.015625 603.527344 384.992188 602.550781 386.195312 602.550781 L 450.3125 602.550781 C 451.515625 602.550781 452.492188 603.527344 452.492188 604.730469 C 452.492188 605.933594 451.515625 606.914062 450.3125 606.914062 Z M 450.3125 606.914062 " fill-opacity="1" fill-rule="nonzero"/><path fill="#fff159" d="M 401.601562 637.746094 L 406.902344 648.492188 L 418.757812 650.214844 L 410.179688 658.582031 L 412.207031 670.390625 L 401.601562 664.816406 L 391 670.390625 L 393.023438 658.582031 L 384.445312 650.214844 L 396.300781 648.492188 Z M 401.601562 637.746094 " fill-opacity="1" fill-rule="nonzero"/><path fill="#2d3277" d="M 412.207031 672.574219 C 411.859375 672.574219 411.511719 672.488281 411.191406 672.324219 L 401.601562 667.28125 L 392.011719 672.324219 C 391.277344 672.707031 390.386719 672.644531 389.714844 672.15625 C 389.042969 671.667969 388.707031 670.839844 388.847656 670.019531 L 390.679688 659.339844 L 382.921875 651.777344 C 382.328125 651.199219 382.113281 650.332031 382.371094 649.539062 C 382.628906 648.75 383.308594 648.175781 384.128906 648.054688 L 394.851562 646.5 L 399.644531 636.78125 C 400.015625 636.035156 400.773438 635.5625 401.601562 635.5625 C 402.433594 635.5625 403.191406 636.035156 403.558594 636.78125 L 408.351562 646.5 L 419.074219 648.054688 C 419.894531 648.175781 420.578125 648.75 420.835938 649.539062 C 421.089844 650.332031 420.875 651.199219 420.28125 651.777344 L 412.523438 659.339844 L 414.355469 670.019531 C 414.496094 670.839844 414.160156 671.667969 413.488281 672.15625 C 413.109375 672.433594 412.660156 672.574219 412.207031 672.574219 Z M 401.601562 662.632812 C 401.949219 662.632812 402.300781 662.71875 402.617188 662.882812 L 409.308594 666.402344 L 408.03125 658.949219 C 407.910156 658.242188 408.144531 657.519531 408.660156 657.019531 L 414.074219 651.738281 L 406.589844 650.652344 C 405.878906 650.546875 405.265625 650.101562 404.949219 649.457031 L 401.601562 642.675781 L 398.257812 649.457031 C 397.9375 650.101562 397.324219 650.546875 396.613281 650.652344 L 389.132812 651.738281 L 394.546875 657.019531 C 395.058594 657.519531 395.296875 658.242188 395.171875 658.949219 L 393.894531 666.402344 L 400.585938 662.882812 C 400.90625 662.71875 401.253906 662.632812 401.601562 662.632812 Z M 401.601562 662.632812 " fill-opacity="1" fill-rule="nonzero"/><path fill="#fff159" d="M 445.027344 637.746094 L 450.328125 648.492188 L 462.183594 650.214844 L 453.605469 658.582031 L 455.628906 670.390625 L 445.027344 664.816406 L 434.421875 670.390625 L 436.449219 658.582031 L 427.867188 650.214844 L 439.726562 648.492188 Z M 445.027344 637.746094 " fill-opacity="1" fill-rule="nonzero"/><path fill="#2d3277" d="M 434.421875 672.574219 C 433.96875 672.574219 433.519531 672.433594 433.140625 672.15625 C 432.46875 671.667969 432.132812 670.839844 432.273438 670.019531 L 434.105469 659.339844 L 426.347656 651.777344 C 425.75 651.199219 425.539062 650.332031 425.792969 649.539062 C 426.050781 648.75 426.734375 648.175781 427.554688 648.054688 L 438.277344 646.5 L 443.070312 636.78125 C 443.4375 636.035156 444.195312 635.5625 445.027344 635.5625 C 445.855469 635.5625 446.613281 636.035156 446.980469 636.78125 L 451.777344 646.5 L 462.496094 648.054688 C 463.320312 648.175781 464 648.75 464.257812 649.539062 C 464.515625 650.332031 464.300781 651.199219 463.707031 651.777344 L 455.949219 659.339844 L 457.78125 670.019531 C 457.917969 670.839844 457.582031 671.667969 456.914062 672.15625 C 456.242188 672.644531 455.347656 672.707031 454.617188 672.324219 L 445.027344 667.28125 L 435.4375 672.324219 C 435.117188 672.488281 434.769531 672.574219 434.421875 672.574219 Z M 445.027344 662.632812 C 445.375 662.632812 445.722656 662.71875 446.039062 662.882812 L 452.734375 666.402344 L 451.457031 658.949219 C 451.335938 658.242188 451.570312 657.519531 452.082031 657.019531 L 457.496094 651.738281 L 450.015625 650.652344 C 449.304688 650.546875 448.691406 650.101562 448.371094 649.457031 L 445.027344 642.675781 L 441.679688 649.457031 C 441.363281 650.101562 440.75 650.546875 440.039062 650.652344 L 432.554688 651.738281 L 437.96875 657.019531 C 438.484375 657.519531 438.71875 658.242188 438.597656 658.949219 L 437.320312 666.402344 L 444.011719 662.882812 C 444.328125 662.71875 444.675781 662.632812 445.027344 662.632812 Z M 445.027344 662.632812 " fill-opacity="1" fill-rule="nonzero"/><path fill="#fff159" d="M 488.449219 637.746094 L 493.753906 648.492188 L 505.609375 650.214844 L 497.027344 658.582031 L 499.054688 670.390625 L 488.449219 664.816406 L 477.847656 670.390625 L 479.871094 658.582031 L 471.292969 650.214844 L 483.148438 648.492188 Z M 488.449219 637.746094 " fill-opacity="1" fill-rule="nonzero"/><path fill="#2d3277" d="M 499.054688 672.574219 C 498.707031 672.574219 498.359375 672.488281 498.039062 672.324219 L 488.449219 667.28125 L 478.863281 672.324219 C 478.128906 672.707031 477.238281 672.644531 476.566406 672.15625 C 475.894531 671.667969 475.558594 670.839844 475.695312 670.019531 L 477.527344 659.339844 L 469.769531 651.777344 C 469.175781 651.199219 468.960938 650.332031 469.21875 649.539062 C 469.476562 648.75 470.15625 648.175781 470.980469 648.054688 L 481.699219 646.5 L 486.496094 636.78125 C 486.863281 636.035156 487.621094 635.5625 488.449219 635.5625 C 489.28125 635.5625 490.039062 636.035156 490.40625 636.78125 L 495.199219 646.5 L 505.921875 648.054688 C 506.742188 648.175781 507.425781 648.75 507.683594 649.539062 C 507.9375 650.332031 507.726562 651.199219 507.128906 651.777344 L 499.371094 659.339844 L 501.203125 670.019531 C 501.34375 670.839844 501.007812 671.667969 500.335938 672.15625 C 499.957031 672.433594 499.507812 672.574219 499.054688 672.574219 Z M 488.449219 662.632812 C 488.800781 662.632812 489.148438 662.71875 489.464844 662.882812 L 496.15625 666.402344 L 494.878906 658.949219 C 494.757812 658.242188 494.992188 657.519531 495.507812 657.019531 L 500.921875 651.738281 L 493.4375 650.652344 C 492.730469 650.546875 492.113281 650.101562 491.796875 649.457031 L 488.449219 642.675781 L 485.105469 649.457031 C 484.785156 650.101562 484.171875 650.546875 483.460938 650.652344 L 475.980469 651.738281 L 481.394531 657.019531 C 481.910156 657.519531 482.144531 658.242188 482.023438 658.949219 L 480.742188 666.402344 L 487.4375 662.882812 C 487.753906 662.71875 488.101562 662.632812 488.449219 662.632812 Z M 488.449219 662.632812 " fill-opacity="1" fill-rule="nonzero"/><path fill="#fff159" d="M 531.875 637.746094 L 537.175781 648.492188 L 549.03125 650.214844 L 540.453125 658.582031 L 542.480469 670.390625 L 531.875 664.816406 L 521.269531 670.390625 L 523.296875 658.582031 L 514.71875 650.214844 L 526.574219 648.492188 Z M 531.875 637.746094 " fill-opacity="1" fill-rule="nonzero"/><path fill="#2d3277" d="M 521.269531 672.574219 C 520.820312 672.574219 520.367188 672.433594 519.988281 672.15625 C 519.316406 671.667969 518.980469 670.839844 519.121094 670.019531 L 520.953125 659.339844 L 513.195312 651.777344 C 512.601562 651.199219 512.386719 650.332031 512.644531 649.539062 C 512.898438 648.75 513.582031 648.175781 514.402344 648.054688 L 525.125 646.5 L 529.917969 636.78125 C 530.285156 636.035156 531.042969 635.5625 531.875 635.5625 C 532.703125 635.5625 533.460938 636.035156 533.832031 636.78125 L 538.625 646.5 L 549.347656 648.054688 C 550.167969 648.175781 550.851562 648.75 551.105469 649.539062 C 551.363281 650.332031 551.148438 651.199219 550.554688 651.777344 L 542.796875 659.339844 L 544.628906 670.019531 C 544.769531 670.839844 544.433594 671.667969 543.761719 672.15625 C 543.089844 672.644531 542.199219 672.707031 541.464844 672.324219 L 531.875 667.28125 L 522.285156 672.324219 C 521.96875 672.488281 521.617188 672.574219 521.269531 672.574219 Z M 531.875 662.632812 C 532.222656 662.632812 532.570312 662.71875 532.890625 662.882812 L 539.582031 666.402344 L 538.304688 658.949219 C 538.183594 658.242188 538.417969 657.519531 538.933594 657.019531 L 544.34375 651.738281 L 536.863281 650.652344 C 536.152344 650.546875 535.539062 650.101562 535.222656 649.457031 L 531.875 642.675781 L 528.53125 649.457031 C 528.210938 650.101562 527.597656 650.546875 526.886719 650.652344 L 519.40625 651.738281 L 524.820312 657.019531 C 525.332031 657.519531 525.566406 658.242188 525.445312 658.949219 L 524.167969 666.402344 L 530.859375 662.882812 C 531.175781 662.71875 531.527344 662.632812 531.875 662.632812 Z M 531.875 662.632812 " fill-opacity="1" fill-rule="nonzero"/><path fill="#ffffff" d="M 575.300781 637.746094 L 580.601562 648.492188 L 592.457031 650.214844 L 583.878906 658.582031 L 585.902344 670.390625 L 575.300781 664.816406 L 564.695312 670.390625 L 566.722656 658.582031 L 558.140625 650.214844 L 569.996094 648.492188 Z M 575.300781 637.746094 " fill-opacity="1" fill-rule="nonzero"/><path fill="#2d3277" d="M 585.902344 672.574219 C 585.554688 672.574219 585.207031 672.488281 584.890625 672.324219 L 575.300781 667.28125 L 565.710938 672.324219 C 564.976562 672.707031 564.085938 672.644531 563.414062 672.15625 C 562.742188 671.667969 562.40625 670.839844 562.546875 670.019531 L 564.378906 659.339844 L 556.621094 651.777344 C 556.023438 651.199219 555.8125 650.332031 556.066406 649.539062 C 556.324219 648.75 557.007812 648.175781 557.828125 648.054688 L 568.550781 646.5 L 573.34375 636.78125 C 573.710938 636.035156 574.46875 635.5625 575.300781 635.5625 C 576.128906 635.5625 576.886719 636.035156 577.253906 636.78125 L 582.050781 646.5 L 592.769531 648.054688 C 593.59375 648.175781 594.273438 648.75 594.53125 649.539062 C 594.789062 650.332031 594.574219 651.199219 593.980469 651.777344 L 586.222656 659.339844 L 588.054688 670.019531 C 588.191406 670.839844 587.855469 671.667969 587.183594 672.15625 C 586.804688 672.433594 586.355469 672.574219 585.902344 672.574219 Z M 575.300781 662.632812 C 575.648438 662.632812 575.996094 662.71875 576.3125 662.882812 L 583.007812 666.402344 L 581.726562 658.949219 C 581.605469 658.242188 581.839844 657.519531 582.355469 657.019531 L 587.769531 651.738281 L 580.289062 650.652344 C 579.578125 650.546875 578.964844 650.101562 578.644531 649.457031 L 575.300781 642.675781 L 571.953125 649.457031 C 571.636719 650.101562 571.023438 650.546875 570.3125 650.652344 L 562.828125 651.738281 L 568.242188 657.019531 C 568.757812 657.519531 568.992188 658.242188 568.871094 658.949219 L 567.59375 666.402344 L 574.285156 662.882812 C 574.601562 662.71875 574.949219 662.632812 575.300781 662.632812 Z M 575.300781 662.632812 " fill-opacity="1" fill-rule="nonzero"/><path fill="#2d3277" d="M 476.691406 735.699219 L 386.195312 735.699219 C 384.992188 735.699219 384.015625 734.722656 384.015625 733.519531 C 384.015625 732.3125 384.992188 731.335938 386.195312 731.335938 L 476.691406 731.335938 C 477.894531 731.335938 478.871094 732.3125 478.871094 733.519531 C 478.871094 734.722656 477.894531 735.699219 476.691406 735.699219 Z M 476.691406 735.699219 " fill-opacity="1" fill-rule="nonzero"/><g clip-path="url(#id5)"><path fill="#2d3277" d="M 623.824219 770.890625 L 186.113281 770.890625 C 168.875 770.890625 154.851562 756.863281 154.851562 739.621094 L 154.851562 70.5625 C 154.851562 53.320312 168.875 39.292969 186.113281 39.292969 L 623.824219 39.292969 C 641.0625 39.292969 655.085938 53.320312 655.085938 70.5625 L 655.085938 739.621094 C 655.085938 756.863281 641.0625 770.890625 623.824219 770.890625 Z M 186.113281 43.65625 C 171.28125 43.65625 159.214844 55.726562 159.214844 70.5625 L 159.214844 739.621094 C 159.214844 754.457031 171.28125 766.527344 186.113281 766.527344 L 623.824219 766.527344 C 638.65625 766.527344 650.722656 754.457031 650.722656 739.621094 L 650.722656 70.5625 C 650.722656 55.726562 638.65625 43.65625 623.824219 43.65625 Z M 186.113281 43.65625 " fill-opacity="1" fill-rule="nonzero"/></g></svg>