<svg xmlns="http://www.w3.org/2000/svg" xmlns:xlink="http://www.w3.org/1999/xlink" width="1080" zoomAndPan="magnify" viewBox="0 0 810 809.999993" height="1080" preserveAspectRatio="xMidYMid meet" version="1.0"><defs><g/><clipPath id="id1"><path d="M 75.1875 167 L 734.4375 167 L 734.4375 643.1875 L 75.1875 643.1875 Z M 75.1875 167 " clip-rule="nonzero"/></clipPath><clipPath id="id2"><path d="M 75.1875 167 L 734.4375 167 L 734.4375 224 L 75.1875 224 Z M 75.1875 167 " clip-rule="nonzero"/></clipPath></defs><rect x="-81" width="972" fill="#ffffff" y="-80.999999" height="971.999992" fill-opacity="1"/><rect x="-81" width="972" fill="#ffffff" y="-80.999999" height="971.999992" fill-opacity="1"/><path fill="#ffffff" d="M 715.332031 641.191406 L 94.296875 641.191406 C 84.828125 641.191406 77.15625 633.511719 77.15625 624.039062 L 77.15625 186.128906 C 77.15625 176.65625 84.828125 168.976562 94.296875 168.976562 L 715.332031 168.976562 C 724.796875 168.976562 732.472656 176.65625 732.472656 186.128906 L 732.472656 624.039062 C 732.472656 633.511719 724.796875 641.191406 715.332031 641.191406 Z M 715.332031 641.191406 " fill-opacity="1" fill-rule="nonzero"/><g clip-path="url(#id1)"><path fill="#2d3277" d="M 715.433594 643.160156 L 94.191406 643.160156 C 83.714844 643.160156 75.1875 634.628906 75.1875 624.140625 L 75.1875 186.027344 C 75.1875 175.542969 83.714844 167.007812 94.191406 167.007812 L 715.433594 167.007812 C 725.914062 167.007812 734.4375 175.542969 734.4375 186.027344 L 734.4375 624.140625 C 734.4375 634.628906 725.914062 643.160156 715.433594 643.160156 Z M 94.191406 170.945312 C 85.882812 170.945312 79.121094 177.710938 79.121094 186.027344 L 79.121094 624.140625 C 79.121094 632.457031 85.882812 639.226562 94.191406 639.226562 L 715.433594 639.226562 C 723.746094 639.226562 730.507812 632.457031 730.507812 624.140625 L 730.507812 186.027344 C 730.507812 177.710938 723.746094 170.945312 715.433594 170.945312 Z M 94.191406 170.945312 " fill-opacity="1" fill-rule="nonzero"/><path fill="#2d3277" d="M 715.433594 643.160156 L 94.191406 643.160156 C 83.714844 643.160156 75.1875 634.628906 75.1875 624.140625 L 75.1875 186.027344 C 75.1875 175.542969 83.714844 167.007812 94.191406 167.007812 L 715.433594 167.007812 C 725.914062 167.007812 734.4375 175.542969 734.4375 186.027344 L 734.4375 624.140625 C 734.4375 634.628906 725.914062 643.160156 715.433594 643.160156 Z M 94.191406 170.945312 C 85.882812 170.945312 79.121094 177.710938 79.121094 186.027344 L 79.121094 624.140625 C 79.121094 632.457031 85.882812 639.226562 94.191406 639.226562 L 715.433594 639.226562 C 723.746094 639.226562 730.507812 632.457031 730.507812 624.140625 L 730.507812 186.027344 C 730.507812 177.710938 723.746094 170.945312 715.433594 170.945312 Z M 94.191406 170.945312 " fill-opacity="1" fill-rule="nonzero"/></g><path fill="#7b98c9" d="M 732.472656 186.027344 C 732.472656 176.609375 724.84375 168.976562 715.433594 168.976562 L 94.191406 168.976562 C 84.78125 168.976562 77.15625 176.609375 77.15625 186.027344 L 77.15625 221.203125 L 732.472656 221.203125 Z M 732.472656 186.027344 " fill-opacity="1" fill-rule="nonzero"/><g clip-path="url(#id2)"><path fill="#2d3277" d="M 732.472656 223.167969 L 77.15625 223.167969 C 76.070312 223.167969 75.1875 222.289062 75.1875 221.203125 L 75.1875 186.027344 C 75.1875 175.542969 83.714844 167.007812 94.191406 167.007812 L 715.433594 167.007812 C 725.914062 167.007812 734.4375 175.542969 734.4375 186.027344 L 734.4375 221.203125 C 734.4375 222.289062 733.558594 223.167969 732.472656 223.167969 Z M 79.121094 219.234375 L 730.507812 219.234375 L 730.507812 186.027344 C 730.507812 177.710938 723.746094 170.945312 715.433594 170.945312 L 94.191406 170.945312 C 85.882812 170.945312 79.121094 177.710938 79.121094 186.027344 Z M 79.121094 219.234375 " fill-opacity="1" fill-rule="nonzero"/></g><path fill="#ffffff" d="M 123.480469 196.484375 C 123.480469 197.203125 123.410156 197.914062 123.269531 198.617188 C 123.128906 199.320312 122.921875 200.003906 122.648438 200.667969 C 122.375 201.332031 122.039062 201.960938 121.640625 202.558594 C 121.242188 203.15625 120.789062 203.707031 120.28125 204.214844 C 119.773438 204.722656 119.222656 205.175781 118.625 205.574219 C 118.03125 205.972656 117.398438 206.308594 116.738281 206.585938 C 116.074219 206.859375 115.390625 207.066406 114.6875 207.207031 C 113.984375 207.347656 113.273438 207.417969 112.558594 207.417969 C 111.839844 207.417969 111.128906 207.347656 110.425781 207.207031 C 109.722656 207.066406 109.039062 206.859375 108.378906 206.585938 C 107.714844 206.308594 107.085938 205.972656 106.488281 205.574219 C 105.894531 205.175781 105.339844 204.722656 104.835938 204.214844 C 104.328125 203.707031 103.875 203.15625 103.476562 202.558594 C 103.078125 201.960938 102.742188 201.332031 102.46875 200.667969 C 102.191406 200.003906 101.984375 199.320312 101.84375 198.617188 C 101.707031 197.914062 101.636719 197.203125 101.636719 196.484375 C 101.636719 195.769531 101.707031 195.058594 101.84375 194.351562 C 101.984375 193.648438 102.191406 192.964844 102.46875 192.300781 C 102.742188 191.640625 103.078125 191.007812 103.476562 190.414062 C 103.875 189.816406 104.328125 189.261719 104.835938 188.753906 C 105.339844 188.25 105.894531 187.796875 106.488281 187.394531 C 107.085938 186.996094 107.714844 186.660156 108.378906 186.386719 C 109.039062 186.113281 109.722656 185.902344 110.425781 185.765625 C 111.128906 185.625 111.839844 185.554688 112.558594 185.554688 C 113.273438 185.554688 113.984375 185.625 114.6875 185.765625 C 115.390625 185.902344 116.074219 186.113281 116.738281 186.386719 C 117.398438 186.660156 118.03125 186.996094 118.625 187.394531 C 119.222656 187.796875 119.773438 188.25 120.28125 188.753906 C 120.789062 189.261719 121.242188 189.816406 121.640625 190.414062 C 122.039062 191.007812 122.375 191.640625 122.648438 192.300781 C 122.921875 192.964844 123.128906 193.648438 123.269531 194.351562 C 123.410156 195.058594 123.480469 195.769531 123.480469 196.484375 Z M 123.480469 196.484375 " fill-opacity="1" fill-rule="nonzero"/><path fill="#fff159" d="M 157.71875 196.484375 C 157.71875 197.203125 157.648438 197.914062 157.507812 198.617188 C 157.371094 199.320312 157.164062 200.003906 156.886719 200.667969 C 156.613281 201.332031 156.277344 201.960938 155.878906 202.558594 C 155.480469 203.15625 155.027344 203.707031 154.519531 204.214844 C 154.011719 204.722656 153.460938 205.175781 152.863281 205.574219 C 152.269531 205.972656 151.640625 206.308594 150.976562 206.585938 C 150.3125 206.859375 149.632812 207.066406 148.925781 207.207031 C 148.222656 207.347656 147.515625 207.417969 146.796875 207.417969 C 146.078125 207.417969 145.371094 207.347656 144.664062 207.207031 C 143.960938 207.066406 143.28125 206.859375 142.617188 206.585938 C 141.953125 206.308594 141.324219 205.972656 140.726562 205.574219 C 140.132812 205.175781 139.582031 204.722656 139.074219 204.214844 C 138.566406 203.707031 138.113281 203.15625 137.714844 202.558594 C 137.316406 201.960938 136.980469 201.332031 136.707031 200.667969 C 136.429688 200.003906 136.222656 199.320312 136.085938 198.617188 C 135.945312 197.914062 135.875 197.203125 135.875 196.484375 C 135.875 195.769531 135.945312 195.058594 136.085938 194.351562 C 136.222656 193.648438 136.429688 192.964844 136.707031 192.300781 C 136.980469 191.640625 137.316406 191.007812 137.714844 190.414062 C 138.113281 189.816406 138.566406 189.261719 139.074219 188.753906 C 139.582031 188.25 140.132812 187.796875 140.726562 187.394531 C 141.324219 186.996094 141.953125 186.660156 142.617188 186.386719 C 143.28125 186.113281 143.960938 185.902344 144.664062 185.765625 C 145.371094 185.625 146.078125 185.554688 146.796875 185.554688 C 147.515625 185.554688 148.222656 185.625 148.925781 185.765625 C 149.632812 185.902344 150.3125 186.113281 150.976562 186.386719 C 151.640625 186.660156 152.269531 186.996094 152.863281 187.394531 C 153.460938 187.796875 154.011719 188.25 154.519531 188.753906 C 155.027344 189.261719 155.480469 189.816406 155.878906 190.414062 C 156.277344 191.007812 156.613281 191.640625 156.886719 192.300781 C 157.164062 192.964844 157.371094 193.648438 157.507812 194.351562 C 157.648438 195.058594 157.71875 195.769531 157.71875 196.484375 Z M 157.71875 196.484375 " fill-opacity="1" fill-rule="nonzero"/><path fill="#ffd100" d="M 191.957031 196.484375 C 191.957031 197.203125 191.886719 197.914062 191.75 198.617188 C 191.609375 199.320312 191.402344 200.003906 191.125 200.667969 C 190.851562 201.332031 190.515625 201.960938 190.117188 202.558594 C 189.71875 203.15625 189.265625 203.707031 188.757812 204.214844 C 188.25 204.722656 187.699219 205.175781 187.105469 205.574219 C 186.507812 205.972656 185.878906 206.308594 185.214844 206.585938 C 184.550781 206.859375 183.871094 207.066406 183.167969 207.207031 C 182.464844 207.347656 181.753906 207.417969 181.035156 207.417969 C 180.316406 207.417969 179.609375 207.347656 178.90625 207.207031 C 178.203125 207.066406 177.519531 206.859375 176.855469 206.585938 C 176.191406 206.308594 175.5625 205.972656 174.96875 205.574219 C 174.371094 205.175781 173.820312 204.722656 173.3125 204.214844 C 172.804688 203.707031 172.351562 203.15625 171.953125 202.558594 C 171.554688 201.960938 171.21875 201.332031 170.945312 200.667969 C 170.671875 200.003906 170.460938 199.320312 170.324219 198.617188 C 170.183594 197.914062 170.113281 197.203125 170.113281 196.484375 C 170.113281 195.769531 170.183594 195.058594 170.324219 194.351562 C 170.460938 193.648438 170.671875 192.964844 170.945312 192.300781 C 171.21875 191.640625 171.554688 191.007812 171.953125 190.414062 C 172.351562 189.816406 172.804688 189.261719 173.3125 188.753906 C 173.820312 188.25 174.371094 187.796875 174.96875 187.394531 C 175.5625 186.996094 176.191406 186.660156 176.855469 186.386719 C 177.519531 186.113281 178.203125 185.902344 178.90625 185.765625 C 179.609375 185.625 180.316406 185.554688 181.035156 185.554688 C 181.753906 185.554688 182.464844 185.625 183.167969 185.765625 C 183.871094 185.902344 184.550781 186.113281 185.214844 186.386719 C 185.878906 186.660156 186.507812 186.996094 187.105469 187.394531 C 187.699219 187.796875 188.25 188.25 188.757812 188.753906 C 189.265625 189.261719 189.71875 189.816406 190.117188 190.414062 C 190.515625 191.007812 190.851562 191.640625 191.125 192.300781 C 191.402344 192.964844 191.609375 193.648438 191.75 194.351562 C 191.886719 195.058594 191.957031 195.769531 191.957031 196.484375 Z M 191.957031 196.484375 " fill-opacity="1" fill-rule="nonzero"/><path fill="#2d3277" d="M 112.558594 209.382812 C 105.453125 209.382812 99.671875 203.597656 99.671875 196.484375 C 99.671875 189.375 105.453125 183.585938 112.558594 183.585938 C 119.664062 183.585938 125.445312 189.375 125.445312 196.484375 C 125.445312 203.597656 119.664062 209.382812 112.558594 209.382812 Z M 112.558594 187.523438 C 107.621094 187.523438 103.601562 191.542969 103.601562 196.484375 C 103.601562 201.429688 107.621094 205.449219 112.558594 205.449219 C 117.496094 205.449219 121.515625 201.429688 121.515625 196.484375 C 121.515625 191.542969 117.496094 187.523438 112.558594 187.523438 Z M 112.558594 187.523438 " fill-opacity="1" fill-rule="nonzero"/><path fill="#2d3277" d="M 146.796875 209.382812 C 139.691406 209.382812 133.910156 203.597656 133.910156 196.484375 C 133.910156 189.375 139.691406 183.585938 146.796875 183.585938 C 153.902344 183.585938 159.683594 189.375 159.683594 196.484375 C 159.683594 203.597656 153.902344 209.382812 146.796875 209.382812 Z M 146.796875 187.523438 C 141.859375 187.523438 137.839844 191.542969 137.839844 196.484375 C 137.839844 201.429688 141.859375 205.449219 146.796875 205.449219 C 151.734375 205.449219 155.753906 201.429688 155.753906 196.484375 C 155.753906 191.542969 151.734375 187.523438 146.796875 187.523438 Z M 146.796875 187.523438 " fill-opacity="1" fill-rule="nonzero"/><path fill="#2d3277" d="M 181.035156 209.382812 C 173.929688 209.382812 168.148438 203.597656 168.148438 196.484375 C 168.148438 189.375 173.929688 183.585938 181.035156 183.585938 C 188.140625 183.585938 193.921875 189.375 193.921875 196.484375 C 193.921875 203.597656 188.140625 209.382812 181.035156 209.382812 Z M 181.035156 187.523438 C 176.097656 187.523438 172.078125 191.542969 172.078125 196.484375 C 172.078125 201.429688 176.097656 205.449219 181.035156 205.449219 C 185.972656 205.449219 189.992188 201.429688 189.992188 196.484375 C 189.992188 191.542969 185.972656 187.523438 181.035156 187.523438 Z M 181.035156 187.523438 " fill-opacity="1" fill-rule="nonzero"/><path fill="#7b98c9" d="M 149.957031 282.226562 C 145.496094 282.226562 141.867188 278.59375 141.867188 274.128906 C 141.867188 269.664062 145.496094 266.03125 149.957031 266.03125 C 154.417969 266.03125 158.046875 269.664062 158.046875 274.128906 C 158.046875 278.59375 154.417969 282.226562 149.957031 282.226562 Z M 149.957031 269.96875 C 147.664062 269.96875 145.796875 271.835938 145.796875 274.128906 C 145.796875 276.425781 147.664062 278.292969 149.957031 278.292969 C 152.25 278.292969 154.117188 276.425781 154.117188 274.128906 C 154.117188 271.835938 152.25 269.96875 149.957031 269.96875 Z M 149.957031 269.96875 " fill-opacity="1" fill-rule="nonzero"/><path fill="#7b98c9" d="M 160.34375 286.625 C 159.820312 286.625 159.296875 286.417969 158.910156 286.003906 L 152.980469 279.675781 C 152.234375 278.882812 152.273438 277.636719 153.066406 276.894531 C 153.859375 276.148438 155.101562 276.191406 155.84375 276.984375 L 161.777344 283.3125 C 162.519531 284.105469 162.480469 285.351562 161.6875 286.09375 C 161.308594 286.449219 160.824219 286.625 160.34375 286.625 Z M 160.34375 286.625 " fill-opacity="1" fill-rule="nonzero"/><path fill="#7b98c9" d="M 363.820312 293.824219 L 146.164062 293.824219 C 136.222656 293.824219 128.136719 285.730469 128.136719 275.78125 C 128.136719 265.835938 136.222656 257.742188 146.164062 257.742188 L 363.820312 257.742188 C 373.757812 257.742188 381.84375 265.835938 381.84375 275.78125 C 381.84375 285.730469 373.757812 293.824219 363.820312 293.824219 Z M 146.164062 261.679688 C 138.390625 261.679688 132.070312 268.003906 132.070312 275.78125 C 132.070312 283.558594 138.390625 289.886719 146.164062 289.886719 L 363.820312 289.886719 C 371.589844 289.886719 377.914062 283.558594 377.914062 275.78125 C 377.914062 268.003906 371.589844 261.679688 363.820312 261.679688 Z M 146.164062 261.679688 " fill-opacity="1" fill-rule="nonzero"/><path fill="#7b98c9" d="M 365.535156 283.316406 C 365.03125 283.316406 364.527344 283.125 364.144531 282.738281 L 353.335938 271.921875 C 352.566406 271.152344 352.566406 269.90625 353.335938 269.136719 C 354.101562 268.371094 355.347656 268.371094 356.113281 269.136719 L 366.925781 279.957031 C 367.691406 280.726562 367.691406 281.972656 366.925781 282.738281 C 366.539062 283.125 366.039062 283.316406 365.535156 283.316406 Z M 365.535156 283.316406 " fill-opacity="1" fill-rule="nonzero"/><path fill="#7b98c9" d="M 354.722656 283.316406 C 354.222656 283.316406 353.71875 283.125 353.335938 282.738281 C 352.566406 281.972656 352.566406 280.726562 353.335938 279.957031 L 364.144531 269.136719 C 364.914062 268.371094 366.15625 268.371094 366.925781 269.136719 C 367.691406 269.90625 367.691406 271.152344 366.925781 271.921875 L 356.113281 282.738281 C 355.730469 283.125 355.226562 283.316406 354.722656 283.316406 Z M 354.722656 283.316406 " fill-opacity="1" fill-rule="nonzero"/><path fill="#7b98c9" d="M 384.941406 513.519531 L 125.039062 513.519531 C 114.5625 513.519531 106.035156 504.988281 106.035156 494.5 L 106.035156 339.054688 C 106.035156 328.566406 114.5625 320.035156 125.039062 320.035156 L 384.941406 320.035156 C 395.421875 320.035156 403.949219 328.566406 403.949219 339.054688 L 403.949219 494.5 C 403.949219 504.988281 395.421875 513.519531 384.941406 513.519531 Z M 125.039062 323.96875 C 116.730469 323.96875 109.96875 330.734375 109.96875 339.054688 L 109.96875 494.5 C 109.96875 502.820312 116.730469 509.585938 125.039062 509.585938 L 384.941406 509.585938 C 393.253906 509.585938 400.015625 502.820312 400.015625 494.5 L 400.015625 339.054688 C 400.015625 330.734375 393.253906 323.96875 384.941406 323.96875 Z M 125.039062 323.96875 " fill-opacity="1" fill-rule="nonzero"/><path fill="#7b98c9" d="M 387.335938 425.035156 L 387.335938 408.777344 L 121.988281 399.875 L 121.988281 416.324219 L 121.996094 416.324219 C 121.941406 417.496094 122.605469 418.683594 123.894531 419.117188 L 335.5 489.878906 C 338.554688 490.898438 341.917969 489.808594 343.789062 487.1875 L 386.652344 427.167969 C 387.125 426.507812 387.339844 425.765625 387.335938 425.035156 Z M 387.335938 425.035156 " fill-opacity="1" fill-rule="nonzero"/><path fill="#2d3277" d="M 337.851562 492.234375 C 336.863281 492.234375 335.859375 492.074219 334.878906 491.746094 L 123.273438 420.984375 C 121.289062 420.320312 120.003906 418.5 120.027344 416.410156 C 120.027344 416.382812 120.023438 416.351562 120.023438 416.324219 L 120.019531 399.878906 C 120.019531 399.34375 120.238281 398.832031 120.621094 398.460938 C 121.003906 398.089844 121.5 397.886719 122.050781 397.910156 L 387.402344 406.808594 C 388.464844 406.847656 389.304688 407.714844 389.304688 408.777344 L 389.304688 425.03125 C 389.304688 426.210938 388.941406 427.347656 388.25 428.3125 L 345.390625 488.332031 C 343.601562 490.832031 340.785156 492.234375 337.851562 492.234375 Z M 123.957031 416.179688 C 123.960938 416.257812 123.960938 416.335938 123.957031 416.414062 C 123.953125 416.519531 123.957031 417.0625 124.519531 417.25 L 336.125 488.011719 C 338.367188 488.761719 340.808594 487.972656 342.191406 486.042969 L 385.054688 426.023438 C 385.316406 425.65625 385.371094 425.289062 385.371094 425.042969 C 385.371094 425.039062 385.371094 425.039062 385.371094 425.035156 L 385.371094 410.679688 L 123.953125 401.910156 Z M 123.957031 416.179688 " fill-opacity="1" fill-rule="nonzero"/><path fill="#fff159" d="M 187.035156 355.871094 L 123.25 397.664062 C 121.296875 398.945312 121.679688 401.914062 123.894531 402.65625 L 335.5 473.417969 C 338.554688 474.441406 341.917969 473.347656 343.789062 470.726562 L 386.652344 410.707031 C 388.132812 408.636719 387.097656 405.722656 384.640625 405.050781 L 198.285156 354.09375 C 194.453125 353.046875 190.359375 353.695312 187.035156 355.871094 Z M 187.035156 355.871094 " fill-opacity="1" fill-rule="nonzero"/><path fill="#2d3277" d="M 337.851562 475.769531 C 336.863281 475.769531 335.859375 475.613281 334.878906 475.285156 L 123.273438 404.523438 C 121.527344 403.9375 120.296875 402.441406 120.058594 400.613281 C 119.824219 398.789062 120.636719 397.027344 122.175781 396.019531 L 185.960938 354.226562 C 189.75 351.742188 194.425781 351 198.800781 352.195312 L 385.160156 403.152344 C 386.933594 403.636719 388.359375 404.960938 388.976562 406.695312 C 389.59375 408.429688 389.320312 410.355469 388.25 411.851562 L 345.390625 471.871094 C 343.601562 474.375 340.789062 475.769531 337.851562 475.769531 Z M 194.632812 355.574219 C 192.339844 355.574219 190.066406 356.234375 188.113281 357.515625 L 124.328125 399.308594 C 123.949219 399.558594 123.933594 399.917969 123.960938 400.109375 C 123.984375 400.300781 124.089844 400.648438 124.519531 400.789062 L 336.125 471.550781 C 338.375 472.300781 340.808594 471.511719 342.191406 469.582031 L 385.054688 409.5625 C 385.378906 409.105469 385.457031 408.542969 385.273438 408.011719 C 385.082031 407.484375 384.664062 407.09375 384.125 406.945312 L 197.765625 355.992188 C 196.734375 355.710938 195.679688 355.574219 194.632812 355.574219 Z M 187.035156 355.871094 L 187.046875 355.871094 Z M 187.035156 355.871094 " fill-opacity="1" fill-rule="nonzero"/><path fill="#2d3277" d="M 202.714844 363.851562 L 147.507812 401.621094 L 319.945312 458.054688 L 358.828125 407.011719 Z M 202.714844 363.851562 " fill-opacity="1" fill-rule="nonzero"/><path fill="#ffffff" d="M 357.285156 434.222656 C 357.332031 434.496094 357.34375 434.769531 357.324219 435.042969 C 357.304688 435.320312 357.25 435.59375 357.164062 435.867188 C 357.078125 436.136719 356.960938 436.402344 356.816406 436.660156 C 356.667969 436.914062 356.492188 437.160156 356.285156 437.390625 C 356.082031 437.625 355.851562 437.839844 355.601562 438.035156 C 355.347656 438.234375 355.074219 438.410156 354.78125 438.566406 C 354.492188 438.722656 354.183594 438.855469 353.863281 438.964844 C 353.546875 439.074219 353.21875 439.15625 352.882812 439.214844 C 352.546875 439.273438 352.210938 439.300781 351.875 439.304688 C 351.535156 439.308594 351.203125 439.285156 350.875 439.234375 C 350.550781 439.183594 350.234375 439.105469 349.929688 439.003906 C 349.625 438.902344 349.335938 438.777344 349.066406 438.625 C 348.796875 438.472656 348.550781 438.300781 348.328125 438.109375 C 348.101562 437.917969 347.90625 437.707031 347.734375 437.476562 C 347.5625 437.25 347.421875 437.007812 347.3125 436.753906 C 347.203125 436.5 347.121094 436.238281 347.078125 435.96875 C 347.03125 435.699219 347.019531 435.425781 347.039062 435.148438 C 347.058594 434.871094 347.109375 434.597656 347.195312 434.324219 C 347.28125 434.054688 347.398438 433.789062 347.546875 433.53125 C 347.695312 433.277344 347.871094 433.03125 348.074219 432.800781 C 348.28125 432.570312 348.507812 432.355469 348.761719 432.15625 C 349.015625 431.957031 349.285156 431.78125 349.578125 431.625 C 349.871094 431.46875 350.175781 431.335938 350.496094 431.226562 C 350.816406 431.117188 351.144531 431.035156 351.476562 430.976562 C 351.8125 430.921875 352.148438 430.890625 352.488281 430.886719 C 352.824219 430.882812 353.15625 430.90625 353.484375 430.957031 C 353.8125 431.007812 354.128906 431.085938 354.433594 431.1875 C 354.738281 431.289062 355.023438 431.417969 355.292969 431.566406 C 355.5625 431.71875 355.808594 431.890625 356.035156 432.082031 C 356.257812 432.277344 356.457031 432.488281 356.628906 432.714844 C 356.796875 432.941406 356.9375 433.183594 357.050781 433.4375 C 357.160156 433.691406 357.238281 433.953125 357.285156 434.222656 Z M 357.285156 434.222656 " fill-opacity="1" fill-rule="nonzero"/><path fill="#2d3277" d="M 351.8125 441.273438 C 351.800781 441.273438 351.789062 441.273438 351.777344 441.273438 C 349.683594 441.265625 347.761719 440.464844 346.503906 439.074219 C 345.445312 437.90625 344.941406 436.421875 345.085938 434.890625 C 345.402344 431.539062 348.675781 428.921875 352.550781 428.921875 C 352.5625 428.921875 352.574219 428.921875 352.585938 428.921875 C 354.675781 428.929688 356.597656 429.730469 357.859375 431.121094 C 358.917969 432.289062 359.417969 433.773438 359.273438 435.300781 C 358.960938 438.65625 355.6875 441.273438 351.8125 441.273438 Z M 352.550781 432.855469 C 350.777344 432.855469 349.121094 433.976562 349 435.261719 C 348.960938 435.6875 349.101562 436.082031 349.414062 436.429688 C 349.925781 436.996094 350.816406 437.335938 351.792969 437.339844 C 351.796875 437.339844 351.804688 437.339844 351.8125 437.339844 C 353.582031 437.339844 355.238281 436.21875 355.359375 434.933594 C 355.398438 434.503906 355.261719 434.113281 354.945312 433.765625 C 354.433594 433.199219 353.546875 432.859375 352.570312 432.855469 C 352.5625 432.855469 352.558594 432.855469 352.550781 432.855469 Z M 352.550781 432.855469 " fill-opacity="1" fill-rule="nonzero"/><path fill="#ffd100" d="M 665.398438 598.554688 L 449.902344 598.554688 C 440.4375 598.554688 432.761719 590.875 432.761719 581.398438 L 432.761719 554.234375 C 432.761719 544.757812 440.4375 537.078125 449.902344 537.078125 L 665.398438 537.078125 C 674.863281 537.078125 682.539062 544.757812 682.539062 554.234375 L 682.539062 581.398438 C 682.539062 590.875 674.863281 598.554688 665.398438 598.554688 Z M 665.398438 598.554688 " fill-opacity="1" fill-rule="nonzero"/><path fill="#2d3277" d="M 665.5 600.523438 L 449.800781 600.523438 C 439.320312 600.523438 430.796875 591.988281 430.796875 581.503906 L 430.796875 554.128906 C 430.796875 543.644531 439.320312 535.109375 449.800781 535.109375 L 665.5 535.109375 C 675.980469 535.109375 684.503906 543.644531 684.503906 554.128906 L 684.503906 581.503906 C 684.503906 591.988281 675.980469 600.523438 665.5 600.523438 Z M 449.800781 539.046875 C 441.488281 539.046875 434.726562 545.8125 434.726562 554.128906 L 434.726562 581.503906 C 434.726562 589.820312 441.488281 596.585938 449.800781 596.585938 L 665.5 596.585938 C 673.808594 596.585938 680.574219 589.820312 680.574219 581.503906 L 680.574219 554.128906 C 680.574219 545.8125 673.808594 539.046875 665.5 539.046875 Z M 449.800781 539.046875 " fill-opacity="1" fill-rule="nonzero"/><path fill="#2d3277" d="M 680.199219 288.789062 L 646.058594 288.789062 C 645.074219 288.789062 644.242188 288.0625 644.109375 287.085938 L 640.261719 258.488281 L 634.035156 258.488281 C 632.949219 258.488281 632.070312 257.609375 632.070312 256.523438 C 632.070312 255.433594 632.949219 254.554688 634.035156 254.554688 L 641.980469 254.554688 C 642.964844 254.554688 643.796875 255.28125 643.925781 256.257812 L 647.777344 284.855469 L 680.199219 284.855469 C 681.285156 284.855469 682.164062 285.734375 682.164062 286.824219 C 682.164062 287.910156 681.285156 288.789062 680.199219 288.789062 Z M 680.199219 288.789062 " fill-opacity="1" fill-rule="nonzero"/><path fill="#2d3277" d="M 678.695312 281.054688 L 645.015625 281.054688 C 644.03125 281.054688 643.199219 280.324219 643.066406 279.347656 L 640.753906 262.148438 C 640.675781 261.585938 640.847656 261.015625 641.222656 260.589844 C 641.59375 260.160156 642.132812 259.917969 642.699219 259.917969 L 683.203125 259.917969 C 683.8125 259.917969 684.390625 260.199219 684.761719 260.683594 C 685.132812 261.164062 685.261719 261.792969 685.105469 262.382812 L 680.597656 279.585938 C 680.371094 280.449219 679.589844 281.054688 678.695312 281.054688 Z M 646.734375 277.117188 L 677.179688 277.117188 L 680.65625 263.851562 L 644.949219 263.851562 Z M 646.734375 277.117188 " fill-opacity="1" fill-rule="nonzero"/><path fill="#2d3277" d="M 652.253906 298.03125 C 648.625 298.03125 645.671875 295.074219 645.671875 291.441406 C 645.671875 287.808594 648.625 284.855469 652.253906 284.855469 C 655.882812 284.855469 658.835938 287.808594 658.835938 291.441406 C 658.835938 295.074219 655.882812 298.03125 652.253906 298.03125 Z M 652.253906 288.789062 C 650.792969 288.789062 649.605469 289.980469 649.605469 291.441406 C 649.605469 292.90625 650.792969 294.097656 652.253906 294.097656 C 653.714844 294.097656 654.90625 292.90625 654.90625 291.441406 C 654.90625 289.980469 653.714844 288.789062 652.253906 288.789062 Z M 652.253906 288.789062 " fill-opacity="1" fill-rule="nonzero"/><path fill="#2d3277" d="M 673.652344 298.03125 C 670.019531 298.03125 667.066406 295.074219 667.066406 291.441406 C 667.066406 287.808594 670.019531 284.855469 673.652344 284.855469 C 677.28125 284.855469 680.234375 287.808594 680.234375 291.441406 C 680.234375 295.074219 677.28125 298.03125 673.652344 298.03125 Z M 673.652344 288.789062 C 672.1875 288.789062 671 289.980469 671 291.441406 C 671 292.90625 672.1875 294.097656 673.652344 294.097656 C 675.113281 294.097656 676.300781 292.90625 676.300781 291.441406 C 676.300781 289.980469 675.113281 288.789062 673.652344 288.789062 Z M 673.652344 288.789062 " fill-opacity="1" fill-rule="nonzero"/><path fill="#7b98c9" d="M 432.761719 331.410156 L 682.539062 331.410156 L 682.539062 347.714844 L 432.761719 347.714844 Z M 432.761719 331.410156 " fill-opacity="1" fill-rule="nonzero"/><path fill="#2d3277" d="M 682.539062 349.683594 L 432.761719 349.683594 C 431.675781 349.683594 430.796875 348.800781 430.796875 347.714844 L 430.796875 331.410156 C 430.796875 330.324219 431.675781 329.441406 432.761719 329.441406 L 682.539062 329.441406 C 683.625 329.441406 684.503906 330.324219 684.503906 331.410156 L 684.503906 347.714844 C 684.503906 348.800781 683.625 349.683594 682.539062 349.683594 Z M 434.726562 345.746094 L 680.574219 345.746094 L 680.574219 333.378906 L 434.726562 333.378906 Z M 434.726562 345.746094 " fill-opacity="1" fill-rule="nonzero"/><path fill="#7b98c9" d="M 432.761719 366.058594 L 682.539062 366.058594 L 682.539062 382.363281 L 432.761719 382.363281 Z M 432.761719 366.058594 " fill-opacity="1" fill-rule="nonzero"/><path fill="#2d3277" d="M 682.539062 384.332031 L 432.761719 384.332031 C 431.675781 384.332031 430.796875 383.449219 430.796875 382.363281 L 430.796875 366.058594 C 430.796875 364.972656 431.675781 364.089844 432.761719 364.089844 L 682.539062 364.089844 C 683.625 364.089844 684.503906 364.972656 684.503906 366.058594 L 684.503906 382.363281 C 684.503906 383.449219 683.625 384.332031 682.539062 384.332031 Z M 434.726562 380.394531 L 680.574219 380.394531 L 680.574219 368.027344 L 434.726562 368.027344 Z M 434.726562 380.394531 " fill-opacity="1" fill-rule="nonzero"/><path fill="#7b98c9" d="M 432.761719 400.707031 L 624.320312 400.707031 L 624.320312 417.015625 L 432.761719 417.015625 Z M 432.761719 400.707031 " fill-opacity="1" fill-rule="nonzero"/><path fill="#2d3277" d="M 624.324219 418.980469 L 432.761719 418.980469 C 431.675781 418.980469 430.796875 418.097656 430.796875 417.011719 L 430.796875 400.707031 C 430.796875 399.621094 431.675781 398.742188 432.761719 398.742188 L 624.324219 398.742188 C 625.40625 398.742188 626.289062 399.621094 626.289062 400.707031 L 626.289062 417.011719 C 626.289062 418.097656 625.40625 418.980469 624.324219 418.980469 Z M 434.726562 415.046875 L 622.355469 415.046875 L 622.355469 402.675781 L 434.726562 402.675781 Z M 434.726562 415.046875 " fill-opacity="1" fill-rule="nonzero"/><path fill="#7b98c9" d="M 432.761719 451.191406 L 682.539062 451.191406 L 682.539062 467.496094 L 432.761719 467.496094 Z M 432.761719 451.191406 " fill-opacity="1" fill-rule="nonzero"/><path fill="#2d3277" d="M 682.539062 469.464844 L 432.761719 469.464844 C 431.675781 469.464844 430.796875 468.582031 430.796875 467.496094 L 430.796875 451.191406 C 430.796875 450.105469 431.675781 449.222656 432.761719 449.222656 L 682.539062 449.222656 C 683.625 449.222656 684.503906 450.105469 684.503906 451.191406 L 684.503906 467.496094 C 684.503906 468.582031 683.625 469.464844 682.539062 469.464844 Z M 434.726562 465.527344 L 680.574219 465.527344 L 680.574219 453.15625 L 434.726562 453.15625 Z M 434.726562 465.527344 " fill-opacity="1" fill-rule="nonzero"/><path fill="#7b98c9" d="M 432.761719 485.839844 L 624.320312 485.839844 L 624.320312 502.144531 L 432.761719 502.144531 Z M 432.761719 485.839844 " fill-opacity="1" fill-rule="nonzero"/><path fill="#2d3277" d="M 624.324219 504.113281 L 432.761719 504.113281 C 431.675781 504.113281 430.796875 503.230469 430.796875 502.144531 L 430.796875 485.839844 C 430.796875 484.753906 431.675781 483.875 432.761719 483.875 L 624.324219 483.875 C 625.40625 483.875 626.289062 484.753906 626.289062 485.839844 L 626.289062 502.144531 C 626.289062 503.230469 625.40625 504.113281 624.324219 504.113281 Z M 434.726562 500.179688 L 622.355469 500.179688 L 622.355469 487.808594 L 434.726562 487.808594 Z M 434.726562 500.179688 " fill-opacity="1" fill-rule="nonzero"/><path fill="#fff159" d="M 136.210938 539.34375 L 143.460938 554.050781 L 159.675781 556.40625 L 147.941406 567.855469 L 150.710938 584.015625 L 136.210938 576.386719 L 121.707031 584.015625 L 124.476562 567.855469 L 112.742188 556.40625 L 128.957031 554.050781 Z M 136.210938 539.34375 " fill-opacity="1" fill-rule="nonzero"/><path fill="#2d3277" d="M 150.710938 585.984375 C 150.398438 585.984375 150.085938 585.910156 149.796875 585.757812 L 136.210938 578.609375 L 122.621094 585.757812 C 121.960938 586.105469 121.15625 586.046875 120.550781 585.609375 C 119.945312 585.167969 119.640625 584.421875 119.769531 583.683594 L 122.363281 568.542969 L 111.371094 557.816406 C 110.835938 557.292969 110.644531 556.511719 110.875 555.800781 C 111.105469 555.085938 111.71875 554.570312 112.460938 554.460938 L 127.652344 552.25 L 134.445312 538.472656 C 134.777344 537.800781 135.460938 537.375 136.210938 537.375 C 136.957031 537.375 137.640625 537.800781 137.972656 538.472656 L 144.765625 552.25 L 159.957031 554.460938 C 160.699219 554.570312 161.3125 555.085938 161.546875 555.800781 C 161.777344 556.511719 161.582031 557.292969 161.046875 557.816406 L 150.054688 568.542969 L 152.648438 583.683594 C 152.777344 584.421875 152.472656 585.167969 151.867188 585.609375 C 151.523438 585.855469 151.117188 585.984375 150.710938 585.984375 Z M 136.210938 574.417969 C 136.523438 574.417969 136.835938 574.492188 137.125 574.644531 L 148.101562 580.417969 L 146.003906 568.1875 C 145.894531 567.546875 146.105469 566.898438 146.570312 566.445312 L 155.449219 557.78125 L 143.175781 555.996094 C 142.535156 555.902344 141.984375 555.5 141.699219 554.921875 L 136.210938 543.789062 L 130.722656 554.921875 C 130.433594 555.5 129.882812 555.902344 129.242188 555.996094 L 116.96875 557.78125 L 125.847656 566.445312 C 126.3125 566.898438 126.523438 567.546875 126.414062 568.1875 L 124.316406 580.417969 L 135.292969 574.644531 C 135.582031 574.492188 135.894531 574.417969 136.210938 574.417969 Z M 136.210938 574.417969 " fill-opacity="1" fill-rule="nonzero"/><path fill="#fff159" d="M 195.601562 539.34375 L 202.851562 554.050781 L 219.066406 556.40625 L 207.332031 567.855469 L 210.101562 584.015625 L 195.601562 576.386719 L 181.097656 584.015625 L 183.867188 567.855469 L 172.132812 556.40625 L 188.347656 554.050781 Z M 195.601562 539.34375 " fill-opacity="1" fill-rule="nonzero"/><path fill="#2d3277" d="M 210.105469 585.984375 C 209.789062 585.984375 209.476562 585.910156 209.1875 585.757812 L 195.601562 578.609375 L 182.011719 585.757812 C 181.347656 586.105469 180.550781 586.046875 179.941406 585.609375 C 179.335938 585.167969 179.03125 584.421875 179.160156 583.683594 L 181.757812 568.542969 L 170.761719 557.816406 C 170.226562 557.292969 170.035156 556.511719 170.265625 555.800781 C 170.496094 555.085938 171.109375 554.570312 171.851562 554.460938 L 187.042969 552.25 L 193.835938 538.472656 C 194.167969 537.800781 194.851562 537.375 195.601562 537.375 C 196.347656 537.375 197.03125 537.800781 197.363281 538.472656 L 204.15625 552.25 L 219.351562 554.460938 C 220.089844 554.570312 220.707031 555.085938 220.9375 555.800781 C 221.167969 556.511719 220.976562 557.292969 220.4375 557.816406 L 209.445312 568.542969 L 212.042969 583.683594 C 212.167969 584.421875 211.863281 585.167969 211.257812 585.609375 C 210.917969 585.855469 210.511719 585.984375 210.105469 585.984375 Z M 195.601562 574.417969 C 195.914062 574.417969 196.226562 574.492188 196.515625 574.644531 L 207.492188 580.417969 L 205.394531 568.1875 C 205.285156 567.546875 205.496094 566.898438 205.960938 566.445312 L 214.84375 557.78125 L 202.570312 555.996094 C 201.929688 555.902344 201.375 555.5 201.089844 554.921875 L 195.601562 543.789062 L 190.113281 554.921875 C 189.824219 555.5 189.273438 555.902344 188.632812 555.996094 L 176.359375 557.78125 L 185.238281 566.445312 C 185.703125 566.898438 185.914062 567.546875 185.804688 568.1875 L 183.707031 580.417969 L 194.683594 574.644531 C 194.972656 574.492188 195.285156 574.417969 195.601562 574.417969 Z M 195.601562 574.417969 " fill-opacity="1" fill-rule="nonzero"/><path fill="#fff159" d="M 254.992188 539.34375 L 262.242188 554.050781 L 278.457031 556.40625 L 266.722656 567.855469 L 269.496094 584.015625 L 254.992188 576.386719 L 240.488281 584.015625 L 243.257812 567.855469 L 231.523438 556.40625 L 247.742188 554.050781 Z M 254.992188 539.34375 " fill-opacity="1" fill-rule="nonzero"/><path fill="#2d3277" d="M 269.496094 585.984375 C 269.179688 585.984375 268.867188 585.910156 268.578125 585.757812 L 254.992188 578.609375 L 241.402344 585.757812 C 240.742188 586.105469 239.941406 586.046875 239.332031 585.609375 C 238.726562 585.167969 238.425781 584.421875 238.550781 583.683594 L 241.148438 568.542969 L 230.152344 557.816406 C 229.617188 557.292969 229.425781 556.511719 229.65625 555.800781 C 229.886719 555.085938 230.503906 554.570312 231.242188 554.460938 L 246.4375 552.25 L 253.230469 538.472656 C 253.558594 537.800781 254.242188 537.375 254.992188 537.375 C 255.742188 537.375 256.425781 537.800781 256.753906 538.472656 L 263.546875 552.25 L 278.742188 554.460938 C 279.480469 554.570312 280.097656 555.085938 280.328125 555.800781 C 280.558594 556.511719 280.367188 557.292969 279.828125 557.816406 L 268.835938 568.542969 L 271.433594 583.683594 C 271.558594 584.421875 271.253906 585.167969 270.648438 585.609375 C 270.308594 585.855469 269.902344 585.984375 269.496094 585.984375 Z M 254.992188 574.417969 C 255.304688 574.417969 255.621094 574.492188 255.90625 574.644531 L 266.882812 580.417969 L 264.785156 568.1875 C 264.679688 567.546875 264.890625 566.898438 265.351562 566.445312 L 274.234375 557.78125 L 261.960938 555.996094 C 261.320312 555.902344 260.765625 555.5 260.480469 554.921875 L 254.992188 543.789062 L 249.503906 554.921875 C 249.21875 555.5 248.664062 555.902344 248.023438 555.996094 L 235.75 557.78125 L 244.632812 566.445312 C 245.09375 566.898438 245.304688 567.546875 245.195312 568.1875 L 243.101562 580.417969 L 254.078125 574.644531 C 254.363281 574.492188 254.679688 574.417969 254.992188 574.417969 Z M 254.992188 574.417969 " fill-opacity="1" fill-rule="nonzero"/><path fill="#fff159" d="M 314.382812 539.34375 L 321.632812 554.050781 L 337.847656 556.40625 L 326.117188 567.855469 L 328.886719 584.015625 L 314.382812 576.386719 L 299.878906 584.015625 L 302.648438 567.855469 L 290.917969 556.40625 L 307.132812 554.050781 Z M 314.382812 539.34375 " fill-opacity="1" fill-rule="nonzero"/><path fill="#2d3277" d="M 328.886719 585.984375 C 328.570312 585.984375 328.257812 585.910156 327.96875 585.757812 L 314.382812 578.609375 L 300.796875 585.757812 C 300.132812 586.105469 299.332031 586.046875 298.722656 585.609375 C 298.117188 585.167969 297.816406 584.421875 297.941406 583.683594 L 300.539062 568.542969 L 289.542969 557.816406 C 289.007812 557.292969 288.816406 556.511719 289.046875 555.800781 C 289.277344 555.085938 289.894531 554.570312 290.632812 554.460938 L 305.828125 552.25 L 312.621094 538.472656 C 312.949219 537.800781 313.632812 537.375 314.382812 537.375 C 315.132812 537.375 315.816406 537.800781 316.144531 538.472656 L 322.9375 552.25 L 338.132812 554.460938 C 338.871094 554.570312 339.488281 555.085938 339.71875 555.800781 C 339.949219 556.511719 339.757812 557.292969 339.21875 557.816406 L 328.226562 568.542969 L 330.824219 583.683594 C 330.949219 584.421875 330.648438 585.167969 330.042969 585.609375 C 329.699219 585.855469 329.292969 585.984375 328.886719 585.984375 Z M 314.382812 574.417969 C 314.695312 574.417969 315.011719 574.492188 315.296875 574.644531 L 326.273438 580.417969 L 324.179688 568.1875 C 324.070312 567.546875 324.28125 566.898438 324.742188 566.445312 L 333.625 557.78125 L 321.351562 555.996094 C 320.710938 555.902344 320.15625 555.5 319.871094 554.921875 L 314.382812 543.789062 L 308.894531 554.921875 C 308.609375 555.5 308.054688 555.902344 307.414062 555.996094 L 295.140625 557.78125 L 304.023438 566.445312 C 304.484375 566.898438 304.695312 567.546875 304.585938 568.1875 L 302.492188 580.417969 L 313.46875 574.644531 C 313.753906 574.492188 314.070312 574.417969 314.382812 574.417969 Z M 314.382812 574.417969 " fill-opacity="1" fill-rule="nonzero"/><path fill="#fff159" d="M 373.773438 539.34375 L 381.023438 554.050781 L 397.238281 556.40625 L 385.507812 567.855469 L 388.277344 584.015625 L 373.773438 576.386719 L 359.269531 584.015625 L 362.042969 567.855469 L 350.308594 556.40625 L 366.523438 554.050781 Z M 373.773438 539.34375 " fill-opacity="1" fill-rule="nonzero"/><path fill="#2d3277" d="M 388.277344 585.984375 C 387.964844 585.984375 387.648438 585.910156 387.363281 585.757812 L 373.773438 578.609375 L 360.1875 585.757812 C 359.523438 586.105469 358.722656 586.046875 358.113281 585.609375 C 357.507812 585.167969 357.207031 584.421875 357.332031 583.683594 L 359.929688 568.542969 L 348.933594 557.816406 C 348.398438 557.292969 348.207031 556.511719 348.4375 555.800781 C 348.667969 555.085938 349.285156 554.570312 350.023438 554.460938 L 365.21875 552.25 L 372.011719 538.472656 C 372.339844 537.800781 373.023438 537.375 373.773438 537.375 C 374.523438 537.375 375.207031 537.800781 375.535156 538.472656 L 382.332031 552.25 L 397.523438 554.460938 C 398.261719 554.570312 398.878906 555.085938 399.109375 555.800781 C 399.339844 556.511719 399.148438 557.292969 398.613281 557.816406 L 387.617188 568.542969 L 390.214844 583.683594 C 390.34375 584.421875 390.039062 585.167969 389.433594 585.609375 C 389.089844 585.855469 388.683594 585.984375 388.277344 585.984375 Z M 373.773438 574.417969 C 374.085938 574.417969 374.402344 574.492188 374.6875 574.644531 L 385.667969 580.417969 L 383.570312 568.1875 C 383.460938 567.546875 383.671875 566.898438 384.132812 566.445312 L 393.015625 557.78125 L 380.742188 555.996094 C 380.101562 555.902344 379.546875 555.5 379.261719 554.921875 L 373.773438 543.789062 L 368.285156 554.921875 C 368 555.5 367.445312 555.902344 366.804688 555.996094 L 354.53125 557.78125 L 363.414062 566.445312 C 363.878906 566.898438 364.089844 567.546875 363.980469 568.1875 L 361.882812 580.417969 L 372.859375 574.644531 C 373.144531 574.492188 373.460938 574.417969 373.773438 574.417969 Z M 373.773438 574.417969 " fill-opacity="1" fill-rule="nonzero"/><path fill="#fff159" d="M 472.039062 581.300781 C 471.253906 581.300781 470.546875 580.832031 470.234375 580.113281 L 468.152344 575.289062 L 457.773438 575.289062 L 455.722656 580.101562 C 455.414062 580.828125 454.703125 581.300781 453.914062 581.300781 L 448.949219 581.300781 C 448.285156 581.300781 447.660156 580.960938 447.300781 580.402344 C 446.9375 579.839844 446.882812 579.132812 447.15625 578.523438 L 458.832031 552.5625 C 459.148438 551.855469 459.851562 551.402344 460.625 551.402344 L 465.367188 551.402344 C 466.140625 551.402344 466.84375 551.855469 467.160156 552.558594 L 478.871094 578.523438 C 479.144531 579.132812 479.09375 579.839844 478.730469 580.398438 C 478.367188 580.960938 477.746094 581.300781 477.078125 581.300781 Z M 464.863281 567.574219 L 462.96875 563.171875 L 461.085938 567.574219 Z M 464.863281 567.574219 " fill-opacity="1" fill-rule="nonzero"/><path fill="#2d3277" d="M 465.367188 553.367188 L 477.078125 579.332031 L 472.039062 579.332031 L 469.445312 573.324219 L 456.472656 573.324219 L 453.917969 579.332031 L 448.949219 579.332031 L 460.625 553.367188 L 465.367188 553.367188 M 458.105469 569.539062 L 467.851562 569.539062 L 462.960938 558.191406 L 458.105469 569.539062 M 465.367188 549.433594 L 460.625 549.433594 C 459.078125 549.433594 457.675781 550.339844 457.039062 551.753906 L 445.363281 577.71875 C 444.816406 578.933594 444.921875 580.347656 445.648438 581.46875 C 446.371094 582.589844 447.617188 583.269531 448.949219 583.269531 L 453.917969 583.269531 C 455.492188 583.269531 456.914062 582.324219 457.535156 580.875 L 459.074219 577.257812 L 466.859375 577.257812 L 468.429688 580.894531 C 469.054688 582.335938 470.472656 583.269531 472.039062 583.269531 L 477.078125 583.269531 C 478.414062 583.269531 479.660156 582.589844 480.382812 581.46875 C 481.105469 580.34375 481.210938 578.929688 480.664062 577.714844 L 468.953125 551.75 C 468.316406 550.339844 466.914062 549.433594 465.367188 549.433594 Z M 465.367188 549.433594 " fill-opacity="1" fill-rule="nonzero"/><path fill="#fff159" d="M 488.117188 581.558594 C 481.179688 581.558594 476.144531 576.457031 476.144531 569.429688 C 476.144531 562.308594 481.070312 557.335938 488.117188 557.335938 C 489.734375 557.335938 491.214844 557.621094 492.527344 558.171875 L 492.527344 551.808594 C 492.527344 550.722656 493.410156 549.84375 494.492188 549.84375 L 499.128906 549.84375 C 500.210938 549.84375 501.09375 550.722656 501.09375 551.808594 L 501.09375 579.332031 C 501.09375 580.417969 500.210938 581.300781 499.128906 581.300781 L 494.679688 581.300781 C 494.023438 581.300781 493.445312 580.980469 493.085938 580.488281 C 491.640625 581.195312 489.96875 581.558594 488.117188 581.558594 Z M 488.675781 565.203125 C 486.289062 565.203125 484.75 566.859375 484.75 569.429688 C 484.75 571.996094 486.289062 573.65625 488.675781 573.65625 C 491.0625 573.65625 492.601562 571.996094 492.601562 569.429688 C 492.601562 566.859375 491.0625 565.203125 488.675781 565.203125 Z M 488.675781 565.203125 " fill-opacity="1" fill-rule="nonzero"/><path fill="#2d3277" d="M 499.128906 551.808594 L 499.128906 579.332031 L 494.679688 579.332031 L 494.679688 576.773438 C 493.125 578.664062 490.824219 579.59375 488.121094 579.59375 C 482.375 579.59375 478.113281 575.585938 478.113281 569.429688 C 478.113281 563.273438 482.375 559.300781 488.121094 559.300781 C 490.675781 559.300781 492.9375 560.15625 494.496094 561.972656 L 494.496094 551.808594 L 499.128906 551.808594 M 488.675781 575.625 C 492.011719 575.625 494.566406 573.210938 494.566406 569.429688 C 494.566406 565.644531 492.011719 563.234375 488.675781 563.234375 C 485.339844 563.234375 482.78125 565.644531 482.78125 569.429688 C 482.78125 573.210938 485.339844 575.625 488.675781 575.625 M 499.128906 547.875 L 494.496094 547.875 C 492.324219 547.875 490.5625 549.636719 490.5625 551.808594 L 490.5625 555.574219 C 489.777344 555.4375 488.960938 555.367188 488.121094 555.367188 C 480.042969 555.367188 474.179688 561.28125 474.179688 569.429688 C 474.179688 577.597656 480.042969 583.527344 488.121094 583.527344 C 489.765625 583.527344 491.320312 583.261719 492.734375 582.753906 C 493.308594 583.082031 493.972656 583.269531 494.679688 583.269531 L 499.128906 583.269531 C 501.296875 583.269531 503.058594 581.507812 503.058594 579.332031 L 503.058594 551.808594 C 503.058594 549.636719 501.296875 547.875 499.128906 547.875 Z M 488.675781 571.6875 C 487.054688 571.6875 486.714844 570.460938 486.714844 569.429688 C 486.714844 568.398438 487.054688 567.167969 488.675781 567.167969 C 490.296875 567.167969 490.636719 568.398438 490.636719 569.429688 C 490.636719 570.460938 490.296875 571.6875 488.675781 571.6875 Z M 488.675781 571.6875 " fill-opacity="1" fill-rule="nonzero"/><path fill="#fff159" d="M 513.578125 581.558594 C 506.640625 581.558594 501.605469 576.457031 501.605469 569.429688 C 501.605469 562.308594 506.527344 557.335938 513.578125 557.335938 C 515.191406 557.335938 516.671875 557.621094 517.984375 558.171875 L 517.984375 551.808594 C 517.984375 550.722656 518.867188 549.84375 519.953125 549.84375 L 524.582031 549.84375 C 525.667969 549.84375 526.550781 550.722656 526.550781 551.808594 L 526.550781 579.332031 C 526.550781 580.417969 525.667969 581.300781 524.582031 581.300781 L 520.136719 581.300781 C 519.480469 581.300781 518.902344 580.980469 518.542969 580.488281 C 517.097656 581.195312 515.425781 581.558594 513.578125 581.558594 Z M 514.132812 565.203125 C 511.746094 565.203125 510.203125 566.859375 510.203125 569.429688 C 510.203125 571.996094 511.746094 573.65625 514.132812 573.65625 C 516.515625 573.65625 518.058594 571.996094 518.058594 569.429688 C 518.058594 566.859375 516.515625 565.203125 514.132812 565.203125 Z M 514.132812 565.203125 " fill-opacity="1" fill-rule="nonzero"/><path fill="#2d3277" d="M 524.585938 551.808594 L 524.585938 579.332031 L 520.136719 579.332031 L 520.136719 576.773438 C 518.582031 578.664062 516.28125 579.59375 513.578125 579.59375 C 507.832031 579.59375 503.570312 575.585938 503.570312 569.429688 C 503.570312 563.273438 507.832031 559.300781 513.578125 559.300781 C 516.132812 559.300781 518.394531 560.15625 519.953125 561.972656 L 519.953125 551.808594 L 524.585938 551.808594 M 514.132812 575.625 C 517.46875 575.625 520.027344 573.210938 520.027344 569.429688 C 520.027344 565.644531 517.46875 563.234375 514.132812 563.234375 C 510.796875 563.234375 508.238281 565.644531 508.238281 569.429688 C 508.238281 573.210938 510.796875 575.625 514.132812 575.625 M 524.585938 547.875 L 519.953125 547.875 C 517.78125 547.875 516.019531 549.636719 516.019531 551.808594 L 516.019531 555.574219 C 515.234375 555.4375 514.417969 555.367188 513.578125 555.367188 C 505.5 555.367188 499.636719 561.28125 499.636719 569.429688 C 499.636719 577.597656 505.5 583.527344 513.578125 583.527344 C 515.222656 583.527344 516.777344 583.261719 518.191406 582.753906 C 518.765625 583.082031 519.429688 583.269531 520.136719 583.269531 L 524.585938 583.269531 C 526.753906 583.269531 528.515625 581.507812 528.515625 579.332031 L 528.515625 551.808594 C 528.515625 549.636719 526.753906 547.875 524.585938 547.875 Z M 514.132812 571.6875 C 512.511719 571.6875 512.171875 570.460938 512.171875 569.429688 C 512.171875 568.398438 512.511719 567.167969 514.132812 567.167969 C 515.753906 567.167969 516.09375 568.398438 516.09375 569.429688 C 516.09375 570.460938 515.753906 571.6875 514.132812 571.6875 Z M 514.132812 571.6875 " fill-opacity="1" fill-rule="nonzero"/><path fill="#fff159" d="M 547.320312 581.558594 C 541.816406 581.558594 538.535156 578.328125 538.535156 572.914062 L 538.535156 565.351562 L 537.238281 565.351562 C 536.152344 565.351562 535.273438 564.46875 535.273438 563.382812 L 535.273438 559.671875 C 535.273438 558.585938 536.152344 557.707031 537.238281 557.707031 L 538.535156 557.707031 L 538.535156 555.148438 C 538.535156 554.0625 539.414062 553.179688 540.5 553.179688 L 545.132812 553.179688 C 546.21875 553.179688 547.097656 554.0625 547.097656 555.148438 L 547.097656 557.707031 L 550.429688 557.707031 C 551.515625 557.707031 552.398438 558.585938 552.398438 559.671875 L 552.398438 563.382812 C 552.398438 564.46875 551.515625 565.351562 550.429688 565.351562 L 547.097656 565.351562 L 547.097656 572.804688 C 547.097656 573.804688 547.339844 573.804688 547.875 573.804688 C 548.441406 573.804688 548.933594 573.664062 549.253906 573.410156 C 549.601562 573.136719 550.035156 572.988281 550.46875 572.988281 C 550.640625 572.988281 550.8125 573.011719 550.984375 573.058594 C 551.582031 573.21875 552.074219 573.65625 552.300781 574.238281 L 553.59375 577.535156 C 553.910156 578.339844 553.667969 579.253906 552.996094 579.792969 C 551.59375 580.914062 549.523438 581.558594 547.320312 581.558594 Z M 547.320312 581.558594 " fill-opacity="1" fill-rule="nonzero"/><path fill="#2d3277" d="M 545.132812 555.148438 L 545.132812 559.671875 L 550.433594 559.671875 L 550.433594 563.382812 L 545.132812 563.382812 L 545.132812 572.804688 C 545.132812 574.734375 546.09375 575.773438 547.875 575.773438 C 548.839844 575.773438 549.765625 575.511719 550.46875 574.957031 L 551.765625 578.257812 C 550.65625 579.148438 548.988281 579.59375 547.320312 579.59375 C 542.980469 579.59375 540.5 577.292969 540.5 572.914062 L 540.5 563.382812 L 537.238281 563.382812 L 537.238281 559.671875 L 540.5 559.671875 L 540.5 555.148438 L 545.132812 555.148438 M 545.132812 551.210938 L 540.5 551.210938 C 538.328125 551.210938 536.566406 552.972656 536.566406 555.148438 L 536.566406 555.796875 C 534.714844 556.113281 533.304688 557.730469 533.304688 559.671875 L 533.304688 563.382812 C 533.304688 565.328125 534.714844 566.941406 536.566406 567.261719 L 536.566406 572.914062 C 536.566406 579.363281 540.789062 583.527344 547.320312 583.527344 C 550 583.527344 552.453125 582.746094 554.222656 581.328125 C 555.570312 580.25 556.054688 578.421875 555.425781 576.816406 L 554.128906 573.515625 C 553.671875 572.355469 552.695312 571.480469 551.496094 571.15625 C 551.15625 571.066406 550.8125 571.019531 550.46875 571.019531 C 549.988281 571.019531 549.511719 571.109375 549.0625 571.28125 L 549.0625 567.316406 L 550.433594 567.316406 C 552.601562 567.316406 554.363281 565.554688 554.363281 563.382812 L 554.363281 559.671875 C 554.363281 557.5 552.601562 555.738281 550.433594 555.738281 L 549.0625 555.738281 L 549.0625 555.148438 C 549.0625 552.972656 547.304688 551.210938 545.132812 551.210938 Z M 545.132812 551.210938 " fill-opacity="1" fill-rule="nonzero"/><path fill="#fff159" d="M 564.824219 581.558594 C 557.585938 581.558594 552.332031 576.457031 552.332031 569.429688 C 552.332031 562.421875 557.585938 557.335938 564.824219 557.335938 C 572.082031 557.335938 577.351562 562.421875 577.351562 569.429688 C 577.351562 576.457031 572.082031 581.558594 564.824219 581.558594 Z M 564.824219 565.203125 C 562.460938 565.203125 560.933594 566.859375 560.933594 569.429688 C 560.933594 571.996094 562.460938 573.65625 564.824219 573.65625 C 567.207031 573.65625 568.75 571.996094 568.75 569.429688 C 568.75 566.859375 567.207031 565.203125 564.824219 565.203125 Z M 564.824219 565.203125 " fill-opacity="1" fill-rule="nonzero"/><path fill="#2d3277" d="M 564.824219 559.300781 C 570.976562 559.300781 575.386719 563.492188 575.386719 569.429688 C 575.386719 575.363281 570.976562 579.59375 564.824219 579.59375 C 558.746094 579.59375 554.296875 575.363281 554.296875 569.429688 C 554.296875 563.492188 558.746094 559.300781 564.824219 559.300781 M 564.824219 575.625 C 568.195312 575.625 570.714844 573.210938 570.714844 569.429688 C 570.714844 565.644531 568.195312 563.234375 564.824219 563.234375 C 561.488281 563.234375 558.96875 565.644531 558.96875 569.429688 C 558.96875 573.210938 561.488281 575.625 564.824219 575.625 M 564.824219 555.367188 C 556.582031 555.367188 550.367188 561.414062 550.367188 569.429688 C 550.367188 577.464844 556.582031 583.527344 564.824219 583.527344 C 573.222656 583.527344 579.316406 577.597656 579.316406 569.429688 C 579.316406 561.28125 573.222656 555.367188 564.824219 555.367188 Z M 564.824219 571.6875 C 563.234375 571.6875 562.898438 570.460938 562.898438 569.429688 C 562.898438 568.398438 563.234375 567.167969 564.824219 567.167969 C 566.125 567.167969 566.785156 567.929688 566.785156 569.429688 C 566.785156 570.929688 566.125 571.6875 564.824219 571.6875 Z M 564.824219 571.6875 " fill-opacity="1" fill-rule="nonzero"/><path fill="#fff159" d="M 598.714844 581.671875 C 589.691406 581.671875 582.886719 575.085938 582.886719 566.351562 C 582.886719 557.617188 589.707031 551.027344 598.75 551.027344 C 603.566406 551.027344 607.742188 552.816406 610.511719 556.058594 C 611.191406 556.855469 611.128906 558.050781 610.363281 558.769531 L 607.25 561.699219 C 606.886719 562.042969 606.402344 562.234375 605.90625 562.234375 C 605.882812 562.234375 605.859375 562.234375 605.835938 562.234375 C 605.3125 562.214844 604.820312 561.988281 604.464844 561.605469 C 602.960938 559.980469 601.164062 559.191406 598.972656 559.191406 C 594.675781 559.191406 591.675781 562.136719 591.675781 566.351562 C 591.675781 570.5625 594.675781 573.507812 598.972656 573.507812 C 601.167969 573.507812 602.960938 572.710938 604.449219 571.070312 C 604.808594 570.679688 605.304688 570.449219 605.835938 570.429688 C 605.859375 570.429688 605.882812 570.429688 605.90625 570.429688 C 606.410156 570.429688 606.894531 570.621094 607.261719 570.972656 L 610.375 573.9375 C 611.128906 574.660156 611.191406 575.847656 610.511719 576.640625 C 607.738281 579.886719 603.550781 581.671875 598.714844 581.671875 Z M 598.714844 581.671875 " fill-opacity="1" fill-rule="nonzero"/><path fill="#2d3277" d="M 598.75 552.996094 C 602.976562 552.996094 606.609375 554.515625 609.015625 557.335938 L 605.90625 560.265625 C 604.015625 558.226562 601.679688 557.226562 598.972656 557.226562 C 593.597656 557.226562 589.707031 561.007812 589.707031 566.351562 C 589.707031 571.691406 593.597656 575.476562 598.972656 575.476562 C 601.679688 575.476562 604.015625 574.472656 605.90625 572.394531 L 609.015625 575.363281 C 606.609375 578.183594 602.976562 579.703125 598.714844 579.703125 C 590.78125 579.703125 584.851562 574.101562 584.851562 566.351562 C 584.851562 558.597656 590.78125 552.996094 598.75 552.996094 M 598.75 549.0625 C 588.585938 549.0625 580.921875 556.492188 580.921875 566.351562 C 580.921875 576.207031 588.570312 583.640625 598.714844 583.640625 C 604.132812 583.640625 608.855469 581.609375 612.003906 577.921875 C 613.363281 576.332031 613.242188 573.957031 611.730469 572.515625 L 608.617188 569.546875 C 607.882812 568.847656 606.914062 568.460938 605.90625 568.460938 C 605.859375 568.460938 605.8125 568.460938 605.765625 568.464844 C 604.707031 568.5 603.710938 568.964844 602.996094 569.746094 C 601.882812 570.96875 600.605469 571.539062 598.972656 571.539062 C 595.734375 571.539062 593.640625 569.503906 593.640625 566.351562 C 593.640625 563.199219 595.734375 561.160156 598.972656 561.160156 C 600.609375 561.160156 601.894531 561.726562 603.019531 562.941406 C 603.734375 563.710938 604.722656 564.164062 605.769531 564.199219 C 605.816406 564.203125 605.859375 564.203125 605.90625 564.203125 C 606.902344 564.203125 607.867188 563.820312 608.597656 563.132812 L 611.710938 560.203125 C 613.242188 558.765625 613.371094 556.375 612.003906 554.777344 C 608.855469 551.09375 604.148438 549.0625 598.75 549.0625 Z M 598.75 549.0625 " fill-opacity="1" fill-rule="nonzero"/><path fill="#fff159" d="M 620.246094 581.558594 C 614.746094 581.558594 610.90625 578.308594 610.90625 573.65625 C 610.90625 572.347656 611.277344 568.921875 614.890625 567.054688 C 614.320312 566.9375 613.828125 566.574219 613.550781 566.058594 L 611.734375 562.683594 C 611.277344 561.835938 611.5 560.78125 612.261719 560.191406 C 614.648438 558.351562 618.050781 557.335938 621.839844 557.335938 C 628.8125 557.335938 632.8125 561.121094 632.8125 567.722656 L 632.8125 579.332031 C 632.8125 580.417969 631.933594 581.300781 630.847656 581.300781 L 626.472656 581.300781 C 625.882812 581.300781 625.355469 581.039062 624.992188 580.628906 C 623.65625 581.238281 622.050781 581.558594 620.246094 581.558594 Z M 621.433594 572.804688 C 619.394531 572.804688 619.394531 573.289062 619.394531 573.472656 C 619.394531 574.210938 620.90625 574.25 621.210938 574.25 C 621.894531 574.25 623.46875 574.101562 624.203125 572.804688 Z M 621.285156 565.128906 C 619.792969 565.128906 618.234375 565.550781 617.113281 566.234375 C 618.230469 565.957031 619.546875 565.792969 621.101562 565.792969 L 623.714844 565.792969 C 623.300781 565.394531 622.570312 565.128906 621.285156 565.128906 Z M 621.285156 565.128906 " fill-opacity="1" fill-rule="nonzero"/><path fill="#2d3277" d="M 621.839844 559.300781 C 627.546875 559.300781 630.847656 562.011719 630.847656 567.722656 L 630.847656 579.332031 L 626.472656 579.332031 L 626.472656 576.921875 C 625.363281 578.628906 623.210938 579.59375 620.246094 579.59375 C 615.726562 579.59375 612.871094 577.105469 612.871094 573.65625 C 612.871094 570.355469 615.09375 567.761719 621.101562 567.761719 L 626.214844 567.761719 L 626.214844 567.464844 C 626.214844 564.753906 624.582031 563.160156 621.285156 563.160156 C 619.0625 563.160156 616.761719 563.902344 615.28125 565.125 L 613.464844 561.75 C 615.578125 560.117188 618.652344 559.300781 621.839844 559.300781 M 621.210938 576.21875 C 623.472656 576.21875 625.4375 575.179688 626.214844 573.136719 L 626.214844 570.839844 L 621.433594 570.839844 C 618.28125 570.839844 617.429688 572.027344 617.429688 573.472656 C 617.429688 575.140625 618.839844 576.21875 621.210938 576.21875 M 621.839844 555.367188 C 617.617188 555.367188 613.789062 556.527344 611.0625 558.636719 C 609.539062 559.8125 609.089844 561.921875 610.003906 563.617188 L 611.753906 566.867188 C 609.765625 568.742188 608.941406 571.242188 608.941406 573.65625 C 608.941406 579.375 613.695312 583.527344 620.246094 583.527344 C 621.875 583.527344 623.375 583.296875 624.710938 582.851562 C 625.242188 583.117188 625.839844 583.269531 626.472656 583.269531 L 630.847656 583.269531 C 633.019531 583.269531 634.777344 581.507812 634.777344 579.332031 L 634.777344 567.722656 C 634.777344 559.984375 629.941406 555.367188 621.839844 555.367188 Z M 621.839844 555.367188 " fill-opacity="1" fill-rule="nonzero"/><path fill="#fff159" d="M 635.507812 581.300781 C 634.421875 581.300781 633.542969 580.417969 633.542969 579.332031 L 633.542969 559.523438 C 633.542969 558.4375 634.421875 557.558594 635.507812 557.558594 L 639.917969 557.558594 C 640.605469 557.558594 641.210938 557.910156 641.5625 558.445312 C 642.910156 557.785156 644.667969 557.335938 646.960938 557.335938 C 648.042969 557.335938 648.925781 558.214844 648.925781 559.304688 L 648.925781 563.71875 C 648.925781 564.300781 648.667969 564.855469 648.21875 565.230469 C 647.863281 565.527344 647.414062 565.683594 646.960938 565.683594 C 646.839844 565.683594 646.722656 565.675781 646.605469 565.652344 C 646.296875 565.597656 646.078125 565.570312 645.886719 565.570312 C 643.304688 565.570312 642.105469 566.890625 642.105469 569.726562 L 642.105469 579.332031 C 642.105469 580.417969 641.226562 581.300781 640.140625 581.300781 Z M 635.507812 581.300781 " fill-opacity="1" fill-rule="nonzero"/><path fill="#2d3277" d="M 646.960938 559.300781 L 646.960938 563.714844 C 646.550781 563.640625 646.21875 563.605469 645.886719 563.605469 C 642.363281 563.605469 640.140625 565.683594 640.140625 569.726562 L 640.140625 579.332031 L 635.507812 579.332031 L 635.507812 559.523438 L 639.917969 559.523438 L 639.917969 562.417969 C 641.25 560.339844 643.660156 559.300781 646.960938 559.300781 M 646.960938 555.367188 C 644.972656 555.367188 643.316406 555.667969 641.941406 556.148438 C 641.347656 555.792969 640.65625 555.589844 639.917969 555.589844 L 635.507812 555.589844 C 633.335938 555.589844 631.574219 557.351562 631.574219 559.523438 L 631.574219 579.332031 C 631.574219 581.507812 633.335938 583.269531 635.507812 583.269531 L 640.140625 583.269531 C 642.3125 583.269531 644.070312 581.507812 644.070312 579.332031 L 644.070312 569.726562 C 644.070312 567.644531 644.761719 567.539062 645.886719 567.539062 C 645.957031 567.539062 646.082031 567.554688 646.253906 567.589844 C 646.488281 567.632812 646.726562 567.652344 646.960938 567.652344 C 647.871094 567.652344 648.765625 567.332031 649.476562 566.738281 C 650.375 565.992188 650.890625 564.882812 650.890625 563.714844 L 650.890625 559.300781 C 650.890625 557.128906 649.128906 555.367188 646.960938 555.367188 Z M 646.960938 555.367188 " fill-opacity="1" fill-rule="nonzero"/><path fill="#fff159" d="M 661.605469 581.558594 C 656.105469 581.558594 652.820312 578.328125 652.820312 572.914062 L 652.820312 565.351562 L 651.523438 565.351562 C 650.4375 565.351562 649.558594 564.46875 649.558594 563.382812 L 649.558594 559.671875 C 649.558594 558.585938 650.4375 557.707031 651.523438 557.707031 L 652.820312 557.707031 L 652.820312 555.148438 C 652.820312 554.0625 653.699219 553.179688 654.785156 553.179688 L 659.417969 553.179688 C 660.503906 553.179688 661.386719 554.0625 661.386719 555.148438 L 661.386719 557.707031 L 664.71875 557.707031 C 665.804688 557.707031 666.683594 558.585938 666.683594 559.671875 L 666.683594 563.382812 C 666.683594 564.46875 665.804688 565.351562 664.71875 565.351562 L 661.386719 565.351562 L 661.386719 572.804688 C 661.386719 573.804688 661.628906 573.804688 662.160156 573.804688 C 662.730469 573.804688 663.21875 573.664062 663.539062 573.410156 C 663.890625 573.136719 664.320312 572.988281 664.757812 572.988281 C 664.929688 572.988281 665.101562 573.011719 665.269531 573.058594 C 665.871094 573.21875 666.359375 573.65625 666.585938 574.238281 L 667.882812 577.535156 C 668.199219 578.339844 667.953125 579.25 667.28125 579.789062 C 665.882812 580.914062 663.8125 581.558594 661.605469 581.558594 Z M 661.605469 581.558594 " fill-opacity="1" fill-rule="nonzero"/><path fill="#2d3277" d="M 659.417969 555.148438 L 659.417969 559.671875 L 664.71875 559.671875 L 664.71875 563.382812 L 659.417969 563.382812 L 659.417969 572.804688 C 659.417969 574.734375 660.382812 575.773438 662.160156 575.773438 C 663.125 575.773438 664.050781 575.511719 664.753906 574.957031 L 666.054688 578.257812 C 664.941406 579.148438 663.273438 579.59375 661.605469 579.59375 C 657.269531 579.59375 654.785156 577.292969 654.785156 572.914062 L 654.785156 563.382812 L 651.523438 563.382812 L 651.523438 559.671875 L 654.785156 559.671875 L 654.785156 555.148438 L 659.417969 555.148438 M 659.417969 551.210938 L 654.785156 551.210938 C 652.613281 551.210938 650.855469 552.972656 650.855469 555.148438 L 650.855469 555.796875 C 649.003906 556.113281 647.59375 557.730469 647.59375 559.671875 L 647.59375 563.382812 C 647.59375 565.328125 649.003906 566.941406 650.855469 567.261719 L 650.855469 572.914062 C 650.855469 579.363281 655.074219 583.527344 661.605469 583.527344 C 664.289062 583.527344 666.742188 582.746094 668.511719 581.328125 C 669.855469 580.25 670.34375 578.421875 669.710938 576.816406 L 668.414062 573.515625 C 667.960938 572.355469 666.980469 571.480469 665.78125 571.15625 C 665.441406 571.066406 665.097656 571.019531 664.757812 571.019531 C 664.273438 571.019531 663.800781 571.109375 663.351562 571.28125 L 663.351562 567.316406 L 664.71875 567.316406 C 666.890625 567.316406 668.652344 565.554688 668.652344 563.382812 L 668.652344 559.671875 C 668.652344 557.5 666.890625 555.738281 664.71875 555.738281 L 663.351562 555.738281 L 663.351562 555.148438 C 663.351562 552.972656 661.589844 551.210938 659.417969 551.210938 Z M 659.417969 551.210938 " fill-opacity="1" fill-rule="nonzero"/><path fill="#ffd100" d="M 704.648438 256.523438 C 704.648438 257.136719 704.617188 257.75 704.558594 258.359375 C 704.5 258.972656 704.410156 259.578125 704.289062 260.179688 C 704.167969 260.78125 704.019531 261.378906 703.84375 261.964844 C 703.664062 262.550781 703.457031 263.128906 703.222656 263.695312 C 702.988281 264.265625 702.726562 264.820312 702.4375 265.359375 C 702.148438 265.902344 701.832031 266.429688 701.492188 266.9375 C 701.152344 267.449219 700.785156 267.941406 700.394531 268.417969 C 700.007812 268.890625 699.597656 269.34375 699.160156 269.78125 C 698.726562 270.214844 698.273438 270.625 697.800781 271.015625 C 697.324219 271.40625 696.832031 271.769531 696.324219 272.113281 C 695.8125 272.453125 695.289062 272.769531 694.746094 273.058594 C 694.207031 273.347656 693.652344 273.609375 693.085938 273.84375 C 692.515625 274.078125 691.941406 274.285156 691.351562 274.464844 C 690.765625 274.640625 690.171875 274.792969 689.570312 274.910156 C 688.96875 275.03125 688.363281 275.121094 687.75 275.179688 C 687.140625 275.242188 686.527344 275.269531 685.914062 275.269531 C 685.300781 275.269531 684.691406 275.242188 684.078125 275.179688 C 683.46875 275.121094 682.863281 275.03125 682.261719 274.910156 C 681.660156 274.792969 681.066406 274.640625 680.476562 274.464844 C 679.890625 274.285156 679.3125 274.078125 678.746094 273.84375 C 678.179688 273.609375 677.625 273.347656 677.085938 273.058594 C 676.542969 272.769531 676.019531 272.453125 675.507812 272.113281 C 674.996094 271.769531 674.503906 271.40625 674.03125 271.015625 C 673.558594 270.625 673.101562 270.214844 672.667969 269.78125 C 672.234375 269.34375 671.824219 268.890625 671.433594 268.417969 C 671.046875 267.941406 670.679688 267.449219 670.339844 266.9375 C 670 266.429688 669.683594 265.902344 669.394531 265.359375 C 669.105469 264.820312 668.84375 264.265625 668.609375 263.695312 C 668.375 263.128906 668.167969 262.550781 667.988281 261.964844 C 667.8125 261.378906 667.660156 260.78125 667.542969 260.179688 C 667.421875 259.578125 667.332031 258.972656 667.273438 258.359375 C 667.210938 257.75 667.183594 257.136719 667.183594 256.523438 C 667.183594 255.910156 667.210938 255.296875 667.273438 254.683594 C 667.332031 254.074219 667.421875 253.46875 667.542969 252.863281 C 667.660156 252.261719 667.8125 251.667969 667.988281 251.078125 C 668.167969 250.492188 668.375 249.914062 668.609375 249.347656 C 668.84375 248.78125 669.105469 248.226562 669.394531 247.683594 C 669.683594 247.144531 670 246.617188 670.339844 246.105469 C 670.679688 245.597656 671.046875 245.101562 671.433594 244.628906 C 671.824219 244.152344 672.234375 243.699219 672.667969 243.265625 C 673.101562 242.832031 673.558594 242.417969 674.03125 242.03125 C 674.503906 241.640625 674.996094 241.273438 675.507812 240.933594 C 676.019531 240.59375 676.542969 240.277344 677.085938 239.988281 C 677.625 239.699219 678.179688 239.4375 678.746094 239.199219 C 679.3125 238.964844 679.890625 238.757812 680.476562 238.582031 C 681.066406 238.402344 681.660156 238.253906 682.261719 238.132812 C 682.863281 238.015625 683.46875 237.925781 684.078125 237.863281 C 684.691406 237.804688 685.300781 237.773438 685.914062 237.773438 C 686.527344 237.773438 687.140625 237.804688 687.75 237.863281 C 688.363281 237.925781 688.96875 238.015625 689.570312 238.132812 C 690.171875 238.253906 690.765625 238.402344 691.351562 238.582031 C 691.941406 238.757812 692.515625 238.964844 693.085938 239.199219 C 693.652344 239.4375 694.207031 239.699219 694.746094 239.988281 C 695.289062 240.277344 695.8125 240.59375 696.324219 240.933594 C 696.832031 241.273438 697.324219 241.640625 697.800781 242.03125 C 698.273438 242.417969 698.726562 242.832031 699.160156 243.265625 C 699.597656 243.699219 700.007812 244.152344 700.394531 244.628906 C 700.785156 245.101562 701.152344 245.597656 701.492188 246.105469 C 701.832031 246.617188 702.148438 247.144531 702.4375 247.683594 C 702.726562 248.226562 702.988281 248.78125 703.222656 249.347656 C 703.457031 249.914062 703.664062 250.492188 703.84375 251.078125 C 704.019531 251.667969 704.167969 252.261719 704.289062 252.863281 C 704.410156 253.46875 704.5 254.074219 704.558594 254.683594 C 704.617188 255.296875 704.648438 255.910156 704.648438 256.523438 Z M 704.648438 256.523438 " fill-opacity="1" fill-rule="nonzero"/><g fill="#ffffff" fill-opacity="1"><g transform="translate(680.986841, 265.209295)"><g><path d="M 7.234375 -0.921875 L 10.390625 -0.609375 L 10.390625 0 L 2.078125 0 L 2.078125 -0.609375 L 5.25 -0.921875 L 5.25 -13.546875 L 2.125 -12.4375 L 2.125 -13.046875 L 6.640625 -15.609375 L 7.234375 -15.609375 Z M 7.234375 -0.921875 "/></g></g></g><path fill="#2d3277" d="M 339.496094 492.03125 C 338.410156 492.03125 337.53125 491.148438 337.53125 490.0625 L 337.53125 473.601562 C 337.53125 472.515625 338.410156 471.632812 339.496094 471.632812 C 340.582031 471.632812 341.460938 472.515625 341.460938 473.601562 L 341.460938 490.0625 C 341.460938 491.148438 340.582031 492.03125 339.496094 492.03125 Z M 339.496094 492.03125 " fill-opacity="1" fill-rule="nonzero"/></svg>