<svg xmlns="http://www.w3.org/2000/svg" xmlns:xlink="http://www.w3.org/1999/xlink" width="1080" zoomAndPan="magnify" viewBox="0 0 810 809.999993" height="1080" preserveAspectRatio="xMidYMid meet" version="1.0"><defs><clipPath id="id1"><path d="M 76.082031 167.582031 L 733.832031 167.582031 L 733.832031 642.332031 L 76.082031 642.332031 Z M 76.082031 167.582031 " clip-rule="nonzero"/></clipPath><clipPath id="id2"><path d="M 76.082031 167.582031 L 733.832031 167.582031 L 733.832031 224 L 76.082031 224 Z M 76.082031 167.582031 " clip-rule="nonzero"/></clipPath><clipPath id="id3"><path d="M 76.082031 501 L 733.832031 501 L 733.832031 600 L 76.082031 600 Z M 76.082031 501 " clip-rule="nonzero"/></clipPath></defs><rect x="-81" width="972" fill="#ffffff" y="-80.999999" height="971.999992" fill-opacity="1"/><rect x="-81" width="972" fill="#ffffff" y="-80.999999" height="971.999992" fill-opacity="1"/><path fill="#ffffff" d="M 714.769531 640.34375 L 95.144531 640.34375 C 85.699219 640.34375 78.042969 632.6875 78.042969 623.242188 L 78.042969 186.710938 C 78.042969 177.269531 85.699219 169.613281 95.144531 169.613281 L 714.769531 169.613281 C 724.214844 169.613281 731.871094 177.269531 731.871094 186.710938 L 731.871094 623.242188 C 731.871094 632.6875 724.214844 640.34375 714.769531 640.34375 Z M 714.769531 640.34375 " fill-opacity="1" fill-rule="nonzero"/><g clip-path="url(#id1)"><path fill="#2d3277" d="M 714.871094 642.304688 L 95.042969 642.304688 C 84.585938 642.304688 76.082031 633.800781 76.082031 623.347656 L 76.082031 186.609375 C 76.082031 176.15625 84.585938 167.652344 95.042969 167.652344 L 714.871094 167.652344 C 725.324219 167.652344 733.832031 176.15625 733.832031 186.609375 L 733.832031 623.347656 C 733.832031 633.800781 725.324219 642.304688 714.871094 642.304688 Z M 95.042969 171.574219 C 86.75 171.574219 80.003906 178.320312 80.003906 186.609375 L 80.003906 623.347656 C 80.003906 631.636719 86.75 638.382812 95.042969 638.382812 L 714.871094 638.382812 C 723.160156 638.382812 729.910156 631.636719 729.910156 623.347656 L 729.910156 186.609375 C 729.910156 178.320312 723.160156 171.574219 714.871094 171.574219 Z M 95.042969 171.574219 " fill-opacity="1" fill-rule="nonzero"/></g><path fill="#7b98c9" d="M 731.871094 186.609375 C 731.871094 177.222656 724.257812 169.613281 714.871094 169.613281 L 95.042969 169.613281 C 85.652344 169.613281 78.042969 177.222656 78.042969 186.609375 L 78.042969 221.671875 L 731.871094 221.671875 Z M 731.871094 186.609375 " fill-opacity="1" fill-rule="nonzero"/><g clip-path="url(#id2)"><path fill="#2d3277" d="M 731.871094 223.636719 L 78.042969 223.636719 C 76.960938 223.636719 76.082031 222.757812 76.082031 221.671875 L 76.082031 186.609375 C 76.082031 176.15625 84.585938 167.652344 95.042969 167.652344 L 714.871094 167.652344 C 725.324219 167.652344 733.832031 176.15625 733.832031 186.609375 L 733.832031 221.671875 C 733.832031 222.757812 732.953125 223.636719 731.871094 223.636719 Z M 80.003906 219.710938 L 729.910156 219.710938 L 729.910156 186.609375 C 729.910156 178.320312 723.160156 171.574219 714.871094 171.574219 L 95.042969 171.574219 C 86.75 171.574219 80.003906 178.320312 80.003906 186.609375 Z M 80.003906 219.710938 " fill-opacity="1" fill-rule="nonzero"/></g><path fill="#ffffff" d="M 124.261719 197.035156 C 124.261719 197.75 124.191406 198.460938 124.054688 199.160156 C 123.914062 199.863281 123.707031 200.542969 123.433594 201.203125 C 123.160156 201.867188 122.824219 202.492188 122.425781 203.089844 C 122.027344 203.683594 121.578125 204.234375 121.070312 204.742188 C 120.566406 205.246094 120.015625 205.699219 119.417969 206.09375 C 118.824219 206.492188 118.195312 206.828125 117.535156 207.101562 C 116.875 207.375 116.191406 207.582031 115.492188 207.722656 C 114.789062 207.863281 114.082031 207.933594 113.363281 207.933594 C 112.648438 207.933594 111.941406 207.863281 111.238281 207.722656 C 110.539062 207.582031 109.855469 207.375 109.195312 207.101562 C 108.535156 206.828125 107.90625 206.492188 107.3125 206.09375 C 106.714844 205.699219 106.164062 205.246094 105.660156 204.742188 C 105.152344 204.234375 104.703125 203.683594 104.304688 203.089844 C 103.90625 202.492188 103.570312 201.867188 103.296875 201.203125 C 103.023438 200.542969 102.816406 199.863281 102.675781 199.160156 C 102.539062 198.460938 102.46875 197.75 102.46875 197.035156 C 102.46875 196.320312 102.539062 195.609375 102.675781 194.910156 C 102.816406 194.207031 103.023438 193.527344 103.296875 192.863281 C 103.570312 192.203125 103.90625 191.574219 104.304688 190.980469 C 104.703125 190.386719 105.152344 189.835938 105.660156 189.328125 C 106.164062 188.824219 106.714844 188.371094 107.3125 187.972656 C 107.90625 187.578125 108.535156 187.242188 109.195312 186.96875 C 109.855469 186.695312 110.539062 186.488281 111.238281 186.347656 C 111.941406 186.207031 112.648438 186.136719 113.363281 186.136719 C 114.082031 186.136719 114.789062 186.207031 115.492188 186.347656 C 116.191406 186.488281 116.875 186.695312 117.535156 186.96875 C 118.195312 187.242188 118.824219 187.578125 119.417969 187.972656 C 120.015625 188.371094 120.566406 188.824219 121.070312 189.328125 C 121.578125 189.835938 122.027344 190.386719 122.425781 190.980469 C 122.824219 191.574219 123.160156 192.203125 123.433594 192.863281 C 123.707031 193.527344 123.914062 194.207031 124.054688 194.910156 C 124.191406 195.609375 124.261719 196.320312 124.261719 197.035156 Z M 124.261719 197.035156 " fill-opacity="1" fill-rule="nonzero"/><path fill="#2d3277" d="M 113.363281 209.894531 C 106.273438 209.894531 100.507812 204.125 100.507812 197.035156 C 100.507812 189.945312 106.273438 184.175781 113.363281 184.175781 C 120.457031 184.175781 126.222656 189.945312 126.222656 197.035156 C 126.222656 204.125 120.457031 209.894531 113.363281 209.894531 Z M 113.363281 188.101562 C 108.4375 188.101562 104.429688 192.109375 104.429688 197.035156 C 104.429688 201.960938 108.4375 205.96875 113.363281 205.96875 C 118.292969 205.96875 122.300781 201.960938 122.300781 197.035156 C 122.300781 192.109375 118.292969 188.101562 113.363281 188.101562 Z M 113.363281 188.101562 " fill-opacity="1" fill-rule="nonzero"/><path fill="#efd045" d="M 158.421875 197.035156 C 158.421875 197.75 158.355469 198.460938 158.214844 199.160156 C 158.074219 199.863281 157.867188 200.542969 157.59375 201.203125 C 157.320312 201.867188 156.984375 202.492188 156.585938 203.089844 C 156.191406 203.683594 155.738281 204.234375 155.230469 204.742188 C 154.726562 205.246094 154.175781 205.699219 153.582031 206.09375 C 152.984375 206.492188 152.359375 206.828125 151.695312 207.101562 C 151.035156 207.375 150.355469 207.582031 149.652344 207.722656 C 148.949219 207.863281 148.242188 207.933594 147.527344 207.933594 C 146.808594 207.933594 146.101562 207.863281 145.398438 207.722656 C 144.699219 207.582031 144.015625 207.375 143.355469 207.101562 C 142.695312 206.828125 142.066406 206.492188 141.472656 206.09375 C 140.875 205.699219 140.328125 205.246094 139.820312 204.742188 C 139.3125 204.234375 138.863281 203.683594 138.464844 203.089844 C 138.066406 202.492188 137.730469 201.867188 137.457031 201.203125 C 137.183594 200.542969 136.976562 199.863281 136.835938 199.160156 C 136.699219 198.460938 136.628906 197.75 136.628906 197.035156 C 136.628906 196.320312 136.699219 195.609375 136.835938 194.910156 C 136.976562 194.207031 137.183594 193.527344 137.457031 192.863281 C 137.730469 192.203125 138.066406 191.574219 138.464844 190.980469 C 138.863281 190.386719 139.3125 189.835938 139.820312 189.328125 C 140.328125 188.824219 140.875 188.371094 141.472656 187.972656 C 142.066406 187.578125 142.695312 187.242188 143.355469 186.96875 C 144.015625 186.695312 144.699219 186.488281 145.398438 186.347656 C 146.101562 186.207031 146.808594 186.136719 147.527344 186.136719 C 148.242188 186.136719 148.949219 186.207031 149.652344 186.347656 C 150.355469 186.488281 151.035156 186.695312 151.695312 186.96875 C 152.359375 187.242188 152.984375 187.578125 153.582031 187.972656 C 154.175781 188.371094 154.726562 188.824219 155.230469 189.328125 C 155.738281 189.835938 156.191406 190.386719 156.585938 190.980469 C 156.984375 191.574219 157.320312 192.203125 157.59375 192.863281 C 157.867188 193.527344 158.074219 194.207031 158.214844 194.910156 C 158.355469 195.609375 158.421875 196.320312 158.421875 197.035156 Z M 158.421875 197.035156 " fill-opacity="1" fill-rule="nonzero"/><path fill="#2d3277" d="M 147.527344 209.894531 C 140.4375 209.894531 134.667969 204.125 134.667969 197.035156 C 134.667969 189.945312 140.4375 184.175781 147.527344 184.175781 C 154.617188 184.175781 160.382812 189.945312 160.382812 197.035156 C 160.382812 204.125 154.617188 209.894531 147.527344 209.894531 Z M 147.527344 188.101562 C 142.597656 188.101562 138.589844 192.109375 138.589844 197.035156 C 138.589844 201.960938 142.597656 205.96875 147.527344 205.96875 C 152.453125 205.96875 156.460938 201.960938 156.460938 197.035156 C 156.460938 192.109375 152.453125 188.101562 147.527344 188.101562 Z M 147.527344 188.101562 " fill-opacity="1" fill-rule="nonzero"/><path fill="#ffd100" d="M 192.585938 197.035156 C 192.585938 197.75 192.515625 198.460938 192.375 199.160156 C 192.234375 199.863281 192.027344 200.542969 191.753906 201.203125 C 191.480469 201.867188 191.144531 202.492188 190.746094 203.089844 C 190.351562 203.683594 189.898438 204.234375 189.394531 204.742188 C 188.886719 205.246094 188.335938 205.699219 187.742188 206.09375 C 187.144531 206.492188 186.519531 206.828125 185.855469 207.101562 C 185.195312 207.375 184.515625 207.582031 183.8125 207.722656 C 183.109375 207.863281 182.402344 207.933594 181.6875 207.933594 C 180.972656 207.933594 180.261719 207.863281 179.5625 207.722656 C 178.859375 207.582031 178.175781 207.375 177.515625 207.101562 C 176.855469 206.828125 176.226562 206.492188 175.632812 206.09375 C 175.039062 205.699219 174.488281 205.246094 173.980469 204.742188 C 173.476562 204.234375 173.023438 203.683594 172.625 203.089844 C 172.226562 202.492188 171.894531 201.867188 171.617188 201.203125 C 171.34375 200.542969 171.136719 199.863281 171 199.160156 C 170.859375 198.460938 170.789062 197.75 170.789062 197.035156 C 170.789062 196.320312 170.859375 195.609375 171 194.910156 C 171.136719 194.207031 171.34375 193.527344 171.617188 192.863281 C 171.894531 192.203125 172.226562 191.574219 172.625 190.980469 C 173.023438 190.386719 173.476562 189.835938 173.980469 189.328125 C 174.488281 188.824219 175.039062 188.371094 175.632812 187.972656 C 176.226562 187.578125 176.855469 187.242188 177.515625 186.96875 C 178.175781 186.695312 178.859375 186.488281 179.5625 186.347656 C 180.261719 186.207031 180.972656 186.136719 181.6875 186.136719 C 182.402344 186.136719 183.109375 186.207031 183.8125 186.347656 C 184.515625 186.488281 185.195312 186.695312 185.855469 186.96875 C 186.519531 187.242188 187.144531 187.578125 187.742188 187.972656 C 188.335938 188.371094 188.886719 188.824219 189.394531 189.328125 C 189.898438 189.835938 190.351562 190.386719 190.746094 190.980469 C 191.144531 191.574219 191.480469 192.203125 191.753906 192.863281 C 192.027344 193.527344 192.234375 194.207031 192.375 194.910156 C 192.515625 195.609375 192.585938 196.320312 192.585938 197.035156 Z M 192.585938 197.035156 " fill-opacity="1" fill-rule="nonzero"/><path fill="#2d3277" d="M 181.6875 209.894531 C 174.597656 209.894531 168.828125 204.125 168.828125 197.035156 C 168.828125 189.945312 174.597656 184.175781 181.6875 184.175781 C 188.777344 184.175781 194.546875 189.945312 194.546875 197.035156 C 194.546875 204.125 188.777344 209.894531 181.6875 209.894531 Z M 181.6875 188.101562 C 176.757812 188.101562 172.75 192.109375 172.75 197.035156 C 172.75 201.960938 176.757812 205.96875 181.6875 205.96875 C 186.613281 205.96875 190.621094 201.960938 190.621094 197.035156 C 190.621094 192.109375 186.613281 188.101562 181.6875 188.101562 Z M 181.6875 188.101562 " fill-opacity="1" fill-rule="nonzero"/><path fill="#7b98c9" d="M 78.042969 503.132812 L 731.871094 503.132812 L 731.871094 597.277344 L 78.042969 597.277344 Z M 78.042969 503.132812 " fill-opacity="1" fill-rule="nonzero"/><g clip-path="url(#id3)"><path fill="#2d3277" d="M 731.871094 599.238281 L 78.042969 599.238281 C 76.960938 599.238281 76.082031 598.363281 76.082031 597.277344 L 76.082031 503.132812 C 76.082031 502.050781 76.960938 501.171875 78.042969 501.171875 L 731.871094 501.171875 C 732.953125 501.171875 733.832031 502.050781 733.832031 503.132812 L 733.832031 597.277344 C 733.832031 598.363281 732.953125 599.238281 731.871094 599.238281 Z M 80.003906 595.316406 L 729.910156 595.316406 L 729.910156 505.09375 L 80.003906 505.09375 Z M 80.003906 595.316406 " fill-opacity="1" fill-rule="nonzero"/></g><path fill="#2d3277" d="M 332.433594 268.820312 L 204.507812 268.820312 C 197.921875 268.820312 192.582031 274.160156 192.582031 280.746094 L 192.582031 529.210938 C 192.582031 535.796875 197.921875 541.136719 204.507812 541.136719 L 332.433594 541.136719 C 339.015625 541.136719 344.355469 535.796875 344.355469 529.210938 L 344.355469 280.746094 C 344.355469 274.160156 339.015625 268.820312 332.433594 268.820312 Z M 332.433594 268.820312 " fill-opacity="1" fill-rule="nonzero"/><path fill="#2d3277" d="M 332.503906 543.097656 L 204.4375 543.097656 C 196.820312 543.097656 190.621094 536.902344 190.621094 529.285156 L 190.621094 280.671875 C 190.621094 273.054688 196.820312 266.859375 204.4375 266.859375 L 332.503906 266.859375 C 340.121094 266.859375 346.316406 273.054688 346.316406 280.671875 L 346.316406 529.285156 C 346.316406 536.902344 340.121094 543.097656 332.503906 543.097656 Z M 204.4375 270.78125 C 198.984375 270.78125 194.546875 275.21875 194.546875 280.671875 L 194.546875 529.285156 C 194.546875 534.738281 198.984375 539.175781 204.4375 539.175781 L 332.503906 539.175781 C 337.957031 539.175781 342.394531 534.738281 342.394531 529.285156 L 342.394531 280.671875 C 342.394531 275.21875 337.957031 270.78125 332.503906 270.78125 Z M 204.4375 270.78125 " fill-opacity="1" fill-rule="nonzero"/><path fill="#ffffff" d="M 203.042969 529.277344 L 203.042969 280.683594 C 203.042969 279.90625 203.671875 279.28125 204.445312 279.28125 L 332.492188 279.28125 C 333.269531 279.28125 333.894531 279.910156 333.894531 280.683594 L 333.894531 529.277344 C 333.894531 530.050781 333.269531 530.675781 332.496094 530.675781 L 204.445312 530.675781 C 203.671875 530.675781 203.042969 530.050781 203.042969 529.277344 Z M 203.042969 529.277344 " fill-opacity="1" fill-rule="nonzero"/><path fill="#2d3277" d="M 332.503906 532.636719 L 204.4375 532.636719 C 202.585938 532.636719 201.082031 531.132812 201.082031 529.285156 L 201.082031 280.671875 C 201.082031 278.824219 202.585938 277.320312 204.4375 277.320312 L 332.503906 277.320312 C 334.351562 277.320312 335.859375 278.824219 335.859375 280.671875 L 335.859375 529.285156 C 335.859375 531.132812 334.351562 532.636719 332.503906 532.636719 Z M 205.007812 528.714844 L 331.933594 528.714844 L 331.933594 281.242188 L 205.007812 281.242188 Z M 205.007812 528.714844 " fill-opacity="1" fill-rule="nonzero"/><path fill="#ffffff" d="M 230.449219 353.8125 C 234.875 322.582031 257.875 297.3125 281.0625 279.28125 L 204.4375 279.28125 C 203.667969 279.28125 203.042969 279.90625 203.042969 280.671875 L 203.042969 529.285156 C 203.042969 529.285156 232.472656 495.371094 236.523438 463.417969 C 240.570312 431.46875 221 420.457031 230.449219 353.8125 Z M 230.449219 353.8125 " fill-opacity="1" fill-rule="nonzero"/><path fill="#2d3277" d="M 203.042969 531.246094 C 202.8125 531.246094 202.582031 531.203125 202.359375 531.121094 C 201.589844 530.835938 201.082031 530.101562 201.082031 529.285156 L 201.082031 280.671875 C 201.082031 278.824219 202.585938 277.320312 204.4375 277.320312 L 281.0625 277.320312 C 281.902344 277.320312 282.648438 277.851562 282.917969 278.644531 C 283.191406 279.4375 282.929688 280.316406 282.269531 280.828125 C 252.816406 303.730469 236.035156 328.378906 232.390625 354.089844 C 226.8125 393.433594 231.484375 413.394531 235.242188 429.4375 C 237.875 440.6875 240.148438 450.402344 238.46875 463.664062 C 234.390625 495.835938 205.742188 529.167969 204.523438 530.570312 C 204.144531 531.007812 203.601562 531.246094 203.042969 531.246094 Z M 205.003906 281.242188 L 205.003906 523.75 C 212.824219 513.738281 231.472656 487.664062 234.574219 463.171875 C 236.167969 450.609375 233.96875 441.210938 231.421875 430.328125 C 227.589844 413.972656 222.824219 393.609375 228.507812 353.539062 C 232.109375 328.109375 247.902344 303.808594 275.460938 281.242188 Z M 230.449219 353.8125 L 230.460938 353.8125 Z M 230.449219 353.8125 " fill-opacity="1" fill-rule="nonzero"/><path fill="#efd045" d="M 255.90625 477.664062 C 270.003906 448.707031 255.003906 431.992188 285.363281 371.914062 C 295.621094 351.617188 314.023438 337.359375 333.894531 327.371094 L 333.894531 280.671875 C 333.894531 279.90625 333.269531 279.28125 332.503906 279.28125 L 281.0625 279.28125 C 257.875 297.3125 234.875 322.582031 230.449219 353.8125 C 221 420.457031 240.570312 431.46875 236.523438 463.417969 C 232.472656 495.371094 203.042969 529.285156 203.042969 529.285156 C 203.042969 529.285156 241.808594 506.621094 255.90625 477.664062 Z M 255.90625 477.664062 " fill-opacity="1" fill-rule="nonzero"/><path fill="#2d3277" d="M 203.046875 531.246094 C 202.476562 531.246094 201.917969 531 201.535156 530.535156 C 200.921875 529.796875 200.933594 528.722656 201.5625 528 C 201.851562 527.664062 230.648438 494.152344 234.574219 463.171875 C 236.167969 450.609375 233.96875 441.210938 231.421875 430.328125 C 227.589844 413.972656 222.824219 393.609375 228.507812 353.539062 C 232.296875 326.785156 249.578125 301.28125 279.859375 277.734375 C 280.203125 277.464844 280.628906 277.320312 281.0625 277.320312 L 332.5 277.320312 C 334.351562 277.320312 335.859375 278.824219 335.859375 280.671875 L 335.859375 327.371094 C 335.859375 328.113281 335.441406 328.792969 334.777344 329.125 C 312.011719 340.566406 295.976562 355.261719 287.113281 372.800781 C 269.191406 408.265625 267.207031 428.671875 265.609375 445.066406 C 264.488281 456.566406 263.523438 466.5 257.667969 478.519531 C 243.472656 507.679688 205.636719 530.039062 204.035156 530.976562 C 203.722656 531.160156 203.382812 531.246094 203.046875 531.246094 Z M 281.738281 281.242188 C 252.613281 304.027344 236.011719 328.535156 232.390625 354.089844 C 226.8125 393.433594 231.484375 413.394531 235.242188 429.4375 C 237.875 440.6875 240.148438 450.402344 238.46875 463.664062 C 235.65625 485.859375 221.152344 508.601562 212.023438 521.035156 C 224.359375 512.34375 244.863281 495.859375 254.140625 476.804688 C 259.6875 465.417969 260.621094 455.808594 261.703125 444.6875 C 263.332031 427.964844 265.359375 407.152344 283.613281 371.03125 C 292.71875 353.007812 308.972656 337.917969 331.933594 326.167969 L 331.933594 281.242188 Z M 281.738281 281.242188 " fill-opacity="1" fill-rule="nonzero"/><path fill="#7b98c9" d="M 269.6875 497.378906 C 247.03125 520.273438 203.042969 529.285156 203.042969 529.285156 C 203.042969 530.050781 203.667969 530.675781 204.4375 530.675781 L 332.503906 530.675781 C 333.269531 530.675781 333.894531 530.050781 333.894531 529.285156 L 333.894531 404.492188 C 333.101562 405.207031 332.320312 405.941406 331.550781 406.695312 C 283.503906 453.839844 292.339844 474.484375 269.6875 497.378906 Z M 269.6875 497.378906 " fill-opacity="1" fill-rule="nonzero"/><path fill="#2d3277" d="M 332.5 532.636719 L 204.4375 532.636719 C 202.585938 532.636719 201.082031 531.132812 201.082031 529.285156 C 201.082031 528.351562 201.738281 527.550781 202.652344 527.363281 C 203.085938 527.273438 246.328125 518.199219 268.292969 496 C 277.199219 486.996094 281.171875 478.199219 285.769531 468.011719 C 292.683594 452.699219 301.289062 433.640625 330.175781 405.292969 C 330.964844 404.523438 331.765625 403.769531 332.582031 403.035156 C 333.15625 402.515625 333.984375 402.382812 334.691406 402.699219 C 335.402344 403.011719 335.859375 403.714844 335.859375 404.492188 L 335.859375 529.285156 C 335.859375 531.132812 334.351562 532.636719 332.5 532.636719 Z M 213.394531 528.714844 L 331.933594 528.714844 L 331.933594 409.070312 C 304.363281 436.363281 296.046875 454.789062 289.347656 469.625 C 284.59375 480.15625 280.488281 489.253906 271.082031 498.757812 C 254.691406 515.320312 227.871094 524.640625 213.394531 528.714844 Z M 269.6875 497.378906 L 269.699219 497.378906 Z M 269.6875 497.378906 " fill-opacity="1" fill-rule="nonzero"/><path fill="#ffd100" d="M 285.363281 371.914062 C 255.003906 431.992188 270.003906 448.707031 255.90625 477.664062 C 241.808594 506.621094 203.042969 529.285156 203.042969 529.285156 C 203.042969 529.285156 247.03125 520.273438 269.6875 497.378906 C 292.339844 474.484375 283.503906 453.839844 331.550781 406.695312 C 332.320312 405.941406 333.101562 405.207031 333.894531 404.492188 L 333.894531 327.371094 C 314.023438 337.359375 295.621094 351.617188 285.363281 371.914062 Z M 285.363281 371.914062 " fill-opacity="1" fill-rule="nonzero"/><path fill="#2d3277" d="M 203.042969 531.246094 C 202.246094 531.246094 201.507812 530.757812 201.210938 529.984375 C 200.867188 529.089844 201.226562 528.074219 202.054688 527.589844 C 202.4375 527.367188 240.472656 504.882812 254.140625 476.804688 C 259.6875 465.417969 260.621094 455.808594 261.703125 444.6875 C 263.332031 427.964844 265.359375 407.152344 283.613281 371.03125 C 292.859375 352.726562 309.484375 337.445312 333.015625 325.621094 C 333.621094 325.316406 334.34375 325.34375 334.925781 325.703125 C 335.503906 326.0625 335.859375 326.691406 335.859375 327.371094 L 335.859375 404.492188 C 335.859375 405.046875 335.621094 405.574219 335.210938 405.945312 C 334.4375 406.644531 333.671875 407.359375 332.925781 408.09375 C 304.5625 435.925781 296.125 454.613281 289.347656 469.625 C 284.59375 480.15625 280.488281 489.253906 271.082031 498.757812 C 248.273438 521.808594 205.257812 530.832031 203.4375 531.207031 C 203.304688 531.234375 203.171875 531.246094 203.042969 531.246094 Z M 287.113281 372.800781 C 269.191406 408.265625 267.207031 428.671875 265.609375 445.066406 C 264.488281 456.566406 263.523438 466.5 257.667969 478.519531 C 247.875 498.632812 226.835938 515.511719 214.199219 524.355469 C 228.671875 520.085938 253.382812 511.066406 268.292969 496 C 277.199219 486.996094 281.171875 478.199219 285.769531 468.011719 C 292.683594 452.699219 301.289062 433.640625 330.175781 405.292969 C 330.757812 404.726562 331.34375 404.171875 331.933594 403.625 L 331.933594 330.589844 C 310.671875 341.808594 295.601562 356 287.113281 372.800781 Z M 287.113281 372.800781 " fill-opacity="1" fill-rule="nonzero"/><path fill="#7b98c9" d="M 444.746094 342.140625 L 444.746094 328.941406 L 434.714844 328.941406 L 434.714844 318.910156 L 421.515625 318.910156 L 421.515625 328.941406 L 409.375 328.941406 L 409.375 318.910156 L 396.175781 318.910156 L 396.175781 328.941406 L 386.144531 328.941406 L 386.144531 342.140625 L 396.175781 342.140625 L 396.175781 354.28125 L 386.144531 354.28125 L 386.144531 367.480469 L 396.175781 367.480469 L 396.175781 377.511719 L 409.375 377.511719 L 409.375 367.480469 L 421.515625 367.480469 L 421.515625 377.511719 L 434.714844 377.511719 L 434.714844 367.480469 L 444.746094 367.480469 L 444.746094 354.28125 L 434.714844 354.28125 L 434.714844 342.140625 Z M 421.515625 354.28125 L 409.375 354.28125 L 409.375 342.140625 L 421.515625 342.140625 Z M 421.515625 354.28125 " fill-opacity="1" fill-rule="nonzero"/><path fill="#2d3277" d="M 434.714844 379.472656 L 421.515625 379.472656 C 420.433594 379.472656 419.554688 378.59375 419.554688 377.511719 L 419.554688 369.441406 L 411.335938 369.441406 L 411.335938 377.511719 C 411.335938 378.59375 410.457031 379.472656 409.375 379.472656 L 396.175781 379.472656 C 395.089844 379.472656 394.210938 378.59375 394.210938 377.511719 L 394.210938 369.441406 L 386.144531 369.441406 C 385.058594 369.441406 384.183594 368.566406 384.183594 367.480469 L 384.183594 354.28125 C 384.183594 353.199219 385.058594 352.320312 386.144531 352.320312 L 394.210938 352.320312 L 394.210938 344.101562 L 386.144531 344.101562 C 385.058594 344.101562 384.183594 343.222656 384.183594 342.140625 L 384.183594 328.941406 C 384.183594 327.859375 385.058594 326.980469 386.144531 326.980469 L 394.210938 326.980469 L 394.210938 318.910156 C 394.210938 317.828125 395.089844 316.949219 396.175781 316.949219 L 409.375 316.949219 C 410.457031 316.949219 411.335938 317.828125 411.335938 318.910156 L 411.335938 326.980469 L 419.554688 326.980469 L 419.554688 318.910156 C 419.554688 317.828125 420.433594 316.949219 421.515625 316.949219 L 434.714844 316.949219 C 435.796875 316.949219 436.675781 317.828125 436.675781 318.910156 L 436.675781 326.980469 L 444.746094 326.980469 C 445.828125 326.980469 446.707031 327.859375 446.707031 328.941406 L 446.707031 342.140625 C 446.707031 343.222656 445.828125 344.101562 444.746094 344.101562 L 436.675781 344.101562 L 436.675781 352.320312 L 444.746094 352.320312 C 445.828125 352.320312 446.707031 353.199219 446.707031 354.28125 L 446.707031 367.480469 C 446.707031 368.566406 445.828125 369.441406 444.746094 369.441406 L 436.675781 369.441406 L 436.675781 377.511719 C 436.675781 378.59375 435.796875 379.472656 434.714844 379.472656 Z M 423.476562 375.550781 L 432.753906 375.550781 L 432.753906 367.480469 C 432.753906 366.398438 433.632812 365.519531 434.714844 365.519531 L 442.785156 365.519531 L 442.785156 356.242188 L 434.714844 356.242188 C 433.632812 356.242188 432.753906 355.367188 432.753906 354.28125 L 432.753906 342.140625 C 432.753906 341.054688 433.632812 340.179688 434.714844 340.179688 L 442.785156 340.179688 L 442.785156 330.902344 L 434.714844 330.902344 C 433.632812 330.902344 432.753906 330.023438 432.753906 328.941406 L 432.753906 320.871094 L 423.476562 320.871094 L 423.476562 328.941406 C 423.476562 330.023438 422.597656 330.902344 421.515625 330.902344 L 409.375 330.902344 C 408.289062 330.902344 407.410156 330.023438 407.410156 328.941406 L 407.410156 320.871094 L 398.136719 320.871094 L 398.136719 328.941406 C 398.136719 330.023438 397.257812 330.902344 396.175781 330.902344 L 388.105469 330.902344 L 388.105469 340.179688 L 396.175781 340.179688 C 397.257812 340.179688 398.136719 341.054688 398.136719 342.140625 L 398.136719 354.28125 C 398.136719 355.367188 397.257812 356.242188 396.175781 356.242188 L 388.105469 356.242188 L 388.105469 365.519531 L 396.175781 365.519531 C 397.257812 365.519531 398.136719 366.398438 398.136719 367.480469 L 398.136719 375.550781 L 407.410156 375.550781 L 407.410156 367.480469 C 407.410156 366.398438 408.289062 365.519531 409.375 365.519531 L 421.515625 365.519531 C 422.597656 365.519531 423.476562 366.398438 423.476562 367.480469 Z M 421.515625 356.242188 L 409.375 356.242188 C 408.289062 356.242188 407.410156 355.367188 407.410156 354.28125 L 407.410156 342.140625 C 407.410156 341.054688 408.289062 340.179688 409.375 340.179688 L 421.515625 340.179688 C 422.597656 340.179688 423.476562 341.054688 423.476562 342.140625 L 423.476562 354.28125 C 423.476562 355.367188 422.597656 356.242188 421.515625 356.242188 Z M 411.335938 352.320312 L 419.554688 352.320312 L 419.554688 344.101562 L 411.335938 344.101562 Z M 411.335938 352.320312 " fill-opacity="1" fill-rule="nonzero"/><path fill="#7b98c9" d="M 452.089844 365.910156 L 462.625 359.363281 C 465.753906 364.417969 470.949219 367.335938 476.429688 367.335938 C 480.773438 367.335938 484.046875 366.054688 484.046875 362.78125 C 484.046875 359.433594 479.847656 358.152344 474.652344 356.871094 C 466.039062 354.667969 454.582031 352.460938 454.582031 340.503906 C 454.582031 329.757812 462.695312 323.851562 474.652344 323.851562 C 485.824219 323.851562 492.515625 329.046875 496.714844 334.171875 L 487.175781 342 C 484.257812 338.441406 479.136719 335.378906 474.578125 335.378906 C 470.523438 335.378906 468.460938 336.730469 468.460938 339.222656 C 468.460938 342.710938 472.585938 343.992188 477.78125 345.273438 C 486.394531 347.335938 497.925781 349.96875 497.925781 361.785156 C 497.925781 370.183594 492.015625 378.507812 475.789062 378.507812 C 463.761719 378.507812 456.574219 373.097656 452.089844 365.910156 Z M 452.089844 365.910156 " fill-opacity="1" fill-rule="nonzero"/><path fill="#2d3277" d="M 475.789062 380.46875 C 464.554688 380.46875 456.019531 375.921875 450.425781 366.949219 C 450.148438 366.507812 450.0625 365.976562 450.179688 365.46875 C 450.296875 364.960938 450.613281 364.519531 451.054688 364.246094 L 461.585938 357.699219 C 462.03125 357.421875 462.566406 357.335938 463.070312 357.453125 C 463.578125 357.574219 464.015625 357.886719 464.292969 358.332031 C 467.023438 362.742188 471.5625 365.375 476.429688 365.375 C 478.542969 365.375 482.085938 365.035156 482.085938 362.78125 C 482.085938 361.0625 479.1875 360.011719 474.179688 358.777344 L 472.765625 358.417969 C 464.261719 356.277344 452.621094 353.347656 452.621094 340.503906 C 452.621094 329.023438 461.0625 321.890625 474.652344 321.890625 C 484.296875 321.890625 492.230469 325.601562 498.230469 332.925781 C 498.917969 333.765625 498.796875 335 497.960938 335.6875 L 488.421875 343.515625 C 488.019531 343.84375 487.507812 344 486.984375 343.949219 C 486.46875 343.898438 485.992188 343.644531 485.660156 343.242188 C 482.855469 339.824219 478.195312 337.339844 474.578125 337.339844 C 471.820312 337.339844 470.421875 337.972656 470.421875 339.222656 C 470.421875 341.085938 473.171875 342.117188 478.253906 343.367188 L 478.515625 343.429688 C 487.027344 345.46875 499.886719 348.546875 499.886719 361.785156 C 499.886719 370.816406 493.554688 380.46875 475.789062 380.46875 Z M 454.847656 366.507812 C 459.707031 373.257812 466.574219 376.546875 475.789062 376.546875 C 488.421875 376.546875 495.964844 371.027344 495.964844 361.785156 C 495.964844 352.390625 488.003906 349.738281 477.601562 347.246094 L 477.324219 347.179688 C 472.496094 345.988281 466.496094 344.507812 466.496094 339.222656 C 466.496094 337.476562 467.285156 333.417969 474.578125 333.417969 C 479.386719 333.417969 484.257812 336.257812 487.367188 339.308594 L 493.90625 333.9375 C 488.824219 328.472656 482.503906 325.8125 474.652344 325.8125 C 463.3125 325.8125 456.542969 331.304688 456.542969 340.503906 C 456.542969 349.589844 463.664062 352.082031 473.722656 354.613281 L 475.136719 354.972656 C 479.972656 356.164062 486.007812 357.652344 486.007812 362.78125 C 486.007812 364.738281 485.074219 369.296875 476.429688 369.296875 C 470.824219 369.296875 465.582031 366.609375 462.070312 362.015625 Z M 454.847656 366.507812 " fill-opacity="1" fill-rule="nonzero"/><path fill="#7b98c9" d="M 517.851562 324.632812 L 531.089844 324.632812 L 549.738281 377.511719 L 535.359375 377.511719 L 532.15625 367.691406 L 515.574219 367.691406 L 512.160156 377.511719 L 499.203125 377.511719 Z M 528.953125 357.585938 L 524.113281 342.996094 L 523.972656 342.996094 L 518.921875 357.585938 Z M 528.953125 357.585938 " fill-opacity="1" fill-rule="nonzero"/><path fill="#2d3277" d="M 549.738281 379.472656 L 535.359375 379.472656 C 534.511719 379.472656 533.757812 378.925781 533.496094 378.121094 L 530.734375 369.652344 L 516.96875 369.652344 L 514.011719 378.15625 C 513.738281 378.945312 512.992188 379.472656 512.160156 379.472656 L 499.203125 379.472656 C 498.570312 379.472656 497.972656 379.164062 497.601562 378.644531 C 497.234375 378.125 497.144531 377.460938 497.355469 376.859375 L 516.003906 323.980469 C 516.277344 323.195312 517.019531 322.671875 517.851562 322.671875 L 531.089844 322.671875 C 531.921875 322.671875 532.664062 323.195312 532.941406 323.980469 L 551.589844 376.859375 C 551.800781 377.460938 551.707031 378.125 551.339844 378.644531 C 550.972656 379.164062 550.375 379.472656 549.738281 379.472656 Z M 536.785156 375.550781 L 546.96875 375.550781 L 529.703125 326.59375 L 519.242188 326.59375 L 501.976562 375.550781 L 510.765625 375.550781 L 513.722656 367.046875 C 513.996094 366.257812 514.738281 365.730469 515.574219 365.730469 L 532.15625 365.730469 C 533.007812 365.730469 533.757812 366.273438 534.023438 367.082031 Z M 528.953125 359.546875 L 518.921875 359.546875 C 518.285156 359.546875 517.691406 359.238281 517.324219 358.722656 C 516.953125 358.207031 516.859375 357.542969 517.066406 356.941406 L 522.121094 342.351562 C 522.394531 341.5625 523.136719 341.035156 523.972656 341.035156 L 524.113281 341.035156 C 524.960938 341.035156 525.710938 341.574219 525.976562 342.378906 L 530.816406 356.96875 C 531.015625 357.566406 530.914062 358.222656 530.542969 358.734375 C 530.175781 359.242188 529.585938 359.546875 528.953125 359.546875 Z M 521.675781 355.625 L 526.238281 355.625 L 524.003906 348.894531 Z M 521.675781 355.625 " fill-opacity="1" fill-rule="nonzero"/><path fill="#7b98c9" d="M 555.359375 324.847656 L 569.59375 324.847656 L 569.59375 366.054688 L 591.730469 366.054688 L 591.730469 377.511719 L 555.359375 377.511719 Z M 555.359375 324.847656 " fill-opacity="1" fill-rule="nonzero"/><path fill="#2d3277" d="M 591.730469 379.472656 L 555.359375 379.472656 C 554.277344 379.472656 553.398438 378.59375 553.398438 377.511719 L 553.398438 324.847656 C 553.398438 323.761719 554.277344 322.886719 555.359375 322.886719 L 569.59375 322.886719 C 570.675781 322.886719 571.554688 323.761719 571.554688 324.847656 L 571.554688 364.09375 L 591.730469 364.09375 C 592.8125 364.09375 593.691406 364.96875 593.691406 366.054688 L 593.691406 377.511719 C 593.691406 378.59375 592.8125 379.472656 591.730469 379.472656 Z M 557.320312 375.550781 L 589.765625 375.550781 L 589.765625 368.015625 L 569.59375 368.015625 C 568.511719 368.015625 567.632812 367.136719 567.632812 366.054688 L 567.632812 326.808594 L 557.320312 326.808594 Z M 557.320312 375.550781 " fill-opacity="1" fill-rule="nonzero"/><path fill="#7b98c9" d="M 597.707031 324.847656 L 635.285156 324.847656 L 635.285156 336.660156 L 611.941406 336.660156 L 611.941406 345.199219 L 628.59375 345.199219 L 628.59375 356.304688 L 611.941406 356.304688 L 611.941406 366.054688 L 636.496094 366.054688 L 636.496094 377.511719 L 597.707031 377.511719 Z M 597.707031 324.847656 " fill-opacity="1" fill-rule="nonzero"/><path fill="#2d3277" d="M 636.496094 379.472656 L 597.707031 379.472656 C 596.625 379.472656 595.746094 378.59375 595.746094 377.511719 L 595.746094 324.847656 C 595.746094 323.761719 596.625 322.886719 597.707031 322.886719 L 635.285156 322.886719 C 636.367188 322.886719 637.246094 323.761719 637.246094 324.847656 L 637.246094 336.660156 C 637.246094 337.746094 636.367188 338.621094 635.285156 338.621094 L 613.902344 338.621094 L 613.902344 343.238281 L 628.59375 343.238281 C 629.675781 343.238281 630.554688 344.117188 630.554688 345.199219 L 630.554688 356.304688 C 630.554688 357.386719 629.675781 358.265625 628.59375 358.265625 L 613.902344 358.265625 L 613.902344 364.09375 L 636.496094 364.09375 C 637.578125 364.09375 638.457031 364.96875 638.457031 366.054688 L 638.457031 377.511719 C 638.457031 378.59375 637.578125 379.472656 636.496094 379.472656 Z M 599.667969 375.550781 L 634.535156 375.550781 L 634.535156 368.015625 L 611.941406 368.015625 C 610.859375 368.015625 609.980469 367.136719 609.980469 366.054688 L 609.980469 356.304688 C 609.980469 355.21875 610.859375 354.34375 611.941406 354.34375 L 626.632812 354.34375 L 626.632812 347.164062 L 611.941406 347.164062 C 610.859375 347.164062 609.980469 346.285156 609.980469 345.199219 L 609.980469 336.660156 C 609.980469 335.578125 610.859375 334.699219 611.941406 334.699219 L 633.324219 334.699219 L 633.324219 326.808594 L 599.667969 326.808594 Z M 599.667969 375.550781 " fill-opacity="1" fill-rule="nonzero"/><path fill="#efd045" d="M 440.511719 477.980469 L 397.347656 477.980469 C 391.160156 477.980469 386.144531 472.964844 386.144531 466.78125 L 386.144531 423.613281 C 386.144531 417.429688 391.160156 412.414062 397.347656 412.414062 L 440.511719 412.414062 C 446.699219 412.414062 451.714844 417.429688 451.714844 423.613281 L 451.714844 466.78125 C 451.714844 472.964844 446.699219 477.980469 440.511719 477.980469 Z M 440.511719 477.980469 " fill-opacity="1" fill-rule="nonzero"/><path fill="#2d3277" d="M 440.578125 479.945312 L 397.277344 479.945312 C 390.058594 479.945312 384.183594 474.070312 384.183594 466.847656 L 384.183594 423.546875 C 384.183594 416.328125 390.058594 410.453125 397.277344 410.453125 L 440.578125 410.453125 C 447.800781 410.453125 453.675781 416.328125 453.675781 423.546875 L 453.675781 466.847656 C 453.675781 474.070312 447.800781 479.945312 440.578125 479.945312 Z M 397.277344 414.375 C 392.21875 414.375 388.105469 418.488281 388.105469 423.546875 L 388.105469 466.847656 C 388.105469 471.90625 392.21875 476.019531 397.277344 476.019531 L 440.578125 476.019531 C 445.636719 476.019531 449.753906 471.90625 449.753906 466.847656 L 449.753906 423.546875 C 449.753906 418.488281 445.636719 414.375 440.578125 414.375 Z M 397.277344 414.375 " fill-opacity="1" fill-rule="nonzero"/><path fill="#ffd100" d="M 526.722656 477.980469 L 483.554688 477.980469 C 477.367188 477.980469 472.351562 472.964844 472.351562 466.78125 L 472.351562 423.613281 C 472.351562 417.429688 477.367188 412.414062 483.554688 412.414062 L 526.722656 412.414062 C 532.910156 412.414062 537.925781 417.429688 537.925781 423.613281 L 537.925781 466.78125 C 537.925781 472.964844 532.910156 477.980469 526.722656 477.980469 Z M 526.722656 477.980469 " fill-opacity="1" fill-rule="nonzero"/><path fill="#2d3277" d="M 526.789062 479.945312 L 483.488281 479.945312 C 476.265625 479.945312 470.390625 474.070312 470.390625 466.847656 L 470.390625 423.546875 C 470.390625 416.328125 476.265625 410.453125 483.488281 410.453125 L 526.789062 410.453125 C 534.011719 410.453125 539.886719 416.328125 539.886719 423.546875 L 539.886719 466.847656 C 539.886719 474.070312 534.011719 479.945312 526.789062 479.945312 Z M 483.488281 414.375 C 478.429688 414.375 474.3125 418.488281 474.3125 423.546875 L 474.3125 466.847656 C 474.3125 471.90625 478.429688 476.019531 483.488281 476.019531 L 526.789062 476.019531 C 531.847656 476.019531 535.964844 471.90625 535.964844 466.847656 L 535.964844 423.546875 C 535.964844 418.488281 531.847656 414.375 526.789062 414.375 Z M 483.488281 414.375 " fill-opacity="1" fill-rule="nonzero"/><path fill="#ffffff" d="M 612.933594 477.980469 L 569.765625 477.980469 C 563.578125 477.980469 558.5625 472.964844 558.5625 466.78125 L 558.5625 423.613281 C 558.5625 417.429688 563.578125 412.414062 569.765625 412.414062 L 612.933594 412.414062 C 619.121094 412.414062 624.136719 417.429688 624.136719 423.613281 L 624.136719 466.78125 C 624.136719 472.964844 619.121094 477.980469 612.933594 477.980469 Z M 612.933594 477.980469 " fill-opacity="1" fill-rule="nonzero"/><path fill="#2d3277" d="M 613 479.945312 L 569.699219 479.945312 C 562.476562 479.945312 556.601562 474.070312 556.601562 466.847656 L 556.601562 423.546875 C 556.601562 416.328125 562.476562 410.453125 569.699219 410.453125 L 613 410.453125 C 620.222656 410.453125 626.097656 416.328125 626.097656 423.546875 L 626.097656 466.847656 C 626.097656 474.070312 620.222656 479.945312 613 479.945312 Z M 569.699219 414.375 C 564.640625 414.375 560.523438 418.488281 560.523438 423.546875 L 560.523438 466.847656 C 560.523438 471.90625 564.640625 476.019531 569.699219 476.019531 L 613 476.019531 C 618.058594 476.019531 622.175781 471.90625 622.175781 466.847656 L 622.175781 423.546875 C 622.175781 418.488281 618.058594 414.375 613 414.375 Z M 569.699219 414.375 " fill-opacity="1" fill-rule="nonzero"/><path fill="#efd045" d="M 638.699219 445.199219 C 638.699219 446.152344 638.605469 447.101562 638.417969 448.039062 C 638.234375 448.976562 637.957031 449.886719 637.589844 450.769531 C 637.226562 451.652344 636.777344 452.492188 636.246094 453.289062 C 635.714844 454.082031 635.109375 454.820312 634.433594 455.496094 C 633.757812 456.171875 633.023438 456.773438 632.226562 457.304688 C 631.433594 457.835938 630.59375 458.285156 629.707031 458.652344 C 628.824219 459.019531 627.914062 459.292969 626.976562 459.480469 C 626.039062 459.667969 625.09375 459.761719 624.136719 459.761719 C 623.179688 459.761719 622.230469 459.667969 621.292969 459.480469 C 620.355469 459.292969 619.445312 459.019531 618.5625 458.652344 C 617.679688 458.285156 616.839844 457.835938 616.042969 457.304688 C 615.25 456.773438 614.511719 456.171875 613.835938 455.496094 C 613.160156 454.820312 612.558594 454.082031 612.027344 453.289062 C 611.496094 452.492188 611.046875 451.652344 610.679688 450.769531 C 610.3125 449.886719 610.039062 448.976562 609.851562 448.039062 C 609.664062 447.101562 609.570312 446.152344 609.570312 445.199219 C 609.570312 444.242188 609.664062 443.292969 609.851562 442.355469 C 610.039062 441.417969 610.3125 440.507812 610.679688 439.625 C 611.046875 438.742188 611.496094 437.902344 612.027344 437.105469 C 612.558594 436.3125 613.160156 435.574219 613.835938 434.898438 C 614.511719 434.222656 615.25 433.621094 616.042969 433.089844 C 616.839844 432.558594 617.679688 432.109375 618.5625 431.742188 C 619.445312 431.375 620.355469 431.101562 621.292969 430.914062 C 622.230469 430.726562 623.179688 430.632812 624.136719 430.632812 C 625.09375 430.632812 626.039062 430.726562 626.976562 430.914062 C 627.914062 431.101562 628.824219 431.375 629.707031 431.742188 C 630.59375 432.109375 631.433594 432.558594 632.226562 433.089844 C 633.023438 433.621094 633.757812 434.222656 634.433594 434.898438 C 635.109375 435.574219 635.714844 436.3125 636.246094 437.105469 C 636.777344 437.902344 637.226562 438.742188 637.589844 439.625 C 637.957031 440.507812 638.234375 441.417969 638.417969 442.355469 C 638.605469 443.292969 638.699219 444.242188 638.699219 445.199219 Z M 638.699219 445.199219 " fill-opacity="1" fill-rule="nonzero"/><path fill="#2d3277" d="M 624.136719 461.722656 C 615.023438 461.722656 607.609375 454.308594 607.609375 445.195312 C 607.609375 436.085938 615.023438 428.671875 624.136719 428.671875 C 633.246094 428.671875 640.660156 436.085938 640.660156 445.195312 C 640.660156 454.308594 633.246094 461.722656 624.136719 461.722656 Z M 624.136719 432.597656 C 617.1875 432.597656 611.535156 438.25 611.535156 445.195312 C 611.535156 452.144531 617.1875 457.800781 624.136719 457.800781 C 631.085938 457.800781 636.738281 452.144531 636.738281 445.195312 C 636.738281 438.25 631.085938 432.597656 624.136719 432.597656 Z M 624.136719 432.597656 " fill-opacity="1" fill-rule="nonzero"/><path fill="#2d3277" d="M 631.515625 447.160156 L 617.089844 447.160156 C 616.007812 447.160156 615.128906 446.28125 615.128906 445.195312 C 615.128906 444.113281 616.007812 443.234375 617.089844 443.234375 L 631.515625 443.234375 C 632.601562 443.234375 633.480469 444.113281 633.480469 445.195312 C 633.480469 446.28125 632.601562 447.160156 631.515625 447.160156 Z M 631.515625 447.160156 " fill-opacity="1" fill-rule="nonzero"/><path fill="#2d3277" d="M 626.554688 452.121094 C 626.054688 452.121094 625.550781 451.929688 625.167969 451.546875 C 624.402344 450.78125 624.402344 449.539062 625.167969 448.773438 L 628.742188 445.195312 L 625.167969 441.621094 C 624.402344 440.855469 624.402344 439.617188 625.167969 438.847656 C 625.9375 438.082031 627.175781 438.082031 627.941406 438.847656 L 632.90625 443.808594 C 633.671875 444.578125 633.671875 445.816406 632.90625 446.582031 L 627.941406 451.546875 C 627.558594 451.929688 627.058594 452.121094 626.554688 452.121094 Z M 626.554688 452.121094 " fill-opacity="1" fill-rule="nonzero"/><path fill="#ffffff" d="M 177.691406 345.546875 C 177.691406 345.902344 177.660156 346.25 177.589844 346.597656 C 177.519531 346.945312 177.417969 347.285156 177.28125 347.613281 C 177.144531 347.941406 176.980469 348.25 176.785156 348.546875 C 176.585938 348.839844 176.363281 349.113281 176.113281 349.363281 C 175.859375 349.613281 175.589844 349.839844 175.292969 350.035156 C 175 350.230469 174.6875 350.398438 174.359375 350.535156 C 174.03125 350.667969 173.695312 350.773438 173.347656 350.839844 C 173 350.910156 172.648438 350.945312 172.292969 350.945312 C 171.941406 350.945312 171.589844 350.910156 171.242188 350.839844 C 170.894531 350.773438 170.554688 350.667969 170.226562 350.535156 C 169.902344 350.398438 169.589844 350.230469 169.292969 350.035156 C 169 349.839844 168.726562 349.613281 168.476562 349.363281 C 168.226562 349.113281 168.003906 348.839844 167.804688 348.546875 C 167.609375 348.25 167.441406 347.941406 167.304688 347.613281 C 167.171875 347.285156 167.070312 346.945312 167 346.597656 C 166.929688 346.25 166.894531 345.902344 166.894531 345.546875 C 166.894531 345.191406 166.929688 344.839844 167 344.492188 C 167.070312 344.144531 167.171875 343.808594 167.304688 343.480469 C 167.441406 343.152344 167.609375 342.84375 167.804688 342.546875 C 168.003906 342.253906 168.226562 341.980469 168.476562 341.730469 C 168.726562 341.476562 169 341.253906 169.292969 341.058594 C 169.589844 340.859375 169.902344 340.695312 170.226562 340.558594 C 170.554688 340.421875 170.894531 340.320312 171.242188 340.25 C 171.589844 340.183594 171.941406 340.148438 172.292969 340.148438 C 172.648438 340.148438 173 340.183594 173.347656 340.25 C 173.695312 340.320312 174.03125 340.421875 174.359375 340.558594 C 174.6875 340.695312 175 340.859375 175.292969 341.058594 C 175.589844 341.253906 175.859375 341.476562 176.113281 341.730469 C 176.363281 341.980469 176.585938 342.253906 176.785156 342.546875 C 176.980469 342.84375 177.148438 343.152344 177.28125 343.480469 C 177.417969 343.808594 177.519531 344.144531 177.589844 344.492188 C 177.660156 344.839844 177.691406 345.191406 177.691406 345.546875 Z M 177.691406 345.546875 " fill-opacity="1" fill-rule="nonzero"/><path fill="#efd045" d="M 172.292969 352.90625 C 168.234375 352.90625 164.933594 349.605469 164.933594 345.546875 C 164.933594 341.488281 168.234375 338.1875 172.292969 338.1875 C 176.351562 338.1875 179.652344 341.488281 179.652344 345.546875 C 179.652344 349.605469 176.351562 352.90625 172.292969 352.90625 Z M 172.292969 342.109375 C 170.398438 342.109375 168.855469 343.652344 168.855469 345.546875 C 168.855469 347.441406 170.398438 348.984375 172.292969 348.984375 C 174.1875 348.984375 175.730469 347.441406 175.730469 345.546875 C 175.730469 343.652344 174.1875 342.109375 172.292969 342.109375 Z M 172.292969 342.109375 " fill-opacity="1" fill-rule="nonzero"/><path fill="#ffffff" d="M 372.289062 265.542969 C 372.289062 266.039062 372.238281 266.527344 372.140625 267.011719 C 372.046875 267.496094 371.902344 267.96875 371.714844 268.425781 C 371.523438 268.882812 371.292969 269.316406 371.019531 269.726562 C 370.742188 270.136719 370.429688 270.519531 370.082031 270.867188 C 369.730469 271.21875 369.351562 271.53125 368.941406 271.804688 C 368.527344 272.078125 368.09375 272.3125 367.636719 272.5 C 367.179688 272.691406 366.710938 272.832031 366.226562 272.929688 C 365.738281 273.027344 365.25 273.074219 364.757812 273.074219 C 364.261719 273.074219 363.773438 273.027344 363.285156 272.929688 C 362.800781 272.832031 362.332031 272.691406 361.875 272.5 C 361.417969 272.3125 360.984375 272.078125 360.570312 271.804688 C 360.160156 271.53125 359.78125 271.21875 359.429688 270.867188 C 359.082031 270.519531 358.769531 270.136719 358.492188 269.726562 C 358.21875 269.316406 357.988281 268.882812 357.796875 268.425781 C 357.609375 267.96875 357.464844 267.496094 357.371094 267.011719 C 357.273438 266.527344 357.226562 266.039062 357.226562 265.542969 C 357.226562 265.046875 357.273438 264.558594 357.371094 264.074219 C 357.464844 263.589844 357.609375 263.117188 357.796875 262.660156 C 357.988281 262.203125 358.21875 261.769531 358.492188 261.359375 C 358.769531 260.949219 359.082031 260.566406 359.429688 260.21875 C 359.78125 259.867188 360.160156 259.554688 360.570312 259.28125 C 360.984375 259.007812 361.417969 258.773438 361.875 258.585938 C 362.332031 258.394531 362.800781 258.253906 363.285156 258.15625 C 363.773438 258.058594 364.261719 258.011719 364.757812 258.011719 C 365.25 258.011719 365.738281 258.058594 366.226562 258.15625 C 366.710938 258.253906 367.179688 258.394531 367.636719 258.585938 C 368.09375 258.773438 368.527344 259.007812 368.941406 259.28125 C 369.351562 259.554688 369.730469 259.867188 370.082031 260.21875 C 370.429688 260.566406 370.742188 260.949219 371.019531 261.359375 C 371.292969 261.769531 371.523438 262.203125 371.714844 262.660156 C 371.902344 263.117188 372.046875 263.589844 372.140625 264.074219 C 372.238281 264.558594 372.289062 265.046875 372.289062 265.542969 Z M 372.289062 265.542969 " fill-opacity="1" fill-rule="nonzero"/><path fill="#efd045" d="M 364.757812 275.035156 C 359.523438 275.035156 355.261719 270.777344 355.261719 265.542969 C 355.261719 260.308594 359.523438 256.050781 364.757812 256.050781 C 369.992188 256.050781 374.25 260.308594 374.25 265.542969 C 374.25 270.777344 369.992188 275.035156 364.757812 275.035156 Z M 364.757812 259.972656 C 361.683594 259.972656 359.1875 262.472656 359.1875 265.542969 C 359.1875 268.613281 361.683594 271.113281 364.757812 271.113281 C 367.828125 271.113281 370.328125 268.613281 370.328125 265.542969 C 370.328125 262.472656 367.828125 259.972656 364.757812 259.972656 Z M 364.757812 259.972656 " fill-opacity="1" fill-rule="nonzero"/><path fill="#7b98c9" d="M 172.292969 405.9375 C 171.210938 405.9375 170.332031 405.0625 170.332031 403.976562 L 170.332031 384.183594 C 170.332031 383.101562 171.210938 382.222656 172.292969 382.222656 C 173.375 382.222656 174.253906 383.101562 174.253906 384.183594 L 174.253906 403.976562 C 174.253906 405.0625 173.375 405.9375 172.292969 405.9375 Z M 172.292969 405.9375 " fill-opacity="1" fill-rule="nonzero"/><path fill="#7b98c9" d="M 182.191406 396.042969 L 162.398438 396.042969 C 161.3125 396.042969 160.433594 395.164062 160.433594 394.082031 C 160.433594 392.996094 161.3125 392.117188 162.398438 392.117188 L 182.191406 392.117188 C 183.273438 392.117188 184.152344 392.996094 184.152344 394.082031 C 184.152344 395.164062 183.273438 396.042969 182.191406 396.042969 Z M 182.191406 396.042969 " fill-opacity="1" fill-rule="nonzero"/><path fill="#efd045" d="M 364.757812 489.683594 C 363.671875 489.683594 362.792969 488.804688 362.792969 487.71875 L 362.792969 467.925781 C 362.792969 466.84375 363.671875 465.964844 364.757812 465.964844 C 365.839844 465.964844 366.71875 466.84375 366.71875 467.925781 L 366.71875 487.71875 C 366.71875 488.804688 365.839844 489.683594 364.757812 489.683594 Z M 364.757812 489.683594 " fill-opacity="1" fill-rule="nonzero"/><path fill="#efd045" d="M 374.652344 479.785156 L 354.859375 479.785156 C 353.777344 479.785156 352.898438 478.90625 352.898438 477.824219 C 352.898438 476.742188 353.777344 475.863281 354.859375 475.863281 L 374.652344 475.863281 C 375.738281 475.863281 376.617188 476.742188 376.617188 477.824219 C 376.617188 478.90625 375.738281 479.785156 374.652344 479.785156 Z M 374.652344 479.785156 " fill-opacity="1" fill-rule="nonzero"/><path fill="#2d3277" d="M 246.089844 557.867188 L 189.722656 557.867188 C 188.640625 557.867188 187.761719 556.988281 187.761719 555.90625 C 187.761719 554.824219 188.640625 553.945312 189.722656 553.945312 L 246.089844 553.945312 C 247.171875 553.945312 248.050781 554.824219 248.050781 555.90625 C 248.050781 556.988281 247.171875 557.867188 246.089844 557.867188 Z M 246.089844 557.867188 " fill-opacity="1" fill-rule="nonzero"/><path fill="#2d3277" d="M 229.660156 571.972656 L 189.722656 571.972656 C 188.640625 571.972656 187.761719 571.09375 187.761719 570.011719 C 187.761719 568.929688 188.640625 568.050781 189.722656 568.050781 L 229.660156 568.050781 C 230.742188 568.050781 231.621094 568.929688 231.621094 570.011719 C 231.621094 571.09375 230.742188 571.972656 229.660156 571.972656 Z M 229.660156 571.972656 " fill-opacity="1" fill-rule="nonzero"/><path fill="#2d3277" d="M 223.085938 586.078125 L 189.722656 586.078125 C 188.640625 586.078125 187.761719 585.203125 187.761719 584.117188 C 187.761719 583.035156 188.640625 582.15625 189.722656 582.15625 L 223.085938 582.15625 C 224.171875 582.15625 225.050781 583.035156 225.050781 584.117188 C 225.050781 585.203125 224.171875 586.078125 223.085938 586.078125 Z M 223.085938 586.078125 " fill-opacity="1" fill-rule="nonzero"/><path fill="#7b98c9" d="M 684.632812 281.964844 C 684.632812 282.851562 684.589844 283.738281 684.5 284.625 C 684.414062 285.507812 684.285156 286.386719 684.109375 287.257812 C 683.9375 288.128906 683.722656 288.992188 683.460938 289.839844 C 683.203125 290.691406 682.90625 291.527344 682.566406 292.347656 C 682.226562 293.171875 681.847656 293.972656 681.425781 294.757812 C 681.007812 295.539062 680.550781 296.300781 680.058594 297.039062 C 679.5625 297.78125 679.035156 298.492188 678.472656 299.179688 C 677.90625 299.867188 677.3125 300.523438 676.683594 301.152344 C 676.054688 301.78125 675.394531 302.378906 674.707031 302.941406 C 674.023438 303.507812 673.308594 304.035156 672.570312 304.527344 C 671.832031 305.023438 671.070312 305.480469 670.285156 305.898438 C 669.5 306.316406 668.699219 306.695312 667.878906 307.035156 C 667.054688 307.375 666.21875 307.675781 665.371094 307.933594 C 664.519531 308.191406 663.65625 308.40625 662.785156 308.582031 C 661.914062 308.753906 661.035156 308.882812 660.152344 308.972656 C 659.265625 309.058594 658.378906 309.101562 657.492188 309.101562 C 656.601562 309.101562 655.714844 309.058594 654.832031 308.972656 C 653.945312 308.882812 653.070312 308.753906 652.195312 308.582031 C 651.324219 308.40625 650.464844 308.191406 649.613281 307.933594 C 648.761719 307.675781 647.925781 307.375 647.105469 307.035156 C 646.285156 306.695312 645.480469 306.316406 644.699219 305.898438 C 643.914062 305.480469 643.152344 305.023438 642.414062 304.527344 C 641.675781 304.035156 640.960938 303.507812 640.273438 302.941406 C 639.585938 302.378906 638.929688 301.78125 638.300781 301.152344 C 637.671875 300.523438 637.074219 299.867188 636.511719 299.179688 C 635.949219 298.492188 635.417969 297.78125 634.925781 297.039062 C 634.429688 296.300781 633.976562 295.539062 633.554688 294.757812 C 633.136719 293.972656 632.757812 293.171875 632.417969 292.347656 C 632.078125 291.527344 631.777344 290.691406 631.519531 289.839844 C 631.261719 288.992188 631.046875 288.128906 630.871094 287.257812 C 630.699219 286.386719 630.570312 285.507812 630.480469 284.625 C 630.394531 283.738281 630.351562 282.851562 630.351562 281.964844 C 630.351562 281.074219 630.394531 280.1875 630.480469 279.304688 C 630.570312 278.417969 630.699219 277.539062 630.871094 276.667969 C 631.046875 275.796875 631.261719 274.9375 631.519531 274.085938 C 631.777344 273.234375 632.078125 272.398438 632.417969 271.578125 C 632.757812 270.757812 633.136719 269.953125 633.554688 269.171875 C 633.976562 268.386719 634.429688 267.625 634.925781 266.886719 C 635.417969 266.148438 635.949219 265.433594 636.511719 264.746094 C 637.074219 264.058594 637.671875 263.402344 638.300781 262.773438 C 638.929688 262.144531 639.585938 261.546875 640.273438 260.984375 C 640.960938 260.421875 641.675781 259.890625 642.414062 259.398438 C 643.152344 258.90625 643.914062 258.449219 644.699219 258.027344 C 645.480469 257.609375 646.285156 257.230469 647.105469 256.890625 C 647.925781 256.550781 648.761719 256.25 649.613281 255.992188 C 650.464844 255.734375 651.324219 255.519531 652.195312 255.347656 C 653.070312 255.171875 653.945312 255.042969 654.832031 254.957031 C 655.714844 254.867188 656.601562 254.824219 657.492188 254.824219 C 658.378906 254.824219 659.265625 254.867188 660.152344 254.957031 C 661.035156 255.042969 661.914062 255.171875 662.785156 255.347656 C 663.65625 255.519531 664.519531 255.734375 665.371094 255.992188 C 666.21875 256.25 667.054688 256.550781 667.878906 256.890625 C 668.699219 257.230469 669.5 257.609375 670.285156 258.027344 C 671.070312 258.449219 671.832031 258.90625 672.570312 259.398438 C 673.308594 259.890625 674.023438 260.421875 674.707031 260.984375 C 675.394531 261.546875 676.054688 262.144531 676.683594 262.773438 C 677.3125 263.402344 677.90625 264.058594 678.472656 264.746094 C 679.035156 265.433594 679.5625 266.148438 680.058594 266.886719 C 680.550781 267.625 681.007812 268.386719 681.425781 269.171875 C 681.847656 269.953125 682.226562 270.757812 682.566406 271.578125 C 682.90625 272.398438 683.203125 273.234375 683.460938 274.085938 C 683.722656 274.9375 683.9375 275.796875 684.109375 276.667969 C 684.285156 277.539062 684.414062 278.417969 684.5 279.304688 C 684.589844 280.1875 684.632812 281.074219 684.632812 281.964844 Z M 684.632812 281.964844 " fill-opacity="1" fill-rule="nonzero"/><path fill="#2d3277" d="M 657.492188 311.0625 C 641.445312 311.0625 628.390625 298.007812 628.390625 281.964844 C 628.390625 265.917969 641.445312 252.863281 657.492188 252.863281 C 673.539062 252.863281 686.59375 265.917969 686.59375 281.964844 C 686.59375 298.007812 673.539062 311.0625 657.492188 311.0625 Z M 657.492188 256.785156 C 643.609375 256.785156 632.3125 268.078125 632.3125 281.964844 C 632.3125 295.847656 643.609375 307.140625 657.492188 307.140625 C 671.375 307.140625 682.671875 295.847656 682.671875 281.964844 C 682.671875 268.078125 671.375 256.785156 657.492188 256.785156 Z M 657.492188 256.785156 " fill-opacity="1" fill-rule="nonzero"/><path fill="#efd045" d="M 670.117188 338.308594 L 657.3125 318.238281 L 667.617188 296.78125 L 680.421875 316.847656 Z M 670.117188 338.308594 " fill-opacity="1" fill-rule="nonzero"/><path fill="#2d3277" d="M 670.117188 340.269531 C 669.449219 340.269531 668.824219 339.929688 668.464844 339.363281 L 655.660156 319.292969 C 655.296875 318.722656 655.253906 318 655.546875 317.390625 L 665.851562 295.929688 C 666.160156 295.289062 666.789062 294.867188 667.5 294.824219 C 668.21875 294.769531 668.890625 295.125 669.273438 295.726562 L 682.074219 315.792969 C 682.441406 316.367188 682.484375 317.085938 682.191406 317.699219 L 671.886719 339.15625 C 671.578125 339.796875 670.945312 340.222656 670.234375 340.265625 C 670.195312 340.265625 670.15625 340.269531 670.117188 340.269531 Z M 659.554688 318.105469 L 669.875 334.28125 L 678.179688 316.984375 L 667.859375 300.808594 Z M 659.554688 318.105469 " fill-opacity="1" fill-rule="nonzero"/><path fill="#ffd100" d="M 670.117188 338.308594 L 697.3125 336.671875 L 707.613281 315.210938 L 680.421875 316.847656 Z M 670.117188 338.308594 " fill-opacity="1" fill-rule="nonzero"/><path fill="#2d3277" d="M 670.117188 340.269531 C 669.464844 340.269531 668.855469 339.945312 668.488281 339.402344 C 668.101562 338.824219 668.050781 338.085938 668.347656 337.457031 L 678.652344 316 C 678.960938 315.359375 679.59375 314.933594 680.304688 314.890625 L 707.496094 313.253906 C 708.175781 313.210938 708.855469 313.539062 709.242188 314.117188 C 709.628906 314.695312 709.683594 315.433594 709.382812 316.0625 L 699.078125 337.519531 C 698.769531 338.160156 698.140625 338.585938 697.425781 338.628906 L 670.234375 340.265625 C 670.195312 340.265625 670.15625 340.269531 670.117188 340.269531 Z M 681.691406 318.738281 L 673.328125 336.148438 L 696.039062 334.78125 L 704.402344 317.371094 Z M 681.691406 318.738281 " fill-opacity="1" fill-rule="nonzero"/><path fill="#ffffff" d="M 667.617188 296.78125 L 694.8125 295.144531 L 707.613281 315.210938 L 680.421875 316.847656 Z M 667.617188 296.78125 " fill-opacity="1" fill-rule="nonzero"/><path fill="#2d3277" d="M 680.421875 318.808594 C 679.753906 318.808594 679.128906 318.46875 678.769531 317.902344 L 665.964844 297.835938 C 665.589844 297.25 665.554688 296.507812 665.871094 295.890625 C 666.1875 295.269531 666.804688 294.863281 667.5 294.824219 L 694.695312 293.1875 C 695.429688 293.132812 696.085938 293.488281 696.464844 294.089844 L 709.269531 314.15625 C 709.640625 314.742188 709.679688 315.484375 709.359375 316.101562 C 709.046875 316.722656 708.425781 317.128906 707.730469 317.171875 L 680.539062 318.804688 C 680.5 318.808594 680.460938 318.808594 680.421875 318.808594 Z M 671.066406 298.539062 L 681.453125 314.820312 L 704.167969 313.453125 L 693.777344 297.171875 Z M 671.066406 298.539062 " fill-opacity="1" fill-rule="nonzero"/><path fill="#7b98c9" d="M 149.476562 305.234375 C 147.054688 305.234375 144.777344 304.292969 143.0625 302.578125 C 141.054688 300.574219 137.796875 300.574219 135.789062 302.578125 C 134.074219 304.292969 131.796875 305.234375 129.375 305.234375 C 126.953125 305.234375 124.679688 304.292969 122.964844 302.578125 C 120.960938 300.574219 117.695312 300.574219 115.6875 302.582031 C 113.976562 304.292969 111.699219 305.234375 109.277344 305.234375 C 106.855469 305.234375 104.578125 304.292969 102.863281 302.578125 C 100.921875 300.636719 97.535156 300.636719 95.589844 302.578125 C 94.824219 303.347656 93.582031 303.347656 92.816406 302.578125 C 92.050781 301.8125 92.050781 300.570312 92.816406 299.804688 C 96.347656 296.269531 102.101562 296.269531 105.636719 299.804688 C 107.582031 301.75 110.96875 301.75 112.914062 299.804688 C 116.449219 296.273438 122.203125 296.269531 125.738281 299.804688 C 127.679688 301.75 131.070312 301.75 133.015625 299.804688 C 134.726562 298.09375 137.003906 297.148438 139.425781 297.148438 C 141.847656 297.148438 144.125 298.09375 145.835938 299.804688 C 147.78125 301.75 151.171875 301.75 153.113281 299.804688 C 156.648438 296.269531 162.402344 296.269531 165.9375 299.804688 C 166.703125 300.570312 166.703125 301.8125 165.9375 302.578125 C 165.171875 303.347656 163.929688 303.347656 163.164062 302.578125 C 161.21875 300.636719 157.832031 300.636719 155.886719 302.578125 C 154.175781 304.292969 151.898438 305.234375 149.476562 305.234375 Z M 149.476562 305.234375 " fill-opacity="1" fill-rule="nonzero"/><path fill="#7b98c9" d="M 161.585938 321.054688 C 159.164062 321.054688 156.890625 320.113281 155.175781 318.398438 C 153.171875 316.394531 149.90625 316.394531 147.898438 318.398438 C 146.1875 320.113281 143.910156 321.054688 141.488281 321.054688 C 139.066406 321.054688 136.789062 320.113281 135.078125 318.398438 C 133.066406 316.394531 129.804688 316.394531 127.800781 318.398438 C 126.085938 320.113281 123.808594 321.054688 121.386719 321.054688 C 118.964844 321.054688 116.6875 320.113281 114.976562 318.398438 C 112.96875 316.394531 109.703125 316.394531 107.699219 318.398438 C 106.933594 319.164062 105.691406 319.164062 104.925781 318.398438 C 104.160156 317.632812 104.160156 316.390625 104.925781 315.625 C 108.460938 312.089844 114.210938 312.085938 117.75 315.625 C 119.695312 317.570312 123.082031 317.570312 125.027344 315.625 C 128.558594 312.089844 134.308594 312.085938 137.851562 315.625 C 139.792969 317.570312 143.179688 317.570312 145.125 315.625 C 148.660156 312.089844 154.414062 312.089844 157.949219 315.625 C 159.890625 317.570312 163.28125 317.570312 165.226562 315.625 C 165.992188 314.859375 167.234375 314.859375 168 315.625 C 168.765625 316.390625 168.765625 317.632812 168 318.398438 C 166.285156 320.113281 164.007812 321.054688 161.585938 321.054688 Z M 161.585938 321.054688 " fill-opacity="1" fill-rule="nonzero"/><path fill="#7b98c9" d="M 693.976562 401.113281 C 691.550781 401.113281 689.273438 400.167969 687.5625 398.457031 C 685.621094 396.511719 682.230469 396.511719 680.285156 398.457031 C 678.574219 400.167969 676.296875 401.113281 673.875 401.113281 C 671.453125 401.113281 669.175781 400.167969 667.460938 398.457031 C 665.519531 396.511719 662.128906 396.511719 660.1875 398.457031 C 658.472656 400.167969 656.195312 401.113281 653.773438 401.113281 C 651.351562 401.113281 649.074219 400.167969 647.363281 398.457031 C 645.417969 396.511719 642.03125 396.511719 640.085938 398.457031 C 639.320312 399.222656 638.078125 399.222656 637.3125 398.457031 C 636.546875 397.691406 636.546875 396.449219 637.3125 395.683594 C 640.847656 392.144531 646.601562 392.144531 650.136719 395.683594 C 652.078125 397.625 655.46875 397.625 657.414062 395.683594 C 660.949219 392.144531 666.703125 392.144531 670.238281 395.683594 C 672.179688 397.625 675.570312 397.625 677.511719 395.683594 C 681.046875 392.144531 686.800781 392.144531 690.335938 395.683594 C 692.28125 397.625 695.667969 397.625 697.613281 395.683594 C 701.144531 392.148438 706.898438 392.144531 710.4375 395.683594 C 711.203125 396.449219 711.203125 397.691406 710.4375 398.457031 C 709.671875 399.222656 708.429688 399.222656 707.664062 398.457031 C 705.652344 396.449219 702.390625 396.453125 700.386719 398.457031 C 698.675781 400.167969 696.398438 401.113281 693.976562 401.113281 Z M 693.976562 401.113281 " fill-opacity="1" fill-rule="nonzero"/><path fill="#7b98c9" d="M 648.75 416.929688 C 646.328125 416.929688 644.050781 415.988281 642.335938 414.273438 C 641.570312 413.507812 641.570312 412.265625 642.335938 411.5 C 643.105469 410.734375 644.34375 410.734375 645.109375 411.5 C 647.054688 413.445312 650.445312 413.445312 652.386719 411.5 C 655.921875 407.964844 661.675781 407.964844 665.210938 411.5 C 667.21875 413.507812 670.480469 413.507812 672.488281 411.5 C 676.023438 407.964844 681.777344 407.964844 685.3125 411.5 C 687.320312 413.507812 690.582031 413.507812 692.585938 411.5 C 696.121094 407.96875 701.871094 407.964844 705.410156 411.5 C 706.175781 412.265625 706.175781 413.507812 705.410156 414.273438 C 704.644531 415.039062 703.402344 415.039062 702.636719 414.273438 C 700.628906 412.269531 697.363281 412.269531 695.363281 414.273438 C 691.828125 417.808594 686.074219 417.808594 682.539062 414.273438 C 680.53125 412.269531 677.269531 412.269531 675.261719 414.273438 C 671.726562 417.808594 665.972656 417.808594 662.4375 414.273438 C 660.429688 412.269531 657.167969 412.269531 655.160156 414.273438 C 653.449219 415.988281 651.171875 416.929688 648.75 416.929688 Z M 648.75 416.929688 " fill-opacity="1" fill-rule="nonzero"/><path fill="#ffffff" d="M 694.453125 461.121094 C 694.453125 461.652344 694.402344 462.179688 694.296875 462.699219 C 694.195312 463.222656 694.042969 463.730469 693.835938 464.21875 C 693.632812 464.710938 693.382812 465.179688 693.089844 465.621094 C 692.792969 466.0625 692.457031 466.472656 692.082031 466.847656 C 691.707031 467.222656 691.296875 467.558594 690.855469 467.855469 C 690.414062 468.148438 689.945312 468.398438 689.453125 468.601562 C 688.964844 468.808594 688.457031 468.960938 687.933594 469.0625 C 687.414062 469.167969 686.886719 469.21875 686.355469 469.21875 C 685.824219 469.21875 685.296875 469.167969 684.773438 469.0625 C 684.253906 468.960938 683.746094 468.808594 683.253906 468.601562 C 682.765625 468.398438 682.296875 468.148438 681.855469 467.855469 C 681.414062 467.558594 681.003906 467.222656 680.628906 466.847656 C 680.25 466.472656 679.914062 466.0625 679.621094 465.621094 C 679.324219 465.179688 679.074219 464.710938 678.871094 464.21875 C 678.667969 463.730469 678.515625 463.222656 678.410156 462.699219 C 678.308594 462.179688 678.253906 461.652344 678.253906 461.121094 C 678.253906 460.589844 678.308594 460.0625 678.410156 459.539062 C 678.515625 459.019531 678.667969 458.511719 678.871094 458.019531 C 679.074219 457.53125 679.324219 457.0625 679.621094 456.621094 C 679.914062 456.179688 680.25 455.769531 680.628906 455.394531 C 681.003906 455.019531 681.414062 454.683594 681.855469 454.386719 C 682.296875 454.089844 682.765625 453.839844 683.253906 453.636719 C 683.746094 453.433594 684.253906 453.28125 684.773438 453.175781 C 685.296875 453.074219 685.824219 453.023438 686.355469 453.023438 C 686.886719 453.023438 687.414062 453.074219 687.933594 453.175781 C 688.457031 453.28125 688.964844 453.433594 689.453125 453.636719 C 689.945312 453.839844 690.414062 454.089844 690.855469 454.386719 C 691.296875 454.683594 691.707031 455.019531 692.082031 455.394531 C 692.457031 455.769531 692.792969 456.179688 693.089844 456.621094 C 693.382812 457.0625 693.632812 457.53125 693.835938 458.019531 C 694.042969 458.511719 694.195312 459.019531 694.296875 459.539062 C 694.402344 460.0625 694.453125 460.589844 694.453125 461.121094 Z M 694.453125 461.121094 " fill-opacity="1" fill-rule="nonzero"/><path fill="#ffd100" d="M 686.355469 471.179688 C 680.808594 471.179688 676.292969 466.667969 676.292969 461.121094 C 676.292969 455.574219 680.808594 451.0625 686.355469 451.0625 C 691.902344 451.0625 696.417969 455.574219 696.417969 461.121094 C 696.417969 466.667969 691.902344 471.179688 686.355469 471.179688 Z M 686.355469 454.984375 C 682.96875 454.984375 680.21875 457.738281 680.21875 461.121094 C 680.21875 464.503906 682.96875 467.257812 686.355469 467.257812 C 689.738281 467.257812 692.492188 464.503906 692.492188 461.121094 C 692.492188 457.738281 689.738281 454.984375 686.355469 454.984375 Z M 686.355469 454.984375 " fill-opacity="1" fill-rule="nonzero"/><path fill="#ffd100" d="M 137.859375 469.820312 C 132.3125 469.820312 127.796875 465.308594 127.796875 459.761719 C 127.796875 454.214844 132.3125 449.699219 137.859375 449.699219 C 143.40625 449.699219 147.917969 454.214844 147.917969 459.761719 C 147.917969 465.308594 143.40625 469.820312 137.859375 469.820312 Z M 137.859375 453.625 C 134.476562 453.625 131.722656 456.375 131.722656 459.761719 C 131.722656 463.144531 134.476562 465.898438 137.859375 465.898438 C 141.242188 465.898438 143.996094 463.144531 143.996094 459.761719 C 143.996094 456.375 141.242188 453.625 137.859375 453.625 Z M 137.859375 453.625 " fill-opacity="1" fill-rule="nonzero"/><path fill="#ffffff" d="M 542.597656 268.820312 L 399.304688 268.820312 C 392.035156 268.820312 386.144531 274.714844 386.144531 281.980469 C 386.144531 289.25 392.035156 295.144531 399.304688 295.144531 L 542.597656 295.144531 C 549.867188 295.144531 555.757812 289.25 555.757812 281.980469 C 555.757812 274.714844 549.867188 268.820312 542.597656 268.820312 Z M 542.597656 268.820312 " fill-opacity="1" fill-rule="nonzero"/><path fill="#2d3277" d="M 542.597656 297.105469 L 399.304688 297.105469 C 390.964844 297.105469 384.183594 290.320312 384.183594 281.980469 C 384.183594 273.644531 390.964844 266.859375 399.304688 266.859375 L 542.597656 266.859375 C 550.933594 266.859375 557.71875 273.644531 557.71875 281.980469 C 557.71875 290.320312 550.933594 297.105469 542.597656 297.105469 Z M 399.304688 270.78125 C 393.128906 270.78125 388.105469 275.804688 388.105469 281.980469 C 388.105469 288.15625 393.128906 293.183594 399.304688 293.183594 L 542.597656 293.183594 C 548.769531 293.183594 553.796875 288.15625 553.796875 281.980469 C 553.796875 275.804688 548.769531 270.78125 542.597656 270.78125 Z M 399.304688 270.78125 " fill-opacity="1" fill-rule="nonzero"/><path fill="#ffffff" d="M 393.035156 519.90625 L 464.070312 519.90625 L 464.070312 566.980469 L 393.035156 566.980469 Z M 393.035156 519.90625 " fill-opacity="1" fill-rule="nonzero"/><path fill="#2d3277" d="M 464.070312 568.941406 L 393.035156 568.941406 C 391.953125 568.941406 391.074219 568.0625 391.074219 566.980469 L 391.074219 519.90625 C 391.074219 518.824219 391.953125 517.945312 393.035156 517.945312 L 464.070312 517.945312 C 465.152344 517.945312 466.03125 518.824219 466.03125 519.90625 L 466.03125 566.980469 C 466.03125 568.0625 465.152344 568.941406 464.070312 568.941406 Z M 394.996094 565.019531 L 462.109375 565.019531 L 462.109375 521.867188 L 394.996094 521.867188 Z M 394.996094 565.019531 " fill-opacity="1" fill-rule="nonzero"/><path fill="#efd045" d="M 388.28125 566.980469 L 471.917969 566.980469 L 471.917969 577.863281 L 388.28125 577.863281 Z M 388.28125 566.980469 " fill-opacity="1" fill-rule="nonzero"/><path fill="#2d3277" d="M 471.917969 579.824219 L 388.28125 579.824219 C 387.199219 579.824219 386.320312 578.945312 386.320312 577.863281 L 386.320312 566.980469 C 386.320312 565.898438 387.199219 565.019531 388.28125 565.019531 L 471.917969 565.019531 C 473 565.019531 473.878906 565.898438 473.878906 566.980469 L 473.878906 577.863281 C 473.878906 578.945312 473 579.824219 471.917969 579.824219 Z M 390.242188 575.902344 L 469.957031 575.902344 L 469.957031 568.941406 L 390.242188 568.941406 Z M 390.242188 575.902344 " fill-opacity="1" fill-rule="nonzero"/><path fill="#efd045" d="M 496.6875 532.730469 L 471.917969 532.730469 L 471.917969 577.863281 L 511.453125 577.863281 L 511.453125 547.496094 C 505.6875 541.730469 502.453125 538.496094 496.6875 532.730469 Z M 496.6875 532.730469 " fill-opacity="1" fill-rule="nonzero"/><path fill="#2d3277" d="M 511.453125 579.824219 L 471.917969 579.824219 C 470.835938 579.824219 469.957031 578.945312 469.957031 577.863281 L 469.957031 532.730469 C 469.957031 531.644531 470.835938 530.769531 471.917969 530.769531 L 496.773438 530.769531 C 497.292969 530.769531 497.792969 530.976562 498.160156 531.34375 L 512.839844 546.023438 C 513.207031 546.390625 513.414062 546.890625 513.414062 547.410156 L 513.414062 577.863281 C 513.414062 578.945312 512.535156 579.824219 511.453125 579.824219 Z M 473.878906 575.902344 L 509.492188 575.902344 L 509.492188 548.222656 L 495.960938 534.691406 L 473.878906 534.691406 Z M 473.878906 575.902344 " fill-opacity="1" fill-rule="nonzero"/><path fill="#ffd100" d="M 479.765625 556.855469 L 479.765625 540.574219 L 493.523438 540.574219 L 503.609375 550.65625 L 503.609375 556.855469 Z M 479.765625 556.855469 " fill-opacity="1" fill-rule="nonzero"/><path fill="#2d3277" d="M 503.609375 558.820312 L 479.761719 558.820312 C 478.679688 558.820312 477.800781 557.941406 477.800781 556.855469 L 477.800781 540.574219 C 477.800781 539.492188 478.679688 538.613281 479.761719 538.613281 L 493.523438 538.613281 C 494.042969 538.613281 494.542969 538.820312 494.910156 539.1875 L 504.996094 549.269531 C 505.363281 549.636719 505.570312 550.136719 505.570312 550.65625 L 505.570312 556.855469 C 505.570312 557.941406 504.691406 558.820312 503.609375 558.820312 Z M 481.726562 554.894531 L 501.644531 554.894531 L 501.644531 551.46875 L 492.710938 542.535156 L 481.726562 542.535156 Z M 481.726562 554.894531 " fill-opacity="1" fill-rule="nonzero"/><path fill="#ffd100" d="M 493.316406 577.863281 C 493.316406 578.246094 493.277344 578.625 493.203125 579 C 493.128906 579.375 493.019531 579.738281 492.871094 580.089844 C 492.726562 580.445312 492.546875 580.777344 492.335938 581.097656 C 492.121094 581.414062 491.882812 581.707031 491.609375 581.980469 C 491.339844 582.25 491.046875 582.492188 490.730469 582.703125 C 490.410156 582.914062 490.074219 583.09375 489.722656 583.242188 C 489.371094 583.386719 489.003906 583.496094 488.628906 583.570312 C 488.253906 583.648438 487.878906 583.683594 487.496094 583.683594 C 487.113281 583.683594 486.734375 583.648438 486.359375 583.570312 C 485.984375 583.496094 485.621094 583.386719 485.265625 583.242188 C 484.914062 583.09375 484.578125 582.914062 484.261719 582.703125 C 483.941406 582.492188 483.648438 582.25 483.378906 581.980469 C 483.109375 581.707031 482.867188 581.414062 482.65625 581.097656 C 482.441406 580.777344 482.261719 580.445312 482.117188 580.089844 C 481.96875 579.738281 481.859375 579.375 481.785156 579 C 481.710938 578.625 481.671875 578.246094 481.671875 577.863281 C 481.671875 577.480469 481.710938 577.101562 481.785156 576.726562 C 481.859375 576.351562 481.96875 575.988281 482.117188 575.636719 C 482.261719 575.28125 482.441406 574.945312 482.65625 574.628906 C 482.867188 574.3125 483.109375 574.015625 483.378906 573.746094 C 483.648438 573.476562 483.941406 573.234375 484.261719 573.023438 C 484.578125 572.8125 484.914062 572.632812 485.265625 572.484375 C 485.621094 572.339844 485.984375 572.230469 486.359375 572.152344 C 486.734375 572.078125 487.113281 572.042969 487.496094 572.042969 C 487.878906 572.042969 488.253906 572.078125 488.628906 572.152344 C 489.003906 572.230469 489.371094 572.339844 489.722656 572.484375 C 490.074219 572.632812 490.410156 572.8125 490.730469 573.023438 C 491.046875 573.234375 491.339844 573.476562 491.609375 573.746094 C 491.882812 574.015625 492.121094 574.3125 492.335938 574.628906 C 492.546875 574.945312 492.726562 575.28125 492.871094 575.636719 C 493.019531 575.988281 493.128906 576.351562 493.203125 576.726562 C 493.277344 577.101562 493.316406 577.480469 493.316406 577.863281 Z M 493.316406 577.863281 " fill-opacity="1" fill-rule="nonzero"/><path fill="#2d3277" d="M 487.496094 585.644531 C 483.203125 585.644531 479.710938 582.152344 479.710938 577.863281 C 479.710938 573.570312 483.203125 570.078125 487.496094 570.078125 C 491.785156 570.078125 495.277344 573.570312 495.277344 577.863281 C 495.277344 582.152344 491.785156 585.644531 487.496094 585.644531 Z M 487.496094 574.003906 C 485.367188 574.003906 483.632812 575.734375 483.632812 577.863281 C 483.632812 579.988281 485.367188 581.722656 487.496094 581.722656 C 489.621094 581.722656 491.351562 579.988281 491.351562 577.863281 C 491.351562 575.734375 489.621094 574.003906 487.496094 574.003906 Z M 487.496094 574.003906 " fill-opacity="1" fill-rule="nonzero"/><path fill="#ffd100" d="M 457.148438 577.863281 C 457.148438 578.246094 457.113281 578.625 457.039062 579 C 456.964844 579.375 456.851562 579.738281 456.707031 580.089844 C 456.5625 580.445312 456.382812 580.777344 456.167969 581.097656 C 455.957031 581.414062 455.714844 581.707031 455.445312 581.980469 C 455.175781 582.25 454.878906 582.492188 454.5625 582.703125 C 454.246094 582.914062 453.910156 583.09375 453.554688 583.242188 C 453.203125 583.386719 452.839844 583.496094 452.464844 583.570312 C 452.089844 583.648438 451.710938 583.683594 451.328125 583.683594 C 450.945312 583.683594 450.566406 583.648438 450.191406 583.570312 C 449.820312 583.496094 449.453125 583.386719 449.101562 583.242188 C 448.75 583.09375 448.414062 582.914062 448.09375 582.703125 C 447.777344 582.492188 447.484375 582.25 447.210938 581.980469 C 446.941406 581.707031 446.703125 581.414062 446.488281 581.097656 C 446.277344 580.777344 446.097656 580.445312 445.949219 580.089844 C 445.804688 579.738281 445.695312 579.375 445.621094 579 C 445.546875 578.625 445.507812 578.246094 445.507812 577.863281 C 445.507812 577.480469 445.546875 577.101562 445.621094 576.726562 C 445.695312 576.351562 445.804688 575.988281 445.949219 575.636719 C 446.097656 575.28125 446.277344 574.945312 446.488281 574.628906 C 446.703125 574.3125 446.941406 574.015625 447.210938 573.746094 C 447.484375 573.476562 447.777344 573.234375 448.09375 573.023438 C 448.414062 572.8125 448.75 572.632812 449.101562 572.484375 C 449.453125 572.339844 449.820312 572.230469 450.191406 572.152344 C 450.566406 572.078125 450.945312 572.042969 451.328125 572.042969 C 451.710938 572.042969 452.089844 572.078125 452.464844 572.152344 C 452.839844 572.230469 453.203125 572.339844 453.554688 572.484375 C 453.910156 572.632812 454.246094 572.8125 454.5625 573.023438 C 454.878906 573.234375 455.175781 573.476562 455.445312 573.746094 C 455.714844 574.015625 455.957031 574.3125 456.167969 574.628906 C 456.382812 574.945312 456.5625 575.28125 456.707031 575.636719 C 456.851562 575.988281 456.964844 576.351562 457.039062 576.726562 C 457.113281 577.101562 457.148438 577.480469 457.148438 577.863281 Z M 457.148438 577.863281 " fill-opacity="1" fill-rule="nonzero"/><path fill="#2d3277" d="M 451.328125 585.644531 C 447.039062 585.644531 443.546875 582.152344 443.546875 577.863281 C 443.546875 573.570312 447.039062 570.078125 451.328125 570.078125 C 455.621094 570.078125 459.113281 573.570312 459.113281 577.863281 C 459.113281 582.152344 455.621094 585.644531 451.328125 585.644531 Z M 451.328125 574.003906 C 449.199219 574.003906 447.46875 575.734375 447.46875 577.863281 C 447.46875 579.988281 449.199219 581.722656 451.328125 581.722656 C 453.457031 581.722656 455.1875 579.988281 455.1875 577.863281 C 455.1875 575.734375 453.457031 574.003906 451.328125 574.003906 Z M 451.328125 574.003906 " fill-opacity="1" fill-rule="nonzero"/><path fill="#ffd100" d="M 410.34375 577.863281 C 410.34375 578.246094 410.304688 578.625 410.230469 579 C 410.15625 579.375 410.046875 579.738281 409.898438 580.089844 C 409.753906 580.445312 409.574219 580.777344 409.359375 581.097656 C 409.148438 581.414062 408.90625 581.707031 408.636719 581.980469 C 408.367188 582.25 408.074219 582.492188 407.753906 582.703125 C 407.4375 582.914062 407.101562 583.09375 406.75 583.242188 C 406.394531 583.386719 406.03125 583.496094 405.65625 583.570312 C 405.28125 583.648438 404.902344 583.683594 404.519531 583.683594 C 404.136719 583.683594 403.761719 583.648438 403.386719 583.570312 C 403.011719 583.496094 402.644531 583.386719 402.292969 583.242188 C 401.941406 583.09375 401.605469 582.914062 401.285156 582.703125 C 400.96875 582.492188 400.675781 582.25 400.40625 581.980469 C 400.132812 581.707031 399.894531 581.414062 399.679688 581.097656 C 399.46875 580.777344 399.289062 580.445312 399.144531 580.089844 C 398.996094 579.738281 398.886719 579.375 398.8125 579 C 398.738281 578.625 398.699219 578.246094 398.699219 577.863281 C 398.699219 577.480469 398.738281 577.101562 398.8125 576.726562 C 398.886719 576.351562 398.996094 575.988281 399.144531 575.636719 C 399.289062 575.28125 399.46875 574.945312 399.679688 574.628906 C 399.894531 574.3125 400.132812 574.015625 400.40625 573.746094 C 400.675781 573.476562 400.96875 573.234375 401.285156 573.023438 C 401.605469 572.8125 401.941406 572.632812 402.292969 572.484375 C 402.644531 572.339844 403.011719 572.230469 403.386719 572.152344 C 403.761719 572.078125 404.136719 572.042969 404.519531 572.042969 C 404.902344 572.042969 405.28125 572.078125 405.65625 572.152344 C 406.03125 572.230469 406.394531 572.339844 406.75 572.484375 C 407.101562 572.632812 407.4375 572.8125 407.753906 573.023438 C 408.074219 573.234375 408.367188 573.476562 408.636719 573.746094 C 408.90625 574.015625 409.148438 574.3125 409.359375 574.628906 C 409.574219 574.945312 409.753906 575.28125 409.898438 575.636719 C 410.046875 575.988281 410.15625 576.351562 410.230469 576.726562 C 410.304688 577.101562 410.34375 577.480469 410.34375 577.863281 Z M 410.34375 577.863281 " fill-opacity="1" fill-rule="nonzero"/><path fill="#2d3277" d="M 404.519531 585.644531 C 400.230469 585.644531 396.738281 582.152344 396.738281 577.863281 C 396.738281 573.570312 400.230469 570.078125 404.519531 570.078125 C 408.8125 570.078125 412.304688 573.570312 412.304688 577.863281 C 412.304688 582.152344 408.8125 585.644531 404.519531 585.644531 Z M 404.519531 574.003906 C 402.394531 574.003906 400.660156 575.734375 400.660156 577.863281 C 400.660156 579.988281 402.394531 581.722656 404.519531 581.722656 C 406.648438 581.722656 408.382812 579.988281 408.382812 577.863281 C 408.382812 575.734375 406.648438 574.003906 404.519531 574.003906 Z M 404.519531 574.003906 " fill-opacity="1" fill-rule="nonzero"/><path fill="#2d3277" d="M 621.789062 576.625 L 537.925781 576.625 C 536.84375 576.625 535.964844 575.746094 535.964844 574.664062 C 535.964844 573.578125 536.84375 572.703125 537.925781 572.703125 L 621.789062 572.703125 C 622.871094 572.703125 623.75 573.578125 623.75 574.664062 C 623.75 575.746094 622.871094 576.625 621.789062 576.625 Z M 621.789062 576.625 " fill-opacity="1" fill-rule="nonzero"/><path fill="#2d3277" d="M 594.292969 524.730469 L 537.925781 524.730469 C 536.84375 524.730469 535.964844 523.851562 535.964844 522.769531 C 535.964844 521.6875 536.84375 520.808594 537.925781 520.808594 L 594.292969 520.808594 C 595.375 520.808594 596.253906 521.6875 596.253906 522.769531 C 596.253906 523.851562 595.375 524.730469 594.292969 524.730469 Z M 594.292969 524.730469 " fill-opacity="1" fill-rule="nonzero"/><path fill="#2d3277" d="M 577.863281 538.835938 L 537.925781 538.835938 C 536.84375 538.835938 535.964844 537.957031 535.964844 536.875 C 535.964844 535.792969 536.84375 534.914062 537.925781 534.914062 L 577.863281 534.914062 C 578.945312 534.914062 579.824219 535.792969 579.824219 536.875 C 579.824219 537.957031 578.945312 538.835938 577.863281 538.835938 Z M 577.863281 538.835938 " fill-opacity="1" fill-rule="nonzero"/><path fill="#2d3277" d="M 571.292969 552.941406 L 537.925781 552.941406 C 536.84375 552.941406 535.964844 552.066406 535.964844 550.980469 C 535.964844 549.898438 536.84375 549.019531 537.925781 549.019531 L 571.292969 549.019531 C 572.375 549.019531 573.253906 549.898438 573.253906 550.980469 C 573.253906 552.066406 572.375 552.941406 571.292969 552.941406 Z M 571.292969 552.941406 " fill-opacity="1" fill-rule="nonzero"/><path fill="#ffffff" d="M 172.292969 601.335938 C 172.292969 601.898438 172.265625 602.460938 172.210938 603.023438 C 172.15625 603.585938 172.070312 604.140625 171.960938 604.695312 C 171.851562 605.246094 171.714844 605.792969 171.550781 606.332031 C 171.386719 606.871094 171.199219 607.402344 170.980469 607.925781 C 170.765625 608.445312 170.527344 608.953125 170.261719 609.453125 C 169.996094 609.949219 169.703125 610.433594 169.390625 610.902344 C 169.078125 611.371094 168.742188 611.820312 168.386719 612.257812 C 168.027344 612.695312 167.648438 613.109375 167.25 613.507812 C 166.851562 613.910156 166.433594 614.285156 166 614.644531 C 165.5625 615 165.109375 615.335938 164.640625 615.652344 C 164.171875 615.964844 163.6875 616.253906 163.191406 616.519531 C 162.695312 616.785156 162.183594 617.027344 161.664062 617.242188 C 161.144531 617.457031 160.613281 617.648438 160.074219 617.8125 C 159.535156 617.972656 158.988281 618.109375 158.433594 618.222656 C 157.882812 618.332031 157.324219 618.414062 156.761719 618.46875 C 156.203125 618.523438 155.640625 618.550781 155.074219 618.550781 C 154.511719 618.550781 153.949219 618.523438 153.386719 618.46875 C 152.828125 618.414062 152.269531 618.332031 151.71875 618.222656 C 151.164062 618.109375 150.617188 617.972656 150.078125 617.8125 C 149.539062 617.648438 149.007812 617.457031 148.488281 617.242188 C 147.964844 617.027344 147.457031 616.785156 146.960938 616.519531 C 146.460938 616.253906 145.980469 615.964844 145.511719 615.652344 C 145.042969 615.335938 144.589844 615 144.152344 614.644531 C 143.71875 614.285156 143.300781 613.910156 142.902344 613.507812 C 142.503906 613.109375 142.125 612.695312 141.765625 612.257812 C 141.410156 611.820312 141.074219 611.371094 140.761719 610.902344 C 140.445312 610.433594 140.15625 609.949219 139.890625 609.453125 C 139.625 608.953125 139.386719 608.445312 139.167969 607.925781 C 138.953125 607.402344 138.761719 606.871094 138.601562 606.332031 C 138.4375 605.792969 138.300781 605.246094 138.1875 604.695312 C 138.078125 604.140625 137.996094 603.585938 137.941406 603.023438 C 137.886719 602.460938 137.859375 601.898438 137.859375 601.335938 C 137.859375 600.773438 137.886719 600.210938 137.941406 599.648438 C 137.996094 599.085938 138.078125 598.53125 138.1875 597.976562 C 138.300781 597.425781 138.4375 596.878906 138.601562 596.339844 C 138.761719 595.796875 138.953125 595.269531 139.167969 594.746094 C 139.386719 594.226562 139.625 593.71875 139.890625 593.21875 C 140.15625 592.722656 140.445312 592.238281 140.761719 591.769531 C 141.074219 591.300781 141.410156 590.847656 141.765625 590.414062 C 142.125 589.976562 142.503906 589.558594 142.902344 589.160156 C 143.300781 588.761719 143.71875 588.386719 144.152344 588.027344 C 144.589844 587.667969 145.042969 587.332031 145.511719 587.019531 C 145.980469 586.707031 146.460938 586.417969 146.960938 586.152344 C 147.457031 585.886719 147.964844 585.644531 148.488281 585.429688 C 149.007812 585.214844 149.539062 585.023438 150.078125 584.859375 C 150.617188 584.695312 151.164062 584.558594 151.71875 584.449219 C 152.269531 584.339844 152.828125 584.257812 153.386719 584.203125 C 153.949219 584.148438 154.511719 584.121094 155.074219 584.121094 C 155.640625 584.121094 156.203125 584.148438 156.761719 584.203125 C 157.324219 584.257812 157.882812 584.339844 158.433594 584.449219 C 158.988281 584.558594 159.535156 584.695312 160.074219 584.859375 C 160.613281 585.023438 161.144531 585.214844 161.664062 585.429688 C 162.183594 585.644531 162.695312 585.886719 163.191406 586.152344 C 163.6875 586.417969 164.171875 586.707031 164.640625 587.019531 C 165.109375 587.332031 165.5625 587.667969 166 588.027344 C 166.433594 588.386719 166.851562 588.761719 167.25 589.160156 C 167.648438 589.558594 168.027344 589.976562 168.386719 590.414062 C 168.742188 590.847656 169.078125 591.300781 169.390625 591.769531 C 169.703125 592.238281 169.996094 592.722656 170.261719 593.21875 C 170.527344 593.71875 170.765625 594.226562 170.980469 594.746094 C 171.199219 595.269531 171.386719 595.796875 171.550781 596.339844 C 171.714844 596.878906 171.851562 597.425781 171.960938 597.976562 C 172.070312 598.53125 172.15625 599.085938 172.210938 599.648438 C 172.265625 600.210938 172.292969 600.773438 172.292969 601.335938 Z M 172.292969 601.335938 " fill-opacity="1" fill-rule="nonzero"/><path fill="#2d3277" d="M 155.078125 620.511719 C 144.5 620.511719 135.898438 611.910156 135.898438 601.335938 C 135.898438 590.761719 144.5 582.15625 155.078125 582.15625 C 165.652344 582.15625 174.253906 590.761719 174.253906 601.335938 C 174.253906 611.910156 165.652344 620.511719 155.078125 620.511719 Z M 155.078125 586.078125 C 146.664062 586.078125 139.820312 592.921875 139.820312 601.335938 C 139.820312 609.746094 146.664062 616.589844 155.078125 616.589844 C 163.488281 616.589844 170.332031 609.746094 170.332031 601.335938 C 170.332031 592.921875 163.488281 586.078125 155.078125 586.078125 Z M 155.078125 586.078125 " fill-opacity="1" fill-rule="nonzero"/><path fill="#ffd100" d="M 141.332031 604.644531 L 110.566406 603.175781 L 95.59375 576.261719 L 126.359375 577.726562 Z M 141.332031 604.644531 " fill-opacity="1" fill-rule="nonzero"/><path fill="#2d3277" d="M 141.332031 606.605469 C 141.304688 606.605469 141.269531 606.605469 141.242188 606.601562 L 110.476562 605.136719 C 109.796875 605.105469 109.183594 604.722656 108.855469 604.128906 L 93.878906 577.214844 C 93.535156 576.59375 93.550781 575.832031 93.925781 575.226562 C 94.304688 574.621094 94.984375 574.277344 95.6875 574.300781 L 126.453125 575.769531 C 127.132812 575.800781 127.742188 576.183594 128.074219 576.773438 L 143.046875 603.691406 C 143.394531 604.3125 143.375 605.074219 143 605.679688 C 142.640625 606.257812 142.011719 606.605469 141.332031 606.605469 Z M 111.75 601.269531 L 137.90625 602.515625 L 125.175781 579.636719 L 99.019531 578.390625 Z M 111.75 601.269531 " fill-opacity="1" fill-rule="nonzero"/><path fill="#efd045" d="M 141.332031 604.644531 L 159.917969 574.695312 L 144.945312 547.78125 L 126.359375 577.726562 Z M 141.332031 604.644531 " fill-opacity="1" fill-rule="nonzero"/><path fill="#2d3277" d="M 141.332031 606.605469 C 141.320312 606.605469 141.304688 606.605469 141.285156 606.605469 C 140.589844 606.589844 139.957031 606.203125 139.621094 605.597656 L 124.644531 578.683594 C 124.300781 578.0625 124.316406 577.300781 124.691406 576.695312 L 143.277344 546.746094 C 143.644531 546.15625 144.242188 545.816406 144.992188 545.816406 C 145.6875 545.835938 146.320312 546.21875 146.660156 546.824219 L 161.632812 573.742188 C 161.980469 574.363281 161.960938 575.125 161.585938 575.730469 L 143 605.679688 C 142.644531 606.253906 142.011719 606.605469 141.332031 606.605469 Z M 128.632812 577.78125 L 141.425781 600.773438 L 157.644531 574.640625 L 144.851562 551.648438 Z M 128.632812 577.78125 " fill-opacity="1" fill-rule="nonzero"/><path fill="#ffffff" d="M 95.59375 576.261719 L 114.179688 546.3125 L 144.945312 547.78125 L 126.359375 577.726562 Z M 95.59375 576.261719 " fill-opacity="1" fill-rule="nonzero"/><path fill="#2d3277" d="M 126.359375 579.691406 C 126.328125 579.691406 126.296875 579.6875 126.265625 579.6875 L 95.5 578.21875 C 94.804688 578.1875 94.179688 577.789062 93.855469 577.175781 C 93.535156 576.558594 93.5625 575.816406 93.925781 575.226562 L 112.511719 545.277344 C 112.886719 544.671875 113.574219 544.328125 114.273438 544.355469 L 145.039062 545.820312 C 145.734375 545.855469 146.359375 546.25 146.683594 546.867188 C 147.003906 547.480469 146.976562 548.222656 146.613281 548.8125 L 128.027344 578.761719 C 127.667969 579.339844 127.035156 579.691406 126.359375 579.691406 Z M 99.019531 574.460938 L 125.300781 575.714844 L 141.519531 549.578125 L 115.238281 548.328125 Z M 99.019531 574.460938 " fill-opacity="1" fill-rule="nonzero"/></svg>