<?xml version="1.0"?>
<svg xmlns="http://www.w3.org/2000/svg" xmlns:xlink="http://www.w3.org/1999/xlink" version="1.1" id="Capa_1" x="0px" y="0px" viewBox="0 0 490.88 490.88" style="enable-background:new 0 0 490.88 490.88;" xml:space="preserve" width="512px" height="512px" class=""><g><path style="fill:#FFFFFF" d="M245.419,0C109.866,0.012-0.012,109.909,0,245.461c0.012,135.553,109.909,245.43,245.461,245.419  c135.544-0.012,245.419-109.896,245.419-245.44C490.727,109.942,380.916,0.141,245.419,0z" data-original="#4CAF50" class="active-path" data-old_color="#4CAF50"/><path style="fill:#FAFAFA;" d="M287.957,384c-2.831,0.005-5.548-1.115-7.552-3.115l-128-128c-4.164-4.165-4.164-10.917,0-15.083  l128-128c4.237-4.092,10.99-3.975,15.083,0.262c3.992,4.134,3.992,10.687,0,14.82L175.019,245.333l120.448,120.448  c4.171,4.16,4.179,10.914,0.019,15.085c-2.006,2.011-4.731,3.139-7.571,3.134L287.957,384z" data-original="#FAFAFA" class=""/><path d="M245.419,490.88C109.866,490.868-0.012,380.971,0,245.419C0.012,109.866,109.909-0.012,245.461,0  C381.006,0.012,490.88,109.896,490.88,245.44C490.727,380.938,380.916,490.739,245.419,490.88z M245.419,21.333  C121.648,21.345,21.322,121.691,21.333,245.461s100.357,224.097,224.128,224.085c123.762-0.012,224.085-100.344,224.085-224.107  C469.394,121.724,369.134,21.474,245.419,21.333z" data-original="#000000" class=""/><path d="M287.957,384c-2.831,0.005-5.548-1.115-7.552-3.115l-128-128c-4.164-4.165-4.164-10.917,0-15.083l128-128  c4.237-4.092,10.99-3.975,15.083,0.262c3.992,4.134,3.992,10.687,0,14.82L175.019,245.333l120.448,120.448  c4.171,4.16,4.179,10.914,0.019,15.085c-2.006,2.011-4.731,3.139-7.571,3.134L287.957,384z" data-original="#000000" class=""/></g> </svg>
