<svg xmlns="http://www.w3.org/2000/svg" width="40" height="40" viewBox="0 0 40 40"><g transform="translate(-608 -4887)"><rect width="40" height="40" transform="translate(608 4887)" fill="none"/><g transform="translate(618.159 4897.159)"><path d="M9.84,0a9.84,9.84,0,1,0,9.84,9.84A9.84,9.84,0,0,0,9.84,0Zm0,18.45a8.61,8.61,0,1,1,8.61-8.61A8.61,8.61,0,0,1,9.84,18.45Zm3.69-9.225H10.455V6.15a.615.615,0,0,0-1.23,0V9.225H6.15a.615.615,0,0,0,0,1.23H9.225V13.53a.615.615,0,0,0,1.23,0V10.455H13.53a.615.615,0,0,0,0-1.23Z" fill="#fff212"/></g></g></svg>