<svg xmlns="http://www.w3.org/2000/svg" width="62.502" height="62.502" viewBox="0 0 62.502 62.502"><g transform="translate(0 -0.001)"><g transform="translate(0 0.001)"><path d="M62.145,9.8c-3.9-3.9-11.086-6.836-16.056-8.168A48.23,48.23,0,0,0,34.155,0,23.755,23.755,0,0,0,28.1.677a1.221,1.221,0,0,0-.863.863c-.358,1.338-.666,2.735-.922,4.168a1.2,1.2,0,0,0-.022.128,58.7,58.7,0,0,0-.5,17.11,49.28,49.28,0,0,0-9.379,1.545c-4.97,1.332-12.157,4.27-16.056,8.168a1.221,1.221,0,0,0-.316,1.179c.39,1.454.865,2.938,1.412,4.424l0,.005A58.58,58.58,0,0,0,9.174,52.677C12.525,57.16,17.8,62.5,23.91,62.5a10.037,10.037,0,0,0,2.6-.342c3.728-1,6.656-4.112,8.467-9a40.719,40.719,0,0,0,2.146-13.625,10.043,10.043,0,0,0,1.471.11c6.108,0,11.385-5.344,14.736-9.826a58.4,58.4,0,0,0,9.132-18.838A1.221,1.221,0,0,0,62.145,9.8Zm-36.269,50a7.6,7.6,0,0,1-1.966.258c-3.977,0-8.516-3.142-12.781-8.846A55.8,55.8,0,0,1,4.046,38.22c.658-.511,1.71-1.3,2.8-2.04A1.221,1.221,0,1,0,5.48,34.156c-.846.571-1.657,1.164-2.3,1.651q-.317-.956-.588-1.9c3.042-2.733,8.723-5.52,14.453-7.055a46.7,46.7,0,0,1,9.135-1.481,30.109,30.109,0,0,0,1.573,5.517l.009.023q.095.235.193.465l.011.025a19.858,19.858,0,0,0,1.1,2.195l.016.027,0,.007c.023.039.045.079.068.118.049.081.1.159.149.239l.1.154q.1.163.209.32l.1.152c.072.105.145.209.219.311l.093.126c.08.108.16.215.242.319l.027.033c.161.2.325.4.493.588a3.909,3.909,0,0,1-6.448-.476,1.221,1.221,0,1,0-2.114,1.221,6.351,6.351,0,0,0,10.359.915,10.332,10.332,0,0,0,1.24.787l.053.029c.112.06.226.116.34.172l.1.046q.165.078.332.149l.041.018C34.723,47.98,32.445,58.043,25.876,59.8Zm25.5-31.448c-4.265,5.7-8.8,8.847-12.781,8.847a7.6,7.6,0,0,1-1.965-.258c-.119-.032-.235-.067-.35-.1l-.01,0C30.987,35.138,29.072,28,28.4,23.9c0-.009,0-.018-.006-.027q-.018-.111-.035-.219a54.945,54.945,0,0,1,.2-16.593c.824-.113,2.132-.275,3.447-.367a1.221,1.221,0,1,0-.171-2.436c-1.013.071-2.008.179-2.807.278.12-.564.247-1.121.384-1.668a23.061,23.061,0,0,1,4.742-.43,45.677,45.677,0,0,1,11.3,1.547c5.729,1.535,11.411,4.322,14.453,7.055A55.992,55.992,0,0,1,51.373,28.355Z" transform="translate(0 -0.001)" fill="#fff212"/></g><g transform="translate(43.292 15.749)"><path d="M365.8,132.18a6.352,6.352,0,0,0-11,0,1.221,1.221,0,1,0,2.114,1.221,3.911,3.911,0,0,1,6.774,0,1.221,1.221,0,0,0,2.114-1.221Z" transform="translate(-354.634 -129.004)" fill="#fff212"/></g><g transform="translate(29.371 11.316)"><path d="M247.562,93.535a6.37,6.37,0,0,0-6.352,0,1.221,1.221,0,1,0,1.221,2.114,3.911,3.911,0,0,1,5.866,3.387,1.221,1.221,0,0,0,2.441,0A6.37,6.37,0,0,0,247.562,93.535Z" transform="translate(-240.599 -92.687)" fill="#fff212"/></g><g transform="translate(33.667 25.042)"><path d="M286.458,207.79a1.221,1.221,0,0,0-1.727,0,3.911,3.911,0,0,1-6.543-1.753,1.221,1.221,0,0,0-2.358.632,6.354,6.354,0,0,0,10.628,2.848A1.221,1.221,0,0,0,286.458,207.79Z" transform="translate(-275.789 -205.132)" fill="#fff212"/></g><g transform="translate(7.365 36.777)"><path d="M69.251,301.258h0a1.221,1.221,0,0,0-1.221,1.221,3.911,3.911,0,0,1-5.866,3.387,1.221,1.221,0,1,0-1.221,2.114,6.352,6.352,0,0,0,9.529-5.5A1.221,1.221,0,0,0,69.251,301.258Z" transform="translate(-60.332 -301.258)" fill="#fff212"/></g><g transform="translate(18.472 48.879)"><path d="M161.988,402.255A6.352,6.352,0,0,0,151.36,405.1a1.221,1.221,0,1,0,2.358.632,3.911,3.911,0,0,1,6.543-1.753,1.221,1.221,0,0,0,1.727-1.727Z" transform="translate(-151.319 -400.396)" fill="#fff212"/></g><g transform="translate(34.154 4.277)"><path d="M281.269,35.053l-.091-.014a1.221,1.221,0,1,0-.353,2.416l.058.009a1.221,1.221,0,1,0,.386-2.411Z" transform="translate(-279.78 -35.026)" fill="#fff212"/></g><g transform="translate(7.942 32.209)"><path d="M67.5,264.627a1.221,1.221,0,0,0-1.573-.711l-.092.036a1.221,1.221,0,1,0,.9,2.268l.049-.019A1.221,1.221,0,0,0,67.5,264.627Z" transform="translate(-65.062 -263.837)" fill="#fff212"/></g></g></svg>