<svg xmlns="http://www.w3.org/2000/svg" width="18.123" height="18.123" viewBox="0 0 18.123 18.123"><g style="isolation:isolate"><g transform="translate(0 0)"><g transform="translate(0 0)"><path d="M16.907,4.532A9.058,9.058,0,0,0,.314,6.717a9.058,9.058,0,0,0,6.4,11.093,9.106,9.106,0,0,0,2.359.313,9.061,9.061,0,0,0,7.829-13.59ZM16.9,11.161A8.114,8.114,0,0,1,2.035,13.119,8.12,8.12,0,0,1,9.049.943a8.159,8.159,0,0,1,2.113.28A8.114,8.114,0,0,1,16.9,11.161Z" transform="translate(-0.001 0)" fill="#1d2926"/></g></g><g transform="translate(6.103 4.711)"><path d="M179.726,136.578l-5.824-3.362a.987.987,0,0,0-1.481.855V140.8a.985.985,0,0,0,1.481.855l5.824-3.362a.987.987,0,0,0,0-1.71Zm-.472.893-5.824,3.362a.044.044,0,0,1-.066-.038v-6.725a.039.039,0,0,1,.022-.038.044.044,0,0,1,.022-.007.041.041,0,0,1,.021.007l5.824,3.362a.044.044,0,0,1,0,.076Z" transform="translate(-172.422 -133.082)" fill="#1d2926"/></g></g></svg>