<svg xmlns="http://www.w3.org/2000/svg" width="57.021" height="62.457" viewBox="0 0 57.021 62.457"><g transform="translate(-22.282)"><g transform="translate(32.661)"><path d="M153.61,37.878l-18.2-16.585,2.939-2.939a1.218,1.218,0,0,0,1.551-.143l3.31-3.31a1.22,1.22,0,0,0,0-1.725L130.4.357a1.22,1.22,0,0,0-1.725,0l-3.31,3.31a1.22,1.22,0,0,0-.143,1.551L112.585,17.851a1.22,1.22,0,0,0-1.551.143l-3.31,3.31a1.22,1.22,0,0,0,0,1.725l12.818,12.818a1.22,1.22,0,0,0,1.725,0l3.31-3.31a1.22,1.22,0,0,0,.143-1.551l2.939-2.938,16.586,18.2a1.22,1.22,0,0,0,.873.4h.028a1.22,1.22,0,0,0,.863-.357l6.642-6.642a1.22,1.22,0,0,0-.041-1.764ZM129.533,2.945l11.093,11.093-1.585,1.585L127.949,4.53ZM121.4,33.26,110.311,22.167l1.585-1.585,11.093,11.093Zm2.606-4.014-9.685-9.685,12.6-12.6,9.685,9.685Zm22.176,14.41-15.8-17.335,3.3-3.3,17.335,15.8Z" transform="translate(-107.366 0)" fill="#b93336"/></g><g transform="translate(22.282 46.356)"><path d="M66.632,386.443v-1.6a4.841,4.841,0,0,0-4.835-4.835H31.718a4.841,4.841,0,0,0-4.835,4.835v1.6a4.835,4.835,0,0,0,.234,9.665H66.4a4.835,4.835,0,0,0,.234-9.665Zm-.234,7.225H27.117a2.4,2.4,0,1,1,0-4.791H54.4a1.22,1.22,0,1,0,0-2.44H29.323v-1.6a2.4,2.4,0,0,1,2.4-2.4H61.8a2.4,2.4,0,0,1,2.4,2.4v2.815a1.22,1.22,0,0,0,1.22,1.22H66.4a2.4,2.4,0,1,1,0,4.791Z" transform="translate(-22.282 -380.007)" fill="#b93336"/></g><g transform="translate(57.949 53.425)"><path d="M317.085,438.935a1.22,1.22,0,0,0-.069-.228,1.205,1.205,0,0,0-.112-.211,1.183,1.183,0,0,0-.337-.337,1.2,1.2,0,0,0-.211-.112,1.232,1.232,0,0,0-.228-.07,1.207,1.207,0,0,0-.477,0,1.287,1.287,0,0,0-.228.07,1.236,1.236,0,0,0-.21.112,1.165,1.165,0,0,0-.186.151,1.225,1.225,0,0,0-.334,1.1,1.3,1.3,0,0,0,.07.228,1.223,1.223,0,0,0,.66.66,1.294,1.294,0,0,0,.228.07,1.239,1.239,0,0,0,.477,0,1.234,1.234,0,0,0,.228-.07,1.208,1.208,0,0,0,.211-.112,1.237,1.237,0,0,0,.185-.152,1.16,1.16,0,0,0,.151-.185,1.235,1.235,0,0,0,.112-.21,1.292,1.292,0,0,0,.07-.228,1.179,1.179,0,0,0,0-.477Z" transform="translate(-314.67 -437.954)" fill="#b93336"/></g><g transform="translate(45.538 37.544)"><path d="M214.143,307.772a1.22,1.22,0,0,0-1.22,1.22v2.369a1.22,1.22,0,0,0,2.44,0v-2.369A1.22,1.22,0,0,0,214.143,307.772Z" transform="translate(-212.923 -307.772)" fill="#b93336"/></g><g transform="translate(35.6 39.468)"><path d="M135.724,326.082l-2.18-2.18a1.22,1.22,0,1,0-1.725,1.725l2.18,2.18a1.22,1.22,0,0,0,1.725-1.725Z" transform="translate(-131.461 -323.545)" fill="#b93336"/></g><g transform="translate(53.295 39.468)"><path d="M280.775,323.9a1.22,1.22,0,0,0-1.725,0l-2.18,2.18a1.22,1.22,0,1,0,1.725,1.725l2.18-2.18A1.22,1.22,0,0,0,280.775,323.9Z" transform="translate(-276.512 -323.545)" fill="#b93336"/></g></g></svg>