<svg xmlns="http://www.w3.org/2000/svg" width="30.08" height="20.375" viewBox="0 0 30.08 20.375"><path d="M26.866,0H3.214A3.215,3.215,0,0,0,0,3.214V17.161a3.215,3.215,0,0,0,3.214,3.214H26.866a3.215,3.215,0,0,0,3.214-3.214V3.214A3.215,3.215,0,0,0,26.866,0ZM1.285,5.785H28.795V8.613H1.285Zm1.928-4.5H26.866a1.934,1.934,0,0,1,1.928,1.928V4.5H1.285V3.214A1.934,1.934,0,0,1,3.214,1.285Zm23.653,17.8H3.214a1.934,1.934,0,0,1-1.928-1.928V9.9H28.795v7.263A1.934,1.934,0,0,1,26.866,19.089Zm0,0" fill="#3b9bd5"/><path d="M266.034,192.5a2.538,2.538,0,0,0-2.25,1.363,2.539,2.539,0,1,0,0,2.353,2.539,2.539,0,1,0,2.25-3.715Zm-4.5,3.792a1.251,1.251,0,1,1,.887-.366A1.253,1.253,0,0,1,261.535,196.288Zm4.5,0a1.251,1.251,0,1,1,.887-.366A1.253,1.253,0,0,1,266.034,196.288Zm0,0" transform="translate(-242.349 -180.123)" fill="#3b9bd5"/></svg>