<svg xmlns="http://www.w3.org/2000/svg" width="60" height="45.848" viewBox="0 0 60 45.848"><g transform="translate(0 -60.38)"><g transform="translate(12.277 67.219)"><g transform="translate(0 0)"><path d="M122.524,118.741A17.758,17.758,0,1,0,140.282,136.5,17.778,17.778,0,0,0,122.524,118.741Zm0,33.172A15.414,15.414,0,1,1,137.938,136.5,15.432,15.432,0,0,1,122.524,151.913Z" transform="translate(-104.766 -118.741)" fill="#fff212"/></g></g><g transform="translate(18.065 73.008)"><path d="M176.641,174.377a1.172,1.172,0,0,0-1.59-.467c-.019.01-.037.022-.055.034a1.171,1.171,0,0,0-.412,1.556,9.612,9.612,0,1,1-6.936-4.9,1.17,1.17,0,0,0,1.328-.911c0-.021.01-.042.013-.063a1.172,1.172,0,0,0-.974-1.341,11.965,11.965,0,1,0,8.626,6.093Z" transform="translate(-154.16 -168.136)" fill="#fff212"/></g><g transform="translate(35.522 74.842)"><path d="M305.121,184.13a1.123,1.123,0,0,0-.178-.145,1.158,1.158,0,0,0-.2-.108,1.184,1.184,0,0,0-.219-.067,1.16,1.16,0,0,0-.458,0,1.212,1.212,0,0,0-.219.067,1.151,1.151,0,0,0-.526.431,1.157,1.157,0,0,0-.108.2,1.13,1.13,0,0,0-.046.137c-.008.027-.015.055-.021.082a1.191,1.191,0,0,0,0,.458,1.207,1.207,0,0,0,.067.219,1.187,1.187,0,0,0,.253.38,1.268,1.268,0,0,0,.179.146,1.187,1.187,0,0,0,.2.108,1.21,1.21,0,0,0,.219.067,1.167,1.167,0,0,0,.677-.067,1.149,1.149,0,0,0,.175-.091l.028-.017a1.2,1.2,0,0,0,.178-.146,1.123,1.123,0,0,0,.145-.178,1.186,1.186,0,0,0,.108-.2,1.236,1.236,0,0,0,.067-.219,1.168,1.168,0,0,0,.023-.23A1.18,1.18,0,0,0,305.121,184.13Z" transform="translate(-303.121 -183.787)" fill="#fff212"/></g><g transform="translate(47.225 60.586)"><g transform="translate(0 0)"><path d="M415.733,103.309l-3.8-30.954a16.426,16.426,0,0,0-4.382-9.3l-.1-.108a2.584,2.584,0,0,0-4.439,2.092l4.818,39.239q.023.189.063.371a3.982,3.982,0,0,0,7.347,1.118q.1-.166.174-.342t.141-.358A3.957,3.957,0,0,0,415.733,103.309Zm-10.4-38.554a.216.216,0,0,1,.136-.246.266.266,0,0,1,.114-.028.219.219,0,0,1,.162.08l.1.108a14.082,14.082,0,0,1,3.757,7.972l2.026,16.5-3.254.4Zm7.97,39.639a1.639,1.639,0,0,1-3.152-.4l-1.489-12.131,3.254-.4,1.489,12.131A1.631,1.631,0,0,1,413.305,104.394Z" transform="translate(-402.988 -62.135)" fill="#fff212"/></g></g><g transform="translate(0 60.38)"><g transform="translate(0 0)"><path d="M14.452,61.71a1.172,1.172,0,0,0-1.306,1.02l-1.066,8.68a2.791,2.791,0,0,1-2.612,2.456l-.777-.1,1.4-11.416a1.172,1.172,0,1,0-2.326-.286l-1.4,11.416-.778-.1a2.791,2.791,0,0,1-1.94-3.015L4.713,61.7a1.172,1.172,0,1,0-2.326-.286L1.321,70.09a5.122,5.122,0,0,0,2.712,5.185L.046,100.931v.009a4.08,4.08,0,0,0,3.538,4.645l.021,0a4.162,4.162,0,0,0,.507.031,4.082,4.082,0,0,0,4.053-3.711l2.356-25.837A5.122,5.122,0,0,0,14.407,71.7l1.066-8.68A1.172,1.172,0,0,0,14.452,61.71ZM5.83,101.7a1.737,1.737,0,0,1-1.94,1.566l-.021,0a1.736,1.736,0,0,1-1.507-1.973L6.316,75.841l.925.114h0l.924.113Z" transform="translate(0 -60.38)" fill="#fff212"/></g></g></g></svg>