<svg xmlns="http://www.w3.org/2000/svg" width="16.825" height="16.143" viewBox="0 0 16.825 16.143"><path d="M13.875,7.23H2.95A2.953,2.953,0,0,0,0,10.18v6.739a2.953,2.953,0,0,0,2.95,2.95H9.909L13.24,23.2a.59.59,0,0,0,1.007-.417V19.845a2.954,2.954,0,0,0,2.578-2.927V10.18A2.953,2.953,0,0,0,13.875,7.23Zm1.77,9.689a1.772,1.772,0,0,1-1.77,1.77h-.218a.59.59,0,0,0-.59.59v2.08l-2.5-2.5a.59.59,0,0,0-.417-.173H2.95a1.772,1.772,0,0,1-1.77-1.77V10.18A1.772,1.772,0,0,1,2.95,8.41H13.875a1.772,1.772,0,0,1,1.77,1.77Z" transform="translate(0 -7.23)" fill="#1d2926"/><path d="M83.016,95.743H74.332a.59.59,0,0,0,0,1.18h8.684a.59.59,0,1,0,0-1.18Z" transform="translate(-70.262 -91.565)" fill="#1d2926"/><path d="M83.016,165.743H74.332a.59.59,0,0,0,0,1.18h8.684a.59.59,0,1,0,0-1.18Z" transform="translate(-70.262 -158.262)" fill="#1d2926"/></svg>