<svg xmlns="http://www.w3.org/2000/svg" width="72.74" height="72.667" viewBox="0 0 72.74 72.667"><g transform="translate(0 -0.259)"><g transform="translate(0 0.26)"><path d="M66.767,48.286h0l-5.21,1.737a5.5,5.5,0,0,0-3.432-3.461,6.066,6.066,0,0,0-6.345-5.146,10.311,10.311,0,0,0-9.494-4.833,4.861,4.861,0,0,0-3.215-3.421A23.511,23.511,0,0,1,44.963,23.4c.146.167.283.343.438.5a13.073,13.073,0,0,0,9.263,3.924c.246,0,.493-.007.738-.022a10.637,10.637,0,0,0,7.971-4.169C68.651,16.693,72.534,2.741,72.7,2.15A1.212,1.212,0,0,0,71.685.626c-.714-.095-17.6-2.215-26.045,4.916a10.968,10.968,0,0,0-1.614,1.687A27.422,27.422,0,0,0,33.807,6.4a1.213,1.213,0,0,0-1.02,1.561c.081.263,2.007,6.471,4.658,9.58A6.031,6.031,0,0,0,42.1,19.582c.174,0,.35-.013.526-.027a13.7,13.7,0,0,0,.888,1.821A25.854,25.854,0,0,0,36.6,33.028a4.889,4.889,0,0,0-2.879,1.824,8.456,8.456,0,0,0-9.687,2.062,7.052,7.052,0,0,0-2.212-.358,7.279,7.279,0,0,0-7.164,6.062H12.412A5.453,5.453,0,0,0,7.88,40.193H5.456A5.461,5.461,0,0,0,0,45.648V67.47a5.461,5.461,0,0,0,5.456,5.456H7.88a5.4,5.4,0,0,0,3.387-1.212H42.8A9.7,9.7,0,0,0,47.838,70.3L70.562,56.467a4.538,4.538,0,0,0-3.8-8.181ZM44.072,13.995a9.077,9.077,0,0,1,3.132-6.6C51.846,3.476,59.732,2.7,65.229,2.7c1.967,0,3.627.1,4.724.188-1.121,3.707-4.446,13.931-8.51,19.278a8.252,8.252,0,0,1-6.188,3.216,10.558,10.558,0,0,1-8.116-3.172c-.154-.159-.293-.332-.436-.5a41.327,41.327,0,0,1,8.386-5.89,1.212,1.212,0,0,0-1.066-2.178,42.4,42.4,0,0,0-8.7,6.006A11.261,11.261,0,0,1,44.072,13.995Zm-2.422-.119a13.366,13.366,0,0,0,.265,3.276,3.563,3.563,0,0,1-2.622-1.18A26.565,26.565,0,0,1,35.6,8.7a23.8,23.8,0,0,1,7.141.668A12.144,12.144,0,0,0,41.65,13.876ZM10.911,67.47A3.034,3.034,0,0,1,7.88,70.5H5.456A3.034,3.034,0,0,1,2.425,67.47V45.648a3.034,3.034,0,0,1,3.031-3.031H7.88a3.034,3.034,0,0,1,3.031,3.031ZM21.822,38.98a4.788,4.788,0,0,1,2.069.484,1.214,1.214,0,0,0,1.5-.385,6.036,6.036,0,0,1,8.149-1.58,1.212,1.212,0,0,0,1.782-.592,2.4,2.4,0,0,1,2.16-1.549c.032,0,.065.01.1.01s.058-.013.088-.015A2.412,2.412,0,0,1,40.009,37.7c0,.034-.017.149-.019.182a1.212,1.212,0,0,0,1.455,1.256,7.962,7.962,0,0,1,1.594-.161,7.851,7.851,0,0,1,7.011,4.3,1.21,1.21,0,0,0,1.331.633,3.654,3.654,0,0,1,4.387,3.5c0,.04-.005.081-.005.114a1.212,1.212,0,0,0,1.041,1.2,3.039,3.039,0,0,1,2.445,2.065L44.326,55.767a3.634,3.634,0,0,1-1.15.186h-.7a5.58,5.58,0,0,0-.453-4.776L41.919,51a7.308,7.308,0,0,0-6.237-3.532H29.341a9.89,9.89,0,0,1-6.155-2.159,12.316,12.316,0,0,0-6.077-2.575A4.85,4.85,0,0,1,21.822,38.98ZM70.277,52.993a2.086,2.086,0,0,1-.975,1.4L46.577,68.229a7.273,7.273,0,0,1-3.782,1.06H13a5.389,5.389,0,0,0,.335-1.819V45.649a5.323,5.323,0,0,0-.061-.606h2.241A9.89,9.89,0,0,1,21.671,47.2a12.321,12.321,0,0,0,7.669,2.691h6.341a4.873,4.873,0,0,1,4.159,2.356l.108.178a3.168,3.168,0,0,1-.18,3.527H32.4a12.08,12.08,0,0,0-6.724,2.036l-.889.592A1.212,1.212,0,1,0,26.132,60.6l.889-.592a9.665,9.665,0,0,1,5.38-1.629H43.176a6.066,6.066,0,0,0,1.917-.311l15.468-5.156c.02,0,.036.011.056.011a1.188,1.188,0,0,0,.742-.278l6.175-2.058a2.108,2.108,0,0,1,2.36.742A2.086,2.086,0,0,1,70.277,52.993Z" transform="translate(0 -0.26)" fill="#1d2926"/><path d="M189.129,277.632a1.213,1.213,0,0,0,1.43-.946,1.824,1.824,0,0,1,1.782-1.454,1.8,1.8,0,0,1,1.09.363,1.212,1.212,0,0,0,1.456-1.938,4.205,4.205,0,0,0-2.547-.849,4.256,4.256,0,0,0-4.159,3.4A1.213,1.213,0,0,0,189.129,277.632Z" transform="translate(-161.426 -234.086)" fill="#1d2926"/><path d="M282.262,292.674a1.212,1.212,0,0,0,1.211-.076h0a1.824,1.824,0,0,1,2.288.233,1.8,1.8,0,0,1,.514,1.028,1.212,1.212,0,0,0,1.2,1.041,1.322,1.322,0,0,0,.173-.012,1.213,1.213,0,0,0,1.03-1.372,4.244,4.244,0,0,0-6.542-2.94,1.212,1.212,0,0,0,.128,2.1Z" transform="translate(-241.584 -248.728)" fill="#1d2926"/></g></g></svg>