<svg width="24" height="39" viewBox="0 0 24 39" fill="none" xmlns="http://www.w3.org/2000/svg">
<path d="M2.47328 1.28203L0.411889 3.19096C0.281914 3.3033 0.178279 3.43919 0.107421 3.59019C0.0365626 3.74119 -1.8438e-06 3.90407 -1.83515e-06 4.06871C-1.8265e-06 4.23335 0.0365626 4.39623 0.107421 4.54723C0.178279 4.69823 0.281914 4.83413 0.411889 4.94646L16.614 19.9503L0.419592 34.9541C0.289618 35.0665 0.185982 35.2024 0.115124 35.3534C0.0442662 35.5044 0.00770173 35.6672 0.00770174 35.8319C0.00770175 35.9965 0.0442662 36.1594 0.115124 36.3104C0.185982 36.4614 0.289618 36.5973 0.419592 36.7096L2.48098 38.6186C2.60229 38.7389 2.74904 38.8349 2.9121 38.9005C3.07516 38.9661 3.25105 39 3.42884 39C3.60663 39 3.78252 38.9661 3.94558 38.9005C4.10864 38.8349 4.25539 38.7389 4.3767 38.6186L23.5881 20.8298C23.7181 20.7175 23.8217 20.5816 23.8926 20.4306C23.9634 20.2796 24 20.1167 24 19.9521C24 19.7874 23.9634 19.6246 23.8926 19.4736C23.8217 19.3226 23.7181 19.1867 23.5881 19.0743L4.3767 1.28381C4.25507 1.16364 4.10811 1.06784 3.94491 1.00236C3.78171 0.93687 3.60574 0.903084 3.42788 0.903084C3.25001 0.903084 3.07405 0.93687 2.91085 1.00236C2.74765 1.06784 2.60069 1.16364 2.47906 1.28381L2.47328 1.28203Z" fill="white"/>
</svg>
