<svg xmlns="http://www.w3.org/2000/svg" width="18.2" height="18.2" viewBox="0 0 18.2 18.2"><path d="M16.423,1.564H14.728v-.5a1.066,1.066,0,1,0-2.133,0v.5H6.624v-.5a1.066,1.066,0,1,0-2.133,0v.511A.355.355,0,0,0,4.4,1.564H2.98A1.779,1.779,0,0,0,1.2,3.341V9.4a.355.355,0,0,0,.711,0V5.225H14.728a.355.355,0,1,0,0-.711H1.913V3.341A1.068,1.068,0,0,1,2.98,2.275H4.4a.356.356,0,0,0,.095-.013v.457a1.066,1.066,0,1,0,2.133,0V2.275H12.6v.444a1.066,1.066,0,1,0,2.133,0V2.275h1.694a1.068,1.068,0,0,1,1.066,1.066V16.849a.64.64,0,0,1-1.28,0v-.92a.355.355,0,0,0-.355-.355H11.719a.355.355,0,0,0,0,.711H15.5v.564a1.343,1.343,0,0,0,.162.64H1.351a.641.641,0,0,1-.64-.64v-.564H8.667a.355.355,0,0,0,0-.711H5.116a2.915,2.915,0,1,0-3.8,0H.355A.355.355,0,0,0,0,15.93v.92A1.352,1.352,0,0,0,1.351,18.2h15.5A1.353,1.353,0,0,0,18.2,16.849V3.341A1.779,1.779,0,0,0,16.423,1.564ZM5.913,2.719a.355.355,0,0,1-.711,0V1.066a.355.355,0,0,1,.711,0Zm8.1,0a.355.355,0,1,1-.711,0V1.066a.355.355,0,1,1,.711,0ZM1.012,13.366a2.2,2.2,0,1,1,2.2,2.2A2.206,2.206,0,0,1,1.012,13.366Z" fill="#1d2926"/><g transform="translate(16.04 4.515)"><path d="M451.847,127.1a.355.355,0,1,0,.1.251A.358.358,0,0,0,451.847,127.1Z" transform="translate(-451.24 -127)" fill="#1d2926"/></g><g transform="translate(10.009 15.574)"><path d="M282.187,438.234a.356.356,0,1,0,.1.251A.357.357,0,0,0,282.187,438.234Z" transform="translate(-281.58 -438.13)" fill="#1d2926"/></g><g transform="translate(6.692 10.806)"><path d="M189.6,304a1.351,1.351,0,1,0,1.351,1.351A1.352,1.352,0,0,0,189.6,304Zm0,1.991a.64.64,0,1,1,.64-.64A.641.641,0,0,1,189.6,305.991Z" transform="translate(-188.245 -304)" fill="#1d2926"/></g><g transform="translate(10.009 10.806)"><path d="M282.929,304a1.351,1.351,0,1,0,1.351,1.351A1.352,1.352,0,0,0,282.929,304Zm0,1.991a.64.64,0,1,1,.64-.64A.641.641,0,0,1,282.929,305.991Z" transform="translate(-281.578 -304)" fill="#1d2926"/></g><g transform="translate(13.327 10.806)"><path d="M376.263,304a1.351,1.351,0,1,0,1.351,1.351A1.352,1.352,0,0,0,376.263,304Zm0,1.991a.64.64,0,1,1,.64-.64A.641.641,0,0,1,376.263,305.991Z" transform="translate(-374.912 -304)" fill="#1d2926"/></g><g transform="translate(3.374 7.109)"><path d="M96.263,200a1.351,1.351,0,1,0,1.351,1.351A1.352,1.352,0,0,0,96.263,200Zm0,1.991a.64.64,0,1,1,.64-.64A.641.641,0,0,1,96.263,201.991Z" transform="translate(-94.912 -200)" fill="#1d2926"/></g><g transform="translate(10.009 7.109)"><path d="M282.929,200a1.351,1.351,0,1,0,1.351,1.351A1.352,1.352,0,0,0,282.929,200Zm0,1.991a.64.64,0,1,1,.64-.64A.641.641,0,0,1,282.929,201.991Z" transform="translate(-281.578 -200)" fill="#1d2926"/></g><g transform="translate(13.327 7.109)"><path d="M376.263,200a1.351,1.351,0,1,0,1.351,1.351A1.352,1.352,0,0,0,376.263,200Zm0,1.991a.64.64,0,1,1,.64-.64A.641.641,0,0,1,376.263,201.991Z" transform="translate(-374.912 -200)" fill="#1d2926"/></g><g transform="translate(6.692 7.109)"><path d="M189.6,200a1.351,1.351,0,1,0,1.351,1.351A1.352,1.352,0,0,0,189.6,200Zm0,1.991a.64.64,0,1,1,.64-.64A.641.641,0,0,1,189.6,201.991Z" transform="translate(-188.245 -200)" fill="#1d2926"/></g><g transform="translate(1.82 12.395)"><path d="M53.857,348.8a.356.356,0,0,0-.5,0L52.2,349.962l-.4-.4a.355.355,0,1,0-.5.5l.647.647a.355.355,0,0,0,.5,0l1.409-1.409A.355.355,0,0,0,53.857,348.8Z" transform="translate(-51.194 -348.7)" fill="#1d2926"/></g></svg>