<svg xmlns="http://www.w3.org/2000/svg" width="42.459" height="42.472" viewBox="0 0 42.459 42.472"><g transform="translate(-0.501)"><path d="M220.141,331.61a.83.83,0,1,0-1.173,0A.831.831,0,0,0,220.141,331.61Zm0,0" transform="translate(-200.121 -302.803)" fill="#fff"/><path d="M188.449,9.122A9.122,9.122,0,1,0,197.571,0,9.133,9.133,0,0,0,188.449,9.122Zm16.586,0a7.464,7.464,0,1,1-7.464-7.464A7.472,7.472,0,0,1,205.035,9.122Zm0,0" transform="translate(-172.357)" fill="#fff"/><path d="M10.053,236.933a.829.829,0,0,0,1.17.007l4.021-3.961a2.506,2.506,0,0,0,.59-2.573l.865-.834a2.473,2.473,0,0,1,1.727-.7H29.451a7.425,7.425,0,0,0,5.206-2.115c.058-.056-.438.528,7.521-8.985a3.317,3.317,0,0,0-5.048-4.306l-4.894,5.03a3.333,3.333,0,0,0-2.578-1.235H20.411a10.7,10.7,0,0,0-4.153-.829,10.26,10.26,0,0,0-9.352,5.3,2.477,2.477,0,0,0-2.218.687L.743,226.381a.829.829,0,0,0,0,1.17Zm6.2-18.841a9.053,9.053,0,0,1,3.651.76.828.828,0,0,0,.332.07h9.417a1.659,1.659,0,1,1,0,3.317H22.892a.829.829,0,1,0,0,1.658h6.766a3.312,3.312,0,0,0,3.288-3.751c4.734-4.866,5.4-5.55,5.43-5.584a1.659,1.659,0,1,1,2.533,2.143L33.471,225.6a5.775,5.775,0,0,1-4.02,1.617H18.426a4.123,4.123,0,0,0-2.879,1.163l-.7.68-6.5-6.5a8.562,8.562,0,0,1,7.912-4.469Zm-10.4,5.5a.827.827,0,0,1,1.027-.117c.144.087-.269-.288,7.183,7.153a.831.831,0,0,1,0,1.169l-3.428,3.377L2.5,226.968Zm0,0" transform="translate(0 -194.706)" fill="#fff"/><path d="M267.5,40.818v.972a2.488,2.488,0,0,0,.829,4.833.829.829,0,1,1,0,1.658,1.5,1.5,0,0,1-1.077-.627.829.829,0,0,0-1.27,1.067A3.44,3.44,0,0,0,267.5,49.8v.968a.829.829,0,0,0,1.658,0V49.8a2.488,2.488,0,0,0-.829-4.833.829.829,0,0,1,0-1.659,1.331,1.331,0,0,1,.9.434.829.829,0,1,0,1.154-1.192,3.2,3.2,0,0,0-1.221-.763v-.966a.829.829,0,1,0-1.658,0Zm0,0" transform="translate(-243.279 -36.671)" fill="#fff"/></g></svg>