<svg xmlns="http://www.w3.org/2000/svg" width="13.625" height="18.167" viewBox="0 0 13.625 18.167"><g transform="translate(-64)"><g transform="translate(64)"><g transform="translate(0)"><path d="M213.952,280.064l-.239,2.147a.379.379,0,0,0,.376.42H215.6a.379.379,0,0,0,.376-.42l-.239-2.147a1.5,1.5,0,0,0,.619-1.217,1.514,1.514,0,1,0-3.028,0A1.5,1.5,0,0,0,213.952,280.064Zm.894-1.974a.754.754,0,0,1,.327,1.436.379.379,0,0,0-.211.383l.219,1.967h-.668l.219-1.967a.379.379,0,0,0-.211-.383.754.754,0,0,1,.327-1.436Z" transform="translate(-208.034 -267.493)" fill="#1d2926"/><path d="M77.247,6.813H76.111V5.3a5.3,5.3,0,1,0-10.6,0V6.813H64.378A.378.378,0,0,0,64,7.191v9.462a1.515,1.515,0,0,0,1.514,1.514h10.6a1.515,1.515,0,0,0,1.514-1.514V7.191A.378.378,0,0,0,77.247,6.813ZM66.271,5.3a4.542,4.542,0,1,1,9.083,0V6.813H74.6V5.3a3.785,3.785,0,1,0-7.57,0V6.813h-.757Zm7.57,0V6.813H67.785V5.3a3.028,3.028,0,0,1,6.056,0Zm3.028,11.354a.758.758,0,0,1-.757.757h-10.6a.758.758,0,0,1-.757-.757V7.57H76.868Z" transform="translate(-64)" fill="#1d2926"/></g></g></g></svg>