<svg xmlns="http://www.w3.org/2000/svg" width="61.368" height="58.014" viewBox="0 0 61.368 58.014"><g transform="translate(0 -13.993)"><g transform="translate(31.481 28.836)"><g transform="translate(0 0)"><path d="M290.03,138.252l-.028-.007a3.216,3.216,0,0,0-2.755.515,3.4,3.4,0,0,0-5.722,2.706l.518,7.185a3.36,3.36,0,0,0,.176.856l-.114.274a3.159,3.159,0,0,0-3.3.013c-5.681,3.17-6.506,3.5-7.6,4.8l-.011.013c-2.908,3.607-3.548,4.46-4.243,7.039a36.622,36.622,0,0,0-1.065,5.844l-.487-.035a1.9,1.9,0,0,0-2.031,1.754l-.714,9.743a1.91,1.91,0,0,0,1.9,2.048h13.176a1.93,1.93,0,0,0,1.917-1.782l.181-2.471a.9.9,0,0,0-1.792-.131l-.181,2.471a.126.126,0,0,1-.125.116H264.557a.112.112,0,0,1-.111-.12l.714-9.743a.1.1,0,0,1,.034-.068.1.1,0,0,1,.073-.024l13.141.963a.1.1,0,0,1,.092.107l-.154,2.1a.9.9,0,1,0,1.793.131l.154-2.1a1.9,1.9,0,0,0-1.753-2.031l-.454-.033a4.577,4.577,0,0,1,.872-2.8c1.032-1.353,1.2-1.281,6.386-4.178l.037-.022a7.119,7.119,0,0,0,3.192-4.446c.01-.038,3.857-14.18,3.865-14.219A3.6,3.6,0,0,0,290.03,138.252Zm-3.927,1.909c-.192.375.186-.436-2.446,5.888l-.34-4.712A1.6,1.6,0,0,1,286.1,140.162Zm4.581,2.163-3.852,14.164,0,.019c0,.011-.005.022-.008.033a5.213,5.213,0,0,1-2.371,3.307c-5.2,2.9-5.633,2.96-6.92,4.647a6.285,6.285,0,0,0-1.236,3.756l-8.615-.631a34.787,34.787,0,0,1,1.007-5.508c.586-2.174.991-2.763,3.9-6.372.847-1.007,1.573-1.3,7.09-4.375a1.4,1.4,0,0,1,2,.432l.005.007.009.015a.965.965,0,0,1-.223,1.416c-1.454,1.1-4.9,3.737-4.937,3.764a.9.9,0,0,0,1.091,1.428c.035-.027,3.481-2.66,4.932-3.76a2.725,2.725,0,0,0,.878-3.4c4.184-10.055,4.037-9.719,4.037-9.719.348-1.08.981-1.822,2.1-1.561C290.982,140.388,290.758,141.954,290.684,142.325Z" transform="translate(-262.649 -137.826)" fill="#fff212"/></g></g><g transform="translate(10.67 13.993)"><g transform="translate(0 0)"><path d="M122.8,21.176h-3.765a10.119,10.119,0,0,0-8.644,4.867A15.213,15.213,0,0,0,95.526,13.993H90.7a1.687,1.687,0,0,0-1.685,1.685v5.163A15.2,15.2,0,0,0,104.2,36.028h10.126a10.127,10.127,0,0,0,10.115-10.115V22.826A1.652,1.652,0,0,0,122.8,21.176ZM108.916,32.93,94.661,18.406a.9.9,0,0,0-1.283,1.259l14.3,14.566h-3.469a13.4,13.4,0,0,1-13.39-13.39V15.79h4.711a13.4,13.4,0,0,1,13.39,13.39Zm13.733-7.018a8.328,8.328,0,0,1-8.318,8.318h-2.273l8.306-7.927a.9.9,0,0,0-1.241-1.3l-8.41,8.026V31.291a8.327,8.327,0,0,1,8.318-8.318h3.618Z" transform="translate(-89.018 -13.993)" fill="#fff212"/></g></g><g transform="translate(0 28.832)"><g transform="translate(0 0)"><path d="M29.9,178.926l-.714-9.743a1.886,1.886,0,0,0-.652-1.3,2.216,2.216,0,0,0-1.865-.42,36.593,36.593,0,0,0-1.065-5.844c-.695-2.579-1.335-3.433-4.243-7.039l-.011-.013c-1.093-1.3-1.922-1.63-7.6-4.8a3.159,3.159,0,0,0-3.3-.013l-.114-.274c.193-.56.125-.159.694-8.041a3.4,3.4,0,0,0-5.722-2.706C3.17,137.143-.726,138.7.118,142.7c.008.039,3.854,14.18,3.865,14.219a7.118,7.118,0,0,0,3.192,4.446c.1.06,2.134,1.184,2.234,1.239,3.082,1.7,3.334,1.839,4.189,2.961a4.575,4.575,0,0,1,.872,2.8l-.454.033a1.9,1.9,0,0,0-1.753,2.031l.642,8.769a1.93,1.93,0,0,0,1.917,1.782h4.163a.9.9,0,0,0,0-1.8H14.821a.126.126,0,0,1-.125-.116c-.68-9.287-.7-8.865-.55-8.876,13.878-1.017,13.239-.99,13.248-.87l.714,9.743a.111.111,0,0,1-.111.12H23.178a.9.9,0,0,0,0,1.8H28A1.91,1.91,0,0,0,29.9,178.926ZM9.238,141.315l-.34,4.712c-2.693-6.471-2.246-5.5-2.446-5.889A1.6,1.6,0,0,1,9.238,141.315Zm7.024,26.913a6.273,6.273,0,0,0-1.236-3.756c-1.287-1.687-1.724-1.749-6.92-4.647a5.212,5.212,0,0,1-2.371-3.307l-.008-.033,0-.019L1.871,142.3c-.074-.371-.3-1.937,1.115-2.335a1.454,1.454,0,0,1,1.671.666c.213.308-.146-.469,4.466,10.614a2.725,2.725,0,0,0,.878,3.4c1.451,1.1,4.9,3.733,4.932,3.76a.9.9,0,0,0,1.091-1.428c-.035-.027-3.484-2.662-4.937-3.764-.85-.644-.305-1.558.331-1.938a1.358,1.358,0,0,1,1.461.067c5.517,3.079,6.243,3.368,7.09,4.375,2.909,3.608,3.315,4.2,3.9,6.372a34.764,34.764,0,0,1,1.007,5.508Z" transform="translate(0 -137.799)" fill="#fff212"/></g></g></g></svg>