<svg xmlns="http://www.w3.org/2000/svg" width="18.412" height="23.015" viewBox="0 0 18.412 23.015"><g transform="translate(-6)"><path d="M28.973,25H19.384a.384.384,0,0,0,0,.767h9.589a.384.384,0,0,0,0-.767Z" transform="translate(-8.013 -15.411)" fill="#dcdedd"/><path d="M19.384,17.767h3.836a.384.384,0,0,0,0-.767H19.384a.384.384,0,0,0,0,.767Z" transform="translate(-8.013 -10.479)" fill="#dcdedd"/><path d="M28.973,33H19.384a.384.384,0,1,0,0,.767h9.589a.384.384,0,1,0,0-.767Z" transform="translate(-8.013 -20.342)" fill="#dcdedd"/><path d="M28.973,41H19.384a.384.384,0,1,0,0,.767h9.589a.384.384,0,1,0,0-.767Z" transform="translate(-8.013 -25.273)" fill="#dcdedd"/><path d="M28.973,49H19.384a.384.384,0,1,0,0,.767h9.589a.384.384,0,1,0,0-.767Z" transform="translate(-8.013 -30.205)" fill="#dcdedd"/><path d="M22.494,5.595V0H6V21.1H7.918v1.918H24.412V7.513ZM19.042,3.227,22.494,6.68l.608.608H19.042ZM6.767,20.33V.767h14.96V4.828l-2.91-2.91H7.918V20.33Zm1.918,1.918V2.685h9.589v5.37h5.37V22.247Z" fill="#dcdedd"/></g></svg>