<svg xmlns="http://www.w3.org/2000/svg" width="58.006" height="45.908" viewBox="0 0 58.006 45.908"><g transform="translate(0 -9.803)"><path d="M58.006,25.395a15.2,15.2,0,0,1-.795,4.841C54.747,41.383,33.442,54.87,32.536,55.443a1.748,1.748,0,0,1-.925.268,1.673,1.673,0,0,1-.929-.268A118.239,118.239,0,0,1,18.35,46.29a1.73,1.73,0,0,1,2.245-2.633,119.26,119.26,0,0,0,11.025,8.271c6.4-4.172,20.525-14.786,22.256-22.613a12.336,12.336,0,0,0,.657-3.917,12.2,12.2,0,0,0-6.315-10.687,12.444,12.444,0,0,0-15.275,2.9,1.792,1.792,0,0,1-2.666,0A12.46,12.46,0,0,0,15,14.707,12.2,12.2,0,0,0,8.674,25.391a12.044,12.044,0,0,0,.615,3.751,13.513,13.513,0,0,0,1.373,3.416H20.754l3.466-7.965a1.725,1.725,0,0,1,3.263.291l2.551,10.787,3.3-5.412a1.723,1.723,0,0,1,1.475-.828h6.264a1.729,1.729,0,0,1,0,3.459H35.781l-4.972,8.167a1.724,1.724,0,0,1-1.47.832,1.794,1.794,0,0,1-.27-.02,1.732,1.732,0,0,1-1.412-1.307l-2.332-9.826-1.842,4.241a1.722,1.722,0,0,1-1.587,1.04H1.729a1.729,1.729,0,1,1,0-3.458H6.8a15.022,15.022,0,0,1-.831-2.5,14.574,14.574,0,0,1-.744-4.67,15.653,15.653,0,0,1,8.112-13.714,16,16,0,0,1,18.281,2.306A15.98,15.98,0,0,1,49.89,11.677,15.666,15.666,0,0,1,58.006,25.395Z" transform="translate(0 0)" fill="#fff212"/></g></svg>