<svg xmlns="http://www.w3.org/2000/svg" width="17.682" height="15.033" viewBox="0 0 17.682 15.033"><path d="M16.3,39.839a4.9,4.9,0,0,0-6.975-.04l-.478.479L8.372,39.8a4.9,4.9,0,0,0-6.935,6.935l6.13,6.129a1.818,1.818,0,0,0,2.568,0l6.09-6.089A4.95,4.95,0,0,0,16.3,39.839Zm-.722,6.293-6.09,6.09a.909.909,0,0,1-1.284,0l-6.13-6.13A4,4,0,1,1,7.73,40.441l.479.479-.733.734a.454.454,0,1,0,.642.642l1.853-1.855a4,4,0,0,1,5.684.033A4.038,4.038,0,0,1,15.582,46.132Z" transform="translate(0 -38.362)" fill="#000"/><g transform="translate(13.113 1.693)"><g transform="translate(0 0)"><path d="M382.691,90.4a3.317,3.317,0,0,0-2.415-2.988.454.454,0,0,0-.243.875,2.409,2.409,0,0,1,1.752,2.169.454.454,0,0,0,.453.426h.028A.454.454,0,0,0,382.691,90.4Z" transform="translate(-379.701 -87.395)" fill="#000"/></g></g></svg>