<svg width="24" height="39" viewBox="0 0 24 39" fill="none" xmlns="http://www.w3.org/2000/svg">
<path d="M21.5267 37.718L23.5881 35.809C23.7181 35.6967 23.8217 35.5608 23.8926 35.4098C23.9634 35.2588 24 35.0959 24 34.9313C24 34.7666 23.9634 34.6038 23.8926 34.4528C23.8217 34.3018 23.7181 34.1659 23.5881 34.0535L7.38595 19.0497L23.5804 4.04586C23.7104 3.93352 23.814 3.79763 23.8849 3.64663C23.9557 3.49563 23.9923 3.33275 23.9923 3.16811C23.9923 3.00347 23.9557 2.84059 23.8849 2.68959C23.814 2.53859 23.7104 2.4027 23.5804 2.29036L21.519 0.381429C21.3977 0.261067 21.251 0.165095 21.0879 0.0994781C20.9248 0.0338607 20.7489 -1.1824e-07 20.5712 -1.24706e-07C20.3934 -1.31172e-07 20.2175 0.0338607 20.0544 0.099478C19.8914 0.165095 19.7446 0.261067 19.6233 0.381428L0.411889 18.1702C0.281915 18.2825 0.178271 18.4184 0.107413 18.5694C0.0365553 18.7204 -9.92039e-07 18.8833 -1.00069e-06 19.0479C-1.00934e-06 19.2126 0.0365552 19.3754 0.107413 19.5264C0.178271 19.6774 0.281915 19.8133 0.411889 19.9257L19.6233 37.7162C19.7449 37.8364 19.8919 37.9322 20.0551 37.9976C20.2183 38.0631 20.3943 38.0969 20.5721 38.0969C20.75 38.0969 20.9259 38.0631 21.0891 37.9976C21.2523 37.9322 21.3993 37.8364 21.5209 37.7162L21.5267 37.718Z" fill="white"/>
</svg>
