<svg xmlns="http://www.w3.org/2000/svg" width="16.371" height="19.225" viewBox="0 0 16.371 19.225"><g transform="translate(0 0.001)"><path d="M16.352,5.215V5.2c-.008-.185-.014-.38-.017-.6a2.038,2.038,0,0,0-1.918-2A7.906,7.906,0,0,1,9.034.339L9.022.327a1.23,1.23,0,0,0-1.672,0L7.337.339A7.907,7.907,0,0,1,1.956,2.607a2.037,2.037,0,0,0-1.918,2c0,.216-.009.411-.017.6v.035A20.835,20.835,0,0,0,.861,12.84a9.681,9.681,0,0,0,2.323,3.618,12.15,12.15,0,0,0,4.545,2.688,1.408,1.408,0,0,0,.186.051,1.376,1.376,0,0,0,.541,0,1.412,1.412,0,0,0,.187-.051,12.158,12.158,0,0,0,4.54-2.69,9.7,9.7,0,0,0,2.323-3.619A20.866,20.866,0,0,0,16.352,5.215Zm-1.9,7.232a9.328,9.328,0,0,1-6.177,5.634l-.036.01a.253.253,0,0,1-.1,0l-.036-.01c-3.17-1.105-5.192-2.947-6.181-5.631a19.657,19.657,0,0,1-.773-7.194V5.244c.009-.2.015-.4.018-.624a.906.906,0,0,1,.853-.886,9.9,9.9,0,0,0,3.359-.739A8.789,8.789,0,0,0,8.116,1.155a.1.1,0,0,1,.14,0,8.792,8.792,0,0,0,2.738,1.839,9.9,9.9,0,0,0,3.36.739.905.905,0,0,1,.853.886c0,.226.009.43.018.624A19.667,19.667,0,0,1,14.448,12.447Zm0,0" fill="#15a37d"/><path d="M95.189,128.41A4.791,4.791,0,1,0,99.98,133.2,4.8,4.8,0,0,0,95.189,128.41Zm0,8.454a3.663,3.663,0,1,1,3.663-3.663A3.667,3.667,0,0,1,95.189,136.864Zm0,0" transform="translate(-87.004 -123.589)" fill="#15a37d"/><path d="M157.465,212.156l-2.225,2.225-.6-.6a.564.564,0,0,0-.8.8l1,1a.564.564,0,0,0,.8,0l2.624-2.624a.564.564,0,0,0-.8-.8Zm0,0" transform="translate(-147.903 -204.032)" fill="#15a37d"/></g></svg>