<svg xmlns="http://www.w3.org/2000/svg" width="33.656" height="71.999" viewBox="0 0 33.656 71.999"><g transform="translate(-33 -44.668)"><path d="M32.591,27.834H30.532v-3.1a9.592,9.592,0,0,0-6.442-9.055l-2.906-1.009A7.018,7.018,0,0,0,23.858,9.16V7.03A7.029,7.029,0,1,0,9.8,7.03V9.16a7.02,7.02,0,0,0,2.673,5.511L9.566,15.68a9.592,9.592,0,0,0-6.442,9.055v3.1H1.065A1.065,1.065,0,0,0,0,28.9v5.112a1.065,1.065,0,0,0,1.065,1.065h1.1l.1,2.761A1.065,1.065,0,0,0,4.4,37.759l-.1-2.682H29.355L28.017,69.869H5.64L4.6,42.74a1.065,1.065,0,0,0-2.129.082L3.551,70.975A1.065,1.065,0,0,0,4.615,72H29.041a1.066,1.066,0,0,0,1.065-1.024l1.38-35.9h1.105a1.065,1.065,0,0,0,1.065-1.065V28.9a1.065,1.065,0,0,0-1.065-1.065ZM11.929,7.03a4.9,4.9,0,1,1,9.8,0V9.16a4.9,4.9,0,1,1-9.8,0Zm7.134,9.16,1.035.359-3.269,5.673-3.269-5.673,1.034-.359ZM5.254,24.736a7.462,7.462,0,0,1,5.01-7.043l1.246-.432,4.4,7.627a1.065,1.065,0,0,0,1.846,0l4.4-7.627,1.246.432a7.461,7.461,0,0,1,5.01,7.043v3.1H5.254Zm26.272,8.211H2.13V29.965h29.4Zm0,0" transform="translate(33 44.668)" fill="#b93336"/></g></svg>