<svg xmlns="http://www.w3.org/2000/svg" width="61.368" height="61.368" viewBox="0 0 61.368 61.368"><g transform="translate(0 0)"><path d="M57.772,25.171h1.8a1.8,1.8,0,0,0,1.8-1.8V16.181a8.993,8.993,0,0,0-4.509-7.788,5.394,5.394,0,1,0-8.961,0,8.993,8.993,0,0,0-4.509,7.788v7.192a1.8,1.8,0,0,0,1.8,1.8h1.8v5.514a5.369,5.369,0,0,0,.309,1.8H36.141a5.938,5.938,0,0,0-10.913,0H14.074a5.369,5.369,0,0,0,.309-1.8V25.171h1.8a1.8,1.8,0,0,0,1.8-1.8V16.181A8.993,8.993,0,0,0,13.47,8.393a5.394,5.394,0,1,0-8.961,0A8.993,8.993,0,0,0,0,16.181v7.192a1.8,1.8,0,0,0,1.8,1.8H3.6v5.514a5.365,5.365,0,0,0,.381,1.988,5.393,5.393,0,0,0,1.417,10.6H23.483l-1.038,7.311H19.777a9,9,0,0,0-8.989,8.989,1.8,1.8,0,0,0,1.8,1.8h36.2a1.8,1.8,0,0,0,1.8-1.8,9,9,0,0,0-8.989-8.989H38.923l-1.038-7.311H55.974a5.393,5.393,0,0,0,1.417-10.6,5.365,5.365,0,0,0,.381-1.988ZM52.379,3.6a1.8,1.8,0,1,1-1.8,1.8A1.8,1.8,0,0,1,52.379,3.6ZM28.337,34.66a1.791,1.791,0,0,0,.033-.212,2.346,2.346,0,0,1,4.63,0,1.8,1.8,0,0,0,.033.213l2.259,15.921H26.077ZM8.989,3.6a1.8,1.8,0,1,1-1.8,1.8A1.8,1.8,0,0,1,8.989,3.6ZM3.6,21.575V16.181a5.394,5.394,0,0,1,10.787,0v5.394h-1.8a1.8,1.8,0,0,0-1.8,1.8v7.311a1.8,1.8,0,1,1-3.6,0V23.373a1.8,1.8,0,0,0-1.8-1.8Zm1.8,18.1a1.8,1.8,0,1,1,0-3.6H24.5l-.51,3.6Zm36.2,14.5a5.4,5.4,0,0,1,5.086,3.6H14.691a5.4,5.4,0,0,1,5.086-3.6Zm16.181-16.3a1.8,1.8,0,0,1-1.8,1.8h-18.6l-.51-3.6h19.11A1.8,1.8,0,0,1,57.772,37.876Zm-1.8-16.3a1.8,1.8,0,0,0-1.8,1.8v7.311a1.8,1.8,0,1,1-3.6,0V23.373a1.8,1.8,0,0,0-1.8-1.8h-1.8V16.181a5.394,5.394,0,1,1,10.787,0v5.394Z" transform="translate(0 0)" fill="#b93336"/></g></svg>