<svg xmlns="http://www.w3.org/2000/svg" xmlns:xlink="http://www.w3.org/1999/xlink" width="15.154" height="17.815" viewBox="0 0 15.154 17.815"><defs><clipPath id="a"><rect width="15.154" height="17.815" fill="#1d2926"/></clipPath></defs><g clip-path="url(#a)"><path d="M104.794,9.6h.118a3.4,3.4,0,0,0,2.6-1.125c1.42-1.6,1.184-4.346,1.158-4.608A3.764,3.764,0,0,0,106.883.52,4.1,4.1,0,0,0,104.9,0h-.063a4.108,4.108,0,0,0-1.985.505,3.766,3.766,0,0,0-1.811,3.361c-.026.262-.262,3.007,1.158,4.608a3.391,3.391,0,0,0,2.6,1.125m-2.771-5.641c0-.011,0-.022,0-.03.122-2.645,2-2.929,2.8-2.929h.044c1,.022,2.689.428,2.8,2.929a.072.072,0,0,0,0,.03c0,.026.262,2.534-.911,3.855a2.418,2.418,0,0,1-1.9.789h-.037a2.41,2.41,0,0,1-1.9-.789c-1.169-1.313-.919-3.833-.915-3.855" transform="translate(-97.282)" fill="#1d2926"/><path d="M15.152,263.832v-.011c0-.03,0-.059,0-.092-.022-.73-.07-2.439-1.671-2.985l-.037-.011a10.643,10.643,0,0,1-3.062-1.395.5.5,0,1,0-.572.815,11.488,11.488,0,0,0,3.368,1.538c.86.306.956,1.225.981,2.066a.733.733,0,0,0,0,.092,6.7,6.7,0,0,1-.078,1.14,13.577,13.577,0,0,1-6.5,1.513,13.656,13.656,0,0,1-6.508-1.516,6.34,6.34,0,0,1-.077-1.14c0-.029,0-.059,0-.092.026-.841.122-1.76.981-2.066a11.6,11.6,0,0,0,3.368-1.538.5.5,0,1,0-.572-.815,10.529,10.529,0,0,1-3.062,1.394l-.037.011C.075,261.29.027,263,0,263.725a.741.741,0,0,1,0,.092v.011A5.657,5.657,0,0,0,.189,265.5a.473.473,0,0,0,.192.232,13.954,13.954,0,0,0,7.2,1.763,14,14,0,0,0,7.2-1.763.494.494,0,0,0,.192-.232,5.934,5.934,0,0,0,.177-1.668" transform="translate(0 -249.68)" fill="#1d2926"/></g></svg>