<svg xmlns="http://www.w3.org/2000/svg" width="72.667" height="72.667" viewBox="0 0 72.667 72.667"><g transform="translate(-1 -1)"><g transform="translate(10.376 19.753)"><circle cx="12" cy="12" r="12" transform="translate(-0.376 -0.086)" fill="#e6da10"/></g><g transform="translate(54.914 59.792)"><path d="M58.72,64.589l-5.86-2.93L47,64.589V51.162h2.344V60.8l3.516-1.758L56.376,60.8V51.162H58.72Z" transform="translate(-47 -51.162)" fill="#1d2926"/></g><g transform="translate(1 1)"><path d="M40.849,61.946H3.344V10.376H40.849v6.962h2.344V6.86A5.867,5.867,0,0,0,37.333,1H6.86A5.867,5.867,0,0,0,1,6.86V67.806a5.867,5.867,0,0,0,5.86,5.86H37.333a5.867,5.867,0,0,0,5.86-5.86V46.71H40.849ZM6.86,3.344H37.333A3.52,3.52,0,0,1,40.849,6.86V8.032H3.344V6.86A3.52,3.52,0,0,1,6.86,3.344ZM37.333,71.322H6.86a3.52,3.52,0,0,1-3.516-3.516V64.29H40.849v3.516A3.52,3.52,0,0,1,37.333,71.322Z" transform="translate(-1 -1)" fill="#1d2926"/><rect width="7" height="2" transform="translate(18 65.667)" fill="#1d2926"/><path d="M37.817,29.408a16.385,16.385,0,0,0-1.293-6.34l13.222-5.594-.913-2.159L35.467,20.971A16.4,16.4,0,1,0,9.952,41.138a7.109,7.109,0,0,1,.825.975,3.495,3.495,0,0,0,1.53,5.918,9.365,9.365,0,0,0,18.2,0,3.495,3.495,0,0,0,1.525-5.922,6.963,6.963,0,0,1,.8-.941,16.549,16.549,0,0,0,2.625-3.323L48.832,43.5l.913-2.159-13.2-5.585A16.329,16.329,0,0,0,37.817,29.408ZM21.409,52.849A7.061,7.061,0,0,1,14.8,48.161H28.02A7.061,7.061,0,0,1,21.409,52.849Zm8.2-7.032H13.2a1.172,1.172,0,0,1,0-2.344H29.613a1.172,1.172,0,1,1,0,2.344Zm-8.2-14.064a2.344,2.344,0,1,1,2.344-2.344A2.346,2.346,0,0,1,21.409,31.752ZM31.2,39.485a9.255,9.255,0,0,0-1.324,1.67c-.089-.007-.175-.027-.265-.027H22.581v-7.2a4.688,4.688,0,1,0-2.344,0v7.2H13.2c-.093,0-.18.02-.272.027a9.476,9.476,0,0,0-1.344-1.7A14.057,14.057,0,1,1,33.277,21.9l-4.12,1.743L30.07,25.8l4.3-1.818a13.99,13.99,0,0,1,.016,10.861L30.07,33.018l-.913,2.159,4.123,1.744A14.249,14.249,0,0,1,31.2,39.485Z" transform="translate(-0.312 1.065)" fill="#1d2926"/></g><g transform="translate(47.882 1)"><path d="M53.892,26.785A12.892,12.892,0,1,1,66.785,13.892,12.908,12.908,0,0,1,53.892,26.785Z" transform="translate(-41 -1)" fill="#e6da10"/></g><g transform="translate(47.882 36.161)"><path d="M53.892,56.785A12.892,12.892,0,1,1,66.785,43.892,12.908,12.908,0,0,1,53.892,56.785Z" transform="translate(-41 -31)" fill="#e6da10"/></g><path d="M52.516,12.032a1.172,1.172,0,1,1,1.172-1.172h2.344a3.511,3.511,0,0,0-2.344-3.3V5H51.344V7.56a3.508,3.508,0,0,0,1.172,6.817,1.172,1.172,0,1,1-1.172,1.172H49a3.511,3.511,0,0,0,2.344,3.3v2.56h2.344v-2.56a3.508,3.508,0,0,0-1.172-6.817Z" transform="translate(8.258 0.688)" fill="#1d2926"/><g transform="translate(54.914 43.193)"><path d="M52.86,48.72a5.86,5.86,0,1,1,5.86-5.86A5.867,5.867,0,0,1,52.86,48.72Zm0-9.376a3.516,3.516,0,1,0,3.516,3.516A3.52,3.52,0,0,0,52.86,39.344Z" transform="translate(-47 -37)" fill="#1d2926"/></g></g></svg>