<svg xmlns="http://www.w3.org/2000/svg" width="23.268" height="11.02" viewBox="0 0 23.268 11.02"><g transform="translate(-31 -37.674)"><g transform="translate(41 37.674)"><path d="M-9.254,46.143l-.021,0H9.6l-2.791-2.8a.733.733,0,0,1,0-1.03l.434-.434a.726.726,0,0,1,1.025,0l4.784,4.784a.731.731,0,0,1,0,1.029L8.272,52.482a.727.727,0,0,1-1.025,0l-.434-.434a.719.719,0,0,1-.212-.513.7.7,0,0,1,.212-.5l2.822-2.813h-18.9A.752.752,0,0,1-10,47.475v-.614A.737.737,0,0,1-9.254,46.143Z" transform="translate(0 -41.674)" fill="#3b9bd5"/></g></g></svg>