<svg xmlns="http://www.w3.org/2000/svg" width="49.48" height="39.291" viewBox="0 0 49.48 39.291"><g transform="translate(0 -10.19)"><g transform="translate(23.749 47.548)"><path d="M247.39,492.283a.966.966,0,1,0,.283.683A.973.973,0,0,0,247.39,492.283Z" transform="translate(-245.74 -492)" fill="#fff"/></g><g transform="translate(0 10.19)"><path d="M44.316,126.856l-3.224-.77v-1.279a6.378,6.378,0,0,0,2.981-5.394v-3.6a6.375,6.375,0,0,0-11.151-4.226,8.52,8.52,0,0,0-8.172-6.149h0a8.52,8.52,0,0,0-8.177,6.166,6.374,6.374,0,0,0-11.165,4.209v3.6a6.378,6.378,0,0,0,2.981,5.394v1.279l-3.224.77A6.706,6.706,0,0,0,0,133.4v6.5a.966.966,0,0,0,.966.966H8.694v2.9a.966.966,0,0,0,.966.966h10.6a.966.966,0,1,0,0-1.933H15.948v-4.253a.966.966,0,0,0-1.933,0V142.8H10.627v-4.36a7.036,7.036,0,0,1,5.413-6.864l4.753-1.139,3.058,6.958a.966.966,0,0,0,.885.578h0a.966.966,0,0,0,.885-.577l3.055-6.948,4.739,1.132a7.035,7.035,0,0,1,5.418,6.865v1.078a.968.968,0,0,0,0,.756V142.8H35.465v-4.253a.966.966,0,1,0-1.933,0V142.8H28.8a.966.966,0,0,0,0,1.933h11a.966.966,0,0,0,.966-.966v-2.9h7.747a.966.966,0,0,0,.966-.966v-6.5A6.706,6.706,0,0,0,44.316,126.856Zm-6.621-15.49a4.451,4.451,0,0,1,4.446,4.446v.336H39.376a11.941,11.941,0,0,1-5.948-1.587A4.454,4.454,0,0,1,37.695,111.366Zm-4.446,7.889c0-.1.006-2.6.006-2.6a13.874,13.874,0,0,0,6.121,1.424h2.764v1.332a4.446,4.446,0,0,1-8.892,0v-.158Zm-15.071-5.314a6.572,6.572,0,0,1,13.144,0v.126l-3.587-2.107a.966.966,0,0,0-1.23.213A7.3,7.3,0,0,1,20.9,114.79H18.178ZM7.34,116.051v-.239a4.446,4.446,0,0,1,8.712-1.251,11.942,11.942,0,0,1-5.948,1.587H7.34Zm0,3.362v-1.332H10.1a13.874,13.874,0,0,0,6.127-1.427v2.759a4.446,4.446,0,0,1-8.891,0Zm1.354,19.022v.495H5.8v-4.294a.966.966,0,1,0-1.933,0v4.294H1.933V133.4a4.779,4.779,0,0,1,3.681-4.663L8.677,128l2,4.789A8.972,8.972,0,0,0,8.694,138.435Zm3.092-8-1.468-3.516c0-.023,0-.046,0-.07V125.62a6.336,6.336,0,0,0,2.923,0v1.166c0,.018,0,.036,0,.055s0,.061.006.091Zm3.8-.742a9.084,9.084,0,0,0-1.634.562L14.9,128l3.064.734a4.788,4.788,0,0,1,.693.224Zm4.8-2.014a6.711,6.711,0,0,0-1.975-.823l-3.235-.775v-1.267a6.424,6.424,0,0,0,2-1.991,8.566,8.566,0,0,0,3.213,3.435Zm6.763,1.435L24.737,134.6l-2.417-5.5v-1.993a8.512,8.512,0,0,0,4.83.009v1.995Zm-2.4-3.582a6.579,6.579,0,0,1-6.572-6.572v-2.235H20.9a9.223,9.223,0,0,0,6.532-2.7l3.887,2.284v2.879A6.579,6.579,0,0,1,24.75,125.53Zm4.332.744h0a8.565,8.565,0,0,0,3.235-3.436,6.428,6.428,0,0,0,1.986,1.974v1.267l-3.235.775a6.712,6.712,0,0,0-1.986.83Zm4.782,3.421-3.056-.73a4.8,4.8,0,0,1,.711-.231L34.576,128l.945,2.264A9.084,9.084,0,0,0,33.865,129.695Zm2.366-2.747a.966.966,0,0,0,.007-.106c0-.009,0-.018,0-.027v-1.194a6.334,6.334,0,0,0,2.923,0v1.229c0,.018,0,.035,0,.052l-1.476,3.533Zm11.317,11.982H45.615v-4.294a.966.966,0,0,0-1.933,0v4.294H40.767v-.49A8.971,8.971,0,0,0,38.79,132.8L40.8,128l3.071.734a4.779,4.779,0,0,1,3.681,4.663Z" transform="translate(0 -105.437)" fill="#fff"/></g></g></svg>