<svg xmlns="http://www.w3.org/2000/svg" width="83.684" height="83.524" viewBox="0 0 83.684 83.524"><g transform="translate(-547.119 -2140.156)"><g transform="translate(296.873 2017.135)"><path d="M292.115,206.542c-.915.017-1.882-.03-2.812-.091a1.6,1.6,0,0,1,.208-3.184c.861.057,1.7.1,2.6.084,1.17,0,2.353-.053,3.519-.16a1.581,1.581,0,0,1,1.736,1.442,1.6,1.6,0,0,1-1.444,1.736C294.661,206.483,293.381,206.542,292.115,206.542Zm-11.072-1.532a1.649,1.649,0,0,1-.436-.061,41.467,41.467,0,0,1-6.211-2.319,1.594,1.594,0,1,1,1.349-2.888,38.709,38.709,0,0,0,5.735,2.14,1.595,1.595,0,0,1-.436,3.129Zm23.06-.3a1.6,1.6,0,0,1-.476-3.117,38.67,38.67,0,0,0,5.674-2.284,1.6,1.6,0,0,1,1.425,2.854,41.87,41.87,0,0,1-6.148,2.475A1.576,1.576,0,0,1,304.1,204.715ZM267.8,198.4a1.585,1.585,0,0,1-.962-.326,42.515,42.515,0,0,1-4.95-4.4,1.6,1.6,0,1,1,2.3-2.21,39.119,39.119,0,0,0,4.575,4.07,1.6,1.6,0,0,1-.964,2.867Zm49.37-.629a1.595,1.595,0,0,1-.995-2.841,39.162,39.162,0,0,0,4.47-4.182A1.594,1.594,0,0,1,323,192.894a42.282,42.282,0,0,1-4.836,4.527A1.6,1.6,0,0,1,317.168,197.768Zm-59.33-10.313a1.6,1.6,0,0,1-1.359-.756,42.178,42.178,0,0,1-3.029-5.885,1.6,1.6,0,0,1,2.944-1.233,38.681,38.681,0,0,0,2.8,5.44,1.6,1.6,0,0,1-1.355,2.435Zm69.014-.876a1.593,1.593,0,0,1-1.376-2.4,38.636,38.636,0,0,0,2.662-5.514,1.6,1.6,0,0,1,2.974,1.155,41.865,41.865,0,0,1-2.881,5.967A1.594,1.594,0,0,1,326.853,186.578ZM252.5,173.655a1.6,1.6,0,0,1-1.566-1.3,42.025,42.025,0,0,1-.686-6.589,1.6,1.6,0,1,1,3.189-.08,38.656,38.656,0,0,0,.633,6.087,1.593,1.593,0,0,1-1.277,1.858A1.516,1.516,0,0,1,252.5,173.655Zm79.339-1.014a1.592,1.592,0,0,1-1.578-1.844,39.265,39.265,0,0,0,.478-6.1,1.6,1.6,0,0,1,3.191,0,42.437,42.437,0,0,1-.518,6.6A1.593,1.593,0,0,1,331.837,172.641Zm-79.32-13.785a1.577,1.577,0,0,1-.3-.027,1.6,1.6,0,0,1-1.275-1.862,41.844,41.844,0,0,1,1.73-6.394,1.595,1.595,0,1,1,3,1.075,38.554,38.554,0,0,0-1.6,5.906A1.6,1.6,0,0,1,252.517,158.856Zm78.941-.939a1.6,1.6,0,0,1-1.559-1.265,38.676,38.676,0,0,0-1.74-5.866,1.6,1.6,0,1,1,2.978-1.145,41.5,41.5,0,0,1,1.881,6.35,1.6,1.6,0,0,1-1.229,1.892A1.66,1.66,0,0,1,331.458,157.917Zm-73.585-12.853a1.6,1.6,0,0,1-1.351-2.439,41.78,41.78,0,0,1,3.933-5.331,1.6,1.6,0,1,1,2.41,2.092,38.748,38.748,0,0,0-3.635,4.925A1.591,1.591,0,0,1,257.873,145.063Zm67.9-.808a1.592,1.592,0,0,1-1.336-.722,38.764,38.764,0,0,0-3.748-4.836,1.595,1.595,0,1,1,2.359-2.147,41.565,41.565,0,0,1,4.056,5.236,1.595,1.595,0,0,1-1.332,2.469Zm-57.916-10.117a1.594,1.594,0,0,1-.96-2.868,42.079,42.079,0,0,1,5.584-3.559,1.6,1.6,0,0,1,1.5,2.818,38.94,38.94,0,0,0-5.161,3.287A1.582,1.582,0,0,1,267.861,134.138Zm47.669-.566a1.589,1.589,0,0,1-.928-.3,38.748,38.748,0,0,0-5.24-3.165,1.6,1.6,0,1,1,1.429-2.854,41.8,41.8,0,0,1,5.672,3.43,1.6,1.6,0,0,1-.934,2.89Zm-34.418-6.021a1.6,1.6,0,0,1-.434-3.13,41.69,41.69,0,0,1,6.5-1.29,1.6,1.6,0,1,1,.37,3.169,38.694,38.694,0,0,0-6,1.191A1.573,1.573,0,0,1,281.112,127.552Zm21.014-.25a1.572,1.572,0,0,1-.4-.05A38.511,38.511,0,0,0,295.7,126.2a1.595,1.595,0,0,1,.3-3.176,41.993,41.993,0,0,1,6.526,1.132,1.6,1.6,0,0,1-.394,3.142Z" transform="translate(0)" fill="#3b9bd5"/></g><text transform="translate(587 2195)" fill="#3b9bd5" font-size="40" font-family="FabfeltScript-Bold, FabfeltScript" font-weight="700"><tspan x="-7.84" y="0">1</tspan></text></g></svg>