<svg xmlns="http://www.w3.org/2000/svg" width="55.998" height="59.776" viewBox="0 0 55.998 59.776"><g transform="translate(-16.179)"><g transform="translate(16.179)"><path d="M61.448,0V3.66h4.128L57.523,11.3a15.678,15.678,0,0,0-24.959,3.386c-.229-.01-.46-.016-.692-.016a15.693,15.693,0,0,0-1.83,31.279v4.863H24.564v3.66h5.479v5.307H33.7V54.469H39.42v-3.66H33.7V45.946a15.724,15.724,0,0,0,11.91-8.011c.229.01.46.016.691.016A15.687,15.687,0,0,0,59.771,14.208l8.747-8.294V10.46h3.66V0ZM31.872,42.393a12.033,12.033,0,0,1-.77-24.042A15.7,15.7,0,0,0,41.72,37.267,12.027,12.027,0,0,1,31.872,42.393Zm11.494-8.466A12.038,12.038,0,0,1,34.81,18.69a12.038,12.038,0,0,1,8.556,15.238Zm3.708.338A15.7,15.7,0,0,0,36.456,15.35,12.031,12.031,0,1,1,47.074,34.266Z" transform="translate(-16.179)" fill="#b93336"/></g></g></svg>