<svg xmlns="http://www.w3.org/2000/svg" width="19.3" height="14.701" viewBox="0 0 19.3 14.701"><g transform="translate(0 -61)"><g transform="translate(0 61)"><path d="M17.6,61H1.7A1.7,1.7,0,0,0,0,62.7V74.005a1.7,1.7,0,0,0,1.7,1.7H17.6a1.7,1.7,0,0,0,1.7-1.7V62.7A1.7,1.7,0,0,0,17.6,61Zm-.234,1.131L9.686,69.815l-7.75-7.684ZM1.131,73.771V62.925l5.446,5.4Zm.8.8,5.45-5.45,1.91,1.893a.565.565,0,0,0,.8,0L11.95,69.15l5.42,5.42Zm16.239-.8-5.42-5.42,5.42-5.42Z" transform="translate(0 -61)" fill="#1d2926"/></g></g></svg>