<svg xmlns="http://www.w3.org/2000/svg" width="61.24" height="61.24" viewBox="0 0 61.24 61.24"><g transform="translate(-0.001)"><g transform="translate(9.166 56.311)"><path d="M80.6,473.832,78.8,471.3a1.2,1.2,0,1,0-1.951,1.385l1.8,2.537a1.2,1.2,0,0,0,1.951-1.385Z" transform="translate(-76.624 -470.791)" fill="#b93336"/></g><g transform="translate(0.001 18.713)"><path d="M26.938,197.536l-1.96-9.34a17.615,17.615,0,0,0-7.45-11.058l-4.184-2.813a4.209,4.209,0,0,0-5.335.545V160.456a4,4,0,0,0-6.51-3.123A3.985,3.985,0,0,0,0,160.456V179a11.586,11.586,0,0,0,2.15,6.742l2.133,3a1.2,1.2,0,1,0,1.951-1.385l-2.133-3A9.206,9.206,0,0,1,2.393,179V160.456a1.612,1.612,0,1,1,3.224,0V175.17a8.357,8.357,0,0,0,2.155,5.611c.06.071.121.142.186.211.794.842,1.728,1.833,2.608,2.768l1.231,1.311.012.012,1.847,1.965A1.2,1.2,0,1,0,15.4,185.41c-.022-.023-1.422-1.514-3.021-3.214l-2.743-2.919-.02-.023a2.018,2.018,0,0,1,.039-2.645,1.808,1.808,0,0,1,2.355-.3l4.184,2.813a15.234,15.234,0,0,1,6.443,9.565l1.96,9.34a1.2,1.2,0,1,0,2.341-.491Z" transform="translate(-0.001 -156.451)" fill="#b93336"/></g><g transform="translate(6.685 52.816)"><path d="M58.062,442.088l-.008-.011a1.2,1.2,0,1,0-1.947,1.389l.008.011a1.2,1.2,0,1,0,1.947-1.389Z" transform="translate(-55.884 -441.575)" fill="#b93336"/></g><g transform="translate(34.278 18.713)"><path d="M312.044,157.336a4,4,0,0,0-6.51,3.123v14.412a4.209,4.209,0,0,0-5.335-.545l-4.184,2.813a17.614,17.614,0,0,0-7.45,11.058l-1.96,9.34a1.2,1.2,0,1,0,2.341.491l1.96-9.34a15.235,15.235,0,0,1,6.443-9.564l4.184-2.813a1.808,1.808,0,0,1,2.355.3,2.018,2.018,0,0,1,.041,2.642l-.023.025-5.764,6.132a1.2,1.2,0,1,0,1.744,1.638c.016-.017,4.9-5.214,5.7-6.056.065-.069.126-.139.185-.211a8.358,8.358,0,0,0,2.155-5.611V160.459a1.612,1.612,0,1,1,3.224,0V179a9.206,9.206,0,0,1-1.708,5.358l-9.037,12.73a1.2,1.2,0,1,0,1.951,1.385l9.037-12.73a11.586,11.586,0,0,0,2.15-6.742V160.459A3.986,3.986,0,0,0,312.044,157.336Z" transform="translate(-286.58 -156.454)" fill="#b93336"/></g><g transform="translate(11.171 6.459)"><path d="M127.989,70.465l-2.128-.508v-.382a5.35,5.35,0,0,0,2.29-4.386V62.423a5.349,5.349,0,0,0-8.826-4.069,6.984,6.984,0,0,0-12.944.01,5.349,5.349,0,0,0-8.838,4.059v2.766a5.35,5.35,0,0,0,2.29,4.386v.382l-2.128.508a5.6,5.6,0,0,0-4.315,5.468v2.234a1.2,1.2,0,0,0,1.2,1.2h5.5c-.008.145-.014.291-.014.438v4.3a1.2,1.2,0,0,0,1.2,1.2h7.19a1.2,1.2,0,1,0,0-2.392h-1.236V80.434a1.2,1.2,0,0,0-2.392,0v2.472H102.46V79.8a4.952,4.952,0,0,1,3.81-4.831l3.282-.787,2.2,5a1.2,1.2,0,0,0,1.095.715h0a1.2,1.2,0,0,0,1.095-.715l2.194-4.99,3.272.782a4.952,4.952,0,0,1,3.814,4.832v3.1h-2.366V80.434a1.2,1.2,0,0,0-2.392,0v2.472h-1.356a1.2,1.2,0,1,0,0,2.392h7.309a1.2,1.2,0,0,0,1.2-1.2V79.8c0-.148-.006-.3-.015-.441h5.512a1.2,1.2,0,0,0,1.2-1.2V75.933A5.6,5.6,0,0,0,127.989,70.465Zm-5.191-11a2.965,2.965,0,0,1,2.955,2.766h-1.663a8.718,8.718,0,0,1-4.01-.977A2.965,2.965,0,0,1,122.8,59.462Zm-2.961,5.553c0-.058,0-.116,0-.175V63.774a11.111,11.111,0,0,0,4.248.845h1.669v.57a2.961,2.961,0,1,1-5.922,0Zm-11.576-4.028h0a4.594,4.594,0,0,1,9.13-.73l-2.014-1.183a1.2,1.2,0,0,0-1.523.263,5.153,5.153,0,0,1-3.959,1.848h-1.635ZM102.9,59.462a2.965,2.965,0,0,1,2.719,1.788,8.718,8.718,0,0,1-4.01.977H99.942A2.965,2.965,0,0,1,102.9,59.462Zm-2.961,5.158H101.6a11.111,11.111,0,0,0,4.253-.847v1.417a2.961,2.961,0,0,1-5.922,0Zm5.777,8.024a7.335,7.335,0,0,0-5.083,4.327H95.782V75.933a3.219,3.219,0,0,1,2.479-3.141l3.046-.728a1.2,1.2,0,0,0,.918-1.163v-.4a5.192,5.192,0,0,0,1.337,0v.341c0,.018,0,.036,0,.053a1.2,1.2,0,0,0,.972,1.177l1.784.427Zm3.336-1.857a5.611,5.611,0,0,0-.958-.323l-2.137-.512v-.373a5.4,5.4,0,0,0,1.037-.947,7.041,7.041,0,0,0,2.058,2.063Zm5.195,1.757-1.4,3.183-1.4-3.192v-.854a7.01,7.01,0,0,0,2.8,0Zm-1.39-3.11a4.6,4.6,0,0,1-4.594-4.594V63.576H109.9a7.536,7.536,0,0,0,5.082-1.963l2.467,1.449v1.952A4.6,4.6,0,0,1,112.855,69.434Zm3.782,1.357v-.081a7.039,7.039,0,0,0,2.075-2.068,5.4,5.4,0,0,0,1.028.937v.373l-2.137.512A5.632,5.632,0,0,0,116.636,70.79Zm13.276,6.18h-4.865a7.334,7.334,0,0,0-5.086-4.325l-.6-.143,1.794-.43a1.2,1.2,0,0,0,.977-1.178c0-.009,0-.019,0-.028V70.5a5.192,5.192,0,0,0,1.337,0v.4a1.2,1.2,0,0,0,.918,1.163l3.046.728a3.219,3.219,0,0,1,2.479,3.141v1.038Z" transform="translate(-93.39 -54)" fill="#b93336"/></g><g transform="translate(29.425 35.365)"><path d="M248.042,296.019a1.2,1.2,0,1,0,.351.847A1.206,1.206,0,0,0,248.042,296.019Z" transform="translate(-246 -295.67)" fill="#b93336"/></g><g transform="translate(29.424)"><path d="M247.189,0a1.2,1.2,0,0,0-1.2,1.2v1.79a1.2,1.2,0,0,0,2.392,0V1.2A1.2,1.2,0,0,0,247.189,0Z" transform="translate(-245.993)" fill="#b93336"/></g><g transform="translate(22.918 2.298)"><path d="M194.9,20.816l-1.255-1.254a1.2,1.2,0,1,0-1.691,1.692l1.255,1.254a1.2,1.2,0,1,0,1.691-1.692Z" transform="translate(-191.599 -19.213)" fill="#b93336"/></g><g transform="translate(34.657 2.329)"><path d="M293.032,19.819a1.2,1.2,0,0,0-1.692,0L290.1,21.066a1.2,1.2,0,1,0,1.692,1.691l1.245-1.246A1.2,1.2,0,0,0,293.032,19.819Z" transform="translate(-289.746 -19.469)" fill="#b93336"/></g></g></svg>