<svg xmlns="http://www.w3.org/2000/svg" width="10.227" height="14.545" viewBox="0 0 10.227 14.545"><g transform="translate(-76)"><g transform="translate(76)"><path d="M81.114,0a5.115,5.115,0,0,0-4.35,7.8l4.059,6.541a.426.426,0,0,0,.362.2h0a.426.426,0,0,0,.362-.207l3.956-6.6A5.115,5.115,0,0,0,81.114,0Zm3.661,7.3-3.6,6L77.488,7.354A4.264,4.264,0,1,1,84.775,7.3Z" transform="translate(-76)" fill="#15a37d"/></g><g transform="translate(78.557 2.557)"><path d="M168.557,90a2.557,2.557,0,1,0,2.557,2.557A2.56,2.56,0,0,0,168.557,90Zm0,4.267a1.71,1.71,0,1,1,1.707-1.71A1.712,1.712,0,0,1,168.557,94.267Z" transform="translate(-166 -90)" fill="#15a37d"/></g></g></svg>