<svg xmlns="http://www.w3.org/2000/svg" width="17.375" height="17.452" viewBox="0 0 17.375 17.452"><g transform="translate(-193.756 -321.594)"><g transform="translate(193.756 321.593)"><path d="M14.971,37.809a1.822,1.822,0,0,0-1.321-.606,1.884,1.884,0,0,0-1.337.6l-1.235,1.232c-.1-.055-.2-.106-.3-.156-.141-.07-.274-.137-.387-.207a13.427,13.427,0,0,1-3.218-2.932,7.922,7.922,0,0,1-1.056-1.665c.321-.293.618-.6.907-.891.109-.109.219-.223.328-.332a1.794,1.794,0,0,0,0-2.705L6.284,29.079c-.121-.121-.246-.246-.364-.371-.235-.242-.481-.493-.735-.727a1.851,1.851,0,0,0-1.31-.575,1.915,1.915,0,0,0-1.329.575l-.008.008L1.209,29.33a2.86,2.86,0,0,0-.848,1.818,6.854,6.854,0,0,0,.5,2.9,16.834,16.834,0,0,0,2.991,4.989,18.4,18.4,0,0,0,6.126,4.8,9.545,9.545,0,0,0,3.44,1.016c.082,0,.168.008.246.008a2.946,2.946,0,0,0,2.256-.97c0-.008.012-.012.016-.02a8.888,8.888,0,0,1,.684-.708c.168-.16.34-.328.508-.5a1.95,1.95,0,0,0,.59-1.353,1.879,1.879,0,0,0-.6-1.341Zm1.4,4.117s0,0,0,0c-.152.164-.309.313-.477.477a10.281,10.281,0,0,0-.755.782,1.885,1.885,0,0,1-1.47.622c-.059,0-.121,0-.18,0a8.479,8.479,0,0,1-3.049-.915,17.367,17.367,0,0,1-5.771-4.519,15.872,15.872,0,0,1-2.815-4.688,5.582,5.582,0,0,1-.438-2.447,1.8,1.8,0,0,1,.54-1.161l1.333-1.333a.889.889,0,0,1,.594-.278.836.836,0,0,1,.571.274l.012.012c.238.223.465.454.7.7.121.125.246.25.371.379l1.067,1.067a.746.746,0,0,1,0,1.212c-.113.113-.223.227-.336.336-.328.336-.641.649-.981.954-.008.008-.016.012-.02.02a.8.8,0,0,0-.2.887l.012.035A8.569,8.569,0,0,0,6.342,36.4l0,0a14.35,14.35,0,0,0,3.472,3.159,5.337,5.337,0,0,0,.481.262c.141.07.274.137.387.207.016.008.031.02.047.027a.848.848,0,0,0,.387.1.836.836,0,0,0,.594-.27l1.337-1.337a.884.884,0,0,1,.59-.293.8.8,0,0,1,.563.285l.008.008L16.366,40.7A.773.773,0,0,1,16.37,41.926Z" transform="translate(-0.344 -27.406)" fill="#1d2926"/></g></g></svg>