<svg xmlns="http://www.w3.org/2000/svg" width="45.465" height="34.742" viewBox="0 0 45.465 34.742"><g transform="translate(0 -60.38)"><g transform="translate(9.303 65.563)"><g transform="translate(0 0)"><path d="M118.222,118.741A13.456,13.456,0,1,0,131.678,132.2,13.471,13.471,0,0,0,118.222,118.741Zm0,25.136A11.68,11.68,0,1,1,129.9,132.2,11.693,11.693,0,0,1,118.222,143.877Z" transform="translate(-104.766 -118.741)" fill="#fff"/></g></g><g transform="translate(13.689 69.949)"><g transform="translate(0 0)"><path d="M171.2,172.865a.888.888,0,0,0-1.2-.354l-.042.025a.887.887,0,0,0-.312,1.179A7.284,7.284,0,1,1,164.381,170a.887.887,0,0,0,1.006-.69c0-.016.007-.032.01-.048a.888.888,0,0,0-.738-1.016,9.066,9.066,0,1,0,6.536,4.617Z" transform="translate(-154.16 -168.136)" fill="#fff"/></g></g><g transform="translate(26.917 71.339)"><g transform="translate(0 0)"><path d="M304.637,184.047a.851.851,0,0,0-.135-.11.878.878,0,0,0-.154-.082.9.9,0,0,0-.166-.051.878.878,0,0,0-.347,0,.918.918,0,0,0-.166.051.872.872,0,0,0-.4.327.876.876,0,0,0-.082.154.847.847,0,0,0-.035.1c-.006.021-.011.041-.016.062a.9.9,0,0,0,0,.347.915.915,0,0,0,.051.166.9.9,0,0,0,.192.288.964.964,0,0,0,.136.111.9.9,0,0,0,.153.082.919.919,0,0,0,.166.051.884.884,0,0,0,.513-.051.87.87,0,0,0,.133-.069l.021-.013a.908.908,0,0,0,.135-.111.85.85,0,0,0,.11-.135.9.9,0,0,0,.082-.153.935.935,0,0,0,.051-.166.885.885,0,0,0,.018-.174A.894.894,0,0,0,304.637,184.047Z" transform="translate(-303.121 -183.787)" fill="#fff"/></g></g><g transform="translate(35.785 60.536)"><path d="M412.645,93.335l-2.88-23.456a12.448,12.448,0,0,0-3.321-7.046l-.078-.082A1.958,1.958,0,0,0,403,64.337l3.651,29.734q.018.143.048.282a3.017,3.017,0,0,0,5.567.847q.072-.126.132-.259t.107-.272A3,3,0,0,0,412.645,93.335ZM404.766,64.12a.164.164,0,0,1,.1-.187.2.2,0,0,1,.086-.021.166.166,0,0,1,.123.061l.078.082A10.671,10.671,0,0,1,408,70.1l1.535,12.5-2.466.3Zm6.04,30.036a1.242,1.242,0,0,1-2.389-.3l-1.129-9.192,2.466-.3,1.129,9.192A1.235,1.235,0,0,1,410.806,94.157Z" transform="translate(-402.988 -62.135)" fill="#fff"/></g><g transform="translate(0 60.38)"><path d="M10.951,61.388a.888.888,0,0,0-.99.773l-.808,6.578A2.115,2.115,0,0,1,7.174,70.6l-.589-.072,1.062-8.65a.888.888,0,1,0-1.763-.216l-1.062,8.65-.589-.072a2.115,2.115,0,0,1-1.47-2.285l.808-6.577a.888.888,0,1,0-1.763-.216L1,67.738a3.881,3.881,0,0,0,2.055,3.929L.035,91.108v.007a3.092,3.092,0,0,0,2.681,3.52l.016,0a3.153,3.153,0,0,0,.385.024,3.093,3.093,0,0,0,3.071-2.812L7.972,72.27a3.881,3.881,0,0,0,2.944-3.315l.808-6.578A.888.888,0,0,0,10.951,61.388Zm-6.533,30.3a1.316,1.316,0,0,1-1.47,1.187l-.016,0a1.316,1.316,0,0,1-1.142-1.5l3-19.281.7.086h0l.7.086Z" transform="translate(0 -60.38)" fill="#fff"/></g></g></svg>