<svg id="Capa_1" fill="#fff" height="512" viewBox="0 0 512 512" width="512" xmlns="http://www.w3.org/2000/svg" ><path d="m183.913 249.578c19.736-17.954 45.333-27.842 72.073-27.842s52.336 9.888 72.073 27.842c1.916 1.743 4.325 2.603 6.726 2.603 2.718 0 5.427-1.102 7.4-3.271 3.717-4.086 3.417-10.41-.668-14.127-23.426-21.311-53.802-33.047-85.531-33.047s-62.104 11.736-85.531 33.047c-4.085 3.717-4.385 10.041-.668 14.127 3.715 4.085 10.04 4.385 14.126.668z"/><path d="m365.643 286.171c-.012-.064-.025-.129-.039-.192-1.124-5.316-5.691-9.227-11.107-9.51-5.411-.301-10.351 3.118-12.018 8.273-.036.111-.07.224-.102.336l-16.612 58.278-17.216-58.366c-.033-.111-.067-.223-.104-.332-1.72-5.161-6.694-8.515-12.12-8.181-5.426.346-9.951 4.318-11.005 9.661-.01.053-.02.105-.03.157l-15.42 85.352c-.982 5.436 2.628 10.637 8.063 11.619 5.436.985 10.637-2.628 11.619-8.062l9.403-52.048 15.47 52.447c.042.142.086.282.135.423 1.668 4.851 6.215 8.094 11.333 8.094h.085c5.156-.036 9.701-3.354 11.31-8.256.041-.125.08-.25.115-.377l14.93-52.379 9.963 52.192c1.036 5.425 6.274 8.983 11.698 7.947 5.425-1.035 8.983-6.272 7.948-11.697z"/><path d="m116.779 276.459c-5.523 0-10 4.478-10 10v32.321h-40.66v-32.321c0-5.522-4.477-10-10-10s-10 4.478-10 10v87.647c0 5.522 4.477 10 10 10s10-4.478 10-10v-35.326h40.66v35.326c0 5.522 4.477 10 10 10s10-4.478 10-10v-87.647c0-5.522-4.477-10-10-10z"/><path d="m401.066 283.624v86.854c0 5.522 4.477 10 10 10h36.594c5.523 0 10-4.478 10-10s-4.477-10-10-10h-26.594v-23.428h23.901c5.523 0 10-4.478 10-10s-4.477-10-10-10h-23.901v-23.427h26.594c5.523 0 10-4.478 10-10s-4.477-10-10-10h-36.594c-5.523.001-10 4.479-10 10.001z"/><path d="m202.667 378.381c2.504 0 5.008-.936 6.945-2.806l36.787-35.513c13.364-12.88 13.748-34.24.846-47.628-11.95-12.364-31.171-13.594-44.575-3.437-13.384-10.157-32.623-8.934-44.592 3.447-12.891 13.376-12.507 34.737.851 47.611l36.793 35.519c1.937 1.871 4.441 2.807 6.945 2.807zm-30.198-72.046c2.686-2.778 6.273-4.173 9.86-4.173 3.413 0 6.827 1.264 9.459 3.801l3.912 3.799c3.879 3.768 10.053 3.768 13.933 0l3.885-3.772c5.427-5.23 14.105-5.077 19.336.335 5.239 5.436 5.089 14.111-.34 19.344l-29.848 28.813-29.854-28.819c-5.421-5.227-5.572-13.903-.343-19.328z"/><path d="m328.058 408.151c-19.735 17.954-45.331 27.842-72.072 27.842s-52.337-9.888-72.072-27.842c-4.086-3.718-10.411-3.418-14.126.668-3.717 4.086-3.417 10.41.667 14.127 23.426 21.311 53.801 33.047 85.531 33.047s62.105-11.736 85.531-33.047c4.085-3.717 4.384-10.041.667-14.127-3.716-4.085-10.04-4.382-14.126-.668z"/><path d="m458.574 133.068c15.439 0 28-12.561 28-28v-20.756h15.426c5.523 0 10-4.478 10-10v-50.315c0-5.522-4.477-10-10-10h-492c-5.523 0-10 4.478-10 10v50.314c0 5.522 4.477 10 10 10h15.398v20.757c0 15.439 12.561 28 28 28h5.392v91.799h-34.787c-13.235 0-24.003 10.769-24.003 24.004v159.988c0 13.235 10.768 24.003 24.003 24.003h98.607c14.981 19.163 34.132 35.094 55.662 46.256 23.83 12.354 50.703 18.885 77.714 18.885 27.015 0 53.891-6.53 77.724-18.885 21.539-11.165 40.687-27.095 55.654-46.256h98.633c13.235 0 24.003-10.768 24.003-24.003v-159.988c0-13.235-10.768-24.004-24.003-24.004h-34.815v-91.799zm8-28c0 4.337-3.664 8-8 8h-30.755c-4.411 0-8-3.589-8-8v-20.756h46.755zm-421.176 0v-20.756h46.783v20.757c0 4.337-3.664 8-8 8h-30.784c-4.336-.001-7.999-3.664-7.999-8.001zm446.602 143.803v159.988c0 2.17-1.833 4.003-4.003 4.003h-103.604c-3.187 0-6.182 1.519-8.065 4.089-28.019 38.229-73.006 61.052-120.341 61.052-47.308 0-92.296-22.824-120.344-61.056-1.884-2.568-4.878-4.085-8.063-4.085h-103.577c-2.17 0-4.003-1.833-4.003-4.003v-159.988c0-2.17 1.833-4.004 4.003-4.004h103.576c3.185 0 6.179-1.517 8.063-4.085 28.049-38.231 73.037-61.056 120.344-61.056 47.334 0 92.322 22.823 120.341 61.052 1.883 2.57 4.879 4.089 8.065 4.089h103.604c2.171 0 4.004 1.834 4.004 4.004zm-58.818-24.004h-43.818c-14.968-19.16-34.116-35.09-55.654-46.256-23.833-12.354-50.709-18.885-77.724-18.885-27.012 0-53.885 6.53-77.714 18.885-21.529 11.163-40.68 27.093-55.662 46.256h-43.82v-91.799h5.392c15.439 0 28-12.561 28-28v-20.756h98.905c5.523 0 10-4.478 10-10s-4.477-10-10-10h-191.087v-30.315h472v30.314h-191.114c-5.523 0-10 4.478-10 10s4.477 10 10 10h98.933v20.757c0 15.439 12.561 28 28 28h5.363z"/></svg>