<svg xmlns="http://www.w3.org/2000/svg" width="59.59" height="59.799" viewBox="0 0 59.59 59.799"><g transform="translate(-0.894)"><path d="M246.212,7.6a1.176,1.176,0,0,0,1.176-1.176V1.176a1.176,1.176,0,0,0-2.352,0V6.422A1.176,1.176,0,0,0,246.212,7.6Z" transform="translate(-215.628)" fill="#000"/><path d="M59.336,112.967,57.258,110.9a3.939,3.939,0,0,0-4.661-.665l-3.916-3.911.191-.19a4.082,4.082,0,0,0,0-5.764,4.038,4.038,0,0,0-2.048-1.107,4.108,4.108,0,0,0,.162-1.144,4.073,4.073,0,0,0-3.24-3.989,4.107,4.107,0,0,0,.162-1.144,4.069,4.069,0,0,0-3.24-3.988,4.071,4.071,0,0,0-4.351-5.2L28.56,82.328c-1.183-.224-2.661-.373-3.594.478a2.125,2.125,0,0,0-.178.184,4.09,4.09,0,0,0-4.292.944A4.047,4.047,0,0,0,19.3,86.817a4.113,4.113,0,0,0,.162,1.144,4.074,4.074,0,0,0-3.239,3.985,4.1,4.1,0,0,0,.162,1.148,4.079,4.079,0,0,0-2.528,6.294,4.076,4.076,0,0,0-1.566,6.743l.19.189L8.569,110.23A3.933,3.933,0,0,0,4.12,111l-2.079,2.073a3.929,3.929,0,0,0,0,5.549l2.595,2.592A1.176,1.176,0,0,0,6.3,119.55L3.7,116.958a1.577,1.577,0,0,1,0-2.219l2.079-2.073A1.575,1.575,0,0,1,7.7,112.43a1.187,1.187,0,0,0,.148.181,1.171,1.171,0,0,0,.338.235L20.11,124.753a1.159,1.159,0,0,0,.567.573,1.574,1.574,0,0,1-.065,2.148l-2.077,2.075a1.58,1.58,0,0,1-2.224,0l-2.595-2.6a1.176,1.176,0,0,0-1.663,1.663l2.6,2.6a3.938,3.938,0,0,0,5.547,0l2.078-2.076a3.933,3.933,0,0,0,.551-4.858l4.407-4.4.014-.014c.5-.522,1.91-.424,3.269-.33a16.918,16.918,0,0,0,3.094.021l4.826,4.821a3.931,3.931,0,0,0,.667,4.657l2.079,2.076a3.933,3.933,0,0,0,5.548,0l12.607-12.592a3.929,3.929,0,0,0,0-5.549ZM28.122,84.639l5.1.966L30.17,88.658a7.415,7.415,0,0,1-1.83-1.33,5.411,5.411,0,0,1-1.731-2.674h0a1.028,1.028,0,0,1-.005-.116,3.986,3.986,0,0,1,1.518.1Zm-5.963.959a1.735,1.735,0,0,1,2.195-.208,8.413,8.413,0,0,0,2.36,3.637,8.711,8.711,0,0,0,3.389,2.1,1.726,1.726,0,0,1-2.639,2.2h0l-5.3-5.295a1.732,1.732,0,0,1,0-2.438Zm-3.074,5.133a1.735,1.735,0,0,1,2.444,0L25.8,95a1.729,1.729,0,0,1-2.447,2.443h0l-3.24-3.24-.016-.015L19.084,93.17a1.726,1.726,0,0,1,0-2.439Zm-3.079,5.132a1.74,1.74,0,0,1,2.436-.008l3.25,3.249a1.726,1.726,0,0,1-2.446,2.437l-1.178-1.177h0L16.006,98.3a1.73,1.73,0,0,1,0-2.441Zm-2.049,6.165a1.739,1.739,0,0,1,2.448,0l1.18,1.179a1.726,1.726,0,0,1-2.447,2.436l-.148-.147-.005-.006-.007-.006-1.019-1.015a1.727,1.727,0,0,1,0-2.439ZM37.927,115.4a1.176,1.176,0,0,0-1.663,0l-1.046,1.045c-.994.994-2.8.869-4.539.748-1.892-.132-3.849-.267-5.115,1.033l-4.332,4.327L10.4,111.73l3.834-3.827a4.079,4.079,0,0,0,6.209-3.479c0-.01,0-.02,0-.03h.03a4.069,4.069,0,0,0,4.078-4.073c0-.01,0-.02,0-.03h.031a4.064,4.064,0,0,0,4.078-4.1h.032a4.08,4.08,0,0,0,3.482-6.2l3.361-3.359a1.726,1.726,0,0,1,.883-.47c.035,0,.07-.009.1-.016a1.724,1.724,0,0,1,1.464,2.925l-1.023,1.019-.01.01-1.179,1.177a1.176,1.176,0,1,0,1.662,1.664l1.028-1.026h0l.155-.155a1.732,1.732,0,0,1,2.441.006,1.726,1.726,0,0,1,0,2.438l-1.029,1.031h0L38.843,96.4a1.176,1.176,0,1,0,1.66,1.667l1.184-1.179a1.726,1.726,0,0,1,2.443,2.44l-2.052,2.053a1.176,1.176,0,1,0,1.664,1.663l1.006-1.006.018-.016a1.726,1.726,0,0,1,2.444,2.439l-1.023,1.021h0l-1.623,1.621a1.176,1.176,0,0,0,1.662,1.665l.794-.793,3.8,3.8L39.989,122.6l-3.882-3.877a4.625,4.625,0,0,0,.773-.622l1.046-1.045A1.176,1.176,0,0,0,37.927,115.4Zm19.747,1.457L45.068,129.444a1.581,1.581,0,0,1-2.223,0l-2.079-2.076a1.573,1.573,0,0,1,0-2.217L53.373,112.56a1.581,1.581,0,0,1,2.224,0l2.078,2.072a1.577,1.577,0,0,1,0,2.22Z" transform="translate(0 -72.558)" fill="#000"/><path d="M86.355,9.031a1.176,1.176,0,0,0,1.662-1.665L83.73,3.089a1.176,1.176,0,0,0-1.662,1.665Z" transform="translate(-71.389 -2.424)" fill="#000"/><path d="M372.827,9.375a1.173,1.173,0,0,0,.831-.344l4.283-4.278a1.176,1.176,0,1,0-1.663-1.664L372,7.367a1.176,1.176,0,0,0,.831,2.008Z" transform="translate(-327.455 -2.425)" fill="#000"/><path d="M60.267,430.545a1.176,1.176,0,0,0,.014,1.663l0,0a1.176,1.176,0,1,0-.018-1.667Z" transform="translate(-52.141 -379.949)" fill="#000"/><path d="M333.689,334.471a1.176,1.176,0,1,0-.528-2.227l-.007,0a1.176,1.176,0,0,0,.535,2.224Z" transform="translate(-292.885 -293.328)" fill="#000"/></g></svg>