<svg xmlns="http://www.w3.org/2000/svg" width="56.002" height="56.002" viewBox="0 0 56.002 56.002"><g transform="translate(-0.002 0)"><g transform="translate(0.002 0)"><g transform="translate(0 0)"><path d="M290.231,201.357a.935.935,0,0,0,1.256.408,80.014,80.014,0,0,1,8.258-3.675.934.934,0,0,0-.564-1.781,80.053,80.053,0,0,0-8.542,3.792A.934.934,0,0,0,290.231,201.357Z" transform="translate(-258.396 -174.799)" fill="#fff212"/><path d="M291.065,99.468a.932.932,0,0,0,.423-.1,80.011,80.011,0,0,1,8.258-3.675.934.934,0,0,0-.564-1.781A80.057,80.057,0,0,0,290.64,97.7a.933.933,0,0,0,.425,1.765Z" transform="translate(-258.396 -83.6)" fill="#fff212"/><path d="M55.07,14a.933.933,0,0,0-.933.933v36.4a2.8,2.8,0,0,1-2.8,2.8h-22.4V51.988a27.505,27.505,0,0,1,8.4-1.586,48.143,48.143,0,0,1,13.706,1.819.933.933,0,0,0,1.227-.886V10.267a.932.932,0,0,0-.731-.911s-.732-.163-1.982-.393a.933.933,0,0,0-.338,1.836c.477.088.876.165,1.184.227V50.095a52.711,52.711,0,0,0-13.067-1.56,29.323,29.323,0,0,0-9.3,1.788A21.865,21.865,0,0,0,19.6,48.535a62.9,62.9,0,0,0-14,1.6V10.99a61.436,61.436,0,0,1,14-1.656,20.237,20.237,0,0,1,7.467,1.538V47.6a.933.933,0,0,0,1.414.8,106.858,106.858,0,0,1,17.548-8.314.933.933,0,0,0,.638-.886V.934A.935.935,0,0,0,45.408.059a99.288,99.288,0,0,0-15.1,7.55A.933.933,0,0,0,31.3,9.192,99.76,99.76,0,0,1,44.8,2.3V38.533a104.6,104.6,0,0,0-15.867,7.447V10.267a.934.934,0,0,0-.516-.835A21.613,21.613,0,0,0,19.6,7.467a60.577,60.577,0,0,0-15.19,1.9.933.933,0,0,0-.677.9V51.335a.933.933,0,0,0,.933.933.92.92,0,0,0,.256-.036A59.957,59.957,0,0,1,19.6,50.4a20.192,20.192,0,0,1,7.467,1.539v2.194H4.669a2.8,2.8,0,0,1-2.8-2.8v-36.4a.933.933,0,1,0-1.867,0v36.4A4.672,4.672,0,0,0,4.669,56H51.337A4.672,4.672,0,0,0,56,51.335v-36.4A.933.933,0,0,0,55.07,14Z" transform="translate(-0.002 0)" fill="#fff212"/><path d="M290.231,150.157a.935.935,0,0,0,1.256.408,80.014,80.014,0,0,1,8.258-3.675.934.934,0,0,0-.564-1.781,80.061,80.061,0,0,0-8.542,3.792A.934.934,0,0,0,290.231,150.157Z" transform="translate(-258.396 -129.199)" fill="#fff212"/><path d="M290.231,252.557a.934.934,0,0,0,1.256.408,80.015,80.015,0,0,1,8.258-3.675.934.934,0,0,0-.564-1.781,80.05,80.05,0,0,0-8.542,3.792A.934.934,0,0,0,290.231,252.557Z" transform="translate(-258.396 -220.399)" fill="#fff212"/><path d="M98.613,154.161c-5.763-1.352-12.313.371-12.588.444a.933.933,0,0,0,.241,1.835.95.95,0,0,0,.243-.032c.063-.018,6.368-1.676,11.679-.43a.933.933,0,1,0,.425-1.817Z" transform="translate(-76 -136.839)" fill="#fff212"/><path d="M98.613,205.364c-5.763-1.351-12.313.371-12.588.444a.933.933,0,0,0,.241,1.835.948.948,0,0,0,.243-.032c.063-.018,6.368-1.676,11.679-.43a.933.933,0,1,0,.425-1.817Z" transform="translate(-76 -182.442)" fill="#fff212"/><path d="M290.231,303.757a.934.934,0,0,0,1.256.408,80.013,80.013,0,0,1,8.258-3.675.934.934,0,0,0-.564-1.781,80.063,80.063,0,0,0-8.542,3.792A.934.934,0,0,0,290.231,303.757Z" transform="translate(-258.396 -265.999)" fill="#fff212"/><path d="M98.613,256.563c-5.763-1.351-12.313.37-12.588.444a.934.934,0,0,0,.241,1.836.946.946,0,0,0,.243-.033c.063-.018,6.368-1.676,11.679-.43a.933.933,0,1,0,.425-1.817Z" transform="translate(-76 -228.041)" fill="#fff212"/><path d="M98.613,358.961c-5.763-1.352-12.313.371-12.588.444a.934.934,0,0,0,.241,1.836.946.946,0,0,0,.243-.033c.063-.018,6.368-1.676,11.679-.43a.933.933,0,1,0,.425-1.817Z" transform="translate(-76 -319.238)" fill="#fff212"/><path d="M98.613,307.76c-5.763-1.352-12.313.37-12.588.444a.934.934,0,0,0,.241,1.836.945.945,0,0,0,.243-.033c.063-.018,6.368-1.676,11.679-.43a.933.933,0,1,0,.425-1.817Z" transform="translate(-76 -273.637)" fill="#fff212"/></g></g></g></svg>