<svg xmlns="http://www.w3.org/2000/svg" width="52.083" height="45.519" viewBox="0 0 52.083 45.519"><g transform="translate(0 0)"><path d="M92.73,187.789a12.682,12.682,0,0,0-21.354,0l-5.647,8.81a8.027,8.027,0,0,0,9.988,11.68l.1-.046a15.78,15.78,0,0,1,12.568.046,7.983,7.983,0,0,0,3.221.681,8.085,8.085,0,0,0,1.8-.2A8.028,8.028,0,0,0,98.378,196.6Zm2.67,16.375a4.946,4.946,0,0,1-5.783,1.321,18.838,18.838,0,0,0-15.127,0l-.068.03a4.974,4.974,0,0,1-6.123-7.267l5.648-8.81a9.629,9.629,0,0,1,16.214,0l5.647,8.809a4.946,4.946,0,0,1-.407,5.918Zm0,0" transform="translate(-57.902 -163.441)" fill="#fff212"/><path d="M9.347,113.171a6.158,6.158,0,0,0,3.594-3.812,7.955,7.955,0,0,0-.141-5.485,7.96,7.96,0,0,0-3.573-4.163,6.158,6.158,0,0,0-5.22-.42c-3.374,1.3-4.923,5.467-3.451,9.3a7.437,7.437,0,0,0,6.688,4.973,5.83,5.83,0,0,0,2.1-.39ZM3.4,107.491c-.867-2.257-.105-4.658,1.7-5.352a2.832,2.832,0,0,1,1.022-.188,3.443,3.443,0,0,1,1.643.442,4.9,4.9,0,0,1,2.183,2.577,4.9,4.9,0,0,1,.109,3.375,3.157,3.157,0,0,1-1.809,1.975h0c-1.8.695-3.976-.576-4.846-2.831Zm0,0" transform="translate(0 -88.834)" fill="#fff212"/><path d="M132.063,17.434c4.218,0,7.65-3.91,7.65-8.716S136.282,0,132.063,0s-7.65,3.911-7.65,8.718S127.845,17.434,132.063,17.434Zm0-14.381c2.535,0,4.6,2.542,4.6,5.665s-2.063,5.663-4.6,5.663-4.6-2.541-4.6-5.663,2.062-5.665,4.6-5.665Zm0,0" transform="translate(-111.758)" fill="#fff212"/><path d="M288.8,55.735h0a6.236,6.236,0,0,0,1.97.318,7.929,7.929,0,0,0,7.218-5.68,8.548,8.548,0,0,0-.122-5.9,6.467,6.467,0,0,0-9.588-3.186,8.548,8.548,0,0,0-3.627,4.651c-1.389,4.179.472,8.573,4.148,9.795ZM287.552,46.9a5.5,5.5,0,0,1,2.312-3,3.421,3.421,0,0,1,5.176,1.72,5.5,5.5,0,0,1,.055,3.789c-.858,2.581-3.248,4.119-5.329,3.428S286.694,49.484,287.552,46.9Zm0,0" transform="translate(-255.285 -36.159)" fill="#fff212"/><path d="M388.041,172.212h0c-2.909-2.149-7.26-1.218-9.7,2.077s-2.056,7.728.849,9.879a5.981,5.981,0,0,0,3.592,1.16,7.734,7.734,0,0,0,6.108-3.235C391.326,178.8,390.946,174.364,388.041,172.212Zm-1.6,8.063c-1.44,1.944-3.876,2.589-5.43,1.438s-1.647-3.666-.211-5.61a4.687,4.687,0,0,1,3.635-2.007,2.982,2.982,0,0,1,1.8.57c1.552,1.151,1.646,3.667.211,5.609Zm0,0" transform="translate(-338.413 -153.654)" fill="#fff212"/></g></svg>