<svg xmlns="http://www.w3.org/2000/svg" width="68.671" height="70.65" viewBox="0 0 68.671 70.65"><g transform="translate(-7.17 0)"><path d="M19.238,246.522a45.782,45.782,0,0,0-4.821,4.555,25.657,25.657,0,0,1-5.149-14.34c8.013,2.073,16.484.394,16.861.317a1.035,1.035,0,0,0,.377-1.869c-8.1-5.527-12.022-12.847-11.644-21.757a1.035,1.035,0,0,0-2.068-.088,25.579,25.579,0,0,0,2.258,11.922,27.771,27.771,0,0,0,8.229,10.123c-3.281.378-9.333.706-14.751-1.014a1.035,1.035,0,0,0-1.347.933c-.022.417-.452,10.311,6.445,18.047a1.035,1.035,0,0,0,.773.346h.019a1.036,1.036,0,0,0,.778-.375,42.651,42.651,0,0,1,5.346-5.194,1.035,1.035,0,0,0-1.305-1.606Z" transform="translate(0 -183.048)" fill="#b93336"/><path d="M319.03,267.04A1.962,1.962,0,1,0,317.068,269,1.964,1.964,0,0,0,319.03,267.04Z" transform="translate(-265.445 -228.501)" fill="#b93336"/><path d="M112.959,25.551c-.189-.022-4.674-.509-7.666,2.056a7.908,7.908,0,0,0-1.637,1.977,40.661,40.661,0,0,0-1.861-6.993q-.351-.971-.725-1.877a10.239,10.239,0,0,0,5.371-4.139c1.962-3.418.648-7.733.592-7.915a1.035,1.035,0,0,0-1.219-.7c-.186.043-4.575,1.083-6.537,4.5h0a8.031,8.031,0,0,0-.933,2.686,40.06,40.06,0,0,0-2.361-3.678C96.2,10.2,96.571,6.786,94.8,4.1,92.632.812,88.187.045,88,.014a1.035,1.035,0,0,0-1.173.774C86.78.973,85.734,5.361,87.9,8.651c1.806,2.739,5.186,3.729,6.378,4a44.7,44.7,0,0,1,5.588,10.7c.029.081.057.163.085.244A7.948,7.948,0,0,0,97.631,22.3c-3.726-1.284-7.717.818-7.885.909a1.035,1.035,0,0,0-.458,1.329c.077.175,1.925,4.289,5.65,5.574a7.935,7.935,0,0,0,2.594.414,11.888,11.888,0,0,0,4.053-.782,32.936,32.936,0,0,1,.493,4.837c.018.678.01,1.351-.018,2.02l-3.763-.74a11.274,11.274,0,0,0-6.347-4.833c-2.65-.675-5.468-.109-8.383,1.679A15.3,15.3,0,0,1,79.251,30.5a1.035,1.035,0,0,0-1.214,1.677,18.039,18.039,0,0,0,3.209,1.863,13.623,13.623,0,0,1-12.468-.447,20.181,20.181,0,0,1-3.1-2.017A28.845,28.845,0,0,1,68.212,18.79a36.278,36.278,0,0,0,6.578,10.5A1.035,1.035,0,0,0,76.3,27.872a35.808,35.808,0,0,1-6.936-11.877,1.044,1.044,0,0,0-1.869-.226,29.054,29.054,0,0,0-3.9,13.969,26.043,26.043,0,0,1-3.3-4.018,19.265,19.265,0,0,1-3.506-9.446,1.035,1.035,0,0,0-1.929-.485,34.316,34.316,0,0,0-3.551,10.235,1.035,1.035,0,0,0,2.037.369,34.1,34.1,0,0,1,1.922-6.607,24.575,24.575,0,0,0,3.306,7.083,25.857,25.857,0,0,0,9.251,8.557,16.87,16.87,0,0,0,7.757,2.009,15.729,15.729,0,0,0,8.7-2.73c2.552-1.662,4.954-2.225,7.141-1.674a9.488,9.488,0,0,1,5.315,4.25,1.035,1.035,0,0,0,.711.524l3.562.7a74.238,74.238,0,0,0-8.5,11.206,15.416,15.416,0,0,1-9.431,7.217,36.222,36.222,0,0,1-12.642,1.037c-2.882-.172-6.067.791-9.461,2.864A1.035,1.035,0,1,0,62.06,62.6c3.027-1.848,5.805-2.711,8.259-2.565,7.736.462,18.639,0,23.989-9.287a68.143,68.143,0,0,1,7.225-9.7,28.173,28.173,0,0,1-2.1,6.408,1.035,1.035,0,0,0,1.876.874,30.257,30.257,0,0,0,2.739-10.359c0-.023,0-.046,0-.069q.076-.95.093-1.913a10.285,10.285,0,0,0,6.521-2.106c2.992-2.565,3.2-7.071,3.2-7.261A1.035,1.035,0,0,0,112.959,25.551ZM101.07,13.49h0a8.176,8.176,0,0,1,4.215-3.2,8.133,8.133,0,0,1-.64,5.25,8.176,8.176,0,0,1-4.215,3.2A8.134,8.134,0,0,1,101.07,13.49ZM95.613,28.157a8.174,8.174,0,0,1-3.932-3.535,8.172,8.172,0,0,1,5.275-.362,8.174,8.174,0,0,1,3.932,3.535A8.174,8.174,0,0,1,95.613,28.157ZM89.632,7.512a8.175,8.175,0,0,1-.96-5.2,8.133,8.133,0,0,1,4.4,2.933,8.174,8.174,0,0,1,.96,5.2A8.173,8.173,0,0,1,89.632,7.512Zm19.691,24.8a8.175,8.175,0,0,1-5.042,1.6,8.133,8.133,0,0,1,2.359-4.734,8.174,8.174,0,0,1,5.039-1.6A8.173,8.173,0,0,1,109.323,32.308Z" transform="translate(-38.034 0)" fill="#b93336"/></g></svg>