<svg xmlns="http://www.w3.org/2000/svg" width="16.693" height="18.469" viewBox="0 0 16.693 18.469"><g transform="translate(-21.37)"><path d="M37.052,6.65l-2.545-.242V1.117A1.117,1.117,0,0,0,32.932.1L21.554,5.215h0a.312.312,0,0,0-.184.284V16.707a.312.312,0,0,0,.282.31L36.84,18.464q.053.005.105,0a1.117,1.117,0,0,0,1.118-1.117V7.761A1.112,1.112,0,0,0,37.052,6.65Zm-7.531-.717,4.363-1.962V6.348Zm3.372-2.2-4.627,2.08-2.4-.229,6.681-3a.245.245,0,0,1,.346.224v.929ZM33.187.667a.494.494,0,0,1,.7.45v2.17l-.367.165V2.8a.868.868,0,0,0-1.225-.792l-7.68,3.453L22.883,5.3Zm4.252,16.685a.494.494,0,0,1-.54.491l-14.906-1.42V5.842l15,1.428a.492.492,0,0,1,.447.491Z" fill="#1d2926"/><path d="M336.632,271.072a1.215,1.215,0,1,0,1.123,1.212A1.171,1.171,0,0,0,336.632,271.072Zm0,1.8a.6.6,0,1,1,.5-.589A.55.55,0,0,1,336.632,272.872Z" transform="translate(-301.085 -259.808)" fill="#1d2926"/></g></svg>