<svg xmlns="http://www.w3.org/2000/svg" width="211.552" height="248.693" viewBox="0 0 211.552 248.693"><g transform="translate(0)"><path d="M492.649,105.189,472.4,99.068l-1.245,27.685,21.305,6.422Z" transform="translate(-295.366 -62.105)" fill="#f5f5f5"/><path d="M146.808,0V28.17L267.826,64.648l1.245-27.685Z" transform="translate(-92.033)" fill="#707d79"/><path d="M492.649,105.189,472.4,99.068l-1.245,27.685,21.305,6.422Z" transform="translate(-295.366 -62.105)" opacity="0.1"/><path d="M492.649,247.309,472.4,241.188l-1.245,27.685,21.305,6.422Z" transform="translate(-295.366 -151.199)" fill="#3ad29f"/><path d="M146.808,142.12v28.17l121.018,36.478,1.245-27.685Z" transform="translate(-92.033 -89.094)" fill="#3ad29f"/><path d="M492.649,247.309,472.4,241.188l-1.245,27.685,21.305,6.422Z" transform="translate(-295.366 -151.199)" opacity="0.1"/><path d="M488.291,278.178l3.314,4.971,6.628-8.285" transform="translate(-306.106 -172.31)" fill="none" stroke="#fff" stroke-linecap="round" stroke-miterlimit="10" stroke-width="2"/><g transform="translate(182.369 47.871)" opacity="0.4"><line x2="6.628" y2="11.6" fill="none" stroke="#fff" stroke-linecap="round" stroke-miterlimit="10" stroke-width="2"/><line x1="8.285" y2="8.285" transform="translate(0 1.657)" fill="none" stroke="#fff" stroke-linecap="round" stroke-miterlimit="10" stroke-width="2"/></g><path d="M492.649,380.546l-20.245-6.12-1.245,27.685,21.305,6.422Z" transform="translate(-295.366 -234.725)" fill="#f5f5f5"/><path d="M146.808,275.358v28.17l121.018,36.478,1.245-27.685Z" transform="translate(-92.033 -172.62)" fill="#707d79"/><path d="M492.649,380.546l-20.245-6.12-1.245,27.685,21.305,6.422Z" transform="translate(-295.366 -234.725)" opacity="0.1"/><g transform="translate(182.369 150.609)" opacity="0.4"><line x2="6.628" y2="11.599" fill="none" stroke="#fff" stroke-linecap="round" stroke-miterlimit="10" stroke-width="2"/><line x1="8.285" y2="8.285" transform="translate(0 1.657)" fill="none" stroke="#fff" stroke-linecap="round" stroke-miterlimit="10" stroke-width="2"/></g><ellipse cx="4.143" cy="8.285" rx="4.143" ry="8.285" transform="translate(134.314 82.669)" opacity="0.3"/><ellipse cx="34.798" cy="69.597" rx="34.798" ry="69.597" transform="translate(103.659 21.357)" fill="#fff212" opacity="0.1"/><ellipse cx="19.056" cy="38.113" rx="19.056" ry="38.113" transform="translate(119.401 52.842)" fill="#fff" opacity="0.1"/><g transform="translate(0 41.15)" opacity="0.5"><rect width="0.552" height="3.13" transform="translate(1.289)" fill="#47e6b1"/><rect width="0.552" height="3.13" transform="translate(3.13 1.289) rotate(90)" fill="#47e6b1"/></g><g transform="translate(195.882 193.751)" opacity="0.5"><rect width="0.552" height="3.13" transform="translate(1.289)" fill="#47e6b1"/><rect width="0.552" height="3.13" transform="translate(3.13 1.289) rotate(90)" fill="#47e6b1"/></g><g transform="translate(182.277 127.318)" opacity="0.5"><rect width="0.552" height="3.13" transform="translate(1.289)" fill="#47e6b1"/><rect width="0.552" height="3.13" transform="translate(3.13 1.289) rotate(90)" fill="#47e6b1"/></g><g transform="translate(158.71 191.023)" opacity="0.5"><rect width="0.552" height="3.13" transform="translate(1.289)" fill="#47e6b1"/><rect width="0.552" height="3.13" transform="translate(3.13 1.289) rotate(90)" fill="#47e6b1"/></g><g transform="translate(142.139 230.976)" opacity="0.5"><rect width="0.552" height="3.13" transform="translate(1.289)" fill="#47e6b1"/><rect width="0.552" height="3.13" transform="translate(3.13 1.289) rotate(90)" fill="#47e6b1"/></g><g transform="translate(23.567 89.573)" opacity="0.5"><rect width="0.552" height="3.13" transform="translate(1.289)" fill="#47e6b1"/><rect width="0.552" height="3.13" transform="translate(3.13 1.289) rotate(90)" fill="#47e6b1"/></g><path d="M402.36,224.077a.677.677,0,0,1-.377-.818.328.328,0,0,0,.015-.075h0a.339.339,0,0,0-.609-.225h0a.324.324,0,0,0-.038.067.677.677,0,0,1-.818.377.329.329,0,0,0-.075-.015h0a.339.339,0,0,0-.225.61h0a.324.324,0,0,0,.067.038.677.677,0,0,1,.377.818.32.32,0,0,0-.015.075h0a.339.339,0,0,0,.609.225h0a.328.328,0,0,0,.038-.067.676.676,0,0,1,.818-.377.327.327,0,0,0,.075.015h0a.339.339,0,0,0,.225-.61h0A.327.327,0,0,0,402.36,224.077Z" transform="translate(-368.907 -183.239)" fill="#4d8af0" opacity="0.5"/><path d="M735.552,149.884a.677.677,0,0,1-.377-.818.325.325,0,0,0,.015-.075h0a.339.339,0,0,0-.609-.225h0a.319.319,0,0,0-.038.067.677.677,0,0,1-.818.377.323.323,0,0,0-.075-.015h0a.339.339,0,0,0-.225.61h0a.326.326,0,0,0,.067.038.677.677,0,0,1,.377.818.318.318,0,0,0-.015.075h0a.339.339,0,0,0,.609.225h0a.314.314,0,0,0,.038-.067.677.677,0,0,1,.818-.377.324.324,0,0,0,.075.015h0a.339.339,0,0,0,.225-.61h0A.329.329,0,0,0,735.552,149.884Z" transform="translate(-577.782 -136.728)" fill="#4d8af0" opacity="0.5"/><path d="M325.97,413.892a.676.676,0,0,1-.377-.818.329.329,0,0,0,.015-.075h0a.339.339,0,0,0-.609-.225h0a.322.322,0,0,0-.038.067.677.677,0,0,1-.818.377.32.32,0,0,0-.075-.015h0a.339.339,0,0,0-.225.609h0a.329.329,0,0,0,.067.038.677.677,0,0,1,.377.818.326.326,0,0,0-.015.075h0a.339.339,0,0,0,.609.225h0a.325.325,0,0,0,.038-.067.677.677,0,0,1,.818-.377.322.322,0,0,0,.075.015h0a.339.339,0,0,0,.225-.609h0A.332.332,0,0,0,325.97,413.892Z" transform="translate(-321.018 -302.233)" fill="#4d8af0" opacity="0.5"/><path d="M339.293,600.424a.676.676,0,0,1-.377-.818.321.321,0,0,0,.015-.075h0a.339.339,0,0,0-.609-.225h0a.325.325,0,0,0-.038.067.676.676,0,0,1-.818.377.331.331,0,0,0-.075-.015h0a.339.339,0,0,0-.225.609h0a.321.321,0,0,0,.067.037.677.677,0,0,1,.377.818.323.323,0,0,0-.015.075h0a.339.339,0,0,0,.609.225h0a.333.333,0,0,0,.038-.067.677.677,0,0,1,.818-.377.314.314,0,0,0,.075.015h0a.339.339,0,0,0,.225-.609h0A.325.325,0,0,0,339.293,600.424Z" transform="translate(-329.37 -419.168)" fill="#4d8af0" opacity="0.5"/><circle cx="1.105" cy="1.105" r="1.105" transform="translate(91.691 49.067)" fill="#f55f44" opacity="0.5"/><circle cx="1.105" cy="1.105" r="1.105" transform="translate(121.518 193.232)" fill="#4d8af0" opacity="0.5"/><circle cx="1.105" cy="1.105" r="1.105" transform="translate(189.458 78.895)" fill="#4d8af0" opacity="0.5"/><circle cx="1.105" cy="1.105" r="1.105" transform="translate(209.343 128.606)" fill="#47e6b1" opacity="0.5"/><circle cx="1.105" cy="1.105" r="1.105" transform="translate(135.327 3.222)" fill="#f55f44" opacity="0.5"/><rect width="8.299" height="10.67" transform="translate(88.482 62.484) rotate(-177.779)" fill="#fff212"/><path d="M632.327,350.342s11.484-5.487,11.3-.748-11.576,7.856-11.576,7.856Z" transform="translate(-514.316 -261.501)" fill="#ffb9b9"/><path d="M535.843,451.645s5.418,13.261,7.42,22.83,5.05,22.738,1.129,32.077-15.07,36.788-15.185,39.75.955,5.969-1.414,5.877-15.263-4.151-15.786-5.951,4.4-6.355,4.4-6.355l12.155-38.088-12.682-24.814L506.73,513.99l-1.792,46.2s-8.793-2.714-10.07-.39c0,0-3.94-5.492-4.44-7.884s1.86-47.978,1.86-47.978-8.071-51.923-1.556-51.67S522.771,436.9,535.843,451.645Z" transform="translate(-424.133 -322.709)" fill="#fff212"/><path d="M563.731,718.542s6.01,13.284,6.58,13.9,4.486,6.7,1.524,6.585-9.955-3.352-15.1-8.3-11.933-13.513-11.318-14.083a34.947,34.947,0,0,1,4.831-2.185Z" transform="translate(-459.98 -491.441)" fill="#575a89"/><path d="M511.173,743.359s.363,5.946,1.455,8.361.955,5.969-2.007,5.854-10.616-1.6-10.616-1.6-.454-3.577.161-4.146,3.237-6.993,2.122-8.816S511.173,743.359,511.173,743.359Z" transform="translate(-431.437 -508.885)" fill="#575a89"/><path d="M502.831,227.981s-6.314,9.84-8.775,12.117,4.463,7.292,4.463,7.292l12.393,1.667s-.156-11.277.482-12.439S502.831,227.981,502.831,227.981Z" transform="translate(-427.477 -186.471)" fill="#ffb9b9"/><path d="M506.793,257.935s-2.553,4.647-4.922,4.555-14.624-5.313-15.148-7.113-4.059,12.893-4.059,12.893l29.987,52.772,7.315-5.055L516.421,285,513.51,268.28Z" transform="translate(-420.666 -203.55)" fill="#fff212"/><path d="M469.879,299.175a16.6,16.6,0,0,1,1.84,7.783c0,.118-.009.237-.02.355-.284,5.482-2.3,11.822-3.028,16.433-.526,3.308-.376,5.722,1.56,6.289,4.693,1.368-.684,2.346,17.471,8.389s21.324.827,21.37-.358-2.571-10.184-1.956-10.754,8.609,7.452,11.025,6.36.276-7.108.276-7.108-5.441-12.668-5.326-15.63-8.242-16.93-8.242-16.93l-5.684-37s-2.186-4.83-5.124-5.538a7.28,7.28,0,0,0-5.377.978l4.917,10.869,5.188,19.184-.868,7.085s-6.033-12.691-10-17.591-12.411-16.5-12.411-16.5-1.972-6.655-.483-8.644-6.211-2.293-9.494,5.884c-1.74,4.334-4.565,10.8-6.335,16.815-1.577,5.331-2.322,10.315-.76,13.164C460.809,287.065,466.816,292.786,469.879,299.175Z" transform="translate(-404.928 -197.56)" fill="#3f3d56"/><path d="M458.421,320.363c2.388,4.352,8.395,10.072,11.457,16.461.8-2.882,1.776-5.863,1.776-5.863s3.743-20.024-7.328-25.2a7.409,7.409,0,0,0-5.146,1.438C457.6,312.531,456.859,317.514,458.421,320.363Z" transform="translate(-404.928 -235.21)" opacity="0.1"/><path d="M576.115,341.572l9.385,2.737,13.031.505,1.341,11.323-21.416,1.542S573.108,342.642,576.115,341.572Z" transform="translate(-478.675 -257.681)" fill="#3f3d56"/><path d="M529.417,443.612s12.556,2.083,9.69,5.861-13.988-.194-13.988-.194Z" transform="translate(-447.281 -321.649)" fill="#ffb9b9"/><path d="M490.369,410.885c-.284,5.482-2.3,11.822-3.028,16.433,4,3.786,7.8,7.125,9.237,7.18,2.962.115,7.723-.294,9.477.368s2.783-10.57,2.783-10.57-1.047-3.6-5.717-5.56A65.034,65.034,0,0,1,490.369,410.885Z" transform="translate(-423.599 -301.133)" opacity="0.1"/><path d="M460.1,296.227s-10.024-1.575-9.482,15.056-1.057,27.247,2.975,30.369,17.127,17.274,20.088,17.389,7.723-.294,9.477.368,2.783-10.57,2.783-10.57-1.047-3.6-5.717-5.561S464.553,334.365,464.645,332s2.783-10.57,2.783-10.57S471.17,301.4,460.1,296.227Z" transform="translate(-400.564 -229.229)" fill="#3f3d56"/><circle cx="13.041" cy="13.041" r="13.041" transform="translate(71.152 29.998)" fill="#ffb9b9"/><path d="M525.909,177.558a2.517,2.517,0,0,0,1.1.55.782.782,0,0,0,.907-.628,3.252,3.252,0,0,0,1.244,1.6c.609.318,1.551.051,1.639-.63a2.875,2.875,0,0,0,.662,1.4.991.991,0,0,0,1.393.047,35.812,35.812,0,0,0-.186,4.437,5.649,5.649,0,0,1-1.6,4.021c-1.63,1.419-4.082,1.069-6.227.8a1.89,1.89,0,0,0-.976.053c-.8.342-.767,1.46-.777,2.333a6.482,6.482,0,0,1-5.676,6.155A3.249,3.249,0,0,1,515,197.1c-.609-.516-.92-1.357-1.618-1.745-1.135-.631-2.512.289-3.341,1.288s-1.648,2.227-2.933,2.41c-1.7.242-3-1.491-3.63-3.086a17.993,17.993,0,0,1,.357-13.98C507.382,174.247,519.509,173.023,525.909,177.558Z" transform="translate(-432.935 -153.21)" fill="#2f2e41"/></g></svg>