<svg xmlns="http://www.w3.org/2000/svg" width="150" height="150.085" viewBox="0 0 150 150.085"><g transform="translate(-445 -2639.759)"><circle cx="75" cy="75" r="75" transform="translate(445 2639.844)" fill="#fff212"/><g transform="translate(435.98 2639.759)"><rect width="79.023" height="120.703" transform="translate(54.698 9.241)" fill="#f2f2f2"/><path d="M260.265,234.947h-87.51V104.814h87.51Zm-87.133-.377h86.755V105.191H173.132Z" transform="translate(-118.245 -104.814)" fill="#3f3d56"/><circle cx="0.566" cy="0.566" r="0.566" transform="translate(56.207 1.509)" fill="#3f3d56"/><circle cx="0.566" cy="0.566" r="0.566" transform="translate(58.282 1.509)" fill="#3f3d56"/><circle cx="0.566" cy="0.566" r="0.566" transform="translate(60.356 1.509)" fill="#3f3d56"/><circle cx="0.566" cy="0.566" r="0.566" transform="translate(62.431 1.509)" fill="#3f3d56"/><circle cx="0.566" cy="0.566" r="0.566" transform="translate(64.506 1.509)" fill="#3f3d56"/><rect width="8.298" height="0.754" transform="translate(93.738 1.697)" fill="#3f3d56"/><rect width="5.847" height="0.754" transform="translate(58.093 5.658)" fill="#3f3d56"/><rect width="5.847" height="0.754" transform="translate(58.093 6.789)" fill="#3f3d56"/><rect width="5.847" height="0.754" transform="translate(58.093 7.921)" fill="#3f3d56"/><rect width="67.141" height="47.15" transform="translate(66.58 40.36)" fill="#3f3d56"/><rect width="25.272" height="5.469" transform="translate(71.106 47.904)" fill="#f2f2f2"/><rect width="8.298" height="5.469" transform="translate(118.256 79.211)" fill="#f2f2f2"/><rect width="25.272" height="5.469" transform="translate(71.106 58.088)" fill="#f2f2f2"/><rect width="25.272" height="5.469" transform="translate(71.106 68.273)" fill="#f2f2f2"/><path d="M510.152,365.279v-.64a1.846,1.846,0,0,1-.97-.279l.152-.425a1.69,1.69,0,0,0,.913.273c.45,0,.754-.26.754-.621s-.247-.564-.716-.755c-.647-.254-1.046-.545-1.046-1.1a1.04,1.04,0,0,1,.957-1.021v-.64h.393v.615a1.692,1.692,0,0,1,.824.222l-.159.418a1.532,1.532,0,0,0-.8-.216c-.488,0-.672.292-.672.545,0,.33.235.495.786.723.653.266.983.6.983,1.16a1.1,1.1,0,0,1-1,1.078v.659Z" transform="translate(-391.222 -311.932)" fill="#3fa9e0"/><path d="M527.151,365.279v-.64a1.846,1.846,0,0,1-.97-.279l.152-.425a1.69,1.69,0,0,0,.913.273c.45,0,.755-.26.755-.621s-.247-.564-.716-.755c-.647-.254-1.046-.545-1.046-1.1a1.04,1.04,0,0,1,.957-1.021v-.64h.393v.615a1.692,1.692,0,0,1,.824.222l-.159.418a1.532,1.532,0,0,0-.8-.216c-.488,0-.672.292-.672.545,0,.33.235.495.786.723.653.266.983.6.983,1.16a1.1,1.1,0,0,1-1,1.078v.659Z" transform="translate(-405.016 -311.932)" fill="#3fa9e0"/><path d="M544.152,365.279v-.64a1.846,1.846,0,0,1-.97-.279l.152-.425a1.691,1.691,0,0,0,.913.273c.45,0,.755-.26.755-.621s-.247-.564-.716-.755c-.647-.254-1.046-.545-1.046-1.1a1.04,1.04,0,0,1,.957-1.021v-.64h.393v.615a1.692,1.692,0,0,1,.824.222l-.159.418a1.532,1.532,0,0,0-.8-.216c-.488,0-.672.292-.672.545,0,.33.235.495.786.723.653.266.983.6.983,1.16a1.1,1.1,0,0,1-1,1.078v.659Z" transform="translate(-418.81 -311.932)" fill="#3fa9e0"/><path d="M510.152,418.279v-.64a1.847,1.847,0,0,1-.97-.279l.152-.425a1.69,1.69,0,0,0,.913.273c.45,0,.754-.26.754-.621s-.247-.564-.716-.755c-.647-.254-1.046-.545-1.046-1.1a1.04,1.04,0,0,1,.957-1.021v-.64h.393v.615a1.692,1.692,0,0,1,.824.222l-.159.418a1.532,1.532,0,0,0-.8-.216c-.488,0-.672.292-.672.545,0,.33.235.495.786.723.653.266.983.6.983,1.16a1.1,1.1,0,0,1-1,1.078v.659Z" transform="translate(-391.222 -354.937)" fill="#3fa9e0"/><path d="M527.151,418.279v-.64a1.847,1.847,0,0,1-.97-.279l.152-.425a1.69,1.69,0,0,0,.913.273c.45,0,.755-.26.755-.621s-.247-.564-.716-.755c-.647-.254-1.046-.545-1.046-1.1a1.04,1.04,0,0,1,.957-1.021v-.64h.393v.615a1.692,1.692,0,0,1,.824.222l-.159.418a1.532,1.532,0,0,0-.8-.216c-.488,0-.672.292-.672.545,0,.33.235.495.786.723.653.266.983.6.983,1.16a1.1,1.1,0,0,1-1,1.078v.659Z" transform="translate(-405.016 -354.937)" fill="#3fa9e0"/><path d="M544.152,418.279v-.64a1.847,1.847,0,0,1-.97-.279l.152-.425a1.691,1.691,0,0,0,.913.273c.45,0,.754-.26.754-.621s-.247-.564-.716-.755c-.647-.254-1.046-.545-1.046-1.1a1.04,1.04,0,0,1,.957-1.021v-.64h.393v.615a1.692,1.692,0,0,1,.824.222l-.159.418a1.532,1.532,0,0,0-.8-.216c-.488,0-.672.292-.672.545,0,.33.235.495.786.723.653.266.983.6.983,1.16a1.1,1.1,0,0,1-1,1.078v.659Z" transform="translate(-418.81 -354.937)" fill="#3fa9e0"/><path d="M510.152,471.279v-.64a1.846,1.846,0,0,1-.97-.279l.152-.425a1.69,1.69,0,0,0,.913.273c.45,0,.754-.26.754-.621s-.247-.564-.716-.755c-.647-.254-1.046-.545-1.046-1.1a1.04,1.04,0,0,1,.957-1.021v-.64h.393v.615a1.692,1.692,0,0,1,.824.222l-.159.418a1.533,1.533,0,0,0-.8-.216c-.488,0-.672.292-.672.545,0,.33.235.495.786.723.653.266.983.6.983,1.16a1.1,1.1,0,0,1-1,1.078v.659Z" transform="translate(-391.222 -397.941)" fill="#3fa9e0"/><path d="M527.151,471.279v-.64a1.846,1.846,0,0,1-.97-.279l.152-.425a1.691,1.691,0,0,0,.913.273c.45,0,.755-.26.755-.621s-.247-.564-.716-.755c-.647-.254-1.046-.545-1.046-1.1a1.04,1.04,0,0,1,.957-1.021v-.64h.393v.615a1.691,1.691,0,0,1,.824.222l-.159.418a1.533,1.533,0,0,0-.8-.216c-.488,0-.672.292-.672.545,0,.33.235.495.786.723.653.266.983.6.983,1.16a1.1,1.1,0,0,1-1,1.078v.659Z" transform="translate(-405.016 -397.941)" fill="#3fa9e0"/><path d="M544.151,471.279v-.64a1.846,1.846,0,0,1-.97-.279l.152-.425a1.691,1.691,0,0,0,.913.273c.45,0,.755-.26.755-.621s-.247-.564-.716-.755c-.647-.254-1.046-.545-1.046-1.1a1.04,1.04,0,0,1,.957-1.021v-.64h.393v.615a1.692,1.692,0,0,1,.824.222l-.159.418a1.532,1.532,0,0,0-.8-.216c-.488,0-.672.292-.672.545,0,.33.235.495.786.723.653.266.983.6.983,1.16a1.1,1.1,0,0,1-1,1.078v.659Z" transform="translate(-418.81 -397.941)" fill="#3fa9e0"/><path d="M403.207,427.964l-1.254-1.672.3-.223,1.021,1.362,4.021-3.29.235.287Z" transform="translate(-281.916 -344.15)" fill="#3f3d56"/><rect width="0.943" height="0.943" transform="translate(134.145 1.732)" fill="#3fa9e0"/><rect width="0.943" height="0.943" transform="translate(135.653 1.732)" fill="#3fa9e0"/><rect width="0.943" height="0.943" transform="translate(137.162 1.732)" fill="#3fa9e0"/><rect width="0.943" height="0.943" transform="translate(138.671 1.732)" fill="#f2f2f2"/></g></g></svg>