<svg xmlns="http://www.w3.org/2000/svg" width="167" height="150" viewBox="0 0 167 150"><g transform="translate(-713 -2393.844)"><circle cx="75" cy="75" r="75" transform="translate(713 2393.844)" fill="#fff212"/><g transform="translate(716.171 2400.169)"><path d="M465.1,398.128s13.433.647,14.242,5.341-15.7.486-15.7.486Z" transform="translate(-403.8 -355.008)" fill="#a0616a"/><path d="M336.618,306.128s2.266.647,4.046,4.531A30.385,30.385,0,0,0,346,318.1l14.4,2.751-2.428,7.283-13.756-1.78-8.577-4.855Z" transform="translate(-296.515 -277.898)" fill="#575a89"/><path d="M336.618,306.128s2.266.647,4.046,4.531A30.385,30.385,0,0,0,346,318.1l14.4,2.751-2.428,7.283-13.756-1.78-8.577-4.855Z" transform="translate(-296.515 -277.898)" fill="#3b9bd5" opacity="0.69"/><rect width="16.993" height="0.324" transform="translate(133.402 15.041)" fill="#3f3d56"/><rect width="53.892" height="0.324" transform="translate(66.24 15.041)" fill="#3f3d56"/><rect width="127.69" height="48.713" transform="translate(4.903 54.044)" fill="#707d79"/><path d="M115.793,108.318l1.457,9.225,10.034.486-1.133-13.594Z" transform="translate(-97.053 -87.532)" fill="#a0616a"/><path d="M141.633,624.672l-.486,20.392H156.36l2.266-8.092,1.78,8.092h15.86s.324-23.3-1.457-23.467S141.633,624.672,141.633,624.672Z" transform="translate(-133.493 -542.307)" fill="#2f2e41"/><circle cx="8.739" cy="8.739" r="8.739" transform="translate(13.238 5.735)" fill="#a0616a"/><path d="M131.1,342.779l4.531-22.334-5.988-29.616,13.791-5.175,6.763-.813,3.4-.635,2.427.635s9.71,2.428,10.2,4.208-1.942,16.346-1.942,16.346l-2.266,11.976,5.017,21.525s-20.877,7.121-35.6,3.884Z" transform="translate(-123.854 -259.524)" fill="#3b9bd5"/><path d="M82.293,243.934v5.988l19.1.026L83.264,247.98Z" transform="translate(-68.974 -204.456)" opacity="0.1"/><path d="M72.159,328.363l23.974-3.429-23.974,6.79Z" transform="translate(-60.48 -272.347)" opacity="0.1"/><path d="M293.982,248.934l-2.57,9.261,4.35-8.956Z" transform="translate(-244.25 -208.647)" opacity="0.1"/><path d="M174.716,137.4l1.607-.643s-3.36-3.7-8.035-3.378l1.315-1.448s-3.214-1.287-6.136,2.091a28.519,28.519,0,0,0-4.421,6.214h-1.721l.718,1.582-2.514,1.582,2.58-.284a8.839,8.839,0,0,0-.07,2.623,3.394,3.394,0,0,0,1.243,2.221h0a35.674,35.674,0,0,0,1.993-4.769V144.8s1.607-1.448,1.607-2.413l.877,1.126.438-1.769,5.406,1.769-.877-1.448,3.36.483-1.315-1.769s3.8,2.091,3.945,3.86a8.495,8.495,0,0,0,1.258,3.446S178.953,139.816,174.716,137.4Z" transform="translate(-145.547 -131.694)" fill="#2f2e41"/><rect width="62.146" height="64.897" transform="translate(37.756 38.022)" fill="#dcdedd"/><rect width="45.962" height="6.474" transform="translate(44.23 52.263)" fill="#15a37d"/><rect width="30.101" height="3.237" transform="translate(52.131 69.418)" fill="#707d79"/><rect width="30.101" height="3.237" transform="translate(52.189 75.083)" fill="#707d79"/><rect width="15.05" height="3.237" transform="translate(52.247 80.747)" fill="#707d79"/><rect width="6.959" height="3.237" transform="translate(84.042 97.093)" fill="#fff212"/><path d="M299.647,413.491s14.08-2.1,16.184.971-14.889,4.693-14.889,4.693Z" transform="translate(-266.341 -367.296)" fill="#a0616a"/><path d="M101.265,324.128h-1.014a1.653,1.653,0,0,0-1.126.438,13.663,13.663,0,0,0-3.848,7.33c-1.133,5.5-3.075,16.184,1.295,16.993s33.015-3.075,33.015-3.075l-2.1-7.445-20.715.162a20.012,20.012,0,0,0-.324-5.826C105.8,330.44,101.265,324.128,101.265,324.128Z" transform="translate(-93.853 -292.984)" fill="#3b9bd5"/><circle cx="6.635" cy="6.635" r="6.635" transform="translate(59.604 8.567)" fill="#dcdedd"/><circle cx="6.635" cy="6.635" r="6.635" transform="translate(89.868 8.567)" fill="#15a37d"/><path d="M841.944,197.222a6.8,6.8,0,1,1,6.8-6.8A6.8,6.8,0,0,1,841.944,197.222Zm0-13.271a6.474,6.474,0,1,0,6.474,6.474A6.474,6.474,0,0,0,841.944,183.952Z" transform="translate(-715.177 -175.223)" fill="#3f3d56"/><path d="M1028.947,197.222a6.8,6.8,0,1,1,6.8-6.8A6.8,6.8,0,0,1,1028.947,197.222Zm0-13.271a6.474,6.474,0,1,0,6.474,6.474A6.474,6.474,0,0,0,1028.947,183.952Z" transform="translate(-871.916 -175.223)" fill="#3f3d56"/><path d="M388.749,54.032,385.873,50.2l1.036-.777,1.98,2.64,9.1-9.1.915.915Z" transform="translate(-323.424 -36.006)" fill="#15a37d"/><rect width="132.156" height="0.45" transform="translate(2.67 102.578)" fill="#3f3d56"/></g></g></svg>