<svg xmlns="http://www.w3.org/2000/svg" width="164.088" height="191.471" viewBox="0 0 164.088 191.471"><g transform="translate(-439 -2110.529)"><circle cx="75" cy="75" r="75" transform="translate(439 2122)" fill="#fff212"/><g transform="translate(141.477 2110.529)"><path d="M552.428,176.567V152.982h11.792V141.5H506.5v57.721h49.342v-5.644a8.011,8.011,0,0,1,8.011-8.011h.368v-9Z" transform="translate(-198.5 -141.5)" fill="#f0f0f0"/><rect width="38.629" height="7.971" transform="translate(379.127 149.163)" fill="#1d2926"/><rect width="56.411" height="7.358" transform="translate(369.929 109.307)" fill="#f0f0f0"/><path d="M743.38,430.215H672.821a8.331,8.331,0,0,1-8.321-8.321V290.821a8.331,8.331,0,0,1,8.321-8.321H743.38a8.331,8.331,0,0,1,8.321,8.321V421.894A8.331,8.331,0,0,1,743.38,430.215ZM672.821,283.121a7.709,7.709,0,0,0-7.7,7.7V421.894a7.709,7.709,0,0,0,7.7,7.7H743.38a7.709,7.709,0,0,0,7.7-7.7V290.821a7.709,7.709,0,0,0-7.7-7.7Z" transform="translate(-307.469 -238.744)" fill="#3f3d56"/><path d="M773.862,294.224a1.862,1.862,0,1,1,1.862-1.862A1.862,1.862,0,0,1,773.862,294.224Zm0-3.1a1.241,1.241,0,1,0,1.241,1.241A1.241,1.241,0,0,0,773.862,291.121Z" transform="translate(-381.608 -244.261)" fill="#3f3d56"/><rect width="13.654" height="0.621" transform="translate(396.908 47.79)" fill="#3f3d56"/><path d="M872.326,311.5v24.826A24.827,24.827,0,0,1,847.5,311.5Z" transform="translate(-433.679 -258.745)" fill="#fff212"/><path d="M758.151,441.147H681.5V310.5h76.651Zm-76.03-.621H757.53V311.121H682.121Z" transform="translate(-319.193 -258.055)" fill="#3f3d56"/><ellipse cx="8.278" cy="8.584" rx="8.278" ry="8.584" transform="translate(412.237 59.028)" opacity="0.1"/><circle cx="8.278" cy="8.278" r="8.278" transform="translate(411.011 60.255)" fill="#fff212"/><rect width="11.65" height="4.292" transform="translate(365.637 57.802)" fill="#3f3d56"/><rect width="11.65" height="4.292" transform="translate(372.382 98.884)" fill="#3f3d56"/><path d="M770.6,494.568H713.5V486.5h57.1Zm-56.479-.621h55.859v-6.827H714.121Z" transform="translate(-341.263 -379.438)" fill="#3f3d56"/><rect width="56.411" height="7.358" transform="translate(369.929 132.608)" fill="#f0f0f0"/><rect width="11.65" height="4.292" transform="translate(372.382 122.797)" fill="#3f3d56"/><path d="M770.6,570.568H713.5V562.5h57.1Zm-56.479-.621h55.859v-6.827H714.121Z" transform="translate(-341.263 -431.853)" fill="#3f3d56"/><path d="M781.6,622.189H742.5V613.5h39.1Zm-38.48-.621h37.86v-7.448h-37.86Z" transform="translate(-361.263 -467.026)" fill="#3f3d56"/><path d="M878.7,495.6a3.1,3.1,0,0,1-5.5,1.977l0,0a3.1,3.1,0,1,1,5.409-2.709v0h0A3.169,3.169,0,0,1,878.7,495.6Z" transform="translate(-450.918 -383.575)" fill="#fff212"/><path d="M880.086,498.362a3.1,3.1,0,0,1-5.5,1.977l0,0a3.173,3.173,0,0,1-.087-.732,3.1,3.1,0,0,1,5.5-1.977v0h0a3.172,3.172,0,0,1,.087.732Z" transform="translate(-452.3 -386.334)" opacity="0.1"/><ellipse cx="3.066" cy="3.372" rx="3.066" ry="3.372" transform="translate(422.661 110.534)" fill="#fff212"/><path d="M878.7,571.6a3.1,3.1,0,0,1-5.5,1.977l0,0a3.1,3.1,0,1,1,5.409-2.709,0,0,0,0,0,0,0h0A3.17,3.17,0,0,1,878.7,571.6Z" transform="translate(-450.918 -435.991)" fill="#fff212"/><path d="M880.086,574.362a3.1,3.1,0,0,1-5.5,1.977l0,0a3.173,3.173,0,0,1-.087-.732,3.1,3.1,0,0,1,5.5-1.977,0,0,0,0,0,0,0h0A3.173,3.173,0,0,1,880.086,574.362Z" transform="translate(-452.3 -438.749)" opacity="0.1"/><circle cx="3.066" cy="3.066" r="3.066" transform="translate(422.661 134.447)" fill="#fff212"/><rect width="15.942" height="15.942" transform="translate(357.666 14.881)" fill="#f0f0f0"/><path d="M861.224,210.948a3.724,3.724,0,1,1,3.724-3.724A3.724,3.724,0,0,1,861.224,210.948Zm0-6.827a3.1,3.1,0,1,0,3.1,3.1,3.1,3.1,0,0,0-3.1-3.1Z" transform="translate(-440.576 -184.26)" fill="#3f3d56"/><path d="M587.568,376.568H579.5V368.5h8.068Zm-7.448-.621h6.827v-6.827h-6.827Z" transform="translate(-248.846 -298.056)" fill="#3f3d56"/><path d="M983.568,570.568H975.5V562.5h8.068Zm-7.448-.621h6.827v-6.827h-6.827Z" transform="translate(-521.957 -431.853)" fill="#3f3d56"/></g></g></svg>