<svg xmlns="http://www.w3.org/2000/svg" xmlns:xlink="http://www.w3.org/1999/xlink" width="270.559" height="250.838" viewBox="0 0 270.559 250.838"><defs><linearGradient id="a" x1="0.5" y1="1" x2="0.5" gradientUnits="objectBoundingBox"><stop offset="0" stop-color="gray" stop-opacity="0.251"/><stop offset="0.54" stop-color="gray" stop-opacity="0.122"/><stop offset="1" stop-color="gray" stop-opacity="0.102"/></linearGradient><linearGradient id="b" x1="0.507" y1="1.003" x2="0.507" y2="0" xlink:href="#a"/></defs><g transform="translate(3.003 -0.18)"><ellipse cx="65.36" cy="4.998" rx="65.36" ry="4.998" transform="translate(81.84 241.021)" fill="#245e80"/><path d="M225.881,85.877c9.163-8.179,23.579-9.846,36.7-9.187,41.2,2.045,78.387,21.935,110.549,44.433,11.643,8.146,23.109,16.922,30.67,28.137,15.388,22.831,10.821,54.462-10.576,73.27-7.28,6.4-16.1,11.306-25.163,15.666-16.109,7.733-33.493,13.94-51.775,15.7-13.038,1.262-26.239.236-39.2-1.522C240.873,247.448,205.326,236.6,175.531,218c-13.068-8.149-25.385-18.279-30.771-31.465s-1.939-29.89,11.4-37.693c5.519-3.228,12.119-4.685,18.578-6.054,9.509-2.016,19.172-4,27.753-8.1,8.868-4.233,19.355-12.415,17.6-21.776C218.214,102.873,216.718,94.047,225.881,85.877Z" transform="translate(-145.33 -56.561)" fill="#dcdedd"/><path d="M558.622,47.3v.529a3.408,3.408,0,0,1-.021.455v.095c0,.127-.015.254-.027.378v.109a.4.4,0,0,1,0,.059,3.406,3.406,0,0,1-.03.346c-.012.115-.021.183-.029.278-.027.228-.056.455-.092.683-.021.151-.044.3-.068.449a.116.116,0,0,0,0,.033c-.015.074-.027.148-.042.225s-.015.086-.023.13a.326.326,0,0,1-.024.118,1.5,1.5,0,0,0-.047.236c-.018.077-.033.157-.05.236s-.023.115-.038.174-.044.2-.068.3a.036.036,0,0,0,0,.018l-.053.2-.062.248c-.026.1-.056.2-.083.3a.1.1,0,0,1-.024.08l-.089.3c-.094.313-.2.627-.3.937l-.106.3-.062.163a20.985,20.985,0,0,1-2.882,5.179c-.071.1-.148.2-.222.3a22.075,22.075,0,0,1-1.818,2.069L522.143,92.436,491.923,62.209a21.409,21.409,0,0,1-2.365-2.814,20.649,20.649,0,0,1-1.23-1.963,21.385,21.385,0,0,1-2.583-12.152c.033-.387.077-.774.13-1.159.095-.68.225-1.357.384-2.028.033-.136.068-.272.1-.4.018-.068.035-.139.053-.2s.021-.083.032-.124l.089-.3h0c.071-.234.142-.467.219-.7l.109-.319c.16-.452.331-.887.52-1.342l.115-.263c.059-.133.118-.266.18-.4.1-.213.2-.426.3-.636l.027-.047h0c.047-.1.1-.189.148-.3l.174-.322c.074-.133.151-.266.228-.4.035-.062.074-.124.109-.189s.044-.068.065-.106a.146.146,0,0,0,0-.021h0c.047-.077.094-.154.145-.231s.109-.174.166-.26c.124-.192.251-.384.381-.573l.139-.2.174-.239c.059-.086.121-.168.186-.251l.225-.3c.071-.086.139-.174.207-.26l.074-.089.151-.183c.077-.095.157-.186.236-.278l.1-.121.018-.021.18-.2.2-.222c.189-.2.384-.408.591-.591l.234-.231.364-.343c.08-.074.16-.148.242-.219s.189-.171.3-.254l.189-.16c.062-.056.127-.109.189-.16a4.812,4.812,0,0,1,.384-.3l.2-.154c.325-.248.653-.488.99-.718l.2-.136.2-.133.192-.124.3-.177.142-.086.207-.121c.278-.163.556-.319.837-.467l.168-.089.26-.133.216-.106.216-.1.216-.1.219-.1.219-.095c.3-.127.591-.245.887-.358l.192-.118.237-.086.21-.074.177-.059.408-.13.21-.065.169-.047.166-.047q.148-.044.3-.08l.39-.1c.4-.1.807-.186,1.212-.26l.166-.03.23-.038.237-.038.3-.044.174-.024c.39-.05.78-.092,1.182-.121h2.746a1.7,1.7,0,0,1,.3.018h.2c.313.024.627.056.937.092l.42.056.3.041.234.038.233.038.154.027q.606.112,1.206.257l.491.127.136.038.21.059c.136.038.272.077.405.121l.177.056q.443.136.887.3l.2.074.263.1.4.16c.154.065.3.13.452.2l.177.077.242.115.216.1.213.106.269.136.213.112c.166.089.331.177.494.272l.207.118c.242.139.479.3.715.435l.192.124.2.133.2.136h0l.133.092c.3.2.565.4.842.618l.2.154c.127.1.257.2.384.3.062.05.127.1.189.16l.189.16.3.254c.083.071.163.145.242.219l.34.361.233.231.237-.231.361-.343c.08-.074.16-.148.242-.219s.189-.171.3-.254l.189-.16c.062-.056.127-.109.189-.16a4.812,4.812,0,0,1,.384-.3l.2-.154c.325-.248.653-.488.99-.718l.2-.136.2-.133.192-.124.281-.177.142-.086.207-.121c.278-.163.556-.319.836-.467l.169-.089.26-.133.216-.106.216-.1.216-.1.219-.1.219-.095c.3-.127.591-.245.887-.358.071-.027.145-.056.219-.08l.234-.086.213-.074.174-.059.408-.13.21-.065.168-.047.166-.047c.1-.03.2-.056.3-.08l.387-.1c.4-.1.807-.186,1.212-.26l.165-.03.231-.038.237-.038.3-.044.174-.024c.39-.05.78-.092,1.182-.121h2.719a1.7,1.7,0,0,1,.3.018h.2c.313.024.627.056.937.092l.42.056.3.041.234.038.233.038.154.027q.606.112,1.206.257l.491.127.136.038.21.059c.136.038.272.077.408.121l.174.056c.3.092.591.192.887.3l.2.074.263.1.4.16c.154.065.3.13.452.2l.177.077.242.115.216.1.213.106.269.136.216.112c.162.089.328.177.491.272l.207.118c.242.139.482.3.715.435l.192.124.2.133.2.136h.015l.133.092c.3.2.565.4.842.618l.2.154c.127.1.257.2.384.3.062.05.127.1.189.16l.189.16.245.219c.083.074.166.148.245.225l.139.127h0a.146.146,0,0,1,.021.021c.08.071.157.148.236.222l.106.1c.041.044.083.086.127.127l.234.239c.118.121.237.245.352.372.068.071.136.145.2.219.112.124.222.248.331.375l.349.417c.4.491.771.993,1.123,1.507l.142.216c.053.077.1.154.151.231l.127.2c.071.115.142.228.21.343l.186.319c.038.065.077.13.112.2l.086.154.086.154.124.234.121.234q.417.816.757,1.664l.1.239c.092.234.177.464.26.7l.074.213c.033.1.068.2.1.3s.059.18.086.272l.053.171c.027.083.05.166.074.248s.056.2.086.3c.044.166.086.331.127.5l.062.26c.03.124.056.248.083.372a.757.757,0,0,0,.033.16c.012.053.03.142.041.213s.024.112.033.168l.027.142a.266.266,0,0,0,.024.133c.024.044,0,.086.021.13l.044.266a1.643,1.643,0,0,0,.038.266c.015.089.027.2.039.3s.024.189.032.3l.018.163c0,.1.021.2.029.3V45.3c0,.1.018.2.024.3a.044.044,0,0,1,0,.021V46a2.3,2.3,0,0,0,.015.319h0v.328A3.78,3.78,0,0,1,558.622,47.3Z" transform="translate(-382.371 -25.61)" fill="#b93336"/><path d="M560.018,47.3v.529a3.458,3.458,0,0,1-.02.455v.095c0,.127-.015.254-.027.378v.109a.434.434,0,0,1,0,.059,3.389,3.389,0,0,1-.03.346c-.012.115-.021.183-.03.278-.027.228-.056.455-.092.683-.021.151-.044.3-.068.449a.135.135,0,0,0,0,.033c-.015.074-.027.148-.042.225s-.015.086-.024.13a.324.324,0,0,1-.024.118,1.533,1.533,0,0,0-.047.236c-.018.077-.032.157-.05.236s-.024.115-.038.174-.044.2-.068.3a.04.04,0,0,0,0,.018l-.053.2-.062.248c-.027.1-.056.2-.083.3a.1.1,0,0,1-.024.08l-.089.3c-.095.313-.2.627-.3.937l-.107.3-.062.163a21.386,21.386,0,0,0-9.323-23.056q-.576-.367-1.165-.692a21.365,21.365,0,0,0-25.45,3.653,21.419,21.419,0,0,0-2.61-2.217h0a21.039,21.039,0,0,0-2.211-1.4,21.415,21.415,0,0,0-20.579,0,21.113,21.113,0,0,0-3.036,2.028,21.838,21.838,0,0,0-5.321,6.228.108.108,0,0,1,0,.027,20.32,20.32,0,0,0-.913,1.83c-.154.343-.3.692-.429,1.04.033-.136.068-.272.1-.4.018-.068.035-.139.053-.2s.021-.083.033-.124l.089-.3h0c.071-.234.142-.467.219-.7l.109-.319c.16-.452.331-.887.52-1.342l.115-.263c.059-.133.118-.266.18-.4.1-.213.2-.426.3-.636l.027-.047h0c.047-.1.1-.189.148-.3l.174-.322c.074-.133.151-.266.228-.4.036-.062.074-.124.109-.189s.044-.068.065-.106a.13.13,0,0,0,0-.021h0c.047-.077.095-.154.145-.231s.109-.174.166-.26c.124-.192.251-.384.381-.573l.139-.2.174-.239c.059-.086.121-.168.186-.251l.225-.3c.071-.086.139-.174.207-.26l.074-.089.151-.183c.077-.095.157-.186.237-.278l.1-.121.018-.021.18-.2.2-.222c.189-.2.384-.408.591-.591l.234-.231.364-.343c.08-.074.16-.148.242-.219s.189-.171.3-.254l.189-.16c.062-.056.127-.109.189-.16a4.778,4.778,0,0,1,.384-.3l.2-.154c.325-.248.653-.488.99-.718l.2-.136.2-.133.192-.124.3-.177.142-.086.207-.121c.278-.163.556-.319.837-.467l.168-.089.26-.133.216-.106.216-.1.216-.1.219-.1.219-.095c.3-.127.591-.245.887-.358l.2-.13.237-.086.21-.074.177-.059.408-.13.21-.065.169-.047.165-.047q.148-.044.3-.08l.39-.1c.4-.1.807-.186,1.212-.26l.165-.03.231-.038.236-.038.3-.044.174-.024c.39-.05.78-.092,1.182-.121h2.746a1.7,1.7,0,0,1,.3.018h.2c.313.024.627.056.937.092l.42.056.3.041.233.038.234.038.154.027q.606.112,1.206.257l.491.127.136.038.21.059c.136.038.272.077.4.121l.177.056q.443.136.887.3l.2.074.263.1.4.16c.154.065.3.13.452.2l.177.077.242.115.216.1.213.106.269.136.213.112c.165.089.331.177.494.272l.207.118c.242.139.479.3.715.435l.192.124.2.133.2.136h0l.133.092c.3.2.565.4.842.618l.2.154c.127.1.257.2.384.3.062.05.127.1.189.16l.189.16.3.254c.083.071.162.145.242.219l.34.361.233.231.237-.231.361-.343c.08-.074.16-.148.242-.219s.189-.171.3-.254l.189-.16c.062-.056.127-.109.189-.16a4.789,4.789,0,0,1,.384-.3l.2-.154c.325-.248.653-.488.99-.718l.2-.136.2-.133.192-.124.281-.177.142-.086.207-.121c.278-.163.556-.319.837-.467l.169-.089.26-.133.216-.106.216-.1.216-.1.219-.1.219-.095c.3-.127.591-.245.887-.358.071-.027.145-.056.219-.08l.234-.086.213-.074.174-.059.408-.13.21-.065.169-.047.165-.047c.1-.03.2-.056.3-.08l.387-.1c.4-.1.807-.186,1.212-.26l.166-.03.23-.038L535.4,26l.3-.044.174-.024c.39-.05.78-.092,1.182-.121h2.72a1.7,1.7,0,0,1,.3.018h.2c.313.024.627.056.937.092l.42.056.3.041.234.038.233.038.154.027q.606.112,1.206.257l.491.127.136.038.21.059c.136.038.272.077.408.121l.174.056c.3.092.591.192.887.3l.2.074.263.1.4.16c.154.065.3.13.452.2l.177.077.242.115.216.1.213.106.269.136.216.112c.163.089.328.177.49.272l.207.118c.242.139.482.3.715.435l.192.124.2.133.2.136h.015l.133.092c.3.2.565.4.842.618l.2.154c.127.1.257.2.384.3.062.05.127.1.189.16l.189.16.245.219c.083.074.165.148.245.225l.139.127h0a.132.132,0,0,1,.021.021c.08.071.157.148.236.222l.106.1c.041.044.083.086.127.127l.233.239c.118.121.237.245.352.372.068.071.136.145.2.219.112.124.222.248.331.375l.349.417c.4.491.771.993,1.123,1.507l.142.216c.053.077.1.154.151.231l.127.2c.071.115.142.228.21.343l.186.319c.038.065.077.13.112.2l.086.154.086.154.124.234.121.234q.417.816.757,1.664l.1.239c.092.234.177.464.26.7l.074.213c.032.1.068.2.1.3s.059.18.086.272l.053.171c.027.083.05.166.074.248s.056.2.086.3c.044.166.086.331.127.5l.062.26c.03.124.056.248.083.372a.757.757,0,0,0,.032.16c.012.053.03.142.041.213s.024.112.032.168l.027.142a.266.266,0,0,0,.024.133c.024.044,0,.086.021.13l.044.266a1.65,1.65,0,0,0,.038.266c.015.089.027.2.038.3s.024.189.033.3l.018.163c0,.1.021.2.03.3V45.3c0,.1.018.2.024.3a.047.047,0,0,1,0,.021V46a2.329,2.329,0,0,0,.015.319h0v.328A3.761,3.761,0,0,1,560.018,47.3Z" transform="translate(-383.768 -25.61)" opacity="0.1"/><path d="M846.741,305.927v.47a.038.038,0,0,1,0,.018v.189l-.027.21a1.067,1.067,0,0,1-.021.136h0v.109a.144.144,0,0,1,0,.035v.074a.639.639,0,0,1-.015.071v.053a.168.168,0,0,1-.021.092h0l-.018.062-.018.074-.026.092v.027a.608.608,0,0,1-.03.092c-.027.1-.059.192-.092.3a.332.332,0,0,1-.033.092.341.341,0,0,1-.021.05,6.366,6.366,0,0,1-.863,1.576l-.068.092a6.476,6.476,0,0,1-.556.63l-9.326,9.234-9.225-9.225a6.581,6.581,0,0,1-.724-.857,6.785,6.785,0,0,1-.375-.591,6.552,6.552,0,0,1-.789-3.71,2.4,2.4,0,0,1,.041-.355c.03-.207.068-.414.118-.618a.473.473,0,0,1,.029-.124l.018-.062v-.038l.027-.092h0c.021-.071.044-.142.068-.213s.021-.065.033-.1q.07-.21.16-.408l.035-.083.053-.121c.033-.065.062-.13.1-.192V302.9h0l.047-.086.053-.1c.021-.041.044-.083.068-.124l.036-.056.018-.033h0c0-.024.027-.047.042-.071s.036-.053.05-.08.077-.118.118-.174l.041-.062.053-.074.056-.074.071-.092.062-.08.024-.027.044-.056.074-.086.03-.036h0l.056-.062c.018-.024.041-.044.062-.068s.115-.124.177-.186l.071-.068.109-.106.074-.068.089-.077.056-.047.059-.05.115-.095.062-.047c.1-.074.2-.148.3-.219l.062-.041.059-.041.059-.035.089-.056.041-.024.065-.038c.083-.05.168-.1.254-.142l.05-.027.08-.041.065-.032.068-.032.065-.03.065-.03.068-.03.269-.109.068-.024.071-.027.065-.024.053-.018.124-.039.065-.021.05-.015.05-.015.092-.024.118-.029c.121-.033.245-.059.37-.08h.337c.118-.015.236-.03.358-.038h.99l.3.03.13.018h.275c.124.021.245.047.37.077l.148.038h.042l.065.018.124.038.053.015c.092.03.18.059.269.095l.062.021.08.032.121.047.136.059.056.027.074.033.065.032.065.033.083.041.065.035.151.08.062.038c.074.041.148.086.219.133l.059.036.062.041.062.041h0l.041.03.257.186a.469.469,0,0,0,.059.047l.118.095.056.05.059.047.086.077.074.068.109.106a.84.84,0,0,1,.074.068.508.508,0,0,1,.071-.068l.109-.106.074-.068.086-.077.059-.047.056-.05.118-.095a.478.478,0,0,0,.059-.047l.3-.219.062-.041.062-.041.059-.035.086-.056.044-.024.062-.038q.127-.077.257-.142l.05-.027.08-.041.065-.032.065-.033.068-.03.065-.03.068-.03.269-.109.068-.024.071-.027.065-.024.053-.018.124-.038.065-.021.05-.015.05-.015.089-.024.118-.03q.186-.047.373-.08h.334c.121-.015.24-.03.358-.038h.99l.3.03a.31.31,0,0,1,.127.018h.278c.121.021.245.047.366.077l.151.038h.042l.065.018.124.038.053.015c.089.03.18.059.269.095l.059.021.08.033.121.047.139.059.053.027.074.032.068.032.065.033.08.041.068.035.148.08.065.038c.074.041.145.086.219.133l.059.035.059.041.062.041h0l.039.03q.133.089.257.186l.062.047.115.095.059.05.056.047.077.068.074.068.042.038h0l.071.068.032.029.038.039.071.074.109.112c.021.024.041.044.059.068l.1.115.107.127a4.915,4.915,0,0,1,.343.461l.044.065.044.071.038.059.065.106.056.095.036.062.027.047.024.047a.524.524,0,0,1,.038.068l.035.074c.086.165.162.334.233.505,0,.027.021.05.03.074l.08.213a.088.088,0,0,0,.021.068c.021.024.021.059.033.092a.67.67,0,0,1,.024.083l.018.05a.372.372,0,0,0,.021.077l.027.095c.015.05.027.1.038.151a.727.727,0,0,1,.021.08.8.8,0,0,0,.024.115.111.111,0,0,1,0,.047v.857h0v.056a.4.4,0,0,0,0,.059v.1h0v.1C846.563,305.759,846.743,305.862,846.741,305.927Z" transform="translate(-621.03 -218.366)" fill="#b93336"/><path d="M847.43,305.871v.47a.042.042,0,0,1,0,.018v.189l-.027.21a1.068,1.068,0,0,1-.021.136h0V307a.132.132,0,0,1,0,.035v.074a.543.543,0,0,1-.015.071v.053a.169.169,0,0,1-.021.092h0l-.018.062-.018.074-.026.092v.026a.607.607,0,0,1-.03.092c-.027.1-.059.192-.092.3a.341.341,0,0,1-.032.092.38.38,0,0,1-.021.05,6.342,6.342,0,0,0,.18-1.581,6.538,6.538,0,0,0-3.024-5.454c-.118-.077-.236-.145-.358-.213a6.541,6.541,0,0,0-6.278,0,6.768,6.768,0,0,0-.621.387,6.509,6.509,0,0,0-.851.721,6.584,6.584,0,0,0-.8-.68h0a6.778,6.778,0,0,0-.674-.429,6.5,6.5,0,0,0-7.209.621,6.992,6.992,0,0,0-.544.488,6.453,6.453,0,0,0-.715.848c-.13.183-.251.372-.36.565h0a6.118,6.118,0,0,0-.278.559c-.047.106-.092.213-.13.319a.473.473,0,0,1,.03-.124l.018-.062v-.038l.027-.092h0c.021-.071.044-.142.068-.213s.021-.065.032-.1q.071-.21.16-.408l.036-.083.053-.121c.032-.065.062-.13.1-.192v-.015h0l.047-.086.053-.1c.021-.041.044-.083.068-.124l.036-.056.018-.032h0c0-.024.026-.047.041-.071s.036-.053.05-.08.077-.118.118-.174l.041-.062.053-.074.056-.074.071-.092.062-.08.024-.027.044-.056.074-.086.03-.035h0l.056-.062c.018-.024.041-.044.062-.068s.115-.124.177-.186l.071-.068.109-.106.074-.068.089-.077.056-.047.059-.05.115-.095.062-.047c.1-.074.2-.148.3-.219l.062-.041.059-.041.059-.035.089-.056.041-.024.065-.038c.083-.05.168-.1.254-.142l.05-.027.08-.041.065-.033.068-.033.065-.03.065-.03.068-.03.269-.109.068-.024.071-.027.065-.024.053-.018.124-.038.065-.021.05-.015.05-.015.091-.024.118-.03c.121-.033.245-.059.369-.08h.337c.118-.015.236-.03.358-.039h.99l.3.03.13.018h.275c.124.021.245.047.37.077l.148.038h.041l.065.018.124.038.053.015c.091.03.18.059.269.095l.062.021.08.032.121.047.136.059.056.027.074.032.065.033.065.033.083.041.065.035.151.08.062.038c.074.041.148.086.219.133l.059.036.062.041.062.041h0l.041.03.257.186a.461.461,0,0,0,.059.047l.118.095.056.05.059.047.086.077.074.068.109.106a.828.828,0,0,1,.074.068.516.516,0,0,1,.071-.068l.109-.106.074-.068.086-.077.059-.047.056-.05.118-.095a.458.458,0,0,0,.059-.047l.3-.219.062-.041.062-.041.059-.035.086-.056.044-.024.062-.038q.127-.077.257-.142l.05-.027.08-.041.065-.032.065-.033.068-.029.065-.03.068-.03.269-.109.068-.024.071-.027.065-.024.053-.018.124-.038.065-.021.05-.015.05-.015.089-.024.118-.03q.186-.047.372-.08h.334c.121-.015.239-.03.358-.038h.99l.3.03a.309.309,0,0,1,.127.018h.278c.121.021.245.047.367.077l.151.039h.041l.065.018.124.038.053.015c.089.03.18.059.269.095l.059.021.08.033.121.047.139.059.053.027.074.033.068.032.065.033.08.041.068.035.148.08.065.038c.074.041.145.086.219.133l.059.035.059.041.062.041h0l.038.03q.133.089.257.186l.062.047.115.095.059.05.056.047.077.068.074.068.041.038h0l.071.068.033.03.038.038.071.074.109.112c.021.024.041.044.059.068l.1.115.107.127a4.941,4.941,0,0,1,.343.461l.044.065.044.071.039.059.065.106.056.095.035.062.027.047.024.047a.532.532,0,0,1,.038.068l.035.074c.086.166.163.334.234.505,0,.027.021.05.03.074l.08.213a.088.088,0,0,0,.021.068c.021.024.021.059.032.092a.65.65,0,0,1,.024.083l.018.05a.365.365,0,0,0,.021.077l.027.095c.015.05.027.1.038.151a.823.823,0,0,1,.021.08.805.805,0,0,0,.024.115.106.106,0,0,1,0,.047v.857h0v.056a.4.4,0,0,0,0,.059v.1h0v.1C847.358,305.679,847.433,305.806,847.43,305.871Z" transform="translate(-621.719 -218.309)" opacity="0.1"/><path d="M702.349,264.44v.6a.78.78,0,0,1,0,.083.562.562,0,0,1-.027.21c-.027.068,0,.092-.021.136h0a.574.574,0,0,1,0,.068.261.261,0,0,1,0,.041v.106l-.018.071a.322.322,0,0,1,0,.053.841.841,0,0,1-.021.092h0a.479.479,0,0,0,0,.062.753.753,0,0,0-.021.077l-.027.092a.067.067,0,0,1,0,.024l-.027.095c-.03.095-.059.192-.095.3a.267.267,0,0,1-.033.089l-.018.05a6.5,6.5,0,0,1-.866,1.578l-.068.089a6.472,6.472,0,0,1-.553.633l-9.225,9.222-9.225-9.222a6.544,6.544,0,0,1-.721-.86,6.373,6.373,0,0,1-.378-.591,6.5,6.5,0,0,1-.786-3.707,2.81,2.81,0,0,1,.039-.355c.029-.21.068-.414.118-.621a.432.432,0,0,1,.032-.121.425.425,0,0,1,.015-.065.157.157,0,0,1,0-.035l.027-.095h0c.021-.071.041-.142.065-.213l.036-.1c.047-.139.1-.275.157-.411l.036-.08c.018-.041.035-.083.056-.121s.062-.13.095-.2V261.4h0l.044-.089.053-.1.071-.121a.579.579,0,0,1,.032-.059l.021-.033h0l.044-.071c.015-.027.033-.053.05-.08l.115-.174.044-.059.053-.074.056-.077.068-.092a.76.76,0,0,1,.065-.077.252.252,0,0,1,.021-.03l.047-.053.071-.086.032-.038h0l.053-.062.062-.068.177-.183.071-.071.112-.1a.82.82,0,0,1,.074-.068l.086-.077.059-.05.056-.047.118-.095.059-.047c.1-.077.2-.151.3-.219l.062-.041.062-.041.059-.038.086-.053.041-.027.065-.038c.083-.047.168-.1.254-.142l.053-.027-.006-.068.065-.033.065-.03.065-.033.068-.029.065-.03.272-.109.065-.024.071-.027.065-.021.056-.018.124-.041.062-.018.053-.015.05-.015.089-.027.119-.03.369-.08h.337c.118-.015.24-.027.358-.036h.99a2.672,2.672,0,0,1,.3.027l.127.018h.275c.124.024.248.05.37.08l.151.038h.041a.487.487,0,0,1,.062.018l.124.035.056.018.266.092.062.024.08.029.121.05.139.059.053.024.074.035.065.03.065.033.083.041.065.035.151.083.065.035.216.133.059.038.062.041.062.041h0l.042.027c.089.062.174.124.257.189a.471.471,0,0,1,.059.047c.042.03.08.062.118.095l.059.047.056.05.086.077a.8.8,0,0,1,.074.068l.112.1.071.071.071-.071.109-.1.074-.068.089-.077.056-.05.059-.047c.038-.032.077-.065.118-.095a.472.472,0,0,1,.059-.047c.1-.077.2-.151.3-.219l.062-.041.062-.041.056-.038.089-.053.042-.027.065-.038c.083-.047.168-.1.254-.142l.05-.027.08-.041.068-.033.065-.03.065-.033.068-.03.065-.03.269-.109.068-.024.071-.027.065-.021.053-.018.124-.041.065-.018.05-.015.05-.015.092-.027.118-.03c.124-.03.245-.056.37-.08h.337c.118-.015.237-.027.358-.035h.99l.3.027.127.018h.275c.124.024.245.05.37.08l.151.038h.038a.41.41,0,0,1,.065.018l.124.035.053.018.269.092.062.024.08.03.121.05.139.059.053.024.074.035.065.03.065.032.083.041.065.035.151.083.062.035.219.133.059.038.062.041.062.041h0l.041.027.257.189.059.047.118.095.056.047.059.05.074.065.077.068.041.041h0l.074.068.033.033.038.038.071.071.106.115.062.068c.035.036.068.074.1.112l.106.127a5.34,5.34,0,0,1,.343.461l.044.065.044.071a.668.668,0,0,1,.038.062c.024.032.044.068.065.1s.038.065.056.1l.036.059.027.047.027.047.035.071c0,.024.027.047.038.071a5.54,5.54,0,0,1,.231.508.546.546,0,0,1,.03.074c.03.071.056.142.08.213a.193.193,0,0,0,.023.065l.03.092.027.083a.074.074,0,0,0,.015.053c.015.018,0,.05.024.074l.026.095a.731.731,0,0,0,.039.154l.018.08.026.112v.05a.445.445,0,0,1,0,.065.288.288,0,0,1,0,.05.225.225,0,0,1,0,.044v.08a.726.726,0,0,1,0,.08.779.779,0,0,1,0,.083.187.187,0,0,0,.015.089v.364h0v.216h0v.1C702.349,264.3,702.349,264.369,702.349,264.44Z" transform="translate(-519.401 -189.118)" fill="#b93336"/><path d="M702.5,264.44v.6a.749.749,0,0,1,0,.083.561.561,0,0,1-.027.21c-.027.068,0,.092-.021.136h0a.436.436,0,0,1,0,.068.188.188,0,0,1,0,.041v.106l-.017.071a.352.352,0,0,1,0,.053.871.871,0,0,1-.021.092h0a.479.479,0,0,0,0,.062c-.008.025-.015.051-.021.077l-.027.092a.065.065,0,0,1,0,.024l-.026.095c-.03.095-.059.192-.095.3a.271.271,0,0,1-.033.089l-.018.05a6.531,6.531,0,0,0-2.846-7.035c-.115-.074-.234-.145-.355-.21a6.529,6.529,0,0,0-6.281,0,5.833,5.833,0,0,0-.618.387,6.277,6.277,0,0,0-.854.718,6.649,6.649,0,0,0-.8-.68h0a6.437,6.437,0,0,0-.674-.426,6.532,6.532,0,0,0-7.753,1.105,6.427,6.427,0,0,0-.84.848c-.13.183-.248.372-.358.565h0c-.1.183-.2.369-.278.559-.047.1-.089.21-.13.316a.434.434,0,0,1,.032-.121.421.421,0,0,1,.015-.065.144.144,0,0,1,0-.035l.026-.095h0c.021-.071.041-.142.065-.213l.035-.1c.047-.139.1-.275.157-.411l.035-.08c.018-.041.035-.083.056-.121s.062-.13.095-.2v-.015h0l.044-.089.053-.1.071-.121a.574.574,0,0,1,.033-.059l.021-.033h0l.044-.071c.015-.027.033-.053.05-.08l.115-.174.044-.059.053-.074.056-.077.068-.092a.834.834,0,0,1,.065-.077.3.3,0,0,1,.021-.03l.047-.053.071-.086.033-.038h0l.053-.062.062-.068.177-.183.071-.071.112-.1a.823.823,0,0,1,.074-.068l.085-.077.059-.05.056-.047.118-.095.059-.047c.1-.077.2-.151.3-.219l.062-.041.062-.041.059-.038.086-.053.042-.027.065-.038c.083-.047.168-.1.254-.142l.053-.027.112-.05.065-.033.065-.03.065-.033.068-.029.065-.03.272-.109.065-.024.071-.027.065-.021.056-.018.124-.041.062-.018.053-.015.05-.015.089-.027.118-.03.37-.08h.337c.118-.015.239-.027.358-.036h.99a2.672,2.672,0,0,1,.3.027l.127.018h.275c.124.024.248.05.37.08l.151.038h.041a.483.483,0,0,1,.062.018l.124.035.056.018.266.092.062.024.08.029.121.05.139.059.053.024.074.035.065.03.065.033.083.041.065.035.151.083.065.035.216.133.059.038.062.041.062.041h0l.041.027c.089.062.174.124.257.189a.429.429,0,0,1,.059.047c.041.03.08.062.118.095l.059.047.056.05.086.077a.78.78,0,0,1,.074.068l.112.1.071.071.071-.071.109-.1.074-.068.089-.077.056-.05.059-.047c.038-.032.077-.065.118-.095a.469.469,0,0,1,.059-.047c.1-.077.2-.151.3-.219l.062-.041.062-.041.056-.038.089-.053.041-.027.065-.038c.083-.047.169-.1.254-.142l.05-.027.08-.041.068-.033.065-.03.065-.033.068-.03.065-.03.269-.109.068-.024.071-.027.065-.021.053-.018.124-.041.065-.018.05-.015.05-.015.092-.027.118-.03c.124-.03.245-.056.37-.08h.337c.118-.015.237-.027.358-.035h.99l.3.027.127.018h.275c.124.024.245.05.37.08l.151.038h.039a.409.409,0,0,1,.065.018l.124.035.053.018.269.092.062.024.08.03.121.05.139.059.053.024.074.035.065.03.065.032.083.041.065.035.151.083.062.035.219.133.059.038.062.041.062.041h0l.041.027.257.189.059.047.118.095.056.047.059.05.074.065.077.068.041.041h0l.074.068.033.033.038.038.071.071.107.115.062.068c.035.036.068.074.1.112l.107.127a5.379,5.379,0,0,1,.343.461l.044.065.044.071a.657.657,0,0,1,.039.062c.024.032.044.068.065.1s.038.065.056.1l.035.059.027.047.027.047.035.071c0,.024.027.047.038.071.086.165.162.337.231.508a.57.57,0,0,1,.029.074q.044.107.08.213a.192.192,0,0,0,.024.065l.03.092.026.083a.074.074,0,0,0,.015.053c.015.018,0,.05.024.074l.026.095a.73.73,0,0,0,.038.154l.018.08.027.112v.05a.463.463,0,0,1,0,.065.314.314,0,0,1,0,.05.245.245,0,0,1,0,.044v.08a.792.792,0,0,1,0,.08.779.779,0,0,1,0,.083.193.193,0,0,0,.015.089v.364h0v.216h0v.1C702.5,264.3,702.5,264.369,702.5,264.44Z" transform="translate(-519.551 -189.118)" opacity="0.1"/><path d="M407.265,286.423a.392.392,0,0,1,0,.056v.535a.837.837,0,0,1,0,.086,1.279,1.279,0,0,1-.027.21c-.012.071,0,.092-.021.136h0a.469.469,0,0,1,0,.068v.151l-.018.071a.352.352,0,0,1,0,.053.149.149,0,0,1-.021.092h0a.47.47,0,0,0-.015.062.661.661,0,0,0-.021.074l-.027.092a.087.087,0,0,1,0,.027l-.027.092c-.03.1-.059.192-.095.3a.828.828,0,0,1-.033.092l-.018.05a6.479,6.479,0,0,1-.866,1.575l-.068.092a6.477,6.477,0,0,1-.553.63l-9.225,9.225-9.225-9.225a6.58,6.58,0,0,1-.724-.857c-.136-.2-.26-.4-.375-.591a6.524,6.524,0,0,1-.786-3.71,2.894,2.894,0,0,1,.039-.355c.03-.207.068-.414.118-.618a.635.635,0,0,1,.03-.124l.018-.062a.184.184,0,0,1,0-.038.35.35,0,0,1,.024-.092h0c.021-.071.041-.142.065-.213s.024-.065.032-.1q.074-.21.16-.408l.035-.083c.018-.038.035-.08.056-.121s.062-.13.095-.192v-.015h0l.044-.086.053-.1.071-.124.032-.056.021-.033h0l.044-.071c.015-.027.033-.053.05-.08l.115-.174.044-.062.053-.074c.018-.024.035-.05.056-.074a1.084,1.084,0,0,1,.068-.092l.065-.08.021-.027.044-.056.074-.086.032-.035h0l.053-.062.062-.068.177-.186.071-.068.112-.106.074-.068.086-.077.059-.047.056-.05.118-.095.059-.047c.1-.074.2-.148.3-.219l.062-.041.062-.041.059-.035a.844.844,0,0,1,.086-.056l.041-.024.065-.038c.083-.05.168-.1.254-.142l.053-.029.027-.041.065-.032.065-.033.065-.03.068-.03.065-.03.272-.109.065-.024.071-.027.065-.024.056-.018.124-.038.062-.021.053-.015h.05l.089-.024.118-.03c.124-.032.245-.059.37-.08h.2l.089-.015h.053c.118,0,.239-.03.358-.038h.981l.3.03.127.015.086.015h.189c.124.021.248.047.369.077l.151.038h.041l.062.018.124.038.053.015c.092.03.18.059.269.095l.062.021.08.033.121.047.139.059.053.027.074.033.065.033.065.032.083.041.065.035.151.08.062.038c.074.041.148.086.219.133l.059.035.062.041.062.041h0a.21.21,0,0,1,.041.03q.13.089.257.186l.059.047.118.095.056.05.059.047.086.077.074.068.112.106.071.068.071-.068.109-.106.074-.068.089-.077.056-.047.059-.05.118-.095.059-.047c.1-.074.2-.148.3-.219l.062-.041.062-.041.056-.035.089-.056.041-.024.065-.038c.083-.05.168-.1.254-.142a.287.287,0,0,0,.05-.029l.08-.038.065-.032.068-.033.065-.03.068-.03.065-.029.269-.109.068-.024.071-.027.065-.024.053-.018.124-.038.065-.021.05-.015h.05l.092-.024.118-.03c.121-.032.245-.059.37-.08h.192l.092-.015h.053c.118,0,.236-.03.358-.038h.99l.3.03.13.015.086.015h.189c.124.021.245.047.37.077l.148.038h.041l.065.018.124.038.053.015c.092.03.18.059.269.095l.062.021.08.033.121.047.136.059.056.026.074.033.065.033.065.033.083.041.065.035.151.08.062.038c.074.042.148.086.219.133l.059.035.062.041.062.041h0l.041.03.257.186.059.047.118.095.056.05.059.047.074.068a.8.8,0,0,1,.074.068l.044.038h0l.074.068.029.029.041.038.071.074.106.112.062.068.1.115.106.127a4.908,4.908,0,0,1,.343.461l.044.065.044.071a.4.4,0,0,1,.038.059c.024.035.044.071.065.106l.056.095.035.062.027.047.027.047.035.068c.015.024.027.05.038.074a5.549,5.549,0,0,1,.23.505l.03.074q.044.106.08.213l.024.068a.41.41,0,0,0,.03.092l.027.083a.064.064,0,0,0,.015.05l.024.077a.868.868,0,0,1,.024.095c.015.05.027.1.041.151l.018.08.027.115v.047a.5.5,0,0,1,0,.065.368.368,0,0,1,0,.053.182.182,0,0,1,0,.042v.163a.757.757,0,0,1,0,.08v.092q0,.043,0,.086v.186q0,.046,0,.092h0a.353.353,0,0,0,0,.056c0,.021,0,.041,0,.059v.1h0v.1C407.129,286.266,407.265,286.358,407.265,286.423Z" transform="translate(-311.529 -204.623)" fill="#b93336"/><path d="M407.442,286.423a.392.392,0,0,1,0,.056v.535a.837.837,0,0,1,0,.086,1.273,1.273,0,0,1-.027.21c-.012.071,0,.092-.021.136h0a.452.452,0,0,1,0,.068v.151l-.018.071a.336.336,0,0,1,0,.053.149.149,0,0,1-.021.092h0a.47.47,0,0,0-.015.062.675.675,0,0,0-.021.074l-.027.092a.085.085,0,0,1,0,.027l-.027.092c-.03.1-.059.192-.095.3a.827.827,0,0,1-.032.092l-.018.05a6.369,6.369,0,0,0-2.959-7.02c-.115-.077-.237-.145-.355-.213a6.547,6.547,0,0,0-6.281,0,6.369,6.369,0,0,0-.618.387,6.54,6.54,0,0,0-.854.721,6.376,6.376,0,0,0-.8-.68h0a6.466,6.466,0,0,0-.674-.429,6.548,6.548,0,0,0-6.281,0,6.321,6.321,0,0,0-.925.621,6.505,6.505,0,0,0-.547.488,6.434,6.434,0,0,0-.715.848c-.13.183-.248.372-.358.565h0c-.1.183-.2.37-.278.559-.047.106-.089.213-.13.319a.639.639,0,0,1,.03-.124l.018-.062a.2.2,0,0,1,0-.038.35.35,0,0,1,.024-.092h0c.021-.071.041-.142.065-.213s.024-.065.033-.1q.074-.21.16-.408l.036-.083c.018-.038.035-.08.056-.121s.062-.13.095-.192v-.015h0l.044-.086.053-.1.071-.124.033-.056.021-.033h0l.044-.071c.015-.027.033-.053.05-.08l.115-.174.044-.062.053-.074c.018-.024.036-.05.056-.074a1.057,1.057,0,0,1,.068-.092l.065-.08.021-.027.044-.056.074-.086.032-.035h0l.053-.062.062-.068.177-.186.071-.068.112-.106.074-.068.086-.077.059-.047.056-.05.118-.095.059-.047c.1-.074.2-.148.3-.219l.062-.041.062-.041.059-.035a.856.856,0,0,1,.086-.056l.042-.024.065-.038c.083-.05.168-.1.254-.142l.053-.029.133-.041.065-.032.065-.033.065-.03.068-.03.065-.03.272-.109.065-.024.071-.027.065-.024.056-.018.124-.038.062-.021.053-.015h.05l.089-.024.118-.03c.124-.032.245-.059.37-.08h.2l.089-.015h.053c.118,0,.239-.03.358-.038h.981l.3.03.127.015.086.015h.189c.124.021.248.047.37.077l.151.038h.041l.062.018.124.038.053.015c.092.03.18.059.269.095l.062.021.08.033.121.047.139.059.053.027.074.033.065.033.065.032.083.041.065.035.151.08.062.038c.074.041.148.086.219.133l.059.035.062.041.062.041h0a.208.208,0,0,1,.041.03q.13.089.257.186l.059.047.118.095.056.05.059.047.086.077.074.068.112.106.071.068.071-.068.109-.106.074-.068.089-.077.056-.047.059-.05.118-.095.059-.047c.1-.074.2-.148.3-.219l.062-.041.062-.041.056-.035.089-.056.041-.024.065-.038c.083-.05.169-.1.254-.142a.292.292,0,0,0,.05-.029l.08-.038.065-.032.068-.033.065-.03.068-.03.065-.029.269-.109.068-.024.071-.027.065-.024.053-.018.124-.038.065-.021.05-.015h.05l.092-.024.118-.03c.121-.032.245-.059.37-.08h.192l.092-.015h.053c.118,0,.237-.03.358-.038h.99l.3.03.13.015.086.015h.189c.124.021.245.047.369.077l.148.038h.041l.065.018.124.038.053.015c.092.03.18.059.269.095l.062.021.08.033.121.047.136.059.056.026.074.033.065.033.065.033.083.041.065.035.151.08.062.038c.074.042.148.086.219.133l.059.035.062.041.062.041h0l.041.03.257.186.059.047.118.095.056.05.059.047.074.068a.8.8,0,0,1,.074.068l.044.038h0l.074.068.03.029.041.038.071.074.106.112.062.068.1.115.107.127a4.929,4.929,0,0,1,.343.461l.044.065.044.071a.414.414,0,0,1,.038.059c.024.035.044.071.065.106l.056.095.035.062.027.047.027.047.035.068c.015.024.026.05.038.074a5.516,5.516,0,0,1,.23.505l.03.074q.044.106.08.213l.024.068a.407.407,0,0,0,.03.092l.027.083a.064.064,0,0,0,.015.05l.024.077a.882.882,0,0,1,.024.095c.015.05.027.1.041.151l.018.08.027.115v.047a.5.5,0,0,1,0,.065.336.336,0,0,1,0,.053.175.175,0,0,1,0,.042v.163a.773.773,0,0,1,0,.08c0,.03,0,.062,0,.092a.854.854,0,0,1,0,.086v.186a.9.9,0,0,1,0,.092h0a.36.36,0,0,0,0,.056v.157h0v.1C407.306,286.266,407.442,286.358,407.442,286.423Z" transform="translate(-311.707 -204.623)" opacity="0.1"/><path d="M397.586,445.691v.1a.416.416,0,0,1,0,.059v.316a.038.038,0,0,1,0,.018v.189l-.027.21a.311.311,0,0,1-.021.136h0v.106a.149.149,0,0,1,0,.035.545.545,0,0,1-.015.074.57.57,0,0,1-.015.071v.053a.169.169,0,0,1-.021.092h0l-.018.062-.018.077-.027.092v.024a.746.746,0,0,1-.029.095c-.027.095-.059.192-.092.3l-.033.089a.264.264,0,0,1-.021.05,6.383,6.383,0,0,1-.863,1.578l-.068.089a6.487,6.487,0,0,1-.556.63l-9.222,9.225-9.225-9.225a6.587,6.587,0,0,1-.724-.857,6.731,6.731,0,0,1-.375-.591,6.5,6.5,0,0,1-.786-3.71,2.332,2.332,0,0,1,.038-.352c.03-.21.068-.414.118-.621a.476.476,0,0,1,.03-.124l.018-.062v-.036l.027-.095h0c.024-.071.044-.142.068-.213l.033-.1c.05-.139.1-.275.16-.411l-.044-.083.053-.121c.033-.065.062-.13.1-.2v-.015h0l.047-.086.053-.1c.021-.041.044-.083.068-.121l.035-.059.018-.032h0c0-.024.027-.047.041-.071s.035-.053.05-.08l.118-.174c.015-.021.027-.041.041-.059l.053-.074.056-.077.071-.092.062-.08.024-.027.044-.056.074-.086.033-.036h0l.056-.062.086-.074c.056-.062.115-.124.177-.183l.071-.071.109-.106.074-.065.089-.077.056-.05.059-.047c.038-.032.077-.065.118-.095a.469.469,0,0,1,.059-.047c.1-.077.2-.151.3-.219l.062-.041a.46.46,0,0,1,.062-.041l.056-.039.089-.053.041-.027.065-.038c.083-.05.168-.1.254-.142l.05-.027.08-.041.065-.033.068-.03.065-.032.065-.03.068-.03.269-.109.068-.024.071-.027.065-.021.053-.018.124-.041.065-.021.05-.015h.05l.092-.027.118-.03c.121-.03.245-.056.369-.08h.337c.118-.015.237-.027.358-.036h.981l.3.027.13.018h.275c.124.021.245.047.37.077l.148.041h.041l.065.021.124.035.053.018c.092.027.18.059.269.092l.062.024.08.03.121.05.136.059.056.024.074.035.065.03.065.033.083.041.065.035.151.083.062.036c.074.044.148.086.219.133l.059.038.062.041.062.041h0l.041.027.257.189.059.047.118.094.056.047.059.05.086.077.074.065.109.106.074.071.071-.071.109-.106.074-.065.086-.077.059-.05.056-.047.118-.094.059-.047c.1-.077.2-.151.3-.219l.062-.042.062-.041.059-.038.086-.053.044-.027.062-.038.257-.142.05-.027.08-.041.065-.033.065-.03.068-.033.065-.03.068-.03.269-.109.068-.024.071-.027.065-.021.053-.018.124-.041.065-.021.05-.015h.05l.089-.027.121-.03c.121-.03.245-.056.37-.08h.334l.358-.036h.981a2.606,2.606,0,0,1,.3.027l.127.018h.278c.124.021.245.047.367.077l.151.041h.041l.065.021.124.036.053.018c.089.027.18.059.269.092l.059.024.08.029.121.05.139.059.053.024.074.035.068.03.065.033.083.041.065.035c.05.027.1.053.148.083l.065.035.219.133.059.038.062.041.059.041h0l.038.027c.089.062.174.124.257.189l.062.047.115.095.059.047.056.05.077.065.074.068.041.042h0l.071.068.032.033.038.038.071.071.109.115.062.065.1.115.106.127a5.341,5.341,0,0,1,.343.461l.044.065.044.071.039.062.065.1.056.1.036.059.027.047c0,.015.015.033.024.047s.027.047.038.071.024.047.038.071c.083.166.16.337.231.508,0,.024.021.047.03.074l.08.213.021.065a.284.284,0,0,0,.032.092.5.5,0,0,1,.024.083l.018.053.021.074.027.095c.015.05.027.1.038.154a.772.772,0,0,1,.021.08.855.855,0,0,0,.024.112v.9h0v.059a.415.415,0,0,0,0,.059v.1h0v.1C397.426,445.543,397.589,445.626,397.586,445.691Z" transform="translate(-304.702 -316.821)" fill="#b93336"/><path d="M397.848,445.691v.1a.4.4,0,0,1,0,.059v.316a.04.04,0,0,1,0,.018v.189l-.027.21a.313.313,0,0,1-.021.136h0v.106a.156.156,0,0,1,0,.035.565.565,0,0,1-.015.074.606.606,0,0,1-.015.071v.053a.168.168,0,0,1-.021.092h0l-.018.062-.018.077-.027.092v.024a.732.732,0,0,1-.03.095c-.027.095-.059.192-.092.3l-.033.089a.263.263,0,0,1-.021.05,6.334,6.334,0,0,0,.18-1.581,6.416,6.416,0,0,0-.222-1.641,6.554,6.554,0,0,0-2.8-3.813c-.118-.074-.237-.145-.358-.21a6.524,6.524,0,0,0-6.278,0,9.27,9.27,0,0,0-1.549,1.109,6.62,6.62,0,0,0-.8-.68h0a6.8,6.8,0,0,0-.674-.426,6.53,6.53,0,0,0-7.209.618,6.98,6.98,0,0,0-.544.488,6.425,6.425,0,0,0-.715.848,6.06,6.06,0,0,0-.358.565h0a6.17,6.17,0,0,0-.278.559c-.047.1-.092.21-.13.316a.473.473,0,0,1,.03-.124l.018-.062v-.035l.027-.095h0c.024-.071.044-.142.068-.213l.033-.1c.05-.139.1-.275.16-.411l.027-.068.053-.121.1-.2v-.015h0l.047-.086.053-.1c.021-.041.044-.083.068-.121l.035-.059.018-.032h0c0-.024.027-.047.041-.071s.035-.053.05-.08l.118-.174c.015-.021.027-.041.041-.059l.053-.074.056-.077.071-.092.062-.08.024-.027.044-.056.074-.086.033-.036h0l.056-.062.086-.074c.056-.062.115-.124.177-.183l.071-.071.109-.106.074-.065.089-.077.056-.05.059-.047c.038-.032.077-.065.118-.095a.46.46,0,0,1,.059-.047c.1-.077.2-.151.3-.219l.062-.041a.463.463,0,0,1,.062-.041l.056-.039.089-.053.041-.027.065-.038c.083-.05.168-.1.254-.142l.05-.027.08-.041.065-.033.068-.03.065-.032.065-.03.068-.03.269-.109.068-.024.071-.027.065-.021.053-.018.124-.041.065-.021.05-.015h.05l.092-.027.118-.03c.121-.03.245-.056.369-.08h.337c.118-.015.236-.027.358-.036h.981l.3.027.13.018h.275c.124.021.245.047.369.077l.148.041h.041l.065.021.124.035.053.018c.092.027.18.059.269.092l.062.024.08.03.121.05.136.059.056.024.074.035.065.03.065.033.083.041.065.035.151.083.062.036c.074.044.148.086.219.133l.059.038.062.041.062.041h0l.041.027.257.189.059.047.118.094.056.047.059.05.086.077.074.065.109.106.074.071.071-.071.109-.106.074-.065.086-.077.059-.05.056-.047.118-.094.059-.047c.1-.077.2-.151.3-.219l.062-.042.062-.041.059-.038.086-.053.044-.027.062-.038.257-.142.05-.027.08-.041.065-.033.065-.03.068-.033.065-.03.068-.03.269-.109.068-.024.071-.027.065-.021.053-.018.124-.041.065-.021.05-.015h.05l.089-.027.121-.03c.121-.03.245-.056.369-.08h.334l.358-.036h.981a2.608,2.608,0,0,1,.3.027l.127.018h.278c.124.021.245.047.367.077l.151.041h.041l.065.021.124.036.053.018c.089.027.18.059.269.092l.059.024.08.029.121.05.139.059.053.024.074.035.068.03.065.033.083.041.065.035c.05.027.1.053.148.083l.065.035.219.133.059.038.062.041.059.041h0l.038.027c.089.062.174.124.257.189l.062.047.115.095.059.047.056.05.077.065.074.068.041.042h0l.071.068.033.033.038.038.071.071.109.115.062.065.1.115.106.127a5.328,5.328,0,0,1,.343.461l.044.065.044.071.038.062.065.1.056.1.035.059.027.047c0,.015.015.033.024.047s.027.047.038.071.024.047.038.071c.083.166.16.337.231.508,0,.024.021.047.03.074l.08.213.021.065a.285.285,0,0,0,.033.092.513.513,0,0,1,.024.083l.018.053.021.074.027.095c.015.05.027.1.038.154a.772.772,0,0,1,.021.08.865.865,0,0,0,.024.112v.9h0v.059a.424.424,0,0,0,0,.059q0,.049,0,.1h0v.1C397.689,445.543,397.851,445.626,397.848,445.691Z" transform="translate(-304.965 -316.821)" opacity="0.1"/><path d="M496.308,347.975v.074a.175.175,0,0,1,0,.038v.31a.435.435,0,0,1,0,.059l-.018.148-.018.095h0v.047a.11.11,0,0,1,0,.03v.163a.642.642,0,0,0,0,.065h0v.041a.081.081,0,0,1-.015.056l-.018.065v.015l-.018.068c-.021.068-.044.136-.068.2s0,.044-.021.065l-.015.035a4.665,4.665,0,0,1-.609,1.114l-.05.062a4.26,4.26,0,0,1-.39.446l-6.518,6.518-6.518-6.518a4.623,4.623,0,0,1-1.333-3.651,1.882,1.882,0,0,1,.029-.251,4.31,4.31,0,0,1,.083-.435.475.475,0,0,1,.021-.089.224.224,0,0,0,0-.044v-.027l.018-.065h0c.015-.053.032-.1.047-.151l.024-.071c.035-.1.071-.192.112-.3l.027-.056c0-.03.024-.056.038-.086l.065-.136h0a.621.621,0,0,0,.032-.062l.038-.068a.808.808,0,0,1,.05-.086.187.187,0,0,1,.024-.041v-.024h0l.033-.047.035-.056.083-.124.03-.044.035-.05.041-.056.05-.062a.431.431,0,0,1,.044-.056l.015-.021.033-.039c.018-.021.033-.041.05-.059l.024-.027h0l.038-.041.044-.05.124-.13.05-.05.08-.074a.383.383,0,0,0,.05-.047l.062-.053.042-.035.041-.033.083-.068.041-.033.213-.157.044-.03.044-.027.041-.027.059-.038.032-.018.044-.027c.059-.035.118-.071.18-.1l.036-.021.056-.03.047-.021.047-.024.044-.021.047-.021.047-.021.192-.077.047-.018.05-.018.044-.018h.038l.089-.03H484l.065-.018.083-.021c.089-.024.174-.041.263-.056h.236c.083,0,.169-.021.251-.027h.7l.2.021h.287c.086.015.174.033.26.053l.106.029h.074l.089.024h.036l.192.065.041.018.056.021.086.035.1.041.038.018.053.024.047.024.044.021.059.03.044.027.106.056.044.027.157.095.042.027.041.027.044.03h0l.03.021c.062.041.121.086.18.133l.041.033.086.068.038.033.041.035.062.053.053.047a.892.892,0,0,0,.077.074l.05.05.05-.05a.9.9,0,0,0,.077-.074l.053-.047.062-.053.041-.035.038-.033.086-.068.041-.033c.068-.053.139-.106.213-.157l.044-.03.041-.027.041-.027.062-.038.03-.018.044-.027c.062-.036.121-.071.183-.1l.036-.021.056-.03.044-.021.047-.024.047-.021.047-.021.047-.021.189-.077.047-.018.05-.018.047-.018h.038l.086-.03h.118l.062-.018.086-.021c.086-.024.174-.041.26-.056h.239c.083,0,.166-.021.251-.027h.7l.2.021h.287l.257.053.106.029h.077l.086.024h.038l.189.065.044.018.056.021.086.035.1.041.038.018.05.024.047.024.047.021.056.03.047.027.106.056.044.027c.053.03.1.062.154.095l.041.027.044.027.044.03h0l.027.021c.062.041.124.086.183.133l.041.033a.9.9,0,0,1,.083.068l.041.033.041.035.053.047.053.047.03.03h0l.05.05.021.021.03.027.05.053.077.08.041.047.071.08.077.092c.086.1.166.213.242.325l.03.044c0,.018.021.036.032.05l.027.044c.015.024.033.047.047.074l.038.068a.281.281,0,0,1,.024.041l.021.033.018.035.027.05.027.05c.059.115.112.236.163.358l.021.053c.021.05.038.1.056.151a.266.266,0,0,1,.015.044.073.073,0,0,0,.024.065l.018.059a.237.237,0,0,0,0,.038.074.074,0,0,0,.015.053l.018.065a.474.474,0,0,0,.03.106c.009.036,0,.038,0,.059l.018.08v.08a.137.137,0,0,0,0,.035v.266a.44.44,0,0,1,0,.062v.032a.413.413,0,0,0,0,.065.116.116,0,0,0,0,.033v.065h0a.213.213,0,0,1,0,.041.188.188,0,0,1,0,.041.55.55,0,0,1,0,.071h0a.549.549,0,0,1,0,.071Z" transform="translate(-378.862 -249.353)" fill="#b93336"/><path d="M496.685,347.933v.074a.175.175,0,0,1,0,.038v.31a.476.476,0,0,1,0,.059l-.018.148-.018.095h0v.047a.1.1,0,0,1,0,.03v.163a.641.641,0,0,0,0,.065h0V349a.081.081,0,0,1-.015.056l-.018.065v.015l-.018.068c-.021.068-.044.136-.068.2s0,.044-.021.065l-.015.035a4.592,4.592,0,0,0,.127-1.117,4.7,4.7,0,0,0-.157-1.162,4.626,4.626,0,0,0-1.182-2.069,4.689,4.689,0,0,0-.789-.633c-.083-.05-.165-.1-.251-.148a4.62,4.62,0,0,0-4.434,0q-.226.125-.438.272a4.876,4.876,0,0,0-.591.508,4.716,4.716,0,0,0-.562-.479h0a4.052,4.052,0,0,0-.479-.3,4.62,4.62,0,0,0-4.434,0,4.5,4.5,0,0,0-.653.438,4.663,4.663,0,0,0-.384.343,4.851,4.851,0,0,0-.508.591c-.092.13-.174.263-.251.4h0a4.167,4.167,0,0,0-.2.4c-.033.074-.062.148-.092.225a.483.483,0,0,1,.021-.089.234.234,0,0,0,0-.044v-.027l.018-.065h0c.015-.053.033-.1.047-.151l.024-.071c.036-.1.071-.192.112-.3l.027-.056c0-.03.024-.056.038-.086l.065-.136h0a.667.667,0,0,0,.033-.062l.038-.068a.827.827,0,0,1,.05-.086.189.189,0,0,1,.023-.041v-.024h0l.033-.047.035-.056.083-.124.03-.044.036-.05.041-.056.05-.062a.426.426,0,0,1,.044-.056l.015-.021.033-.038c.018-.021.032-.041.05-.059l.024-.027h0l.038-.041.044-.05.124-.13.05-.05.08-.074a.375.375,0,0,0,.05-.047l.062-.053.041-.035.041-.033.083-.068.041-.033.213-.157.044-.03.044-.027.041-.027.059-.038.033-.018.044-.027c.059-.035.118-.071.18-.1l.035-.021.056-.03.047-.021.047-.024.044-.021.047-.021.047-.021.192-.077.047-.018.05-.018.044-.018h.038l.089-.03h.115l.065-.018.083-.021c.089-.024.174-.041.263-.056h.237c.083,0,.168-.021.251-.026h.7l.2.021h.287c.086.015.174.033.26.053l.106.03h.074l.089.024h.036l.192.065.041.018.056.021.086.035.1.041.038.018.053.024.047.024.044.021.059.03.044.027.106.056.044.027.157.095.041.027.041.027.044.03h0l.029.021c.062.041.121.086.18.133l.041.033.086.068.038.033.041.035.062.053.053.047a.905.905,0,0,0,.077.074l.05.05.05-.05a.925.925,0,0,0,.077-.074l.053-.047.062-.053.041-.035.038-.033.086-.068.041-.033c.068-.053.139-.106.213-.157l.044-.03.041-.027.041-.027.062-.038.03-.018.044-.027c.062-.035.121-.071.183-.1l.036-.021.056-.029.044-.021.047-.024.047-.021.047-.021.047-.021.189-.077.047-.018.05-.018.047-.018h.039l.086-.03h.118l.062-.018.086-.021c.086-.024.174-.041.26-.056h.239c.083,0,.165-.021.251-.027h.7l.2.021h.287l.257.053.106.029h.077l.086.024h.038l.189.065.044.018.056.021.086.036.1.041.038.018.05.024.047.024.047.021.056.03.047.027.106.056.044.027c.053.029.1.062.154.095l.041.027.044.027.044.03h0l.027.021c.062.041.124.086.183.133l.041.032a.893.893,0,0,1,.083.068l.042.033.041.035.053.047.053.047.03.03h0l.05.05.021.021.03.027.05.053.077.08.041.047.071.08.077.092c.086.1.166.213.242.325l.029.044c0,.018.021.036.033.05l.027.044c.015.024.032.047.047.074l.038.068a.281.281,0,0,1,.024.041l.021.033.018.035.027.05.027.05c.059.115.112.236.163.358l.021.053c.021.05.038.1.056.151a.245.245,0,0,1,.015.044.073.073,0,0,0,.024.065l.018.059a.289.289,0,0,0,0,.038.074.074,0,0,0,.015.053l.018.065a.47.47,0,0,0,.03.106.129.129,0,0,1,0,.059l.018.08V347a.15.15,0,0,0,0,.035v.266a.479.479,0,0,1,0,.062v.033a.445.445,0,0,0,0,.065.115.115,0,0,0,0,.032v.065h0a.222.222,0,0,1,0,.041.213.213,0,0,1,0,.041.625.625,0,0,1,0,.071h0a.624.624,0,0,1,0,.071Z" transform="translate(-379.239 -249.311)" opacity="0.1"/><path d="M732.4,432.392v.074a.212.212,0,0,1,0,.041v.118a.7.7,0,0,0,0,.08v.112a.436.436,0,0,1,0,.059l-.018.148v.1h0v.047a.1.1,0,0,1,0,.03v.027a.408.408,0,0,1,0,.05v.154h0a.244.244,0,0,0,0,.044v.053l-.018.065v.018a.546.546,0,0,0-.021.065c-.021.068-.041.136-.065.2a.52.52,0,0,0-.024.062l-.015.035a4.606,4.606,0,0,1-.609,1.114l-.047.062a4.642,4.642,0,0,1-.393.446l-6.518,6.518-6.5-6.518a4.288,4.288,0,0,1-.511-.606,4.19,4.19,0,0,1-.266-.423,4.613,4.613,0,0,1-.556-2.622,1.176,1.176,0,0,1,.027-.248,4.362,4.362,0,0,1,.083-.437.127.127,0,0,1,.024-.089.244.244,0,0,1,0-.044.088.088,0,0,1,0-.027l.018-.065h0a.594.594,0,0,1,.047-.151.612.612,0,0,0,.024-.071c.036-.1.074-.192.112-.3l.027-.059a.244.244,0,0,1,.038-.086c.015-.03.044-.092.068-.136h0l.029-.062.038-.068c.018-.03.033-.059.05-.086a.32.32,0,0,1,.024-.041v-.024h0c0-.018.021-.036.033-.05l.036-.056.083-.124.03-.041.038-.053.038-.053.05-.065.044-.056v-.021l.033-.038.05-.059.024-.027h0l.038-.044.044-.047c.042-.044.083-.089.127-.13a.406.406,0,0,1,.05-.05.916.916,0,0,1,.077-.074l.053-.047a.535.535,0,0,1,.059-.056l.041-.036.042-.032.083-.068.041-.032c.071-.053.142-.106.213-.154l.044-.03.044-.03.041-.027.062-.038L719,428.4l.044-.026.18-.1.035-.021.056-.027.047-.024.047-.021.047-.024.044-.021.047-.021.192-.077.047-.018.05-.018.044-.015.038-.015.089-.027h.115l.065-.018.083-.021c.089-.021.174-.041.263-.056h.237l.254-.027h.7l.2.021h.284a2.533,2.533,0,0,1,.26.056l.106.027h.074l.089.027h.038l.189.065h.042l.056.021.086.035.1.041.039.018.053.027.047.021.044.024.059.03.047.024.1.059.047.024.154.095.042.027.044.03.041.03h0l.029.021.18.133.045.033.083.068.041.032.038.036.062.056.053.047.077.074a.419.419,0,0,1,.05.05c.018-.018.033-.036.05-.05l.08-.074a.4.4,0,0,1,.05-.047l.062-.056.041-.036.041-.032.083-.068.042-.033c.071-.053.142-.106.213-.154l.044-.03.044-.03.042-.027.059-.038.033-.018.044-.027.18-.1.036-.021.056-.027.047-.024.044-.021.047-.024.047-.021.047-.021.189-.077.047-.018.05-.018.047-.015.038-.015.089-.027h.115l.065-.018.083-.021c.086-.021.174-.041.26-.056h.239l.251-.027h.7l.2.021h.287c.086.015.174.033.26.056l.106.026h.074l.086.027h.038l.189.065h.044l.056.021.086.035.1.041.038.018.053.027.044.021.047.024.059.03.044.024.107.059.044.024c.053.03.1.062.154.095l.041.027.044.03.044.029h0l.029.021.18.133.041.032.083.068.041.032.041.035.053.047.053.047a.281.281,0,0,0,.029.03h0c0,.018.033.033.05.05l.024.021.027.03.05.05.077.08.041.047a1.007,1.007,0,0,1,.071.083l.077.089c.086.106.166.213.242.325,0,.015.021.03.03.047l.033.047.027.044c.018.024.032.05.047.074l.039.068.027.041.018.036.018.032.027.05.027.05c.059.118.115.237.162.358a.4.4,0,0,1,.021.053c.021.05.038.1.056.151l.018.047a.533.533,0,0,0,.021.062l.018.059v.092l.018.065a.507.507,0,0,0,.029.109c.009.035,0,.035,0,.056l.018.08v.638h0a.162.162,0,0,0,0,.038v.041a.584.584,0,0,1,0,.071h0a.586.586,0,0,1,0,.071Z" transform="translate(-545.2 -308.798)" fill="#b93336"/><path d="M732.731,432.406v.074a.213.213,0,0,1,0,.041v.118a.726.726,0,0,0,0,.08v.112a.434.434,0,0,1,0,.059l-.018.148v.1h0v.047a.093.093,0,0,1,0,.03v.027a.433.433,0,0,1,0,.05v.154h0a.225.225,0,0,0,0,.044v.053l-.018.065v.018a.556.556,0,0,0-.021.065c-.021.068-.041.136-.065.2a.538.538,0,0,0-.024.062l-.015.035a4.6,4.6,0,0,0-2.01-4.96c-.083-.053-.166-.1-.251-.151a4.62,4.62,0,0,0-4.434,0,4.493,4.493,0,0,0-.437.275,4.614,4.614,0,0,0-.591.508,4.508,4.508,0,0,0-.562-.482h0a5.375,5.375,0,0,0-.476-.3,4.626,4.626,0,0,0-4.434,0,4.757,4.757,0,0,0-.653.437,4.231,4.231,0,0,0-.384.346,4.362,4.362,0,0,0-.505.591,3.829,3.829,0,0,0-.254.4h0c-.074.13-.139.263-.2.4-.032.074-.062.148-.092.225a.126.126,0,0,1,.024-.089.225.225,0,0,1,0-.044.075.075,0,0,1,0-.027l.018-.065h0a.594.594,0,0,1,.047-.151.725.725,0,0,0,.024-.071c.036-.1.074-.192.112-.3l.027-.059a.24.24,0,0,1,.038-.086c.015-.03.044-.092.068-.136h0l.03-.062.038-.068c.018-.03.032-.059.05-.086a.29.29,0,0,1,.024-.041v-.024h0c0-.018.021-.036.032-.05l.035-.056.083-.124.03-.041.038-.053.038-.053.05-.065.044-.056v-.021l.032-.038.05-.059.024-.027h0l.038-.044.044-.047c.041-.044.083-.089.127-.13a.412.412,0,0,1,.05-.05.913.913,0,0,1,.077-.074l.053-.047a.53.53,0,0,1,.059-.056l.041-.035.041-.033.083-.068.041-.032c.071-.053.142-.106.213-.154l.044-.03.044-.03.041-.027.062-.038.029-.018.044-.027.18-.1.036-.021.056-.027.047-.024.047-.021.047-.024.044-.021.047-.021.192-.077.047-.018.05-.018.044-.015.038-.015.089-.027h.115l.065-.018.083-.021c.089-.021.174-.041.263-.056h.236l.254-.026h.7l.2.021h.284a2.51,2.51,0,0,1,.26.056l.106.026h.074l.089.027h.038l.189.065h.041l.056.021.086.035.1.041.038.018.053.027.047.021.044.024.059.03.047.024.1.059.047.024.154.095.042.027.044.03.042.029h0l.029.021.18.133.044.033.083.068.041.032.038.035.062.056.053.047.077.074a.4.4,0,0,1,.05.05c.018-.018.032-.035.05-.05l.08-.074a.384.384,0,0,1,.05-.047l.062-.056.042-.035.041-.032.083-.068.042-.033c.071-.053.142-.106.213-.154l.044-.029.044-.03.041-.027.059-.038.032-.018.044-.027.18-.1.035-.021.056-.027.047-.024.044-.021.047-.024.047-.021.047-.021.189-.077.047-.018.05-.018.047-.015.038-.015.089-.027h.115l.065-.018.083-.021c.086-.021.175-.041.26-.056h.24l.251-.027h.7l.2.021h.287c.086.015.174.032.26.056l.106.027h.074l.086.027h.038l.189.065h.044l.056.021.086.035.1.041.038.018.053.027.044.021.047.024.059.03.044.024.106.059.044.024c.053.03.1.062.154.095l.041.027.044.029.044.03h0l.03.021.18.133.042.033.083.068.041.033.042.035.053.047.053.047a.276.276,0,0,0,.03.03h0c0,.018.032.033.05.05l.024.021.026.029.05.05.077.08.041.047a.975.975,0,0,1,.071.083l.077.089c.086.106.165.213.242.325,0,.015.021.03.03.047l.032.047.026.044c.018.023.033.05.047.074l.038.068.026.041.018.035.018.033.027.05.027.05c.059.118.115.237.162.358a.385.385,0,0,1,.021.053c.021.05.038.1.056.151l.018.047a.48.48,0,0,0,.021.062l.018.059v.092l.018.065a.5.5,0,0,0,.03.109c.009.035,0,.035,0,.056l.018.08v.638h0a.169.169,0,0,0,0,.038v.041a.573.573,0,0,1,0,.071h0a.574.574,0,0,1,0,.071Z" transform="translate(-545.53 -308.812)" opacity="0.1"/><path d="M553.678,275.014h0a33.97,33.97,0,0,0-3-2.7c.127-1.584.423-5.377.449-6.107.029-.925-1.333-2.108-4.248-3.2s-2.069,4-2.028,4.454a3.431,3.431,0,0,0,1.774,2.3c.393.163.5.366.473.559L547,270.3a11.4,11.4,0,0,1-3.479-.851,18.372,18.372,0,0,0-.887,3.937v.2a1.521,1.521,0,0,0,.071.686h.2a2.225,2.225,0,0,1-.163,1.011h0a7.823,7.823,0,0,1-.3.727,20.321,20.321,0,0,1-.139-2.19,18.481,18.481,0,0,0-1.082-3.591,5.027,5.027,0,0,1-1.457-1.324,5.814,5.814,0,0,0-2.444-1.844c-.671-.236-3.1-3.4-4.106-4.138-.8-.591-1.12-.242-1.218-.077l-.059.041a3.5,3.5,0,0,1-.8-1.7c0-.322.033-.984.092-1.824a7.674,7.674,0,0,1,.969.887c.68.754,1.182,1.652,1.924,2.347a3.133,3.133,0,0,0,2.122.928,1.961,1.961,0,0,0,.769-.121c.987-.381,1.623-1.584,2.66-1.632.816.041,1.416.8,2.084,1.292a2.793,2.793,0,0,0,1.717.591,1.955,1.955,0,0,0,.724-.115,1.551,1.551,0,0,0,.943-1.975c-.544-1.147-2.394-.887-3.183-1.886a.78.78,0,0,1-.183-.733.511.511,0,0,1,.479-.349,1.668,1.668,0,0,1,.99.473c.384.39.887.887,1.363.834a.647.647,0,0,0,.387-.074c.015-.352.033-.7.047-1.055a3.681,3.681,0,0,0,1.644.467,1.93,1.93,0,0,0,.319-.015,1.286,1.286,0,0,0,1.147-1.265,1.433,1.433,0,0,0,.984.328,1.342,1.342,0,0,0,.473-.059,1.431,1.431,0,0,0,.958-1.23,2.807,2.807,0,0,0-.748-1.773l-1.933-2.643a1.07,1.07,0,0,1-.3-.763,1.584,1.584,0,0,1,.331-.591,2.062,2.062,0,0,0-.4-2.542,3.584,3.584,0,0,0-2.577-.854,3.382,3.382,0,0,1-2.042-.266,2.328,2.328,0,0,1-.8-1.392c-.411-1.555-.435-3.186-.721-4.768a6.542,6.542,0,0,0-2.187-4.171,2.024,2.024,0,0,0-1.014-.443,7.2,7.2,0,0,0-.94.077,3.434,3.434,0,0,1-2.684-1.508,23.9,23.9,0,0,0-1.954-2.533,4.769,4.769,0,0,0-4.534-1.049c-.692.192-1.241.754-1.957.783a23.394,23.394,0,0,1-3.234-.3,8.933,8.933,0,0,0-2.956.065,3.145,3.145,0,0,0-2.069,1.534l-.251-2.131a37.164,37.164,0,0,0-.754-4.348,1.084,1.084,0,0,1,.03-.949l.047.044c.036-.106.074-.216.112-.325a.777.777,0,0,0,0-.248c.092-.807-1.375-5.944-1.375-5.944h-1.318a1.049,1.049,0,0,0-.033-.189,35.675,35.675,0,0,0-1.478-6.142,3.665,3.665,0,0,1-.266-1.986,15.92,15.92,0,0,0,.062-2.344,6.408,6.408,0,0,1,.053-1.129,1.585,1.585,0,0,0-.63-1.478c-1.729-1.283-5.932-4.2-8.392-4.277-3.151-.095.987,5.436.94,5.956s3.151.993,3.151.993.189,1.605.378,2.5c.13.624.349,5.25.473,8.025a8.814,8.814,0,0,1-2.119-.8s-3.668-.99-4,0,4.469,5.767,4.469,5.767,1.694,4.49,1.182,5.912-.142,8.129-.142,8.129.047,7.981.4,10.02a3.927,3.927,0,0,1-.635,3.166s-.423,5.01,0,5.483a14.652,14.652,0,0,1,1.159,1.859l.124.225c-1.389,1.7-2.77,3.319-3.494,3.547-1.41.426-11.049,4.434-11.049,4.434s-3.148,3.009-3.624,3.009,2.867,3.216,2.867,3.216,3.009,2.409,3.34,2.787,8.572,4.868,8.572,4.868,1.413.426,1.552.851,2.022,1.6,2.022,1.6a12.28,12.28,0,0,1,1.821,2.731.636.636,0,0,0,.021.2c.018.3.038.432.056.361.251.692,1.945,2.456,1.129,3.716-.378.591,0,1.652.73,2.51a9.017,9.017,0,0,1-.768,2.66c-.565.757-.313,1.827-.887,1.954s-.754,2.9-.754,2.9l-.488,6.11s-.127,1.259-.816,1.575,0,2.016,0,2.016-.739,1.448-.3,2.267-.887,4.6-.887,4.6-.565,7.31,0,8.318a8.276,8.276,0,0,1,.887,3.213c0,.63.313,12.415.313,12.415s-.754,4.789-1.005,5.669.692,2.838.065,3.843a7.459,7.459,0,0,0-.5,3.275s-.94,8.885-.375,12.164-.18,3.97-.18,3.97a6.712,6.712,0,0,0,1.218.538c.015.124.03.257.044.393.3,2.749.73,7.484.334,8.572a17.274,17.274,0,0,0-.547,4.3v.192h0l-1.1,1.773a5.672,5.672,0,0,1-.5,1.815c-.284.251-2.64,4.528-2.956,5.078l-.032.059s-2.382,4.381,3.511,4.5,5.14-2.9,5.14-2.9.018-.591.074-1.315a6.343,6.343,0,0,1,.429-2.246,31.6,31.6,0,0,0,1.6-2.867v-3.47h-.378a.612.612,0,0,1,.021-.189,13.1,13.1,0,0,1,.328-2.143,13.27,13.27,0,0,0-.408-3.089,69.555,69.555,0,0,1,.712-8.312c.027-.142.053-.281.08-.414a10.055,10.055,0,0,0,1.268-.662s0-6.426.754-7.561.594-4.348.594-4.348.186-2.835.751-3.4.432-3.089.432-3.089.5-1.637,1.064-2.956a25.593,25.593,0,0,0,.887-5.04,6.4,6.4,0,0,1,.887-1.83c.63-.887,0-2.835,0-2.835a3.452,3.452,0,0,1-.248-2.521c.44-1.262,2.882-11.469,2.882-11.469l.943-3.653,1.378,4.661a32.018,32.018,0,0,0,0,4.286,13.376,13.376,0,0,0,1.5,2.956v9.893s.127,6.68.63,7.75a24.89,24.89,0,0,1,.751,5.043s1.694,11.658.627,13.358a10.208,10.208,0,0,0,1.732.949v6.867s-1.23,4.156-.81,6.985a1.106,1.106,0,0,0,.027.169c-.112.083-.236.154-.313.124l.2,4.729a14.644,14.644,0,0,1-.449,4.005,5.7,5.7,0,0,0-.3,1.5c-.109,1.871.612,4.434,4.729,4.168,5.483-.349,4.638-3.843,4.638-3.843s0-.136-.021-.375a14.243,14.243,0,0,0-1.36-5.137,12.933,12.933,0,0,1-1.126-5.8,2.028,2.028,0,0,1-.334.089.856.856,0,0,1,.015-.192c.071-.887.18-2.037.3-2.575a16.871,16.871,0,0,0,0-3.148l.707-6.9.038-.384a5.654,5.654,0,0,0,.972-.591h0a7.078,7.078,0,0,1-.363-1.921,1.7,1.7,0,0,1,.363-1.215c.816-.819,1.378-11.09,1.378-11.09s.443-3.615.446-4.836v-.219c-.05-.736-.44-3.618-.435-5.3a3.331,3.331,0,0,1,.121-1.052c.375-.946.887-18.717.887-18.717l.627-7.874v-6.467a38.151,38.151,0,0,0-1.122-9.193c1.711.9,4.64,2.911,5.175,2.373.659-.662.987-12.007.8-13.139a1.181,1.181,0,0,0-.044-.23c-.044-.207-.109-.485-.189-.807l.26-.452c1.286-2.226,3.252-5.761,3.408-6.8a44.863,44.863,0,0,1,.854-5.6,2.6,2.6,0,0,1,.127-.316h0c.115-.233.239-.361.381-.325.8.189,1.318.8,1.741.568a.209.209,0,0,0,.056-.047h0a.7.7,0,0,0,.107-.151h0a1.478,1.478,0,0,0,.1-.216h0c.029-.077.056-.163.083-.254v-.027a.544.544,0,0,1,.03-.115.193.193,0,0,0,0-.038.411.411,0,0,1,.024-.1l.018-.074v-.038c.074-.334.13-.68.165-.922a1.236,1.236,0,0,1,.03-.219v-.118Z" transform="translate(-386.017 -150.035)" fill="url(#a)"/><path d="M559.325,489.519a1.006,1.006,0,0,0-.065-.529C559.281,489.416,559.3,489.611,559.325,489.519Z" transform="translate(-434.211 -351.894)" fill="url(#b)"/><path d="M674.931,417.2s1.117-.763.027-1.212a3.427,3.427,0,0,1-1.774-2.288c-.041-.455-.887-5.516,2.028-4.434s4.277,2.258,4.248,3.18-.5,6.769-.5,6.769Z" transform="translate(-514.359 -295.632)" fill="#fbbebe"/><path d="M675.92,436.866a1.73,1.73,0,0,1-.044.337c-.086.591-.3,1.809-.615,1.983-.422.237-.94-.375-1.741-.565-.142-.033-.266.092-.381.325a2.743,2.743,0,0,0-.127.313,44.577,44.577,0,0,0-.854,5.575c-.16,1.038-2.122,4.558-3.408,6.772-.192.334-.372.638-.526.887-.355.591-.591.978-.591.978l-3.251-6.095v-8.989a7.971,7.971,0,0,0,.591-1.244h0a2.2,2.2,0,0,0,.163-1.005.514.514,0,0,0-.139-.3.354.354,0,0,1-.062-.092.476.476,0,0,1-.03-.077.985.985,0,0,1-.041-.231v-.2a18.27,18.27,0,0,1,.887-3.919,10.992,10.992,0,0,0,3.479.845C671.625,432.456,675.92,436.866,675.92,436.866Z" transform="translate(-508.259 -311.278)" fill="#fff212"/><path d="M677.023,438.126c-.086.591-.3,1.809-.615,1.983-.423.236-.94-.375-1.741-.565-.142-.032-.266.092-.381.325a2.776,2.776,0,0,0-.127.313c-1.617-.786-4.434-2.211-4.614-2.613s-2.143-.494-3.251-.511h-.2a1.5,1.5,0,0,1-.071-.683,20.514,20.514,0,0,1,.887-3.736,10.993,10.993,0,0,0,3.479.845C672.648,433.745,676.573,437.671,677.023,438.126Z" transform="translate(-509.406 -312.2)" opacity="0.1"/><path d="M677.11,436.848s-.237,2.084-.659,2.317-.94-.375-1.741-.562c-.142-.035-.266.089-.381.322-1.593-.774-4.567-2.264-4.729-2.675s-2.4-.505-3.452-.517c-.387-.81.816-4.434.816-4.434a11.035,11.035,0,0,0,3.479.848C672.839,432.432,677.11,436.848,677.11,436.848Z" transform="translate(-509.45 -311.257)" fill="#fff212"/><path d="M643.636,449.9c-.659.659-4.939-2.539-6.113-2.728s-5.439-18.054-5.439-18.054l.641-10.068-2.5-9.264-.325-1.212s.248-.739,1.253,0,3.446,3.89,4.106,4.124a5.887,5.887,0,0,1,2.445,1.839,4.982,4.982,0,0,0,1.457,1.315,18.369,18.369,0,0,1,1.082,3.574c-.047.7.378,5.5.887,5.926s1.363,4.28,1.363,4.28,1.555,5.418,1.883,6.964a2.164,2.164,0,0,1,.044.231C644.623,437.959,644.295,449.244,643.636,449.9Z" transform="translate(-483.971 -295.019)" fill="#fff212"/><path d="M647.176,473.33l3.1.831s.591,5.362.81,5.646.975,11.285.975,11.285l-4.889-2.211-1.836-5.912v-6.541Z" transform="translate(-494.847 -340.863)" opacity="0.1"/><path d="M556.829,765.124a10.473,10.473,0,0,0-.446,1.773,67.013,67.013,0,0,0-.712,8.276,13.293,13.293,0,0,1,.408,3.074,12.89,12.89,0,0,0-.328,2.131c-.05.461-.08.813-.08.813l-5.74-.375s0-.34.018-.86a17.51,17.51,0,0,1,.547-4.28c.387-1.082-.035-5.805-.334-8.542-.127-1.182-.231-1.992-.231-1.992S557.8,762.605,556.829,765.124Z" transform="translate(-427.639 -545.621)" fill="#fbbebe"/><path d="M632.812,766.66l-.706,6.866a16.732,16.732,0,0,1,0,3.133c-.106.535-.216,1.676-.3,2.563-.053.671-.089,1.2-.089,1.2s-4.389,3.074-5.391.375a4.771,4.771,0,0,1-.248-1.011c-.42-2.817.81-6.952.81-6.952V764l6.083.993Z" transform="translate(-481.22 -545.615)" fill="#fbbebe"/><path d="M556.864,765.122a10.479,10.479,0,0,0-.446,1.774,8.758,8.758,0,0,1-6.207.234c-.127-1.182-.231-1.992-.231-1.992S557.831,762.6,556.864,765.122Z" transform="translate(-427.674 -545.619)" opacity="0.1"/><path d="M635.143,764.976l-.172,1.664a7.245,7.245,0,0,1-5.912-.3V763.98Z" transform="translate(-483.379 -545.601)" opacity="0.1"/><path d="M552.449,506.21s-.5,3.7-1.064,4.454-.313,1.818-.887,1.942-.754,2.885-.754,2.885l-.479,6.083s-.127,1.253-.816,1.567,0,2.007,0,2.007-.739,1.443-.3,2.258-.887,4.576-.887,4.576-.565,7.274,0,8.276a8.231,8.231,0,0,1,.887,3.2c0,.627.313,12.353.313,12.353s-.754,4.768-1,5.646.692,2.82.065,3.825a7.367,7.367,0,0,0-.5,3.251s-.969,8.853-.4,12.1-.18,3.949-.18,3.949a8.775,8.775,0,0,0,8.832-.375s0-6.4.754-7.526.63-4.324.63-4.324.186-2.823.751-3.387.432-3.065.432-3.065.5-1.632,1.064-2.956a25.563,25.563,0,0,0,.887-5.025,6.32,6.32,0,0,1,.887-1.821c.63-.887,0-2.82,0-2.82a3.426,3.426,0,0,1-.248-2.51c.44-1.253,2.882-11.412,2.882-11.412l.943-3.636,1.377,4.641a31.669,31.669,0,0,0,0,4.262,13.525,13.525,0,0,0,1.5,2.956v9.846s.127,6.648.63,7.712a24.684,24.684,0,0,1,.751,5.025s1.694,11.6.627,13.3c0,0,4.83,3.447,8.655.627,0,0-.816-2.32,0-3.136s1.378-11.037,1.378-11.037.5-4.076.44-5.025-.689-5.391-.313-6.331.887-18.622.887-18.622l.627-7.836V525.7a37.688,37.688,0,0,0-1.419-10.269c-1.061-3.739-2.53-8.028-3.766-8.3C575.608,507.129,556.15,509.284,552.449,506.21Z" transform="translate(-425.18 -364.024)" fill="#3f3d56"/><path d="M555.75,816.03c-.05.461-.08.813-.08.813l-5.74-.375s0-.34.018-.86c2.693-2.388,5.377.423,5.377.423Z" transform="translate(-427.639 -581.29)" opacity="0.1"/><path d="M544.069,816.689v3.482a27.941,27.941,0,0,1-1.6,2.852,6.241,6.241,0,0,0-.429,2.235c-.056.709-.074,1.306-.074,1.306s.754,3.012-5.14,2.885-3.512-4.484-3.512-4.484l.033-.056c.3-.55,2.681-4.818,2.956-5.055a5.771,5.771,0,0,0,.5-1.806l1.1-1.773c2.7-2.412,5.394.408,5.394.408Z" transform="translate(-415.6 -581.751)" fill="#3f3d56"/><path d="M541.967,849.453s.754,3.012-5.14,2.885-3.512-4.472-3.512-4.472l.033-.056c.163.887.857,1.806,3.071,1.688a13.588,13.588,0,0,0,5.616-1.339C541.985,848.856,541.967,849.453,541.967,849.453Z" transform="translate(-415.6 -604.651)" opacity="0.1"/><path d="M632.048,814.154c-.053.671-.089,1.2-.089,1.2s-4.389,3.074-5.391.375a4.77,4.77,0,0,1-.248-1.011,2.408,2.408,0,0,0,.248-.213c.718-1.064,4.543-1.1,4.729-.591C631.413,814.2,631.776,814.2,632.048,814.154Z" transform="translate(-481.449 -580.553)" opacity="0.1"/><path d="M628.27,829.811c-4.138.26-4.851-2.285-4.729-4.138a5.618,5.618,0,0,1,.3-1.493,14.516,14.516,0,0,0,.449-3.988l-.2-4.7c.157.062.535-.313.535-.313.718-1.064,4.543-1.1,4.729-.591s1.067.162,1.067.162a12.8,12.8,0,0,0,1.126,5.767,14.148,14.148,0,0,1,1.36,5.114c.018.236.021.372.021.372S633.753,829.465,628.27,829.811Z" transform="translate(-479.483 -581.025)" fill="#3f3d56"/><path d="M628.27,856.861c-4.138.26-4.851-2.285-4.729-4.138,0,0,1.073,1.824,4.895,1.386a10.726,10.726,0,0,0,4.463-1.439c.018.236.021.373.021.373S633.753,856.515,628.27,856.861Z" transform="translate(-479.483 -608.075)" opacity="0.1"/><g transform="translate(148.711 143.117)" opacity="0.1"><path d="M643.652,513.962c-.848-2.424-1.773-4.434-2.613-4.6l-.748.077c.78.42,1.638,2.288,2.421,4.525a46.888,46.888,0,0,1,2.572,15.441v4.936l-.627,7.839s-.5,17.682-.887,18.622.251,5.391.313,6.334-.44,5.025-.44,5.025-.565,10.221-1.378,11.034,0,3.136,0,3.136a5.617,5.617,0,0,1-2.956,1.091,5.753,5.753,0,0,0,3.9-1.091s-.816-2.32,0-3.136,1.378-11.034,1.378-11.034.5-4.076.44-5.025-.689-5.395-.313-6.334.887-18.622.887-18.622l.627-7.839V529.4A46.9,46.9,0,0,0,643.652,513.962Z" transform="translate(-639.31 -509.36)"/></g><g transform="translate(121.28 142.186)" opacity="0.1"><path d="M547.639,584.594s.745-.692.18-3.952.375-12.1.375-12.1a7.348,7.348,0,0,1,.5-3.251c.627-.993-.313-2.956-.065-3.825s1-5.646,1-5.646-.322-11.732-.322-12.362a8.2,8.2,0,0,0-.887-3.2c-.565-1.005,0-8.277,0-8.277s1.315-3.763.887-4.576.3-2.258.3-2.258-.689-1.694,0-2.007.816-1.566.816-1.566l.5-6.083s.189-2.758.754-2.885.313-1.182.887-1.942a14.129,14.129,0,0,0,.979-3.866,3.906,3.906,0,0,1-1.041-.591s-.5,3.7-1.067,4.451-.313,1.818-.887,1.942-.751,2.885-.751,2.885l-.485,6.086s-.127,1.253-.816,1.567,0,2.007,0,2.007-.739,1.442-.3,2.258-.887,4.576-.887,4.576-.564,7.274,0,8.276a8.2,8.2,0,0,1,.887,3.2c0,.63.313,12.353.313,12.353s-.754,4.768-1,5.646.689,2.82.062,3.825a7.37,7.37,0,0,0-.5,3.251s-.949,8.856-.384,12.107-.18,3.952-.18,3.952a8.636,8.636,0,0,0,4.653.99,8.422,8.422,0,0,1-3.524-.984Z" transform="translate(-546.51 -506.21)"/></g><path d="M587.4,305.217a23.323,23.323,0,0,1,1.954,2.521,3.452,3.452,0,0,0,2.684,1.5,7.21,7.21,0,0,1,.94-.08A2.024,2.024,0,0,1,594,309.6a6.485,6.485,0,0,1,2.187,4.138c.287,1.567.3,3.2.721,4.747a2.365,2.365,0,0,0,.8,1.386,3.44,3.44,0,0,0,2.043.263,3.608,3.608,0,0,1,2.577.851,2.047,2.047,0,0,1,.4,2.53,1.542,1.542,0,0,0-.331.573,1.059,1.059,0,0,0,.3.76l1.933,2.631a2.806,2.806,0,0,1,.748,1.774,1.389,1.389,0,0,1-2.448.8c.21.653-.435,1.33-1.115,1.419a3.578,3.578,0,0,1-1.96-.514l-.05,1.114c-.567.3-1.167-.3-1.62-.757s-1.383-.727-1.6-.124a.78.78,0,0,0,.183.733c.789.984,2.64.733,3.183,1.874a1.537,1.537,0,0,1-.943,1.966,2.583,2.583,0,0,1-2.312-.473c-.659-.473-1.3-1.3-2.164-1.292-1.073,0-1.714,1.241-2.716,1.629a2.773,2.773,0,0,1-2.758-.8c-.736-.692-1.247-1.587-1.927-2.338-1.75-1.93-4.4-2.7-6.872-3.52s-5.087-1.948-6.364-4.218a17.267,17.267,0,0,0-1.123-2.119c-.834-1.088-2.235-1.6-3.148-2.616A4.04,4.04,0,0,1,569,315.7a14.478,14.478,0,0,1,1.8-2.43,8.17,8.17,0,0,0,1.605-4.794,6.077,6.077,0,0,1,.139-1.939,3.019,3.019,0,0,1,2.19-1.8,9,9,0,0,1,2.956-.068,27.1,27.1,0,0,0,3.234.3c.715-.033,1.265-.591,1.957-.78A4.78,4.78,0,0,1,587.4,305.217Z" transform="translate(-440.816 -221.584)" fill="#3f3d56"/><g transform="translate(127.949 89.441)" opacity="0.1"><path d="M658.75,329.745c.3,1.575.3,3.2.724,4.744a2.992,2.992,0,0,0,.47,1.067c-.036-.1-.068-.21-.095-.313-.411-1.549-.434-3.172-.721-4.747a8.438,8.438,0,0,0-.949-2.725A9.392,9.392,0,0,1,658.75,329.745Z" transform="translate(-631.84 -327.77)"/><path d="M681.453,363.913a1.518,1.518,0,0,0-.334.591,1.052,1.052,0,0,0,.3.757c.026.035.05.071.077.1a.482.482,0,0,1,0-.109,1.547,1.547,0,0,1,.334-.573,2.006,2.006,0,0,0-.18-2.282A1.824,1.824,0,0,1,681.453,363.913Z" transform="translate(-647.999 -352.164)"/><path d="M610.867,381.126a1.617,1.617,0,0,1-1.047,1.6,2.582,2.582,0,0,1-2.311-.476c-.659-.476-1.3-1.295-2.161-1.289-1.076,0-1.714,1.241-2.719,1.626a2.766,2.766,0,0,1-2.758-.8c-.736-.692-1.247-1.587-1.924-2.335-1.75-1.93-4.4-2.7-6.875-3.523s-5.072-1.942-6.352-4.2c.115.251.234.5.367.739,1.277,2.27,3.89,3.393,6.361,4.218s5.126,1.59,6.875,3.52c.68.751,1.182,1.646,1.924,2.338a2.776,2.776,0,0,0,2.758.8c1-.387,1.644-1.62,2.719-1.629.857,0,1.478.78,2.164,1.292a2.483,2.483,0,0,0,2.309.473,1.539,1.539,0,0,0,.946-1.966A1.381,1.381,0,0,0,610.867,381.126Z" transform="translate(-580.094 -358.729)"/><path d="M670.09,384.87a1.613,1.613,0,0,1,.083.606,1.392,1.392,0,0,1-2.45.8c.21.65-.435,1.327-1.114,1.419a3.553,3.553,0,0,1-1.96-.514c-.018.37-.032.742-.05,1.111-.568.3-1.182-.3-1.617-.754s-1.384-.73-1.6-.124a.783.783,0,0,0,.183.73,1.536,1.536,0,0,0,.162.174.55.55,0,0,1,.03-.154c.219-.591,1.15-.331,1.6.124s1.049,1.055,1.62.757c0-.372.033-.742.047-1.114a3.718,3.718,0,0,0,1.963.514c.68-.077,1.324-.766,1.111-1.419a1.392,1.392,0,0,0,2.45-.8,2.226,2.226,0,0,0-.458-1.36Z" transform="translate(-634.076 -367.992)"/><path d="M572.561,357.181c-.831-1.088-2.235-1.593-3.145-2.616a3.4,3.4,0,0,1-.346-.455,3.756,3.756,0,0,0,.721,1.209c.91,1.02,2.314,1.528,3.145,2.616a4,4,0,0,1,.316.485A6.67,6.67,0,0,0,572.561,357.181Z" transform="translate(-569.07 -346.324)"/></g><path d="M592.488,362.39s.689,7.65-2.448,9.967,6.71,8.655,6.71,8.655l7.464-1.632s-3.639-3.385-3.639-4.827.626-9.533,1.632-10.473S592.488,362.39,592.488,362.39Z" transform="translate(-455.459 -262.716)" fill="#fbbebe"/><path d="M548.627,290.631l-1.705,3.727s-2.542,1.507-2.728,1.646-2.211,2.448-2.211,2.448l-4.987,3.2s-.121-.228-.3-.55a14.89,14.89,0,0,0-1.159-1.85c-.423-.47,0-5.454,0-5.454a3.911,3.911,0,0,0,.636-3.151c-.352-2.022-.4-9.97-.4-9.97s-.375-6.68.142-8.09-1.182-5.879-1.182-5.879-4.794-4.765-4.466-5.749,4,0,4,0a8.274,8.274,0,0,0,2.208.8c.455.027,2.888.039,4.753.041h2.208s1.552,5.406,1.365,5.971c-.038.109-.077.219-.112.325-.151.435-.266.822-.077,1.085a37.047,37.047,0,0,1,.754,4.327l.517,4.327a37.375,37.375,0,0,1,.751,3.857c-.047.473-1.224,1.457-.706,2.35a13.039,13.039,0,0,1,.709,3.621,10.291,10.291,0,0,0,1.717,2.764A1.454,1.454,0,0,0,548.627,290.631Z" transform="translate(-413.78 -190.957)" fill="#fff212"/><circle cx="9.03" cy="9.03" r="9.03" transform="translate(133.751 86.701)" opacity="0.1"/><circle cx="9.03" cy="9.03" r="9.03" transform="translate(133.751 86.326)" fill="#fbbebe"/><path d="M585.342,410.271c-.816.887-1,9.459-.52,10.221s-2.427,2.258-4.12,2.193-6.329,1.38-6.329,1.38-9.284-2.51-11.232-1.253-4.7-2.258-3.887-3.512-.887-3.009-1.129-3.7a5.536,5.536,0,0,1-.1-.887h0c-.228-3.157-.464-13.272-.464-13.272V389.831l8.531-6.021a40.9,40.9,0,0,1,3.958,2.291,19.38,19.38,0,0,1,2.56,1.971c2.323,2.2,8.09,4.517,8.09,4.517s6.335,7.588,7.147,8.341S586.155,409.393,585.342,410.271Z" transform="translate(-433.013 -277.804)" fill="#fff"/><path d="M557.57,419.625V409.64s.26,18.187.464,23.257C557.806,429.74,557.57,419.625,557.57,419.625Z" transform="translate(-433.021 -295.999)" opacity="0.1"/><path d="M559.26,490.86a.993.993,0,0,1,.065.526C559.3,491.475,559.281,491.28,559.26,490.86Z" transform="translate(-434.211 -353.211)" opacity="0.1"/><path d="M570.112,389.329a7.657,7.657,0,0,0-1.363,1.927c-.47,1.035-11.179.189-11.179.189v-1.614l8.531-6.021a40.918,40.918,0,0,1,3.958,2.291C570.112,387.868,570.112,389.329,570.112,389.329Z" transform="translate(-433.021 -277.804)" opacity="0.1"/><path d="M559.26,488.31a1,1,0,0,1,.065.526C559.3,488.928,559.281,488.733,559.26,488.31Z" transform="translate(-434.211 -351.415)" opacity="0.1"/><path d="M563.987,361.911l-1.705,3.727s-2.542,1.508-2.728,1.646-2.211,2.447-2.211,2.447l-4.986,3.2s-.121-.228-.3-.55a34.72,34.72,0,0,1,3.547-4.014c1.6-1.221-.047-1.363,0-1.6s3.529-1.5,4.469-2.4a39.486,39.486,0,0,1,3.648-2.66A1.437,1.437,0,0,0,563.987,361.911Z" transform="translate(-429.139 -262.237)" opacity="0.1"/><path d="M520.881,362.39a42.586,42.586,0,0,0-3.917,2.82c-.94.893-4.434,2.164-4.469,2.4s1.6.375,0,1.6-5.5,6.958-6.914,7.39-11.049,4.434-11.049,4.434-3.151,2.956-3.621,2.956,2.867,3.2,2.867,3.2,3.009,2.4,3.34,2.776,8.566,4.827,8.566,4.827,1.413.423,1.552.845,2.022,1.6,2.022,1.6,2.1,2.415,1.9,3.275-.565-24.534-.565-24.534,10.709.845,11.179-.189a7.652,7.652,0,0,1,1.363-1.927s-.03-8.7-.63-9.343S520.893,363.188,520.881,362.39Z" transform="translate(-386.034 -262.716)" fill="#fff212"/><path d="M508.2,415.423s2.82,3.056,4.138,3.574a3.561,3.561,0,0,1,1.833,1.883,10.761,10.761,0,0,0,2.4,1.034,5.942,5.942,0,0,1,2.116,1.41s3.151.887,3.151,1.552,1.271,1.555,1.271,1.555l-.316-18.06s-5.235.656-6.739,2.867S508.2,415.423,508.2,415.423Z" transform="translate(-398.244 -295.104)" opacity="0.1"/><path d="M529,417.375c.236-.142,6.657-8.412,6.657-8.412l1.182-.242s-3.047,4.564-3,4.939S529,417.375,529,417.375Z" transform="translate(-412.896 -295.351)" opacity="0.1"/><path d="M538.11,424.212s1.694-3.9,2.164-4.564,3-5.078,3-5.078a2.977,2.977,0,0,1,0,1.129C543.141,416.122,538.11,424.212,538.11,424.212Z" transform="translate(-419.313 -299.472)" opacity="0.1"/><path d="M568.223,348.7s-3.763,6.867-3.432,7.2S568.223,348.7,568.223,348.7Z" transform="translate(-438.092 -253.072)" opacity="0.1"/><path d="M574.14,357.93s-3.1,4.537-2.823,4.478A45.341,45.341,0,0,0,574.14,357.93Z" transform="translate(-442.692 -259.574)" opacity="0.1"/><path d="M542.425,224.909l-5.927.423s0-.192-.021-.523c-.083-1.957-.381-8.779-.541-9.542-.189-.887-.378-2.492-.378-2.492s-3.2-.47-3.151-.987-4.091-6.021-.94-5.912c2.459.074,6.662,2.979,8.392,4.253a1.579,1.579,0,0,1,.63,1.46,6.341,6.341,0,0,0-.053,1.123,15.743,15.743,0,0,1-.062,2.332,3.577,3.577,0,0,0,.266,1.978,37.128,37.128,0,0,1,1.478,6.11C542.3,224.158,542.425,224.909,542.425,224.909Z" transform="translate(-413.799 -152.464)" fill="#fbbebe"/><path d="M556.221,271.457l-.112.322c-1.286-1.274-9.341-2.087-9.341-2.087-.706-.822-.074-1.182.68-2.187.44-.591,3.08-1.431,5.2-2.025h2.208S556.407,270.892,556.221,271.457Z" transform="translate(-425.195 -194.451)" opacity="0.1"/><path d="M557.187,266l-5.927.423s0-.192-.021-.523a25.8,25.8,0,0,1,4.774-1.691h.857C557.063,265.25,557.187,266,557.187,266Z" transform="translate(-428.562 -193.556)" opacity="0.1"/><path d="M556.221,270.817c-.038.109-.077.219-.112.325-1.286-1.277-9.341-2.09-9.341-2.09-.706-.822-.074-1.182.68-2.184.44-.591,3.08-1.434,5.2-2.028h2.208S556.407,270.252,556.221,270.817Z" transform="translate(-425.195 -194)" fill="#fff212"/><path d="M596.122,442.57s-.659,12.651,0,13.263S596.122,442.57,596.122,442.57Z" transform="translate(-459.971 -319.195)" opacity="0.1"/><path d="M612.319,460.55s-.236,13.922,0,14.061S612.319,460.55,612.319,460.55Z" transform="translate(-471.513 -331.861)" opacity="0.1"/><path d="M631,466.12s.887,9.595,1.694,9.97S631,466.12,631,466.12Z" transform="translate(-484.746 -335.784)" opacity="0.1"/><path d="M643.764,437.215a1.96,1.96,0,0,1-.754-.3c-.8-.517-1.694-6.068-2.867-6.819s-5.409-8.138-5.409-8.138a38.828,38.828,0,0,0-2.306-3.716c-.659-.76-.328-4.138-.328-4.138a18.43,18.43,0,0,1-2.495-3.716,3.369,3.369,0,0,1-.325-1.209s.251-.742,1.253,0,3.447,3.89,4.106,4.123a5.9,5.9,0,0,1,2.448,1.836,5.089,5.089,0,0,0,1.457,1.318,18.316,18.316,0,0,1,1.082,3.574c-.047.707.375,5.5.887,5.927s1.363,4.277,1.363,4.277S643.436,435.669,643.764,437.215Z" transform="translate(-483.534 -295.446)" opacity="0.1"/><path d="M666.05,444.8v-.2a1.832,1.832,0,0,1,.05.426A.98.98,0,0,1,666.05,444.8Z" transform="translate(-509.435 -320.625)" opacity="0.1"/><path d="M668.791,465.421c-.192.334-.372.638-.526.887-.777-.8-1.652-6.027-2.79-6.754a5.323,5.323,0,0,1-1.035-1.162v-6.207a7.99,7.99,0,0,0,.591-1.244c.139,1.679.458,4.168.825,4.469.517.423,1.363,4.28,1.363,4.28S668.229,463.248,668.791,465.421Z" transform="translate(-508.301 -325.091)" opacity="0.1"/><path d="M644.4,436.578a1.854,1.854,0,0,1-.754-.3c-.8-.517-1.694-6.066-2.87-6.819s-5.406-8.134-5.406-8.134a38.787,38.787,0,0,0-2.306-3.715c-.659-.76-.328-4.138-.328-4.138a18.529,18.529,0,0,1-2.495-3.715,3.4,3.4,0,0,1-.325-1.212s.248-.739,1.253,0,3.446,3.89,4.106,4.123a5.888,5.888,0,0,1,2.445,1.839,4.984,4.984,0,0,0,1.457,1.315,18.381,18.381,0,0,1,1.082,3.574c-.047.7.378,5.5.887,5.927s1.363,4.28,1.363,4.28S644.076,435.032,644.4,436.578Z" transform="translate(-483.985 -294.998)" fill="#fff212"/><circle cx="0.636" cy="0.636" r="0.636" transform="translate(150.189 122.742)" fill="#3f3d56"/><circle cx="0.636" cy="0.636" r="0.636" transform="translate(154.362 128.456)" fill="#3f3d56"/><path d="M670.712,454.143s-3.059-1.4-2.589-.644S670.712,454.143,670.712,454.143Z" transform="translate(-510.861 -326.736)" opacity="0.1"/><path d="M670.949,461.893s-3.107-.845-2.447-.352A5,5,0,0,0,670.949,461.893Z" transform="translate(-511.097 -332.45)" opacity="0.1"/><path d="M671.255,468.059s-2.116-1.531-1.6-.966A4.978,4.978,0,0,0,671.255,468.059Z" transform="translate(-511.918 -336.381)" opacity="0.1"/><path d="M679.38,476.14s-2.158,4.245-1.126,4.522S679.38,476.14,679.38,476.14Z" transform="translate(-517.836 -342.842)" opacity="0.1"/><path d="M569.794,711.77s-4.954,4.7-3.512,4.641S569.794,711.77,569.794,711.77Z" transform="translate(-438.972 -508.824)" opacity="0.1"/><path d="M555.24,731.948c.251,0,5.267-.5,3.949-.754S555.24,731.948,555.24,731.948Z" transform="translate(-431.379 -522.478)" opacity="0.1"/><path d="M637.76,709.23s5.321.186,5.205.751S637.76,709.23,637.76,709.23Z" transform="translate(-489.508 -507.034)" opacity="0.1"/><path d="M634.79,716.44s3.071,2.32,3.763,1.567S634.79,716.44,634.79,716.44Z" transform="translate(-487.416 -512.113)" opacity="0.1"/><path d="M571.227,597.4a1.561,1.561,0,0,1-.2.476.482.482,0,0,1-.136.142,8.451,8.451,0,0,1-2.51,1.182c-.115-.03-.565-.165-1.058-.3-.576-.168-1.215-.349-1.454-.381s-.378-.414-.414-.786,0-.662.157-.718a.373.373,0,0,0,.133-.2,2.366,2.366,0,0,0,.083-.263l.024-.089c.083-.343.151-.777.2-1.135.027-.192.044-.364.059-.479v-.136h0V594.7l.414-.021h.393a24.347,24.347,0,0,1,3.586.036,1.009,1.009,0,0,1,.653.751,3.456,3.456,0,0,1,.148.848,3.788,3.788,0,0,1-.08,1.088Z" transform="translate(-438.57 -426.31)" fill="#fbbebe"/><path d="M636.868,602.62a.421.421,0,0,0,0,.062c0,.641-.044,1.126-.044,1.206a31.419,31.419,0,0,1-8.149,1.88c-1.07-.083-.275-.816.322-1.573a2.481,2.481,0,0,0,.473-.8.591.591,0,0,0,0-.322c-.032-.118-.062-.225-.083-.322h0c-.154-.677-.077-.887.083-1.052a1.255,1.255,0,0,0,.216-.4,1.618,1.618,0,0,0,.091-.42,1.271,1.271,0,0,0-.239-.907c-.5-.668,1.883-1.026,1.883-1.026h4.531c.443,0,.68.627.8,1.436a.085.085,0,0,0,0,.027c.032.236.059.488.074.745s.026.485.029.721S636.868,602.38,636.868,602.62Z" transform="translate(-482.737 -429.344)" fill="#fbbebe"/><path d="M579.817,670.437s-5.025,1.182-4.514.887c.192-.121.236-.529.219-.99a6.578,6.578,0,0,0-.059-.683c-.065-.523-.16-.961-.16-.961a12.508,12.508,0,0,1,3.574-.313,1.121,1.121,0,0,1,.707.757q.022.051.038.1A4.3,4.3,0,0,1,579.817,670.437Z" transform="translate(-445.486 -478.211)" fill="#fbbebe"/><path d="M593.115,321.339a21.761,21.761,0,0,0,1.957-.955,2.689,2.689,0,0,1,2.1-.207,3.358,3.358,0,0,1,.922.647c.591.523,1.182,1.046,1.738,1.6a10.209,10.209,0,0,0,1.812,1.617c1.552.949,3.523.736,5.32.452a3.277,3.277,0,0,0,1.049-.3,2.179,2.179,0,0,0,.907-2.35,5.267,5.267,0,0,0-1.351-2.3,18.917,18.917,0,0,0-6.169-4.564c-2.489-1.144-5.451-1.714-7.934-.565a8.606,8.606,0,0,0-2.069,1.413c-.863.769-3.095,2.722-2.6,4.044C589.346,321.365,591.829,321.77,593.115,321.339Z" transform="translate(-454.971 -228.484)" opacity="0.1"/><path d="M593.115,320.7a20.955,20.955,0,0,0,1.957-.955,2.7,2.7,0,0,1,2.1-.207,3.494,3.494,0,0,1,.922.647c.591.523,1.182,1.046,1.738,1.605a10.1,10.1,0,0,0,1.812,1.617c1.552.949,3.523.736,5.32.452a3.2,3.2,0,0,0,1.049-.3,2.178,2.178,0,0,0,.907-2.35,5.267,5.267,0,0,0-1.351-2.3,18.871,18.871,0,0,0-6.169-4.561c-2.489-1.144-5.451-1.714-7.934-.568A8.689,8.689,0,0,0,591.4,315.2c-.863.769-3.095,2.725-2.6,4.047C589.346,320.734,591.829,321.139,593.115,320.7Z" transform="translate(-454.971 -228.038)" fill="#3f3d56"/><path d="M608,336.195a3.173,3.173,0,0,1-1.046.3c-1.8.3-3.766.494-5.321-.452a10.214,10.214,0,0,1-1.821-1.632c-.556-.562-1.15-1.082-1.738-1.605a3.441,3.441,0,0,0-.922-.65,2.7,2.7,0,0,0-2.108.21,20.919,20.919,0,0,1-1.954.955c-1.286.432-3.769.027-4.324-1.454a1.093,1.093,0,0,1-.056-.222,1.225,1.225,0,0,0,.056.591c.556,1.478,3.039,1.886,4.324,1.454a21.251,21.251,0,0,0,1.954-.955,2.694,2.694,0,0,1,2.108-.207,3.358,3.358,0,0,1,.922.647c.591.523,1.182,1.046,1.738,1.6a10.214,10.214,0,0,0,1.812,1.617c1.552.949,3.52.736,5.32.452a3.251,3.251,0,0,0,1.046-.3,2.1,2.1,0,0,0,.955-2.028A1.986,1.986,0,0,1,608,336.195Z" transform="translate(-454.945 -241.055)" opacity="0.1"/><path d="M567.078,595.451a12.193,12.193,0,0,1-.328,1.682,14.042,14.042,0,0,0,.3-1.7Z" transform="translate(-439.487 -426.872)" opacity="0.1"/><path d="M570.9,598.031a8.444,8.444,0,0,1-2.51,1.182c-.251-.071-2.069-.627-2.512-.689s-.559-1.38-.257-1.5a.373.373,0,0,0,.133-.2,2.589,2.589,0,0,1-.106.263,1.308,1.308,0,0,0,.3,1.38l2.607.674,2.457-1.342c.591-.813-.071-2.687-.408-2.991s-4.366,0-4.366,0l-.089-.086h0V594.7l.414-.021h.393a24.34,24.34,0,0,1,3.586.036C571.525,594.895,571.525,597.593,570.9,598.031Z" transform="translate(-438.573 -426.31)" opacity="0.1"/><path d="M635.954,598.92h-4.531s-2.385.358-1.883,1.026a1.515,1.515,0,0,1-.068,1.732c-.18.189-.257.44,0,1.38s-2.436,2.571-.807,2.7a31.546,31.546,0,0,0,8.149-1.88C636.814,603.626,637.166,598.92,635.954,598.92Zm.612,4.865a29.68,29.68,0,0,1-7.685,1.773c-1.54-.115,1-1.652.76-2.539s-.172-1.123,0-1.3a1.43,1.43,0,0,0,.065-1.635c-.473-.63,1.774-.967,1.774-.967h4.271C636.9,599.115,636.566,603.549,636.566,603.785Z" transform="translate(-482.73 -429.33)" opacity="0.1"/><path d="M578.879,668.346a12.5,12.5,0,0,0-3.574.313s.5,2.32,0,2.634,4.517-.887,4.517-.887S579.822,668.6,578.879,668.346Zm-3.5,2.9c.485-.3,0-2.545,0-2.545a11.943,11.943,0,0,1,3.453-.3c.907.248.907,2,.907,2s-4.848,1.144-4.36.842Z" transform="translate(-445.489 -478.19)" opacity="0.1"/><path d="M639.839,607.125l-7.469.887h0l7.44-1.6C639.825,606.643,639.836,606.88,639.839,607.125Z" transform="translate(-485.711 -434.606)" opacity="0.1"/><path d="M489.81,581.64l7.759-1.67.166.727Z" transform="translate(-343.219 -408.412)" fill="#3f3d56"/><path d="M638.877,611.39a.421.421,0,0,0,0,.062L631,612.965a2.479,2.479,0,0,0,.473-.8Z" transform="translate(-484.746 -438.114)" opacity="0.1"/><path d="M485.81,585.873l9.459-.993-9.208,1.771Z" transform="translate(-340.401 -411.87)" fill="#3f3d56"/><path d="M640.445,603.78l-6.973.5a1.622,1.622,0,0,1-.092.42l7.068-.887Z" transform="translate(-486.422 -432.754)" opacity="0.1"/><path d="M489.528,577.984l7.925-.565-8.043,1.011Z" transform="translate(-342.937 -406.616)" fill="#3f3d56"/><path d="M572.3,598.008l-5.465.177c.083-.343.151-.777.2-1.135l5.12.109a3.45,3.45,0,0,1,.148.848Z" transform="translate(-439.543 -428.013)" opacity="0.1"/><path d="M423.12,570.76l7.455.157-.91.8-6.544.21Z" transform="translate(-296.241 -401.924)" fill="#3f3d56"/><path d="M571.257,604a1.558,1.558,0,0,1-.2.476l-3.7,1.026c-.576-.168-1.215-.349-1.454-.381s-.378-.414-.414-.786Z" transform="translate(-438.6 -432.909)" opacity="0.1"/><path d="M419.81,577.925l8.684-.505-7.963,2.205Z" transform="translate(-293.91 -406.616)" fill="#3f3d56"/><path d="M580.089,671.163l-4.1,1.1a6.558,6.558,0,0,0-.059-.683c1.144-.154,3.05-.387,4.12-.517C580.065,671.094,580.078,671.128,580.089,671.163Z" transform="translate(-445.954 -480.147)" opacity="0.1"/><path d="M572.74,670.841c.157-.062,5.864-.751,5.864-.751l-5.864,1.567Z" transform="translate(-443.707 -479.463)" fill="#3f3d56"/><circle cx="6.394" cy="6.394" r="6.394" transform="translate(215.348 21.906)" fill="#fff212"/><circle cx="5.028" cy="5.028" r="5.028" transform="translate(245.093 38.934)" fill="#fff212"/><circle cx="16.136" cy="16.136" r="16.136" transform="translate(24.573 27.826)" fill="#fff212"/><circle cx="1.774" cy="1.774" r="1.774" transform="translate(246.863 19.736)" fill="#fff212"/><path d="M448.952,788s1.839,2.4-.848,6.033-4.9,6.692-4.005,8.956c0,0,4.053-6.74,7.351-6.834S452.573,792.055,448.952,788Z" transform="translate(-352.947 -562.521)" fill="#fff212"/><path d="M449.2,788a2.953,2.953,0,0,1,.375.754c3.219,3.784,4.933,7.313,1.842,7.39-2.882.08-6.34,5.235-7.168,6.535a2.706,2.706,0,0,0,.1.3s4.052-6.74,7.351-6.834S452.822,792.055,449.2,788Z" transform="translate(-353.197 -562.521)" opacity="0.1"/><path d="M471.523,797.086c0,.845-.094,1.531-.213,1.531s-.21-.686-.21-1.531.118-.449.234-.449S471.523,796.237,471.523,797.086Z" transform="translate(-372.11 -568.538)" fill="#ffd037"/><path d="M473.047,800.41c-.742.4-1.392.65-1.445.547s.5-.514,1.242-.919.449-.109.505,0S473.786,800,473.047,800.41Z" transform="translate(-372.461 -570.854)" fill="#ffd037"/><path d="M418.3,788s-1.839,2.4.848,6.033,4.9,6.692,4.005,8.956c0,0-4.052-6.74-7.351-6.834S414.671,792.055,418.3,788Z" transform="translate(-332.012 -562.521)" fill="#fff212"/><path d="M418.3,788a2.956,2.956,0,0,0-.375.754c-3.219,3.784-4.933,7.313-1.841,7.39,2.882.08,6.34,5.235,7.168,6.535a2.746,2.746,0,0,1-.1.3s-4.052-6.74-7.351-6.834S414.671,792.055,418.3,788Z" transform="translate(-332.012 -562.521)" opacity="0.1"/><path d="M416.57,797.086c0,.845.095,1.531.213,1.531s.21-.686.21-1.531-.118-.449-.234-.449S416.57,796.237,416.57,797.086Z" transform="translate(-333.698 -568.538)" fill="#ffd037"/><path d="M411.526,800.41c.742.4,1.389.65,1.445.547s-.5-.514-1.242-.919-.449-.109-.505,0S410.784,800,411.526,800.41Z" transform="translate(-329.828 -570.854)" fill="#ffd037"/><path d="M418.55,831.031s5.137-.157,6.686-1.262,7.907-2.418,8.291-.65,7.721,8.8,1.918,8.844-13.479-.9-15.025-1.844S418.55,831.031,418.55,831.031Z" transform="translate(-335.093 -590.876)" fill="#a8a8a8"/><path d="M435.549,843.932c-5.8.047-13.479-.9-15.025-1.844-1.182-.718-1.646-3.293-1.8-4.478h-.171s.325,4.138,1.871,5.087,9.225,1.892,15.025,1.844c1.676,0,2.255-.609,2.223-1.493C437.435,843.6,436.8,843.932,435.549,843.932Z" transform="translate(-335.093 -597.467)" opacity="0.2"/><path d="M811.458,765.35s-3.284-11.152.615-19.361a17.612,17.612,0,0,0,1.425-11.052,29.649,29.649,0,0,0-1.564-5.187" transform="translate(-610.952 -521.489)" fill="none" stroke="#535461" stroke-miterlimit="10" stroke-width="2"/><path d="M812.561,706.5c0,1.368-2.474,5.32-2.474,5.32s-2.477-3.964-2.477-5.32a2.477,2.477,0,0,1,4.951,0Z" transform="translate(-609.152 -503.427)" fill="#fff212"/><path d="M826.345,728.715c-.742,1.147-4.975,3.127-4.975,3.127s.077-4.67.819-5.817a2.475,2.475,0,1,1,4.156,2.69Z" transform="translate(-618.845 -518.069)" fill="#fff212"/><path d="M823.593,770.421c-1.218.615-5.873.189-5.873.189s2.427-3.993,3.645-4.611a2.481,2.481,0,1,1,2.229,4.434Z" transform="translate(-616.274 -546.836)" fill="#fff212"/><path d="M815.958,803.96c-1.1.813-5.758,1.182-5.758,1.182s1.714-4.345,2.814-5.158a2.478,2.478,0,1,1,2.956,3.979Z" transform="translate(-610.977 -570.618)" fill="#fff212"/><path d="M802,739.17c.981.952,5.548,1.939,5.548,1.939s-1.12-4.537-2.1-5.489a2.474,2.474,0,1,0-3.45,3.547Z" transform="translate(-604.676 -525.13)" fill="#fff212"/><path d="M791.908,776.906c1.221.615,5.873.189,5.873.189s-2.424-3.993-3.645-4.611a2.477,2.477,0,0,0-2.229,4.422Z" transform="translate(-597.177 -551.426)" fill="#fff212"/><path d="M789.248,816.194c1.1.813,5.755,1.182,5.755,1.182s-1.714-4.348-2.814-5.161a2.479,2.479,0,1,0-2.956,3.981Z" transform="translate(-595.501 -579.234)" fill="#fff212"/><path d="M812.561,706.5c0,1.368-2.474,5.32-2.474,5.32s-2.477-3.964-2.477-5.32a2.477,2.477,0,0,1,4.951,0Z" transform="translate(-609.152 -503.427)" fill="#fff212"/><path d="M826.345,728.715c-.742,1.147-4.975,3.127-4.975,3.127s.077-4.67.819-5.817a2.475,2.475,0,1,1,4.156,2.69Z" transform="translate(-618.845 -518.069)" fill="#fff212"/><path d="M823.593,770.421c-1.218.615-5.873.189-5.873.189s2.427-3.993,3.645-4.611a2.481,2.481,0,1,1,2.229,4.434Z" transform="translate(-616.274 -546.836)" fill="#fff212"/><path d="M815.958,803.96c-1.1.813-5.758,1.182-5.758,1.182s1.714-4.345,2.814-5.158a2.478,2.478,0,1,1,2.956,3.979Z" transform="translate(-610.977 -570.618)" fill="#fff212"/><path d="M802,739.17c.981.952,5.548,1.939,5.548,1.939s-1.12-4.537-2.1-5.489a2.474,2.474,0,1,0-3.45,3.547Z" transform="translate(-604.676 -525.13)" fill="#fff212"/><path d="M791.908,776.906c1.221.615,5.873.189,5.873.189s-2.424-3.993-3.645-4.611a2.477,2.477,0,0,0-2.229,4.422Z" transform="translate(-597.177 -551.426)" fill="#fff212"/><path d="M789.248,816.194c1.1.813,5.755,1.182,5.755,1.182s-1.714-4.348-2.814-5.161a2.479,2.479,0,1,0-2.956,3.981Z" transform="translate(-595.501 -579.234)" fill="#fff212"/><path d="M788.27,838.515s4-.8,5.066-1.853,5.867-2.912,6.4-1.587,7.2,5.823,2.66,6.618-10.668,1.058-12,.529S788.27,838.515,788.27,838.515Z" transform="translate(-595.529 -595.357)" fill="#a8a8a8"/><path d="M802.4,850.409c-4.534.8-10.668,1.061-12,.532-1.014-.405-1.72-2.341-2-3.251l-.133.026s.8,3.178,2.134,3.707,7.466.266,12-.529c1.307-.231,1.682-.769,1.54-1.448C803.833,849.9,803.377,850.241,802.4,850.409Z" transform="translate(-595.529 -604.567)" opacity="0.2"/><path d="M258.52,95.876v.106a.342.342,0,0,0,0,.056c0,.047,0,.092,0,.139v.177a.037.037,0,0,1,0,.018v.192l-.027.207a.688.688,0,0,1-.024.136h0a.549.549,0,0,0,0,.068v.041a.147.147,0,0,1,0,.035.124.124,0,0,1-.015.071c-.015.024,0,.047-.015.071s0,.035,0,.053a.927.927,0,0,1-.021.092h0a.466.466,0,0,1-.015.062.749.749,0,0,1-.021.077.35.35,0,0,1-.024.092.071.071,0,0,0,0,.024.292.292,0,0,1-.03.095c-.027.095-.059.192-.092.3,0,.03-.024.059-.033.089a.318.318,0,0,1-.021.05,6.424,6.424,0,0,1-.863,1.578l-.068.089a6.547,6.547,0,0,1-.556.633l-9.314,9.234-9.222-9.222a6.566,6.566,0,0,1-.724-.86,6.355,6.355,0,0,1-.375-.591,6.536,6.536,0,0,1-.789-3.707,2.416,2.416,0,0,1,.041-.355q.044-.3.115-.621a.434.434,0,0,1,.033-.121l.018-.065v-.035l.027-.095h0c.021-.071.044-.142.068-.213s.021-.065.033-.1c.047-.139.1-.275.16-.411l.035-.08.053-.121.095-.2h0c0-.03.03-.059.047-.089a.784.784,0,0,1,.053-.1c.021-.041.044-.08.068-.121a.6.6,0,0,0,.032-.059.12.12,0,0,0,.021-.033h0l.044-.071c.018-.027.033-.053.05-.077l.118-.177.041-.059.053-.074.056-.077.071-.092.062-.077.024-.03.044-.053a1.026,1.026,0,0,1,.074-.086.448.448,0,0,1,.03-.038h0l.053-.062.065-.068c.056-.062.115-.124.177-.183l.071-.071.109-.1.074-.068.089-.077.056-.05.059-.047.115-.095.059-.047c.1-.077.2-.151.3-.219l.059-.041.062-.041.059-.038.086-.053.044-.027.062-.038c.086-.047.171-.1.257-.142l.05-.027.08-.041.065-.03.068-.033.065-.033.065-.03.068-.03c.089-.038.18-.074.269-.106l.068-.027.071-.027.065-.021.053-.018.124-.041.1-.068.05-.015h.05l.092-.027.118-.03c.121-.03.245-.056.369-.08h.337c.118,0,.236-.027.358-.035h.99c.1,0,.192.018.3.027l.13.018h.275c.124.024.245.05.367.08l.151.038h.041l.065.018.124.035.053.018.269.092.059.024.08.03.124.05.136.059.053.024.077.035.065.033.065.03.083.044.065.033.151.083.062.035.219.133.059.038.062.041.059.041h0l.041.027.257.189.059.047.115.095.059.047.056.05.089.077.074.068.109.1.071.071.074-.071c.035-.035.071-.071.109-.1a.8.8,0,0,1,.074-.068l.086-.077.059-.05.056-.047.118-.095.059-.047c.1-.077.2-.151.3-.219l.062-.041.062-.041.059-.038.086-.053.044-.027.062-.038c.086-.047.171-.1.257-.142l.05-.027.08-.041.065-.03.065-.033.068-.033.065-.03.068-.03c.089-.038.177-.074.269-.106l.065-.027.074-.027.065-.021.053-.018.124-.041.062-.018.053-.015h.05l.089-.027.118-.03q.186-.044.372-.08h.334c.118,0,.239-.027.358-.035h.99l.3.027.127.018h.278c.121.024.245.05.367.08l.151.038h.041l.065.018.124.035.053.018.269.092.059.024.08.03.121.05.139.059.053.024.074.035.065.032.068.03.08.044.065.033.151.083.065.035.219.133.056.038.062.041.065.047h0l.038.027c.089.062.174.124.257.189a.461.461,0,0,1,.059.047c.041.03.08.062.118.095l.059.047.056.05.077.065.074.068.041.041h0l.071.068.033.033.038.038.071.071.109.115a.653.653,0,0,1,.059.068c.035.035.068.074.1.112l.106.127a5.315,5.315,0,0,1,.34.461.446.446,0,0,1,.062.05.555.555,0,0,1,.047.068l.038.062.065.1.056.1.033.059.027.047.027.047.038.071.035.071c.086.166.163.337.234.508l.03.074c.027.071.053.142.077.213a.585.585,0,0,1,.024.065.333.333,0,0,0,.03.092l.027.083.018.053a.3.3,0,0,0,.021.074l.027.095c.015.05.027.1.038.154s.015.053.021.08.015.074.024.112a.294.294,0,0,0,0,.05v.854h0a.39.39,0,0,1,0,.059.39.39,0,0,1,0,.059v.1h0v.1Z" transform="translate(-206.68 -70.397)" fill="#b93336"/><path d="M258.963,95.876v.106a.338.338,0,0,0,0,.056v.316a.038.038,0,0,1,0,.018v.192l-.027.207a.688.688,0,0,1-.024.136h0a.562.562,0,0,0,0,.068v.041a.144.144,0,0,1,0,.035.124.124,0,0,1-.015.071c-.015.024,0,.047-.015.071s0,.035,0,.053a.906.906,0,0,1-.021.092h0a.443.443,0,0,1-.015.062.726.726,0,0,1-.021.077.35.35,0,0,1-.024.092.071.071,0,0,0,0,.024.292.292,0,0,1-.03.095c-.027.095-.059.192-.092.3,0,.03-.024.059-.033.089a.324.324,0,0,1-.021.05,6.5,6.5,0,0,0-1.729-6.139,6.606,6.606,0,0,0-1.114-.887c-.118-.074-.236-.145-.358-.21a6.5,6.5,0,0,0-6.985.387,6.264,6.264,0,0,0-.851.718,7.144,7.144,0,0,0-.8-.68h0a6.777,6.777,0,0,0-.674-.426,6.529,6.529,0,0,0-6.281,0,6.748,6.748,0,0,0-.928.618,6.613,6.613,0,0,0-1.259,1.336c-.13.183-.251.372-.361.565h0a6.1,6.1,0,0,0-.278.559c-.047.1-.092.21-.133.316a.434.434,0,0,1,.032-.121l.018-.065v-.035l.027-.095h0c.021-.071.044-.142.068-.213s.021-.065.033-.1c.047-.139.1-.275.16-.411l.035-.08.053-.121.095-.2h0c0-.03.03-.059.047-.089a.8.8,0,0,1,.053-.1c.021-.041.044-.08.068-.121a.586.586,0,0,0,.033-.059.121.121,0,0,0,.021-.033h0l.044-.071c.018-.027.033-.053.05-.077l.118-.177.041-.059.053-.074.056-.077.071-.092.062-.077.024-.03.044-.053a1.012,1.012,0,0,1,.074-.086.439.439,0,0,1,.03-.038h0l.053-.062.065-.068c.056-.062.115-.124.177-.183l.071-.071.109-.1.074-.068.089-.077.056-.05.059-.047.115-.095.059-.047c.1-.077.2-.151.3-.219l.059-.041.062-.041.059-.038.086-.053.044-.027.062-.038c.086-.047.171-.1.257-.142l.05-.027.08-.041.065-.03.068-.033.065-.033.065-.03.068-.03c.089-.038.18-.074.269-.106l.068-.027.071-.027.065-.021.053-.018.124-.041.095-.047.05-.015h.05l.092-.027.118-.03c.121-.03.245-.056.37-.08h.337c.118,0,.236-.027.358-.035h.99c.1,0,.192.018.3.027l.13.018h.275c.124.024.245.05.367.08l.151.038h.041l.065.018.124.035.053.018.269.092.059.024.08.03.124.05.136.059.053.024.077.035.065.033.065.03.083.044.065.033.151.083.062.035.219.133.059.038.062.041.059.041h0l.041.027.257.189.059.047.115.095.059.047.056.05.089.077.074.068.109.1.071.071.074-.071c.035-.035.071-.071.109-.1a.812.812,0,0,1,.074-.068l.086-.077.059-.05.056-.047.118-.095.059-.047c.1-.077.2-.151.3-.219l.062-.041.062-.041.059-.038.086-.053.044-.027.062-.038c.086-.047.171-.1.257-.142l.05-.027.08-.041.065-.03.065-.033.068-.033.065-.03.068-.03c.089-.038.177-.074.269-.106l.065-.027.074-.027.065-.021.053-.018.124-.041.062-.018.053-.015h.05l.089-.027.118-.03q.186-.044.372-.08h.334c.118,0,.239-.027.358-.035h.99l.3.027.127.018h.278c.121.024.245.05.367.08l.151.038h.041l.065.018.124.035.053.018.269.092.059.024.08.03.121.05.139.059.053.024.074.035.065.032.068.03.08.044.065.033.151.083.065.035.219.133.056.038.062.041.065.047h0l.038.027c.089.062.174.124.257.189a.459.459,0,0,1,.059.047c.041.03.08.062.118.095l.059.047.056.05.077.065.074.068.041.041h0l.071.068.033.033.038.038.071.071.109.115a.653.653,0,0,1,.059.068c.035.035.068.074.1.112l.106.127a5.284,5.284,0,0,1,.34.461.443.443,0,0,1,.062.05.555.555,0,0,1,.047.068l.038.062.065.1.056.1.033.059.027.047.027.047.038.071.035.071c.086.166.163.337.233.508l.03.074c.027.071.053.142.077.213a.6.6,0,0,1,.024.065.333.333,0,0,0,.03.092l.027.083.018.053a.3.3,0,0,0,.021.074l.027.095c.015.05.027.1.038.154s.015.053.021.08.015.074.024.112a.294.294,0,0,0,0,.05v.854h0a.39.39,0,0,1,0,.059.39.39,0,0,1,0,.059v.1h0v.1Z" transform="translate(-207.122 -70.397)" opacity="0.1"/></g></svg>