<svg xmlns="http://www.w3.org/2000/svg" width="284.466" height="196.491" viewBox="0 0 284.466 196.491"><g transform="translate(1.05 -41.55)"><path d="M289.184,225.711q-1.332,1.171-2.723,2.275c-.156.126-.317.248-.475.376a95.609,95.609,0,0,1-10.4,7.023l-.676.394c-.163.1-.324.191-.5.282-3.777,2.181-7.7,4.188-11.661,6.089l-.042.022-.3.141q-4.8,2.3-9.738,4.4l-.079.03q-2.228.938-4.456,1.827c-.606.248-1.215.478-1.824.713-1.146.438-2.295.869-3.453,1.282l-.144.054-.248.087-.309.114q-4.532,1.619-9.186,2.99l-.054.015q-3.245.946-6.533,1.75l-.3.074c-3.218.777-6.488,1.446-9.778,1.98l-.757.121q-3.609.567-7.268.926c-13.711,1.324-27.586.247-41.213-1.6-27.516-3.733-54.669-10.731-79.432-21.7q-7.129-3.156-13.981-6.758c-.037-.02-.069-.04-.106-.057q-4.1-2.156-8.092-4.493c-.78-.451-1.555-.911-2.324-1.374q-1.421-.856-2.829-1.733-1.857-1.158-3.713-2.374l-.579-.386-.223-.151c-.314-.21-.624-.421-.936-.634C43.225,209.5,32.851,199.9,27.95,187.887c-5.664-13.862-2.04-31.437,11.988-39.631,4.822-2.822,10.426-4.354,16.09-5.619l.579-.129c.958-.21,1.916-.413,2.869-.616,3.339-.708,6.7-1.411,10.02-2.2h0c1.733-.408,3.448-.837,5.154-1.3l.7-.193a83.444,83.444,0,0,0,12.033-4.238h.025q.628-.278,1.238-.577c.262-.124.525-.248.787-.384a46.626,46.626,0,0,0,12.092-8.458c.275-.277.542-.559.8-.842.2-.22.4-.443.589-.666a16.915,16.915,0,0,0,4.384-9.216h0a11.881,11.881,0,0,0-.149-3.324c-.389-2.077-.765-4.109-1.042-6.092a31.219,31.219,0,0,1,.025-10.721h0a20.18,20.18,0,0,1,5.547-10.137q.715-.743,1.542-1.485a32.5,32.5,0,0,1,8.572-5.416q.579-.248,1.166-.5c8.684-3.515,19.117-4.248,28.865-3.763a157.467,157.467,0,0,1,27.046,3.763c.705.158,1.411.324,2.111.5a187.479,187.479,0,0,1,22.278,6.889c18.907,7.112,36.752,16.986,53.424,27.883l.5.322q1.045.681,2.077,1.366,2,1.324,3.961,2.666l.884.6q.654.446,1.3.894l1.327.918h0a1.46,1.46,0,0,1,.178.126l1.129.782c.654.455,1.3.913,1.953,1.374h0l1.4.99c.29.208.582.413.871.624l1.485,1.084.332.248c.069.05.139.1.205.154l.042.027c4.025,2.953,7.953,6.015,11.634,9.26l.475.421.049.045c.4.356.8.718,1.2,1.082a80.589,80.589,0,0,1,12.634,14.278C316.477,172.694,311.678,205.94,289.184,225.711Z" transform="translate(-26.44 -21.225)" fill="#dcdedd" opacity="0.19"/><circle cx="0.115" cy="0.115" r="0.115" transform="translate(230.173 116.167)" fill="#3b9bd5"/><path d="M497.7,584.382s3.231-2.318,6.589-.881c0,0-.94,1.992-5.111,1.965Z" transform="translate(-359.723 -403.65)" fill="#3b9bd5"/><path d="M496,588.09s-.864,3.886,1.762,6.406c0,0,1.469-1.645-.2-5.472Z" transform="translate(-358.429 -407.223)" fill="#3b9bd5"/><path d="M481.75,569.786s.12-3.281,7.549-2.479a3.526,3.526,0,0,1-2.438,3.211A4.265,4.265,0,0,1,481.75,569.786Z" transform="translate(-348.458 -392.455)" fill="#3b9bd5"/><path d="M476.879,576s-3.084,1.122-.035,7.946a3.515,3.515,0,0,0,2.3-3.31A4.288,4.288,0,0,0,476.879,576Z" transform="translate(-344.043 -398.684)" fill="#3b9bd5"/><path d="M465.329,548.483s-.629-5.367,6.944-5.1c0,0,.723,4.852-5.56,6.348Z" transform="translate(-336.852 -375.637)" fill="#3b9bd5"/><path d="M447.58,529.063s.8-6.142,8.418-4.612c0,0,.229,5.287-7.132,6.019Z" transform="translate(-324.325 -362.104)" fill="#3b9bd5"/><path d="M434.35,508.383s1.5-6.022,9.05-4.515c0,0-1.574,5.41-8.518,5.581Z" transform="translate(-314.981 -347.568)" fill="#3b9bd5"/><path d="M421.76,487.571s1.469-6.233,8.744-4.656c0,0-2.185,5.951-8.225,5.69Z" transform="translate(-306.089 -332.76)" fill="#3b9bd5"/><path d="M413.39,464.546s1.013-7.587,7.816-6.183c0,0-1.692,6.938-7.273,7.261Z" transform="translate(-300.178 -315.479)" fill="#3b9bd5"/><path d="M405.35,441.619s1.272-7.663,8.16-5.713c0,0-2.394,7.287-7.637,6.756Z" transform="translate(-294.5 -299.516)" fill="#3b9bd5"/><path d="M400.08,415.5s2.191-7.7,7.467-7.7c0,0-2.232,8.128-6.967,9.2Z" transform="translate(-290.778 -279.89)" fill="#3b9bd5"/><path d="M396.45,391.3s2.35-9.255,6.662-8.715c0,0-1.6,7.067-6.462,10.134Z" transform="translate(-288.214 -262.065)" fill="#3b9bd5"/><path d="M393.86,366.669s2.238-7.725,6.462-8.189c0,0-1.436,7.569-6.289,10.166Z" transform="translate(-286.385 -245.057)" fill="#3b9bd5"/><path d="M391.19,342.894s2.864-7.754,5.654-8.034c0,0-1.084,7.569-5.328,9.276Z" transform="translate(-284.499 -228.375)" fill="#3b9bd5"/><path d="M389.13,317.682s1.624-8.368,4.388-9.162c0,0-.12,6.8-4.083,9.77Z" transform="translate(-283.044 -209.771)" fill="#3b9bd5"/><path d="M384.42,291.631s1.789-6.688,4.012-7.781c0,0-.15,7.807-3.425,9.376Z" transform="translate(-279.717 -192.348)" fill="#3b9bd5"/><path d="M378.648,263.081l-.858-11.641s4.556,8.636,1.237,13.676Z" transform="translate(-275.035 -169.458)" fill="#3b9bd5"/><path d="M358.192,230.808s-3.366-8.392-4.112-8.838c0,0,6.168,5.287,5.875,12.416Z" transform="translate(-258.289 -148.644)" fill="#3b9bd5"/><path d="M452.728,560.654s-5.381-.493-4.932,7.067c0,0,4.87.587,6.21-5.716Z" transform="translate(-324.459 -387.841)" fill="#3b9bd5"/><path d="M433.565,540.08s-6.189.217-5.387,7.931c0,0,5.228.728,6.665-6.527Z" transform="translate(-310.571 -373.315)" fill="#3b9bd5"/><path d="M412.443,520.557s-5.719-2.42-9.053,4.515c0,0,5.273,2,9.59-3.437Z" transform="translate(-293.115 -359.237)" fill="#3b9bd5"/><path d="M399.742,498.428s-5.86-2.582-8.982,4.189c0,0,6.072,1.833,9.5-3.155Z" transform="translate(-284.195 -343.556)" fill="#3b9bd5"/><path d="M389.739,475.257s-5.737-5.076-9.949.441c0,0,5.822,4.133,10.248.726Z" transform="translate(-276.447 -326.027)" fill="#3b9bd5"/><path d="M382.493,450.339s-5.778-5.2-9.943.629c0,0,6.421,4.2,10.184.5Z" transform="translate(-271.334 -308.427)" fill="#3b9bd5"/><path d="M379.06,420.745s-4.55-6.586-9.54-4.888c0,0,4.723,6.979,9.552,6.462Z" transform="translate(-269.194 -285.383)" fill="#3b9bd5"/><path d="M376,395.509s-4.65-8.342-8.68-6.709c0,0,3.366,6.418,8.847,8.133Z" transform="translate(-267.64 -266.321)" fill="#3b9bd5"/><path d="M373.58,371.265s-4.7-6.524-8.83-5.546c0,0,3.889,6.647,9.335,7.467Z" transform="translate(-265.825 -250.099)" fill="#3b9bd5"/><path d="M377.056,343.983s-3.73-7.379-6.536-7.343c0,0,1.942,7.4,6.35,8.609Z" transform="translate(-269.9 -229.631)" fill="#3b9bd5"/><path d="M372.757,321.422s-4.112-7.461-7-7.364c0,0,2.209,6.43,6.894,8.039Z" transform="translate(-266.538 -213.682)" fill="#3b9bd5"/><path d="M373.342,295.476s-3.1-6.186-5.5-6.806c0,0,1.724,7.617,5.252,8.489Z" transform="translate(-268.008 -195.752)" fill="#3b9bd5"/><path d="M363.233,267.505,356.46,258s2.009,9.552,7.778,11.323Z" transform="translate(-259.97 -174.091)" fill="#3b9bd5"/><path d="M344.121,241.3s-7.637-4.85-7.931-5.666c0,0,4.071,7.05,11.132,8.045Z" transform="translate(-245.654 -158.292)" fill="#3b9bd5"/><path d="M334.843,228.388s-8.853-7.881-11.033-7.79a13.957,13.957,0,0,1,11.221,7.343Z" transform="translate(-236.911 -147.675)" fill="#3b9bd5"/><path d="M367.939,265.77l-.311.053c-2.086-12.5-4.7-19.833-7.387-20.649l.091-.294C363.172,245.738,365.8,252.966,367.939,265.77Z" transform="translate(-262.64 -164.825)" fill="#3b9bd5"/><path d="M388.954,343.711l-.467.059c-.144-1.175-.264-2.367-.364-3.56-.846-10.38-1.906-19.9-3.093-27.023l.258-.347c1.175,7.135,2.459,16.937,3.307,27.317C388.69,341.359,388.813,342.554,388.954,343.711Z" transform="translate(-280.148 -212.823)" fill="#3b9bd5"/><path d="M435.176,471.317a61.248,61.248,0,0,1-17.427-11.9,68.256,68.256,0,0,1-13.056-17.072c-4.28-7.931-7.082-17.777-8.263-27.4l.5.211c2.644,21.6,13.083,36.029,21.234,43.784a60.779,60.779,0,0,0,17.242,11.788Z" transform="translate(-288.2 -284.94)" fill="#3b9bd5"/><g transform="translate(129 58.672)" opacity="0.7"><path d="M548.25,573.437s3.777-1.248,6.55,1.113c0,0-1.489,1.624-5.464.355Z" transform="translate(-524.425 -455.313)" fill="#3b9bd5"/><path d="M544.521,574.25s-1.98,3.454-.217,6.644c0,0,1.889-1.137,1.439-5.287Z" transform="translate(-521.122 -456.12)" fill="#3b9bd5"/><path d="M536.46,555.031s1.093-3.1,7.931-.12a3.538,3.538,0,0,1-3.284,2.35C538.34,557.554,537.429,556.414,536.46,555.031Z" transform="translate(-516.099 -441.547)" fill="#3b9bd5"/><path d="M528.873,558s-3.281.156-2.4,7.575a3.526,3.526,0,0,0,3.181-2.473A4.265,4.265,0,0,0,528.873,558Z" transform="translate(-508.941 -444.643)" fill="#3b9bd5"/><path d="M525.35,530.636s1-5.311,8.148-2.808c0,0-.755,4.847-7.2,4.406Z" transform="translate(-508.252 -422.86)" fill="#3b9bd5"/><path d="M514.34,506.919s2.594-5.625,9.4-1.9c0,0-1.348,5.1-8.6,3.622Z" transform="translate(-500.476 -406.325)" fill="#3b9bd5"/><path d="M507.93,483.618s3.231-5.3,9.987-1.618c0,0-3.114,4.7-9.793,2.808Z" transform="translate(-495.949 -390.046)" fill="#3b9bd5"/><path d="M502,459.913s3.249-5.516,9.737-1.845c0,0-3.857,5.032-9.552,2.984Z" transform="translate(-491.76 -373.174)" fill="#3b9bd5"/><path d="M499.83,435.4s3.231-6.947,9.294-3.578c0,0-3.68,6.118-9.106,4.767Z" transform="translate(-490.228 -354.877)" fill="#3b9bd5"/><path d="M499.2,411.049s3.5-6.938,9.49-3.025c0,0-4.456,6.245-9.305,4.162Z" transform="translate(-489.783 -337.875)" fill="#3b9bd5"/><path d="M500.76,385.591s4.383-6.7,9.417-5.126c0,0-4.55,7.1-9.4,6.715Z" transform="translate(-490.885 -319.087)" fill="#3b9bd5"/><path d="M503.2,360.859s4.993-8.139,8.953-6.336c0,0-3.634,6.268-9.179,7.752Z" transform="translate(-492.446 -300.749)" fill="#3b9bd5"/><path d="M507.969,336.832s4.435-6.706,8.6-5.9c0,0-3.622,6.8-9.029,7.837Z" transform="translate(-495.673 -284.227)" fill="#3b9bd5"/><path d="M513.486,312.846s5.043-6.553,7.79-5.989c0,0-3.287,6.9-7.846,7.273Z" transform="translate(-499.833 -267.244)" fill="#3b9bd5"/><path d="M518.35,287.339s4.039-7.5,6.917-7.44c0,0-2.138,6.462-6.809,8.113Z" transform="translate(-503.308 -248.229)" fill="#3b9bd5"/><path d="M522.6,260.8s3.7-5.851,6.145-6.236c0,0-2.467,7.411-6.06,7.931Z" transform="translate(-506.31 -230.333)" fill="#3b9bd5"/><path d="M524.215,228.955l2.644-11.365s1.783,9.6-2.879,13.432Z" transform="translate(-507.284 -204.222)" fill="#3b9bd5"/><path d="M521.2,192.054s-.717-9.015-1.3-9.664c0,0,4.327,6.891,1.909,13.6Z" transform="translate(-504.403 -179.362)" fill="#3b9bd5"/><path d="M508.339,538.011s-4.993-2.077-6.809,5.287c0,0,4.468,2.024,7.637-3.61Z" transform="translate(-491.429 -430.334)" fill="#3b9bd5"/><path d="M495.645,513.3s-5.972-1.633-7.5,5.98c0,0,4.773,2.253,8.307-4.247Z" transform="translate(-481.972 -412.966)" fill="#3b9bd5"/><path d="M483.277,488.908s-4.738-4.012-9.987,1.618c0,0,4.438,3.475,10.178-.429Z" transform="translate(-471.484 -394.867)" fill="#3b9bd5"/><path d="M477.92,463.78s-4.823-4.209-9.819,1.334c0,0,5.249,3.554,10-.191Z" transform="translate(-467.818 -377.017)" fill="#3b9bd5"/><path d="M476.769,437.594s-3.968-6.553-9.629-2.541c0,0,4.327,5.681,9.567,3.742Z" transform="translate(-467.14 -356.891)" fill="#3b9bd5"/><path d="M477.093,411.722s-3.971-6.677-9.693-2.35c0,0,4.882,5.919,9.576,3.5Z" transform="translate(-467.324 -338.642)" fill="#3b9bd5"/><path d="M484.415,380.231s-2.382-7.637-7.655-7.5c0,0,2.435,8.072,7.2,9.026Z" transform="translate(-473.934 -313.789)" fill="#3b9bd5"/><path d="M489.062,355.061s-1.959-9.347-6.292-8.985c0,0,1.3,7.129,6.027,10.4Z" transform="translate(-478.179 -294.96)" fill="#3b9bd5"/><path d="M494.042,330.931S491.5,323.294,487.26,323c0,0,1.739,7.508,6.691,9.908Z" transform="translate(-481.35 -278.67)" fill="#3b9bd5"/><path d="M505.527,305.73s-1.366-8.154-4.056-8.95c0,0-.347,7.637,3.5,10.11Z" transform="translate(-491.381 -260.152)" fill="#3b9bd5"/><path d="M508.208,282.916s-1.713-8.348-4.488-9.106c0,0,.194,6.794,4.192,9.725Z" transform="translate(-492.975 -243.929)" fill="#3b9bd5"/><path d="M516.31,258.3s-1.125-6.829-3.231-8.139c0,0-.62,7.787,2.488,9.67Z" transform="translate(-499.55 -227.225)" fill="#3b9bd5"/><path d="M514.946,228.6l-3.639-11.088s-.925,9.72,4.056,13.127Z" transform="translate(-498.286 -204.166)" fill="#3b9bd5"/><path d="M504.685,197.882s-5.848-6.9-5.875-7.772c0,0,1.789,7.931,8.225,10.991Z" transform="translate(-489.508 -184.814)" fill="#3b9bd5"/><path d="M499.615,182.8s-6.107-10.16-8.224-10.721a13.93,13.93,0,0,1,8.518,10.351Z" transform="translate(-484.267 -172.08)" fill="#3b9bd5"/><path d="M519.9,228.385l-.311-.044c1.727-12.551,1.4-20.335-.911-21.912l.179-.259C521.312,207.841,521.673,215.52,519.9,228.385Z" transform="translate(-503.541 -196.157)" fill="#3b9bd5"/><path d="M502.8,309.165l-.464-.085c.211-1.16.449-2.35.714-3.507,2.279-10.16,4.112-19.566,5.085-26.73l.349-.253c-.987,7.164-2.69,16.9-4.976,27.073C503.254,306.838,503.013,308.01,502.8,309.165Z" transform="translate(-492.001 -247.305)" fill="#3b9bd5"/><path d="M519.676,444.581a61.2,61.2,0,0,1-13.1-16.54,68.168,68.168,0,0,1-7.4-20.185c-1.727-8.847-1.469-19.093.261-28.615l.414.35c-3.892,21.407,1.762,38.291,7.246,48.119a60.581,60.581,0,0,0,12.957,16.381Z" transform="translate(-488.94 -318.39)" fill="#3b9bd5"/></g><path d="M135.46,630.91" transform="translate(-103.885 -437.465)" fill="none"/><path d="M475.977,309.9l-12.043-12.111a6.395,6.395,0,0,0-9.082-.062l-75.624,74.984-31.976-32.225a6.377,6.377,0,0,0-9.018-.065L326.062,352.46a6.462,6.462,0,0,0-.062,9.082l48.56,48.942a6.462,6.462,0,0,0,9.082.065l92.267-91.574a6.395,6.395,0,0,0,.068-9.079Z" transform="translate(-237.162 -200.831)" fill="#3b9bd5"/><g transform="translate(212.652 206.164)" opacity="0.5"><path d="M759.945,674.222s-8.982-.54-7.931,5.754a1.536,1.536,0,0,0,.8,1.616s0-.467.919-.308a4.058,4.058,0,0,0,.978.047,2.017,2.017,0,0,0,1.193-.49h0s2.523-1.043,3.507-5.173c0,0,.726-.9.7-1.131l-1.516.649a2.706,2.706,0,0,1,.111,2s-.05-1.962-.341-1.915c-.059,0-.787.379-.787.379a4.529,4.529,0,0,1,.217,3.29s.256-2.35-.5-3.152l-1.066.623a4.716,4.716,0,0,1,.335,3.572s.182-2.462-.561-3.419l-.966.752s.978,1.939.382,3.272c0,0-.076-2.867-.587-3.084a5.865,5.865,0,0,0-.975,1.055s.67,1.407.256,2.15c0,0-.256-1.912-.464-1.918a6.333,6.333,0,0,0-.931,2.13,4.588,4.588,0,0,1,.726-2.253,2.542,2.542,0,0,0-1.289.67s.129-.881,1.5-.975a5.92,5.92,0,0,1,.881-1.016,5.52,5.52,0,0,0-2.185.253,2.447,2.447,0,0,1,2.432-.461l.955-.778a7.873,7.873,0,0,0-2.55.023,3.114,3.114,0,0,1,2.808-.2l1.04-.62a9.466,9.466,0,0,0-2.438-.211,3.743,3.743,0,0,1,2.743.044l.743-.335s-1.119-.22-1.448-.253-.344-.126-.344-.126a3.886,3.886,0,0,1,2.1.235A9.5,9.5,0,0,0,759.945,674.222Z" transform="translate(-751.929 -674.211)" fill="#3b9bd5"/></g><g transform="translate(202.911 162.206)" opacity="0.5"><path d="M720.406,524.569s-4.562,7.757,1.53,9.673a1.539,1.539,0,0,0,1.8.023s-.408-.226.141-.96a4.2,4.2,0,0,0,.488-.849,2.056,2.056,0,0,0,.1-1.286h0s.214-2.723-3.017-5.472c0,0-.473-1.057-.69-1.137l-.112,1.645a2.719,2.719,0,0,1,1.833.811s-1.762-.846-1.862-.567c-.018.059-.02.881-.02.881a4.481,4.481,0,0,1,3.031,1.3s-1.974-1.292-3.034-.987l.071,1.234a4.714,4.714,0,0,1,3.337,1.322s-2.112-1.281-3.3-1.055l.232,1.2s2.174,0,3.087,1.143c0,0-2.588-1.231-3.014-.881a6.734,6.734,0,0,0,.493,1.348s1.56.041,2.033.749c0,0-1.818-.64-1.921-.458a6.468,6.468,0,0,0,1.469,1.8,4.6,4.6,0,0,1-1.677-1.671,2.531,2.531,0,0,0,0,1.469s-.737-.523-.185-1.762a5.845,5.845,0,0,1-.508-1.248,5.569,5.569,0,0,0-.767,2.056,2.456,2.456,0,0,1,.693-2.379l-.258-1.2a7.952,7.952,0,0,0-1.137,2.285s-.267-1.119,1.1-2.594l-.082-1.207a9.363,9.363,0,0,0-1.292,2.074,3.735,3.735,0,0,1,1.281-2.423l.041-.814s-.7.9-.881,1.175-.267.25-.267.25a3.862,3.862,0,0,1,1.16-1.763A9.807,9.807,0,0,0,720.406,524.569Z" transform="translate(-718.766 -524.56)" fill="#3b9bd5"/></g><g transform="translate(174.382 100.317)" opacity="0.5"><path d="M623.28,313.866s-4.559,7.76,1.53,9.673a1.534,1.534,0,0,0,1.8.023s-.408-.226.144-.96a4.185,4.185,0,0,0,.485-.849,2.037,2.037,0,0,0,.1-1.286h0s.217-2.723-3.017-5.472c0,0-.473-1.055-.69-1.134l-.112,1.642a2.714,2.714,0,0,1,1.833.811s-1.762-.846-1.859-.567c-.021.059-.021.881-.021.881a4.477,4.477,0,0,1,3.028,1.3s-1.974-1.292-3.034-.987l.073,1.234a4.709,4.709,0,0,1,3.334,1.322s-2.112-1.278-3.3-1.055l.232,1.2s2.174,0,3.09,1.146c0,0-2.591-1.234-3.017-.881a6.587,6.587,0,0,0,.5,1.345s1.557.041,2.03.749c0,0-1.818-.64-1.918-.458a6.368,6.368,0,0,0,1.469,1.8,4.6,4.6,0,0,1-1.68-1.668,2.549,2.549,0,0,0,0,1.451s-.737-.523-.185-1.777a5.851,5.851,0,0,1-.508-1.248,5.572,5.572,0,0,0-.767,2.056,2.454,2.454,0,0,1,.7-2.379l-.261-1.2a7.89,7.89,0,0,0-1.134,2.285s-.27-1.119,1.093-2.594l-.082-1.207a9.362,9.362,0,0,0-1.292,2.074,3.726,3.726,0,0,1,1.281-2.42l.041-.817s-.7.9-.881,1.175-.267.25-.267.25a3.882,3.882,0,0,1,1.175-1.762A9.415,9.415,0,0,0,623.28,313.866Z" transform="translate(-621.641 -313.86)" fill="#3b9bd5"/></g><g transform="translate(68.224 41.55)" opacity="0.5"><path d="M269.816,113.79s-16.978,12.337-5.74,22.109a3.585,3.585,0,0,0,3.836,1.73s-.664-.864,1.2-1.921a9.568,9.568,0,0,0,1.827-1.363,4.729,4.729,0,0,0,1.419-2.644h0s3-5.622-1.348-14.51c0,0-.026-2.7-.423-3.072l-1.762,3.413s2.553,1.2,3.166,3.443c0,0-3-3.463-3.454-2.937-.091.1-.858,1.851-.858,1.851s4.432,2.109,5.273,5.6c0,0-3.02-4.606-5.581-4.941l-1,2.705s4.791,2,5.9,5.936c0,0-3.325-4.7-6.08-5.331l-.623,2.793s4.635,2.041,5.537,5.322c0,0-4.406-5.046-5.637-4.673a13.827,13.827,0,0,0-.2,3.34s3.3,1.542,3.648,3.5c0,0-3.293-3.061-3.68-2.767,0,0,.358,3.525,1.486,5.22a10.739,10.739,0,0,1-2.036-5.134,5.945,5.945,0,0,0-1.331,3.117s-1.093-1.806,1.254-3.974a13.678,13.678,0,0,1,.082-3.143,12.933,12.933,0,0,0-3.563,3.692s.056-2.6,3.7-4.438l.564-2.817s-3.586,2.212-4.553,3.819c0,0,.467-2.644,4.753-4.529l.952-2.658a22.208,22.208,0,0,0-4.7,3.231s.961-2.35,4.993-3.986l.843-1.7s-2.35,1.263-2.981,1.686-.808.294-.808.294a9.035,9.035,0,0,1,4.13-2.694S270.013,113.928,269.816,113.79Z" transform="translate(-260.232 -113.79)" fill="#3b9bd5"/></g><g transform="translate(35.952 79.704)" opacity="0.5"><path d="M175.726,246.239s-21.962-9.235-24.841,7.417a4.055,4.055,0,0,0,.587,4.741s.449-1.151,2.573.038a10.919,10.919,0,0,0,2.4.975,5.393,5.393,0,0,0,3.413-.182h0s7.22-.391,13.3-9.84c0,0,2.6-1.61,2.735-2.215l-4.356.294s.335,3.187-1.469,5.1c0,0,1.6-4.946.831-5.085-.156-.029-2.3.253-2.3.253s.555,5.543-2.35,8.41c0,0,2.7-5.637,1.522-8.31l-3.211.62s.881,5.831-2.3,9.22c0,0,2.611-5.992,1.6-9.035l-3.078,1.034s.743,5.7-1.915,8.518c0,0,2.32-7.229,1.228-8.225a16.086,16.086,0,0,0-3.36,1.762s.441,4.112-1.251,5.6c0,0,1.04-4.993.526-5.2,0,0-3.216,2.42-4.2,4.509a12.214,12.214,0,0,1,3.792-4.993,6.734,6.734,0,0,0-3.819.538s1.113-2.118,4.6-1.113c0,0,2.582-1.789,3.1-1.762,0,0-3.3-1.469-5.678-1.287,0,0,2.553-1.469,6.483.984l3.064-1.11s-4.256-2.182-6.392-2.174c0,0,2.837-1.1,7.191,1.956l3.143-.649a24.884,24.884,0,0,0-5.9-2.658s2.852-.452,6.809,2.511l2.15-.179s-2.6-1.533-3.39-1.906-.752-.614-.752-.614a10.251,10.251,0,0,1,5.043,2.426S175.705,246.512,175.726,246.239Z" transform="translate(-150.363 -243.685)" fill="#3b9bd5"/></g><g transform="translate(26.834 47.033)" opacity="0.5"><path d="M140.651,144.365s-7.787-18-18.981-9.743a3.331,3.331,0,0,0-2.35,3.143s.922-.429,1.5,1.489a9.123,9.123,0,0,0,.881,1.942,4.424,4.424,0,0,0,2.132,1.836h0s4.512,3.883,13.512,1.73c0,0,2.464.526,2.887.244l-2.752-2.312a5.911,5.911,0,0,1-3.783,2.185s3.769-2.027,3.39-2.547c-.076-.106-1.51-1.157-1.51-1.157s-2.829,3.607-6.168,3.663c0,0,4.814-1.815,5.637-4.068l-2.262-1.469s-2.84,3.974-6.656,4.183c0,0,4.964-2.071,6.1-4.456l-2.417-1.125s-2.808,3.819-5.983,3.962c0,0,5.5-2.973,5.411-4.186a12.763,12.763,0,0,0-3-.858s-2.077,2.688-3.93,2.611c0,0,3.463-2.376,3.272-2.79,0,0-3.29-.394-5.061.294a10.024,10.024,0,0,1,5.1-.8,5.5,5.5,0,0,0-2.57-1.851s1.871-.626,3.366,1.953a12.783,12.783,0,0,1,2.849.717,12.014,12.014,0,0,0-2.644-4s2.35.587,3.293,4.28l2.453,1.09s-1.284-3.725-2.558-4.932c0,0,2.312.963,3.158,5.258l2.229,1.407a20.6,20.6,0,0,0-1.989-4.944s1.95,1.357,2.614,5.372L137.2,141.6s-.676-2.391-.931-3.061-.094-.793-.094-.793a8.445,8.445,0,0,1,1.613,4.312S140.486,144.521,140.651,144.365Z" transform="translate(-119.32 -132.456)" fill="#3b9bd5"/></g><g transform="translate(190.942 61.664)" opacity="0.5"><path d="M687.008,188.91s-1.836-8.812-7.637-6.136a1.533,1.533,0,0,0-1.351,1.2s.455-.109.54.808a4.211,4.211,0,0,0,.209.955,2.056,2.056,0,0,0,.79,1.022h0s1.668,2.162,5.907,2.027c0,0,1.06.464,1.278.376l-1.025-1.292a2.711,2.711,0,0,1-1.9.632s1.88-.561,1.762-.831c-.026-.056-.573-.661-.573-.661a4.482,4.482,0,0,1-3.116,1.075s2.329-.37,2.911-1.307l-.881-.867a4.712,4.712,0,0,1-3.36,1.26s2.423-.47,3.155-1.436l-.981-.734s-1.616,1.451-3.058,1.225c0,0,2.746-.828,2.82-1.381a5.849,5.849,0,0,0-1.272-.664s-1.175,1.016-2.006.811c0,0,1.762-.746,1.73-.952a6.329,6.329,0,0,0-2.3-.338,4.615,4.615,0,0,1,2.365.109,2.52,2.52,0,0,0-.984-1.069s.9-.109,1.333,1.175a5.756,5.756,0,0,1,1.213.587,5.652,5.652,0,0,0-.817-2.056,2.457,2.457,0,0,1,1.084,2.229l1,.717a7.875,7.875,0,0,0-.693-2.456,3.093,3.093,0,0,1,.931,2.644l.881.84a9.42,9.42,0,0,0-.435-2.406,3.724,3.724,0,0,1,.676,2.644l.517.632s-.079-1.137-.132-1.469.029-.367.029-.367a3.884,3.884,0,0,1,.326,2.091A9.855,9.855,0,0,0,687.008,188.91Z" transform="translate(-678.02 -182.268)" fill="#3b9bd5"/></g><g transform="translate(159.328 225.015)" opacity="0.5"><path d="M579.381,745.03s-1.833-8.812-7.637-6.136a1.536,1.536,0,0,0-1.354,1.2s.455-.109.54.808a4.056,4.056,0,0,0,.211.955,2.056,2.056,0,0,0,.787,1.022h0s1.668,2.162,5.91,2.027c0,0,1.06.464,1.275.376l-1.022-1.293a2.714,2.714,0,0,1-1.9.632s1.88-.561,1.762-.831c-.023-.056-.573-.661-.573-.661a4.482,4.482,0,0,1-3.116,1.075s2.332-.37,2.911-1.307l-.881-.881a4.623,4.623,0,0,1-3.348,1.257s2.423-.47,3.155-1.436l-.981-.734s-1.613,1.451-3.055,1.225c0,0,2.746-.825,2.82-1.381a5.923,5.923,0,0,0-1.272-.664s-1.175,1.016-2.009.811c0,0,1.762-.746,1.73-.952a6.33,6.33,0,0,0-2.3-.338,4.623,4.623,0,0,1,2.367.109,2.541,2.541,0,0,0-.984-1.069s.9-.109,1.331,1.175a5.778,5.778,0,0,1,1.216.587,5.65,5.65,0,0,0-.817-2.056,2.452,2.452,0,0,1,1.081,2.229l1,.717a7.907,7.907,0,0,0-.7-2.456,3.089,3.089,0,0,1,.934,2.644l.881.84a9.338,9.338,0,0,0-.438-2.406,3.715,3.715,0,0,1,.678,2.644l.517.632s-.082-1.137-.135-1.469.029-.364.029-.364a3.868,3.868,0,0,1,.326,2.088A11.021,11.021,0,0,0,579.381,745.03Z" transform="translate(-570.39 -738.388)" fill="#3b9bd5"/></g></g></svg>