<svg xmlns="http://www.w3.org/2000/svg" width="231.891" height="150" viewBox="0 0 231.891 150"><g transform="translate(-683.109 -2949.844)"><circle cx="75" cy="75" r="75" transform="translate(725 2949.844)" fill="#fff212"/><g transform="translate(683.109 2963.642)"><rect width="92.543" height="121.946" transform="translate(9.584)" fill="#3f3d56"/><rect width="64.997" height="4.333" transform="translate(23.202 30.641)" fill="#fff"/><rect width="41.784" height="2.167" transform="translate(38.058 15.166)" fill="#fff212"/><rect width="64.997" height="4.333" transform="translate(23.202 40.236)" fill="#fff"/><rect width="64.997" height="4.333" transform="translate(23.202 49.831)" fill="#fff"/><circle cx="4.024" cy="4.024" r="4.024" transform="translate(22.583 12.071)" fill="#fff212"/><rect width="65.616" height="34.94" transform="translate(22.583 61.977)" fill="#fff212"/><path d="M157.48,681.707a3.98,3.98,0,1,0-5.634,5.623l5.623,5.634,5.634-5.623a3.98,3.98,0,1,0-5.623-5.634Z" transform="translate(-128.1 -577.402)" fill="#ff6582"/><path d="M908,710.329a4.239,4.239,0,0,0-6,5.989l5.989,6,6-5.989a4.239,4.239,0,0,0-5.989-6Z" transform="translate(-722.318 -600.523)" fill="#ff6582"/><path d="M955.3,715.218l-3.247-3.253a3.695,3.695,0,1,1,6.5.006Zm-1.527-6.872a1.9,1.9,0,0,0-1.347,3.248l2.875,2.881,2.881-2.875a1.9,1.9,0,0,0-1.343-3.251h0a1.892,1.892,0,0,0-1.345.556l-.186.186-.186-.186A1.9,1.9,0,0,0,953.776,708.346Z" transform="translate(-764.058 -595.128)" fill="#2f2e41"/><rect width="231.891" height="0.416" transform="translate(0 121.739)" fill="#2f2e41"/><path d="M612.744,544.052l-.317,4.231-6.452-2.116,2.644-3.173Z" transform="translate(-480.061 -430.167)" fill="#9e616a"/><path d="M728.575,536.627l-.317,4.125-3.6.529-2.115-2.01,2.433-3.914Z" transform="translate(-572.41 -424.117)" fill="#9e616a"/><path d="M686.038,438.924s2.856,3.385-.74,8.568-7.933,10.26-7.933,10.26l-8.039,15.231S665.2,487.9,664.249,488.32s-1.481-1.269-.952.529.212,1.692-.212,1.8-1.587-.106-1.163.635.74.74-.106.74-1.164-.529-1.164.212a9.607,9.607,0,0,1-.74,2.433s-5.183-1.481-5.394-2.115,1.375-.952,1.058-1.587a2.364,2.364,0,0,1-.423-1.587,1.127,1.127,0,0,1,.635-1.163s.529-.212.317-.635-1.058-.212,0-.74,5.394-16.712,5.394-16.712,0-8.039,1.375-10.683.317-21.472,3.6-21.683S686.038,438.924,686.038,438.924Z" transform="translate(-527.229 -379.089)" fill="#2f2e41"/><path d="M762.886,472.46l-.635,16.395s3.173,15.866,2.115,20.731-.317,4.231-.952,5.077-1.163.423-.635,1.164.846.952,0,1.8a7.126,7.126,0,0,0-1.269,2.856l-5.395-.529s1.375-2.433.846-2.962-1.9.317-.846-.846,1.692-.635,1.058-1.163-1.587-.317-.74-1.164,1.8-.846.952-1.163-1.8,0-1.375-.635.952-1.375.952-1.375l-1.269-9.625s-1.481-3.173-1.058-4.548-1.8-12.693-1.8-12.693Z" transform="translate(-605.135 -406.596)" fill="#2f2e41"/><path d="M741.867,694.206s1.058-1.058,1.375-.423,2.644,6.346,1.269,6.769-3.385.846-4.442.529-3.279-1.8-5.923-1.8-4.866-1.164-4.866-1.587-.423-2.962,1.587-2.962,5.712-2.327,5.712-2.327.846-1.692,1.269-1.587.106,3.491.106,3.491S740.386,696.639,741.867,694.206Z" transform="translate(-586.443 -579.581)" fill="#2f2e41"/><path d="M615.832,696.753s.952-2.327,1.9-1.8.317,7.087.317,7.087-.846,1.375-3.279,1.058-8.885-1.058-10.366-.74-5.5-1.481-4.442-3.914c0,0,.529-1.375,3.067-1.269s7.193-2.962,7.193-2.962.74-2.115.952-1.9a27.507,27.507,0,0,1,.423,3.914S614.351,698.022,615.832,696.753Z" transform="translate(-483.889 -580.753)" fill="#2f2e41"/><circle cx="6.135" cy="6.135" r="6.135" transform="translate(139.664 6.208)" fill="#9e616a"/><path d="M739.827,216.92s3.279,6.558,4.443,7.193-7.933,4.548-7.933,4.548-1.481-6.452-3.279-7.827S739.827,216.92,739.827,216.92Z" transform="translate(-589.268 -204.154)" fill="#9e616a"/><path d="M706.839,472.989l-.423,4.019s-4.548-1.587-3.068-4.548Z" transform="translate(-565.694 -406.596)" fill="#9e616a"/><path d="M707.249,297.578c3.173,3.384,19.99.528,19.99.528l-.211-2.433,2.115-2.22-.634-10.367a41.739,41.739,0,0,0,2.22-12.269,6.663,6.663,0,0,0-.082-1.361c-1.09-6.633-11.891-10.9-12.187-10.8-.149.049-1.739.878-3.4,1.749-1.9,1-3.9,2.058-3.9,2.058-2.539.953-2.115,16.185-2.962,17.56s0,6.134,0,6.134l-.951,4.548S704.076,294.194,707.249,297.578Z" transform="translate(-567.902 -237.214)" fill="#f0f0f0"/><path d="M727.09,283.14s2.962,8.885,2.327,14.914-7.51,23.27-7.51,23.27l-2.327,1.269v2.962l-1.637-4.433,4.5-9.411S716.83,279.227,727.09,283.14Z" transform="translate(-577.491 -256.355)" opacity="0.1"/><path d="M748.593,261.333c3.069-1.692,7.723,2.752,12.588,7.51,1.747,1.708,2.758,1.536,3.337.614-1.09-6.633-11.891-10.9-12.187-10.8-.149.049-1.739.878-3.4,1.749Z" transform="translate(-601.772 -237.214)" opacity="0.1"/><path d="M748.6,247.325l1.269-3.491s8.673-4.125,14.385,0l.952,5.923s.846,9.837-4.019,5.077S751.665,245.633,748.6,247.325Z" transform="translate(-601.776 -224.023)" fill="#f0f0f0"/><path d="M713.29,276.319s2.962,8.885,2.327,14.914-7.51,23.27-7.51,23.27l-2.327,1.269v2.962l-4.866-1.375,1.058-3.491s-1.692-2.115-.529-2.75.952-4.125.952-4.125S703.03,272.405,713.29,276.319Z" transform="translate(-564.001 -250.966)" fill="#f0f0f0"/><path d="M722.518,179.013a5.226,5.226,0,0,0-.314-1.412,2.235,2.235,0,0,0-1.848-.973c-.924-.08-1.855.08-2.781.016a2.888,2.888,0,0,1-2.375-1.221,5.609,5.609,0,0,0-.518-.978,2.016,2.016,0,0,0-2.161-.241,4.012,4.012,0,0,1-2.235.417,5.008,5.008,0,0,1,1.479-5.074,11.508,11.508,0,0,1,4.922-2.518c2.358-.687,5.011-1.093,7.179.061,3.144,1.673,4.253,6.1,3.963,9.4-.11,1.248-.289,2.661-1.3,3.5C725.055,181.23,722.965,181.124,722.518,179.013Z" transform="translate(-571.25 -164.102)" fill="#2f2e41"/></g></g></svg>