<svg xmlns="http://www.w3.org/2000/svg" width="214.16" height="260.112" viewBox="0 0 214.16 260.112"><g transform="translate(-236.265)"><path d="M382.423,581.069H317.5V568h64.923Zm-64.079-.843h63.236V568.843H318.343Z" transform="translate(-81.235 -417.287)" fill="#dcdedd"/><ellipse cx="4" cy="3.5" rx="4" ry="3.5" transform="translate(289.43 154.5)" fill="#fff212"/><ellipse cx="4.5" cy="3.5" rx="4.5" ry="3.5" transform="translate(276.43 154.5)" fill="#fff212"/><circle cx="3.5" cy="3.5" r="3.5" transform="translate(266.43 154.5)" fill="#fff212"/><ellipse cx="4.5" cy="3.5" rx="4.5" ry="3.5" transform="translate(253.43 154.5)" fill="#fff212"/><circle cx="3.5" cy="3.5" r="3.5" transform="translate(243.43 154.5)" fill="#fff212"/><path d="M568.893,189.138V157.1h16.02V141.5H506.5v78.413h67.03v-7.667a10.883,10.883,0,0,1,10.882-10.883h.5V189.138Z" transform="translate(-264.755 -141.5)" fill="#dcdedd"/><rect width="51" height="14" transform="translate(340.43 200.5)" fill="#fff212"/><rect width="78" height="11" transform="translate(325.43 147.5)" fill="#f0f0f0"/><path d="M330.461-.113l188.672.048V.778L330.461.73Z" transform="translate(-79.247 259.334)" fill="#707d79"/><path d="M771.659,483.17H675.8a11.318,11.318,0,0,1-11.3-11.3V293.8a11.317,11.317,0,0,1,11.3-11.3h95.854a11.317,11.317,0,0,1,11.3,11.3V471.865A11.317,11.317,0,0,1,771.659,483.17ZM675.8,283.343A10.473,10.473,0,0,0,665.343,293.8V471.865A10.473,10.473,0,0,0,675.8,482.327h95.854a10.473,10.473,0,0,0,10.461-10.461V293.8a10.473,10.473,0,0,0-10.461-10.461Z" transform="translate(-356.146 -223.058)" fill="#1d2926"/><path d="M774.529,295.559a2.529,2.529,0,1,1,2.53-2.529A2.529,2.529,0,0,1,774.529,295.559Zm0-4.216a1.686,1.686,0,1,0,1.686,1.686A1.686,1.686,0,0,0,774.529,291.343Z" transform="translate(-418.326 -227.685)" fill="#707d79"/><rect width="18.549" height="0.843" transform="translate(362.527 64.923)" fill="#707d79"/><path d="M881.226,311.5v33.726A33.727,33.727,0,0,1,847.5,311.5Z" transform="translate(-461.997 -239.832)" fill="#fff212"/><path d="M785.629,487.983H681.5V310.5H785.629Z" transform="translate(-365.979 -239.254)" fill="#1d2926"/><ellipse cx="13" cy="11.5" rx="13" ry="11.5" transform="translate(381.43 80.5)" opacity="0.1"/><ellipse cx="11" cy="12" rx="11" ry="12" transform="translate(381.43 81.5)" fill="#fff212"/><rect width="16" height="4" transform="translate(319.43 79.5)" fill="#707d79"/><rect width="15" height="7" transform="translate(328.43 133.5)" fill="#707d79"/><path d="M791.07,497.461H713.5V486.5h77.57Zm-76.727-.843h75.884v-9.275H714.343Z" transform="translate(-384.489 -341.056)" fill="#15a37d"/><rect width="78" height="9" transform="translate(325.43 179.5)" fill="#f0f0f0"/><rect width="15" height="7" transform="translate(328.43 165.5)" fill="#707d79"/><path d="M791.07,573.461H713.5V562.5h77.57Zm-76.727-.843h75.884v-9.275H714.343Z" transform="translate(-384.489 -385.017)" fill="#15a37d"/><path d="M795.618,625.3H742.5V613.5h53.119Zm-52.275-.843h51.432V614.343H743.343Z" transform="translate(-401.263 -414.516)" fill="#15a37d"/><path d="M880.929,496.716a4.216,4.216,0,0,1-7.466,2.685l0,0a4.215,4.215,0,1,1,7.348-3.68,0,0,0,0,0,0,0h0A4.315,4.315,0,0,1,880.929,496.716Z" transform="translate(-476.456 -344.527)" fill="#fff212"/><path d="M882.088,499.029a4.216,4.216,0,0,1-7.466,2.685l0,0a4.314,4.314,0,0,1-.118-.995,4.216,4.216,0,0,1,7.466-2.685,0,0,0,0,0,0,0h0A4.312,4.312,0,0,1,882.088,499.029Z" transform="translate(-477.615 -346.84)" opacity="0.1"/><ellipse cx="5" cy="4.5" rx="5" ry="4.5" transform="translate(397.43 149.5)" fill="#fff212"/><path d="M880.929,572.716a4.216,4.216,0,0,1-7.466,2.685l0,0a4.215,4.215,0,1,1,7.348-3.68,0,0,0,0,0,0,0h0A4.315,4.315,0,0,1,880.929,572.716Z" transform="translate(-476.456 -388.487)" fill="#fff212"/><path d="M882.088,575.029a4.216,4.216,0,0,1-7.466,2.685l0,0a4.315,4.315,0,0,1-.118-.995,4.216,4.216,0,0,1,7.466-2.685,0,0,0,0,0,0,0h0A4.31,4.31,0,0,1,882.088,575.029Z" transform="translate(-477.615 -390.801)" opacity="0.1"/><circle cx="5" cy="5" r="5" transform="translate(397.43 181.5)" fill="#fff212"/><rect width="18" height="20" transform="translate(311.43 20.5)" fill="#dcdedd"/><path d="M862.559,213.618a5.059,5.059,0,1,1,5.059-5.059A5.059,5.059,0,0,1,862.559,213.618Zm0-9.275a4.216,4.216,0,1,0,4.216,4.216A4.216,4.216,0,0,0,862.559,204.343Z" transform="translate(-467.782 -177.362)" fill="#3b9bd5"/><path d="M590.461,379.461H579.5V368.5h10.961Zm-10.118-.843h9.275v-9.275h-9.275Z" transform="translate(-306.98 -272.802)" fill="#3b9bd5"/><path d="M986.461,573.461H975.5V562.5h10.961Zm-10.118-.843h9.274v-9.275h-9.274Z" transform="translate(-536.036 -385.017)" fill="#fff212"/><ellipse cx="3.5" cy="4" rx="3.5" ry="4" transform="translate(268.43 183.5)" fill="#fff212"/><circle cx="2.755" cy="2.755" r="2.755" transform="translate(256.678 211.368)" fill="#3b9bd5"/><rect width="0.843" height="31.37" transform="translate(272.51 228.483)" fill="#dcdedd"/><circle cx="4.436" cy="4.436" r="4.436" transform="translate(268.495 224.046)" fill="#fff212"/><path d="M268.78,712.63s-.634-13.63-13.625-12.046" transform="translate(4.151 -464.814)" fill="#15a37d"/></g></svg>