<svg xmlns="http://www.w3.org/2000/svg" xmlns:xlink="http://www.w3.org/1999/xlink" width="818.408" height="912.003" viewBox="0 0 818.408 912.003"><defs><linearGradient id="a" x1="0.927" y1="1" x2="0.927" gradientUnits="objectBoundingBox"><stop offset="0" stop-color="gray" stop-opacity="0.251"/><stop offset="0.54" stop-color="gray" stop-opacity="0.122"/><stop offset="1" stop-color="gray" stop-opacity="0.102"/></linearGradient><linearGradient id="b" x1="0.5" y1="1" x2="0.5" y2="0" xlink:href="#a"/></defs><g transform="translate(236.934 325.064)"><path d="M203.466,373.962c27.544,35.023-30.664,50.943-48.164,91.923-23.971,30.862-38.96,56.961-36.519,71.672,3.021,17.987,19.076,31.145,35.935,38.114,30.727,12.71,42.363,9.214,70.6-8.355,24.4-15.182,41.876-39.868,66.693-54.354,41.537-24.245,94.4-15.089,139.5,1.615,31.91,11.814,66.794,27.181,98.495,14.835,22.306-8.692,37.727-29.839,46.134-52.261,4.056-10.817,7-22.538,14.75-31.121,4.636-5.1,10.616-8.723,16.774-11.775C663.888,406.377,734.893,421.3,789.5,390.392c36.878-20.861,60.489-60.265,70.943-101.338s9.272-84.139,6.583-126.433c-1.885-30.063-5.269-62.15-24.477-85.352-20.32-24.539-55.189-33.671-86.7-29s-60.087,21.294-85.221,40.872c-31.407,24.477-60.543,54.949-99.105,64.9-26.269,6.753-53.891,3.091-80.979,1.777-45.284-2.14-90.583,2.619-135.619,7.819-43.113,4.983,97.835,9.825,56.762,23.848-29.059,9.889-52.346,27.907-79.789,40.462-17.886,8.205-37.4,10.469-54.339,20.923-20.861,12.872-39.991,35.263-34.645,61.462C247.995,335.262,188.847,355.373,203.466,373.962Z" transform="matrix(-0.454, -0.891, 0.891, -0.454, 115.576, 713.922)" fill="#1d2926" opacity="0.15"/><path d="M209.426,500.363s-1.447-42.87-24.64-67.094a64.982,64.982,0,0,1-17.821-37.046,109.3,109.3,0,0,1-.544-19.983" transform="translate(-126.206 -231.892)" fill="none" stroke="#535461" stroke-miterlimit="10" stroke-width="2"/><path d="M132.982,325.879c1.587,4.789,14.857,15.787,14.857,15.787s4.065-16.756,2.478-21.54a9.132,9.132,0,1,0-17.335,5.749Z" transform="translate(-107.297 -196.87)" fill="#3b9bd5"/><path d="M116.985,392.042c3.947,3.157,21.049,5.183,21.049,5.183s-5.7-16.273-9.647-19.426a9.13,9.13,0,0,0-11.4,14.243Z" transform="translate(-96.816 -231.772)" fill="#3b9bd5"/><path d="M146.666,492.162c4.99.737,20.79-6.139,20.79-6.139s-13.129-11.173-18.12-11.91a9.132,9.132,0,0,0-2.671,18.067Z" transform="translate(-110.864 -286.79)" fill="#3b9bd5"/><path d="M193.1,564.335c4.793,1.57,21.531-2.552,21.531-2.552s-11.055-13.23-15.848-14.8a9.132,9.132,0,1,0-5.7,17.352Z" transform="translate(-137.776 -327.503)" fill="#3b9bd5"/><path d="M188.678,395.631c-2.329,4.473-17.177,13.235-17.177,13.235s-1.351-17.186.978-21.663a9.13,9.13,0,1,1,16.2,8.428Z" transform="translate(-128.968 -235.287)" fill="#3b9bd5"/><path d="M236.127,477.333c-3.561,3.574-20.347,7.485-20.347,7.485s3.855-16.8,7.411-20.378a9.13,9.13,0,0,1,12.936,12.888Z" transform="translate(-154.048 -279.907)" fill="#3b9bd5"/><path d="M276.421,567.532c-2.9,4.122-18.791,10.818-18.791,10.818s.956-17.212,3.863-21.338a9.13,9.13,0,1,1,14.91,10.525Z" transform="translate(-177.546 -331.082)" fill="#3b9bd5"/><path d="M714.678,591.894s-6.964-2.359-10.314,3.776a11.191,11.191,0,0,0,.149,10.774c2.193,3.977,6.736,9.143,15.348,8.683,7.288-.39,9.691-5.951,10.358-11.125a11.428,11.428,0,0,0-15.177-12.235Z" transform="translate(-427.644 -352.532)" fill="#90b274"/><path d="M706,606.751a11.191,11.191,0,0,1-.149-10.774c3.35-6.139,10.314-3.776,10.314-3.776l.355-.127a11.328,11.328,0,0,1,8.183.184,11.331,11.331,0,0,0-9.647-.921l-.355.127s-6.964-2.359-10.314,3.776a11.191,11.191,0,0,0,.149,10.774,16.649,16.649,0,0,0,7.893,7.455A17.257,17.257,0,0,1,706,606.751Z" transform="translate(-427.655 -352.286)" fill="#fff" opacity="0.1"/><path d="M721.36,599.64s2.583,2.03,8.849,0" transform="translate(-437.921 -357.327)" opacity="0.2"/><path d="M720.1,566s4.425,11.985,4.056,15.12l3.508-.368s-5.9-10.525-4.425-14.752Z" transform="translate(-437.214 -338.439)" fill="#3b9bd5"/><path d="M720.1,566s4.425,11.985,4.056,15.12l3.508-.368s-5.9-10.525-4.425-14.752Z" transform="translate(-437.214 -338.439)" opacity="0.2"/><path d="M743.772,566s-6.964-3.561-10.086-.618-3.6,10.463-3.6,10.463S741.452,577.4,743.772,566Z" transform="translate(-442.823 -337.436)" fill="#3b9bd5"/><path d="M743.772,566s-6.964-3.561-10.086-.618-3.6,10.463-3.6,10.463S741.452,577.4,743.772,566Z" transform="translate(-442.823 -337.436)" fill="#fff" opacity="0.1"/><path d="M730.1,578.125s1.829-8.731,13.677-9.845" transform="translate(-442.829 -339.719)" fill="none" stroke="#3b9bd5" stroke-miterlimit="10" stroke-width="1"/><path d="M251.15,383.106s1.421-23.18-9.836-37.423a35.187,35.187,0,0,1-7.7-20.882,59.2,59.2,0,0,1,.737-10.8" transform="translate(-164.05 -196.946)" fill="none" stroke="#535461" stroke-miterlimit="10" stroke-width="2"/><path d="M219.09,285.684c.61,2.662,7.2,9.275,7.2,9.275s3.07-8.823,2.443-11.48a4.947,4.947,0,1,0-9.647,2.193Z" transform="translate(-155.832 -177.646)" fill="#3b9bd5"/><path d="M206.881,320.357c1.96,1.9,11.081,3.877,11.081,3.877s-2.232-9.064-4.192-10.963a4.943,4.943,0,0,0-6.889,7.091Z" transform="translate(-148.21 -195.751)" fill="#3b9bd5"/><path d="M217.935,376.013c2.631.653,11.52-2.25,11.52-2.25s-6.5-6.7-9.152-7.35a4.943,4.943,0,1,0-2.368,9.6Z" transform="translate(-153.147 -226.294)" fill="#3b9bd5"/><path d="M239.268,417.323c2.5,1.092,11.735-.272,11.735-.272s-5.262-7.7-7.779-8.77a4.942,4.942,0,1,0-3.947,9.061Z" transform="translate(-165.574 -249.651)" fill="#3b9bd5"/><path d="M244.687,326.178c-1.482,2.293-9.937,6.249-9.937,6.249s.153-9.332,1.64-11.625a4.943,4.943,0,0,1,8.3,5.376Z" transform="translate(-164.699 -199.498)" fill="#3b9bd5"/><path d="M266.023,372.936c-2.1,1.754-11.353,2.991-11.353,2.991s2.938-8.858,5.043-10.6a4.944,4.944,0,0,1,6.31,7.613Z" transform="translate(-175.884 -225.124)" fill="#3b9bd5"/><path d="M282.952,423.623c-1.776,2.074-10.682,4.868-10.682,4.868s1.4-9.209,3.179-11.3a4.945,4.945,0,0,1,7.507,6.437Z" transform="translate(-185.766 -253.916)" fill="#3b9bd5"/><path d="M219.09,285.684c.61,2.662,7.2,9.275,7.2,9.275s3.07-8.823,2.443-11.48a4.947,4.947,0,1,0-9.647,2.193Z" transform="translate(-155.832 -177.646)" fill="#fff" opacity="0.5"/><path d="M206.881,320.357c1.96,1.9,11.081,3.877,11.081,3.877s-2.232-9.064-4.192-10.963a4.943,4.943,0,0,0-6.889,7.091Z" transform="translate(-148.21 -195.751)" fill="#fff" opacity="0.5"/><path d="M217.935,376.013c2.631.653,11.52-2.25,11.52-2.25s-6.5-6.7-9.152-7.35a4.943,4.943,0,1,0-2.368,9.6Z" transform="translate(-153.147 -226.294)" fill="#fff" opacity="0.5"/><path d="M239.268,417.323c2.5,1.092,11.735-.272,11.735-.272s-5.262-7.7-7.779-8.77a4.942,4.942,0,1,0-3.947,9.061Z" transform="translate(-165.574 -249.651)" fill="#fff" opacity="0.5"/><path d="M244.687,326.178c-1.482,2.293-9.937,6.249-9.937,6.249s.153-9.332,1.64-11.625a4.943,4.943,0,0,1,8.3,5.376Z" transform="translate(-164.699 -199.498)" fill="#fff" opacity="0.5"/><path d="M266.023,372.936c-2.1,1.754-11.353,2.991-11.353,2.991s2.938-8.858,5.043-10.6a4.944,4.944,0,0,1,6.31,7.613Z" transform="translate(-175.884 -225.124)" fill="#fff" opacity="0.5"/><path d="M282.952,423.623c-1.776,2.074-10.682,4.868-10.682,4.868s1.4-9.209,3.179-11.3a4.945,4.945,0,0,1,7.507,6.437Z" transform="translate(-185.766 -253.916)" fill="#fff" opacity="0.5"/><path d="M422.72,716.6H387.84V696.95h34.88Zm-33.406-1.473h31.924v-16.7H389.313Z" transform="translate(-250.656 -411.965)" fill="#3b9bd5" opacity="0.2"/><path d="M273.963,419.732a8.165,8.165,0,0,0,6.894,1.009,10.689,10.689,0,0,0,1.794-.794c22.365.474,43.076.254,43.878-2.153,1.316-3.99-7.016-23.645-11.222-33.143a10.646,10.646,0,0,0,3.07-3.206c5.841,6.679,16.708,15.3,23.167,15.725,0,0,9.428,22.4,20.036,18.856s11.787-22.4,6.481-24.75l-35.358-22.4v-37.16a13.918,13.918,0,0,0,1.478-6.885c0-.439.022-.877,0-1.316L333,312.913s-.061-.351-.224-.987c-2.631-10.222-8.494-17.1-16.76-18.124a6.039,6.039,0,0,0,.719-2.381c.171-1.982-.653-4-.189-5.938.544-2.254,2.631-3.71,4.346-5.262,3.662-3.35,5.968-7.893,8.2-12.327,2.122-4.223,4.276-8.556,4.824-13.248s-.877-9.9-4.714-12.664c-2.982-2.153-7.179-2.719-9.323-5.7a23.936,23.936,0,0,1-2.022-4.5c-1.908-4.346-6.021-7.429-10.485-9.038-15.664-5.639-34.88.833-44.874,13.84-3.263,4.245-5.617,9.1-7.946,13.923l-8.42,17.4c-1.451,3-2.855,6.736-.917,9.441.947,1.316,2.57,2.131,3.228,3.618.877,1.973-.219,4.556,1.07,6.293.71.96,1.943,1.342,3,1.9a11.743,11.743,0,0,1,3.627,3.214L237.649,306.7a12.45,12.45,0,0,0-4.762,8.6l-1.829,18.225a22.171,22.171,0,0,0-.824,6.363,10.843,10.843,0,0,0,1.118,5.7l.4-.1c.439,12.783,1.2,31.174,1.956,34.573.439,2.017,3.206,5.574,6.933,9.24l-1.316,3.727h.439l-.439,1.171h.877c-3.719,13.436-13.835,23.562-13.835,23.562S249.765,419.039,273.963,419.732Zm-21.987-62.086V343.32c2.158.333,3.749,1.079,4.258,2.438ZM258.22,295.3l.07.105h-.026Z" transform="translate(-159.994 -144.556)" fill="url(#a)"/><path d="M420.31,460.008s1.118,39.739,2.241,44.777,17.357,20.168,25.745,20.729c0,0,8.955,21.268,19.032,17.909s11.2-21.268,6.139-23.509l-33.56-21.268V456.11Z" transform="translate(-268.888 -276.738)" fill="#fdb797"/><path d="M316.874,576.09s14.554,31.345,12.875,36.4-95.159,0-95.159,0,17.352-17.352,13.993-36.4Z" transform="translate(-164.61 -344.104)" fill="#565171"/><path d="M339.412,359.915s-2.241,21.83,1.68,26.868-15.673,7.832-17.335,7.832-19.589-6.139-22.948-7.836-6.139-13.993-6.139-13.993,16.791,3.359,21.83-16.225Z" transform="translate(-198.343 -220.842)" fill="#fdb797"/><path d="M333.346,234.03c4.241,1.526,8.148,4.455,9.959,8.582a22.935,22.935,0,0,0,1.921,4.28c2.035,2.842,6.021,3.377,8.854,5.424,3.635,2.631,4.982,7.573,4.477,12.029s-2.552,8.573-4.565,12.581c-2.118,4.214-4.306,8.525-7.784,11.708-1.622,1.487-3.613,2.868-4.131,5.008-.438,1.837.342,3.754.175,5.639-.4,4.653-5.964,6.819-10.608,7.336-2.017.224-4.328.237-5.749-1.215a10,10,0,0,1-1.557-2.693,12.906,12.906,0,0,0-23.018-.237c-1.088,2.1-1.723,4.635-3.706,5.916-3.035,1.96-7.091-.342-9.323-3.175s-3.859-6.394-7.047-8.091c-1-.535-2.193-.877-2.846-1.807-1.223-1.649-.184-4.1-1.013-5.977-.627-1.412-2.166-2.193-3.07-3.438-1.842-2.57-.509-6.139.877-8.968l8-16.532a72.928,72.928,0,0,1,7.547-13.226C300.215,234.82,318.467,228.671,333.346,234.03Z" transform="translate(-186.409 -150.952)" fill="#8f5a6a"/><path d="M295.828,408.61s-21.83,0-27.425-20.15L250.029,402.7a11.84,11.84,0,0,0-4.521,8.17L243.754,428.2s-1.96,6.437.281,10.353c0,0,23.242-5.876,23.79.838l-16.216,45.339s25.189.561,31.9-3.916c0,0,27.425,5.6,34.143-.561s13.432-5.6,7.836-19.589c0,0,11.2-11.2,6.139-26.868s-.281.281-.281.281,10.915-5.319,10.353-15.392L340.583,408.6s-.061-.333-.215-.934c-3.412-13.278-12.581-20.61-25.469-15.936a11.819,11.819,0,0,1-7.617-.2S311.5,409.746,295.828,408.61Z" transform="translate(-169.309 -238.754)" opacity="0.1"/><path d="M295.828,406.06s-21.83,0-27.425-20.15l-18.374,14.239a11.84,11.84,0,0,0-4.521,8.165l-1.754,17.335s-1.96,6.438.281,10.354c0,0,23.242-5.876,23.79.838L251.6,482.178s25.189.561,31.9-3.916c0,0,27.425,5.6,34.143-.561s13.432-5.6,7.836-19.589c0,0,11.2-11.2,6.139-26.868s-.281.281-.281.281,10.915-5.319,10.353-15.392l-1.118-10.086s-.061-.333-.215-.934c-3.412-13.278-12.581-20.61-25.469-15.936a11.819,11.819,0,0,1-7.617-.2S311.5,407.178,295.828,406.06Z" transform="translate(-169.309 -237.322)" fill="#b45181"/><path d="M245.45,470.236s1.118,39.739,2.241,44.777,17.352,20.15,25.746,20.711c0,0,8.955,21.268,19.032,17.909s11.2-21.268,6.139-23.509l-33.582-21.268V466.32Z" transform="translate(-170.707 -282.47)" fill="#fdb797"/><path d="M269.287,468.08s-12.862,8.735-24.066,8.007c0,0-1.118-15,2.241-15.839S265.371,460.248,269.287,468.08Z" transform="translate(-170.479 -278.915)" opacity="0.1"/><path d="M269.287,466.8s-12.862,8.735-24.066,8c0,0-1.118-15,2.241-15.839S265.371,458.968,269.287,466.8Z" transform="translate(-170.479 -278.197)" fill="#b45181"/><path d="M335.829,359.1l22.948,3.359s-.517,5.052-.618,10.853a25.759,25.759,0,0,1-27.008-4.385A25.38,25.38,0,0,0,335.829,359.1Z" transform="translate(-218.826 -222.269)" opacity="0.1"/><circle cx="25.746" cy="25.746" r="25.746" transform="translate(104.689 100.452)" fill="#fdb797"/><path d="M325.327,285.855a7.991,7.991,0,0,0,3.442.491q6.832-.044,13.651-.5c3.447-.232,7.122-.636,9.779-2.842,3.578-2.969,4.144-8.534,2.3-12.8s-5.613-7.411-9.59-9.814a28.63,28.63,0,0,0-7.244-3.285c-7.38-2-15.541.439-21.4,5.372s-9.6,12.007-11.577,19.4c-.684,2.557-1.561,5.6-4.091,6.376,1.684,2.8,5.793,3.245,8.748,1.842,4.35-2.07,6.578-9.989,10.485-11.235C324.169,277.48,321.635,284.163,325.327,285.855Z" transform="translate(-201.667 -164.605)" opacity="0.1"/><path d="M325.344,284.6a7.992,7.992,0,0,0,3.442.491q6.832-.044,13.651-.5c3.447-.232,7.122-.636,9.779-2.842,3.578-2.969,4.144-8.534,2.3-12.8s-5.613-7.411-9.59-9.814a28.632,28.632,0,0,0-7.231-3.263c-7.38-2-15.541.439-21.4,5.372s-9.6,12.007-11.577,19.4c-.684,2.557-1.561,5.6-4.091,6.376,1.684,2.8,5.793,3.245,8.748,1.842,4.35-2.07,6.578-9.99,10.485-11.235C324.186,276.232,321.651,282.911,325.344,284.6Z" transform="translate(-201.684 -163.914)" fill="#8f5a6a"/><path d="M398.835,545.619a99.161,99.161,0,0,0-25.745-3.359" transform="translate(-242.375 -325.109)" opacity="0.1"/><path d="M300.33,481s8.4,6.139,6.139,9.516" transform="translate(-201.521 -290.713)" opacity="0.1"/><g transform="translate(56.075 253.75)" opacity="0.7"><path d="M402.7,578.64H127.88v24.026h16v75.605h243.4V602.667H402.7Z" transform="translate(-127.88 -578.64)" fill="url(#b)"/></g><rect width="238.436" height="85.639" transform="translate(74.545 267.743)" fill="#e0e0e0"/><rect width="238.436" height="13.432" transform="translate(74.545 272.22)" opacity="0.1"/><rect width="269.225" height="22.948" transform="translate(58.873 258.227)" fill="#e0e0e0"/><rect width="51.495" height="7.275" rx="3.638" transform="translate(109.741 252.579)" fill="#535461"/><g transform="translate(141.082 171.453)" opacity="0.7"><rect width="127.982" height="88.493" rx="28.22" fill="url(#b)"/></g><rect width="121.238" height="86.858" rx="26.84" transform="translate(143.367 173.088)" fill="#3e3f49"/><rect width="121.238" height="86.858" rx="26.84" transform="translate(145.046 173.088)" fill="#535461"/><circle cx="3.916" cy="3.916" r="3.916" transform="translate(207.413 212.003)" fill="#e0e0e0"/></g></svg>