<svg xmlns="http://www.w3.org/2000/svg" width="24.516" height="24.516" viewBox="0 0 24.516 24.516"><path d="M17.75,0H6.765A6.773,6.773,0,0,0,0,6.765V17.75a6.773,6.773,0,0,0,6.765,6.765H17.75a6.773,6.773,0,0,0,6.766-6.765V6.765A6.773,6.773,0,0,0,17.75,0Zm4.591,17.75a4.6,4.6,0,0,1-4.59,4.59H6.765a4.6,4.6,0,0,1-4.59-4.59V6.765a4.6,4.6,0,0,1,4.59-4.59H17.75a4.6,4.6,0,0,1,4.59,4.59V17.75Z" fill="#707d79"/><path d="M47.285,40.97A6.317,6.317,0,1,0,53.6,47.287,6.324,6.324,0,0,0,47.285,40.97Zm0,10.458a4.142,4.142,0,1,1,4.142-4.142A4.146,4.146,0,0,1,47.285,51.428Z" transform="translate(-35.027 -35.029)" fill="#707d79"/><path d="M120.516,28.251a1.594,1.594,0,1,0,1.128.467A1.6,1.6,0,0,0,120.516,28.251Z" transform="translate(-101.676 -24.154)" fill="#707d79"/></svg>