<svg width="100" height="102" viewBox="0 0 100 102" fill="none" xmlns="http://www.w3.org/2000/svg">
<path d="M60.5643 59.1748L60.9268 57.4329L59.2389 56.87C58.1324 56.5011 57.1311 56.2055 56.2786 55.9538C56.0127 55.8753 55.7613 55.8011 55.5257 55.7303C54.4884 55.4184 53.797 55.1827 53.2859 54.9236C52.8179 54.6863 52.5961 54.4752 52.4493 54.252C52.2875 54.006 52.1065 53.5753 52.0021 52.729L52.002 52.7284C51.6404 49.8059 52.4592 47.2775 53.1824 45.2927C53.2232 45.1807 53.2648 45.0673 53.3065 44.9537C53.4415 44.5862 53.577 44.2171 53.6853 43.8925C53.8207 43.4863 53.9763 42.9722 54.0239 42.4664C54.0674 42.0034 54.0709 40.9981 53.2416 40.2321C52.4659 39.5156 51.5023 39.5255 51.0147 39.5687C47.8132 39.8523 42.2929 41.6967 34.6852 47.2168C30.656 50.1403 27.8932 53.98 26.3092 57.0923C25.5207 58.6416 24.9833 60.0907 24.7448 61.2312C24.6325 61.7682 24.5474 62.4129 24.6392 63.0186C24.6846 63.3182 24.8011 63.8034 25.1579 64.2527C25.5821 64.7868 26.2262 65.1121 26.9407 65.1086C28.0853 65.1031 28.8362 64.4851 29.2921 63.9458C29.5637 63.6246 29.8552 63.1682 30.0857 62.8073C30.1515 62.7042 30.2123 62.609 30.2663 62.5268C30.8486 61.6412 31.7442 60.4225 33.688 59.0421C33.8055 58.9586 33.9202 58.8771 34.0322 58.7975C34.9911 58.1158 35.7536 57.5737 36.4363 57.142C37.1941 56.6627 37.7372 56.3964 38.1871 56.2616C38.884 56.0528 39.6479 56.0534 41.3139 56.9874C44.6223 58.8424 48.8957 60.0193 52.3024 60.617C54.0169 60.9178 55.5895 61.0856 56.7891 61.1068C57.3734 61.1172 57.9609 61.0951 58.4607 61.0023C58.6999 60.9579 59.0405 60.8763 59.3781 60.701C59.6719 60.5484 60.3702 60.1079 60.5643 59.1748ZM57.7398 57.0677C57.7475 57.0657 57.7517 57.0649 57.7519 57.0649C57.7522 57.065 57.7483 57.066 57.7398 57.0677Z" fill="white" stroke="white" stroke-width="4"/>
<path d="M29.9504 56.7152C29.9509 56.7148 29.9514 56.7143 29.9519 56.7139L30.3232 57.133C30.5836 56.6464 30.8609 56.1695 31.1544 55.7031L29.9504 56.7152ZM29.9504 56.7152C29.9498 56.7157 29.9493 56.7162 29.9488 56.7166L30.3217 57.1358M29.9504 56.7152L30.3217 57.1358M30.3217 57.1358C29.7082 58.2824 29.1882 59.4825 28.7695 60.7251C29.5533 59.8365 30.3911 58.9968 31.2782 58.2109C31.7414 57.7988 32.2043 57.4151 32.6669 57.0598L30.3217 57.1358ZM53.211 59.4889L55.089 59.0702L54.7431 57.1774C54.582 56.2954 54.1416 55.6789 53.7241 55.2445C53.5312 55.0439 53.3325 54.8712 53.1837 54.7438C53.1429 54.7088 53.1055 54.677 53.0706 54.6473C52.9619 54.5547 52.8773 54.4826 52.7863 54.3994C52.4605 54.1016 52.1275 53.7558 51.9991 52.7489C51.831 51.0772 51.9268 49.3896 52.2831 47.7475L52.2833 47.7465C52.4599 46.9304 52.7693 46.115 53.0847 45.2835C53.1259 45.1749 53.1672 45.066 53.2083 44.9568C53.3681 44.5325 53.5527 44.0308 53.6597 43.5794C53.7134 43.3527 53.7722 43.0412 53.7691 42.6996C53.7662 42.3766 53.7066 41.7933 53.2937 41.2468L53.2245 41.1551L53.1452 41.072C52.4113 40.3025 51.4478 40.1643 50.8202 40.1596C50.1528 40.1545 49.4542 40.2941 48.8037 40.4784C47.4879 40.8511 45.9388 41.5337 44.3771 42.3389C41.2358 43.9586 37.6921 46.2587 35.2111 48.225L35.21 48.2258C31.344 51.294 28.4489 55.4129 26.8742 60.0865L30.2695 62.048C30.999 61.2209 31.7788 60.4394 32.6045 59.7078L32.6076 59.7051C33.1714 59.2035 33.7289 58.7524 34.2799 58.3503L34.3319 58.3124L34.3813 58.2712C36.3273 56.6494 37.3297 56.1306 38.3372 56.1584L38.6951 56.1682L39.0343 56.0533C39.6367 55.8491 40.2777 55.7834 40.9094 55.8612L40.9952 55.8718L41.0815 55.8749C41.0714 55.8745 41.0717 55.8746 41.0842 55.8769C41.1184 55.8833 41.2439 55.9068 41.4933 55.9855C41.7996 56.082 42.1848 56.2263 42.6501 56.4151C43.2079 56.6415 43.7902 56.8936 44.421 57.1667C44.8844 57.3674 45.3739 57.5794 45.899 57.8007C47.0759 58.2968 48.353 58.8049 49.5359 59.1486C50.6308 59.4667 52.0031 59.7583 53.211 59.4889Z" fill="white" stroke="white" stroke-width="4"/>
<path d="M32.4898 61.4408C32.7368 62.679 33.3461 63.8157 34.24 64.7074C34.8331 65.2994 35.537 65.7687 36.3114 66.0888C37.086 66.4091 37.916 66.5738 38.7542 66.5738C39.5923 66.5738 40.4224 66.4091 41.197 66.0888C41.9716 65.7686 42.6756 65.2991 43.2689 64.707C44.1625 63.8154 44.7716 62.6788 45.0186 61.4408L43.0573 61.0496L45.0186 61.4408C45.2656 60.2026 45.1391 58.9191 44.6552 57.7529L42.8079 58.5194L44.6552 57.7529C44.1713 56.5867 43.3521 55.5906 42.3017 54.8901C41.2513 54.1895 40.0167 53.8159 38.7542 53.8159C37.4916 53.8159 36.2571 54.1896 35.2067 54.8901C34.1563 55.5906 33.3371 56.5867 32.8532 57.7529C32.3693 58.9191 32.2428 60.2026 32.4898 61.4408Z" fill="white" stroke="white" stroke-width="4"/>
<path d="M74.4003 37.295L73.0224 36.1935L71.7574 37.4231C70.9215 38.2356 70.1992 38.9885 69.5842 39.6294C69.3926 39.8291 69.2115 40.0179 69.0405 40.1943C68.2874 40.9714 67.7609 41.4764 67.2961 41.8109C66.8708 42.1171 66.5808 42.2174 66.3136 42.2455C66.019 42.2764 65.5515 42.2392 64.7498 41.9438L64.749 41.9435C61.9779 40.9236 60.1004 39.0371 58.6641 37.4861C58.5833 37.3989 58.5016 37.3102 58.4199 37.2215C58.1541 36.933 57.8872 36.6433 57.6474 36.3983C57.3475 36.0919 56.9613 35.7187 56.5332 35.4453C56.1411 35.1949 55.2515 34.7337 54.1932 35.1165C53.2004 35.4756 52.7657 36.3349 52.5794 36.7895C51.3609 39.7627 50.4737 45.5117 51.9052 54.7859C52.6633 59.6979 54.8146 63.9086 56.8587 66.7407C57.8763 68.1506 58.9198 69.2919 59.826 70.0265C60.253 70.3725 60.7876 70.743 61.3681 70.9387C61.6554 71.0356 62.1382 71.1537 62.6988 71.0442C63.3638 70.9143 63.9494 70.4963 64.2774 69.8611C64.8044 68.8404 64.6013 67.8856 64.3297 67.2296C64.1673 66.8371 63.8928 66.3664 63.6761 65.9947C63.6154 65.8906 63.5593 65.7943 63.5114 65.7097C62.9881 64.7849 62.3122 63.4323 61.9724 61.08C61.9532 60.9464 61.9342 60.8159 61.9157 60.6882C61.7458 59.515 61.6108 58.5835 61.5386 57.7753C61.459 56.8844 61.4709 56.2814 61.5569 55.8214C61.6899 55.1098 62.0394 54.4325 63.6332 53.3837C66.8037 51.2973 69.8119 48.0447 71.9062 45.2961C72.9601 43.9129 73.8305 42.5947 74.3992 41.5403C74.6762 41.0268 74.9261 40.495 75.0726 40.0081C75.1428 39.7752 75.2266 39.4338 75.2245 39.0516C75.2228 38.7167 75.147 37.892 74.4003 37.295ZM71.2479 38.8349C71.248 38.8348 71.2472 38.8388 71.2448 38.8472C71.2465 38.8392 71.2477 38.835 71.2479 38.8349Z" fill="white" stroke="white" stroke-width="4"/>
<path d="M71.8073 42.109L71.3189 43.9692C71.0046 45.1662 70.1152 46.2511 69.3309 47.0763C68.483 47.9684 67.4459 48.8686 66.4656 49.6853C66.0291 50.0489 65.6171 50.3854 65.2271 50.704C64.6944 51.1391 64.2026 51.5408 63.7454 51.9322C63.3645 52.2584 63.0601 52.5338 62.8344 52.761C62.6522 52.9443 62.5741 53.0442 62.5526 53.0718C62.5444 53.0823 62.5443 53.0824 62.5497 53.0727L62.5064 53.1498L62.4565 53.2228C62.0982 53.7463 61.8632 54.3436 61.7687 54.9699L61.7147 55.3276L61.5389 55.6436C61.0563 56.5115 61.0569 57.6336 61.6093 60.1079L61.6233 60.1709L61.6333 60.2347C61.7383 60.9065 61.8842 61.6069 62.0726 62.3365L62.0738 62.3416C62.3464 63.409 62.6847 64.4586 63.0867 65.4846L59.7904 67.6082C56.3512 64.0697 54.0099 59.6141 53.0489 54.7776L71.8073 42.109ZM71.8073 42.109L69.9676 41.5482M71.8073 42.109L69.9676 41.5482M69.9676 41.5482C69.1099 41.2868 68.3601 41.3957 67.7834 41.5671C67.517 41.6463 67.2725 41.7435 67.0912 41.817C67.0424 41.8368 66.9977 41.8551 66.956 41.8721C66.8227 41.9266 66.7191 41.969 66.6028 42.0117C66.1878 42.1645 65.7242 42.3021 64.7649 41.952C63.1976 41.3343 61.7373 40.4749 60.4373 39.4053L60.4361 39.4043M69.9676 41.5482L60.4361 39.4043M60.4361 39.4043C59.7907 38.8741 59.2077 38.227 58.6128 37.5666C58.5345 37.4796 58.456 37.3925 58.3771 37.3054C58.0727 36.9691 57.7104 36.575 57.3568 36.2729C57.179 36.1211 56.9284 35.9264 56.6227 35.7731C56.3326 35.6276 55.7901 35.4168 55.1201 35.5309L55.0062 35.5503M60.4361 39.4043L55.0062 35.5503M55.0062 35.5503L54.8952 35.5827M55.0062 35.5503L54.8952 35.5827M54.8952 35.5827C53.8744 35.8807 53.3086 36.6723 53.0158 37.2288M54.8952 35.5827L53.0158 37.2288M53.0158 37.2288C52.7048 37.8198 52.5086 38.5046 52.3745 39.1666M53.0158 37.2288L52.3745 39.1666M52.3745 39.1666C52.1033 40.5058 52.0013 42.1938 52.0029 43.9485M52.3745 39.1666L52.0029 43.9485M52.0029 43.9485C52.0063 47.4778 52.4317 51.6758 53.0488 54.7771L52.0029 43.9485Z" fill="white" stroke="white" stroke-width="4"/>
<path d="M63.5648 63.2506L64.1148 61.3277L63.5648 63.2506C64.7786 63.5978 66.0682 63.5779 67.2708 63.1935C68.8831 62.6782 70.2255 61.5443 71.0017 60.04C71.7779 58.5355 71.9236 56.7845 71.4065 55.1725C71.0209 53.9704 70.2869 52.91 69.2981 52.125L68.0547 53.6915L69.2981 52.125C68.3093 51.3402 67.1099 50.8659 65.8517 50.7616C64.5935 50.6573 63.3325 50.9278 62.2279 51.539C61.1232 52.1502 60.2243 53.0749 59.6454 54.1969C59.0665 55.319 58.8339 56.5874 58.9772 57.8417C59.1206 59.0961 59.6334 60.2794 60.4502 61.242C61.267 62.2046 62.351 62.9034 63.5648 63.2506Z" fill="white" stroke="white" stroke-width="4"/>
<path d="M61.094 14.3786L59.4487 15.0316L59.897 16.744C60.1917 17.8699 60.4906 18.8682 60.745 19.718C60.8245 19.9835 60.8996 20.2346 60.969 20.4705C61.2739 21.5079 61.4534 22.2136 61.515 22.7813C61.5713 23.3004 61.5154 23.5999 61.4084 23.844C61.2902 24.1137 61.0272 24.5009 60.373 25.0513L60.3727 25.0516C58.1156 26.9515 55.5447 27.6486 53.4834 28.1287C53.3673 28.1557 53.2496 28.1828 53.1317 28.21C52.7492 28.298 52.3654 28.3864 52.0336 28.4734C51.6187 28.5821 51.1032 28.7327 50.6538 28.9688C50.2435 29.1843 49.3992 29.7285 49.2079 30.8397C49.0282 31.8828 49.5634 32.6865 49.8663 33.0719C51.8514 35.5972 56.4208 39.2085 65.2078 42.5482C69.8604 44.3165 74.5899 44.5303 78.0659 44.156C79.7963 43.9697 81.3055 43.6283 82.3926 43.2051C82.9046 43.0057 83.4915 42.725 83.9492 42.3175C84.1756 42.116 84.5183 41.7542 84.7005 41.2111C84.917 40.5661 84.8406 39.8493 84.4492 39.2512C83.8202 38.2901 82.8892 37.997 82.1862 37.9097C81.766 37.8576 81.2222 37.8635 80.7921 37.8682C80.6706 37.8696 80.5581 37.8708 80.4601 37.8706C79.3964 37.8683 77.8838 37.7866 75.6659 36.9164C75.5312 36.8636 75.3998 36.8121 75.2714 36.7618C74.1769 36.333 73.3061 35.9918 72.5711 35.6571C71.7548 35.2853 71.2344 34.9766 70.8753 34.6741C70.3203 34.2066 69.9039 33.5699 69.7782 31.6709C69.5287 27.8874 68.1817 23.6691 66.8222 20.4938C66.138 18.8958 65.4197 17.4891 64.7822 16.4746C64.4717 15.9806 64.1319 15.5012 63.7805 15.1337C63.6124 14.9579 63.3569 14.7171 63.0241 14.5306C62.733 14.3675 61.9804 14.0267 61.094 14.3786ZM60.8748 17.8837C60.8748 17.8835 60.8778 17.8862 60.8839 17.8924C60.8779 17.8869 60.8748 17.8838 60.8748 17.8837Z" fill="white" stroke="white" stroke-width="4"/>
<path d="M65.3787 20.3485L64.0037 19.0069L62.6079 20.3268C61.9568 20.9425 61.6796 21.6469 61.5428 22.2344C61.4797 22.5055 61.4433 22.7663 61.4176 22.9603C61.4106 23.0137 61.4043 23.0624 61.3984 23.1078C61.3801 23.2492 61.3658 23.359 61.3458 23.4803C61.2741 23.9136 61.1663 24.3818 60.389 25.0416C59.0779 26.0956 57.609 26.9378 56.0358 27.5374C55.256 27.8328 54.406 28.0194 53.5406 28.2094C53.4216 28.2355 53.3023 28.2617 53.1828 28.2883C52.7385 28.387 52.2174 28.5072 51.7809 28.6646C51.5618 28.7436 51.2694 28.8645 50.9857 29.0531C50.7184 29.2307 50.2615 29.5986 50.0285 30.2431L49.9896 30.3507L49.9633 30.462C49.7176 31.4988 50.1295 32.3827 50.4689 32.9106C50.8299 33.4721 51.3292 33.9802 51.8392 34.4233C52.8711 35.3198 54.2905 36.2419 55.8196 37.1073C58.8953 38.8479 62.7626 40.5529 65.7707 41.5496C70.4562 43.1051 75.4924 43.2754 80.2727 42.0399L80.0591 38.1242C78.9676 37.966 77.8868 37.7407 76.8231 37.4497L76.8175 37.4482C76.0888 37.2512 75.4062 37.0314 74.7683 36.7902L74.7076 36.7672L74.6455 36.7483C72.22 36.0068 71.238 35.4529 70.713 34.5981L70.5251 34.2923L70.2427 34.0708C69.7428 33.6789 69.3384 33.1796 69.0595 32.6105L69.0204 32.5307L68.9743 32.4547C68.9801 32.4643 68.9801 32.4642 68.975 32.4519C68.9616 32.4196 68.9132 32.3029 68.8436 32.0548C68.7573 31.7471 68.6678 31.3472 68.5718 30.8557C68.4565 30.2648 68.3493 29.6385 68.2332 28.9598C68.1486 28.4651 68.0592 27.9426 67.9584 27.3858C67.7314 26.1316 67.4597 24.7866 67.1015 23.6096C66.7699 22.52 66.2645 21.2127 65.3787 20.3485Z" fill="white" stroke="white" stroke-width="4"/>
<path d="M80.122 33.3566C79.8623 34.592 79.2416 35.7224 78.3387 36.6048C77.4358 37.4874 76.2914 38.0825 75.0505 38.3154C73.8095 38.5483 72.5272 38.4087 71.3656 37.9141C70.2039 37.4195 69.2146 36.5918 68.5233 35.5353C67.832 34.4787 67.47 33.2408 67.4835 31.9782C67.497 30.7156 67.8855 29.4858 68.5992 28.4442C69.3129 27.4026 70.3197 26.5963 71.4917 26.1267C72.6634 25.6571 73.9482 25.5448 75.1837 25.804L80.122 33.3566ZM80.122 33.3566C80.4705 31.7002 80.1452 29.9737 79.2185 28.5572C78.292 27.1411 76.8406 26.1513 75.1843 25.8041L80.122 33.3566Z" fill="white" stroke="white" stroke-width="4"/>
<path d="M34.2142 13.9366L33.9813 15.691L35.6944 16.1356C36.8231 16.4285 37.842 16.6554 38.7095 16.8486C38.9803 16.9089 39.2363 16.9659 39.4763 17.0206C40.5323 17.2613 41.2379 17.4495 41.7652 17.6733C42.2479 17.8781 42.483 18.0735 42.6441 18.2859C42.8218 18.52 43.0313 18.9372 43.1923 19.7744L43.1928 19.7765C43.7525 22.6685 43.1092 25.2471 42.524 27.2763C42.4909 27.3912 42.457 27.5076 42.4231 27.6242C42.3138 27.9996 42.2041 28.3765 42.1184 28.7072C42.0112 29.1217 41.8912 29.6446 41.8781 30.1519C41.8661 30.6153 41.9297 31.6172 42.8062 32.3259C43.6283 32.9906 44.5899 32.9162 45.0738 32.8401C48.2416 32.3421 53.6364 30.1295 60.8457 24.0988C64.6618 20.9066 67.157 16.8905 68.5265 13.6793C69.2082 12.0808 69.6465 10.599 69.8072 9.44463C69.8829 8.90097 69.924 8.25162 69.791 7.653C69.7251 7.35654 69.5758 6.88142 69.1905 6.4581C68.7335 5.95597 68.0723 5.67386 67.3614 5.72241C66.2169 5.80056 65.5056 6.467 65.0845 7.0383C64.8327 7.37986 64.5716 7.85763 64.3654 8.23493C64.3075 8.34094 64.2539 8.43901 64.2061 8.52391C63.6846 9.44929 62.8751 10.727 61.034 12.2346C60.9263 12.3228 60.8211 12.4091 60.7183 12.4933C59.8048 13.2421 59.0787 13.8372 58.4251 14.3159C57.7024 14.8454 57.1785 15.148 56.7385 15.3133C56.0561 15.5694 55.2919 15.6206 53.5666 14.8018L53.5663 14.8016C50.1391 13.1759 45.7952 12.2919 42.3563 11.927C40.6255 11.7433 39.0456 11.6826 37.848 11.7427C37.2648 11.772 36.6804 11.8339 36.1882 11.9604C35.9528 12.0209 35.6179 12.1256 35.2926 12.3243C35.0089 12.4975 34.3401 12.9878 34.2142 13.9366ZM37.1635 15.8403C37.1634 15.8402 37.1672 15.8389 37.1756 15.8367C37.1679 15.8393 37.1637 15.8404 37.1635 15.8403Z" fill="white" stroke="white" stroke-width="4"/>
<path d="M64.9227 14.2995C64.9222 14.3 64.9216 14.3006 64.921 14.3012L64.5228 13.9087C64.2959 14.4122 64.0515 14.9073 63.7901 15.393L64.9227 14.2995ZM64.9227 14.2995C65.8118 13.3972 66.6443 12.4411 67.4153 11.4365L65.8288 10.2188M64.9227 14.2995L64.5245 13.9051C65.0585 12.7195 65.4956 11.4869 65.8288 10.2188M65.8288 10.2188L63.8944 9.71054C63.6529 10.6298 63.3517 11.5286 62.994 12.4019C62.9938 12.4025 62.9935 12.4031 62.9933 12.4037C62.7505 12.9961 62.4818 13.5768 62.188 14.144C62.626 13.7559 63.0622 13.3403 63.4966 12.8972L65.8288 10.2188ZM56.6753 17.4281C58.5127 17.3533 59.9703 16.2256 61.7782 14.4987L56.6753 17.4281ZM56.6753 17.4281C55.8103 17.7877 54.875 17.9478 53.9393 17.8965M56.6753 17.4281L53.9393 17.8965M53.9393 17.8965C53.1783 17.9181 51.5807 17.3522 49.7634 16.7086C48.2049 16.1566 46.4849 15.5474 44.9926 15.2025M53.9393 17.8965L44.9926 15.2025M44.9926 15.2025C44.9245 15.1444 44.8564 15.0885 44.7885 15.0344C44.6312 14.9092 44.4681 14.7885 44.3455 14.6979C44.3165 14.6764 44.2898 14.6566 44.2659 14.6389C44.1207 14.5307 44.0445 14.47 43.9926 14.4228C43.9728 14.4048 43.9649 14.3967 43.9646 14.397C43.9637 14.3978 44.0101 14.4523 44.0323 14.5396L42.2561 14.9913M41.5263 13.1148L39.6815 13.6609L40.1557 15.5254C40.3766 16.394 40.8575 16.9791 41.3037 17.3843C41.5098 17.5714 41.7199 17.7302 41.8769 17.8471C41.9202 17.8793 41.9597 17.9086 41.9966 17.9359C42.1112 18.0208 42.2004 18.0868 42.2967 18.1635C42.6415 18.4381 42.9973 18.7601 43.1942 19.7568C43.476 21.4135 43.4956 23.104 43.2523 24.7668L43.252 24.7685C43.1318 25.595 42.8786 26.4297 42.6204 27.2813C42.5868 27.3919 42.5532 27.5028 42.5197 27.614C42.3892 28.0481 42.2391 28.5614 42.1631 29.0193C42.125 29.2493 42.0875 29.5645 42.114 29.9054C42.1391 30.2281 42.2389 30.8056 42.688 31.3223L42.763 31.4087L42.8475 31.486C43.6327 32.2043 44.6046 32.2748 45.2287 32.2365C45.8938 32.1957 46.5805 32.009 47.2164 31.7812C48.503 31.3201 50.002 30.5346 51.5058 29.6256C54.5301 27.7974 57.9113 25.2623 60.2542 23.1263C63.9021 19.8025 66.51 15.4966 67.7631 10.727L64.2422 9.00103C63.571 9.87555 62.8463 10.7079 62.0722 11.4933L62.0686 11.497C61.5392 12.0368 61.012 12.5277 60.4873 12.9711L60.4408 13.0104L60.3968 13.0524C58.5648 14.8023 57.6006 15.3888 56.5941 15.4297L56.2372 15.4442L55.9075 15.5813C55.3201 15.8256 54.6847 15.9344 54.049 15.8995L53.9658 15.8949L53.8825 15.8973C53.8917 15.897 53.8912 15.8969 53.8793 15.8955C53.8451 15.8915 53.717 15.8764 53.4592 15.8137C53.1463 15.7375 52.7515 15.6193 52.2741 15.4621C51.7052 15.2749 51.1122 15.0647 50.4702 14.8371C49.99 14.6669 49.4824 14.4869 48.937 14.2997C47.7288 13.8847 46.42 13.4651 45.2161 13.203C44.1019 12.9604 42.713 12.7635 41.5263 13.1148Z" fill="white" stroke="white" stroke-width="4"/>
<path d="M53.7204 15.2281L52.7273 16.9641C51.6314 16.3371 50.7457 15.3995 50.1829 14.2693C49.6202 13.139 49.4057 11.8673 49.5672 10.615C49.7285 9.36293 50.2583 8.18723 51.0887 7.23644L53.7204 15.2281ZM53.7204 15.2281L52.7273 16.9641C53.8232 17.591 55.0804 17.8794 56.34 17.793L56.2032 15.7977M53.7204 15.2281L56.2032 15.7977M56.2032 15.7977L56.34 17.793C57.5996 17.7066 58.8057 17.2493 59.8056 16.4785C60.8056 15.7076 61.5546 14.6577 61.9573 13.461C62.3599 12.2643 62.3979 10.9752 62.0665 9.75684C61.735 8.53871 61.0493 7.44662 60.0966 6.61835L56.2032 15.7977ZM60.0961 6.61795C59.4639 6.06815 58.7295 5.64812 57.935 5.38171C57.1403 5.11524 56.3009 5.0077 55.4648 5.06503C54.6286 5.12237 53.8118 5.34353 53.061 5.71603C52.3104 6.08841 51.6403 6.6048 51.0891 7.23598L60.0961 6.61795Z" fill="white" stroke="white" stroke-width="4"/>
<path d="M22.9778 38.0305L21.5812 36.9509C20.8247 36.3661 20.7357 35.5426 20.7284 35.2084C20.7201 34.8266 20.7981 34.484 20.8643 34.2501C21.0026 33.761 21.2434 33.2252 21.5115 32.7072C22.0623 31.6434 22.91 30.3108 23.9402 28.91C25.9873 26.1266 28.9398 22.8235 32.0752 20.6833L32.0763 20.6826C33.6511 19.6091 33.9886 18.9265 34.1094 18.2128C34.1875 17.7512 34.1891 17.1476 34.0944 16.2578C34.0085 15.4515 33.8581 14.5235 33.6687 13.3552C33.6478 13.2265 33.6264 13.0948 33.6047 12.9601C33.2254 10.6139 32.5265 9.27334 31.9875 8.35811C31.9381 8.27418 31.8802 8.17865 31.8175 8.07539C31.5945 7.70777 31.3121 7.24214 31.143 6.85302C30.8601 6.20222 30.6399 5.2509 31.1492 4.22086C31.4661 3.58004 32.0444 3.15177 32.7073 3.01038C33.2661 2.89121 33.7509 3.00107 34.0398 3.09301C34.6236 3.27876 35.1644 3.64009 35.5972 3.9788C36.5157 4.69773 37.5786 5.82104 38.6202 7.21334C40.7124 10.01 42.9355 14.1834 43.7777 19.0816C45.3678 28.3305 44.5769 34.0946 43.4106 37.0865C43.2322 37.544 42.8123 38.4112 41.8251 38.787C40.7732 39.1875 39.876 38.7409 39.4802 38.4974C39.0477 38.2313 38.6553 37.8648 38.3503 37.5635C38.1066 37.3228 37.8351 37.0379 37.5646 36.7542C37.4811 36.6667 37.3978 36.5793 37.3154 36.4933C35.853 34.967 33.9436 33.1127 31.1559 32.1402L22.9778 38.0305ZM22.9778 38.0305L24.2225 36.7788M22.9778 38.0305L24.2225 36.7788M24.2225 36.7788C25.0465 35.9501 25.7571 35.1835 26.3618 34.5312M24.2225 36.7788L26.3618 34.5312M26.3618 34.5312C26.5484 34.3298 26.725 34.1393 26.8918 33.9612M26.3618 34.5312L26.8918 33.9612M26.8918 33.9612C27.6313 33.1712 28.1487 32.6574 28.6073 32.3152M26.8918 33.9612L28.6073 32.3152M28.6073 32.3152C29.0268 32.0022 29.3149 31.897 29.5821 31.8644M28.6073 32.3152L29.5821 31.8644M29.5821 31.8644C29.877 31.8284 30.3466 31.8579 31.1559 32.1402L29.5821 31.8644ZM24.7082 35.3589C24.708 35.359 24.7088 35.355 24.7111 35.3466C24.7095 35.3546 24.7083 35.3588 24.7082 35.3589Z" fill="white" stroke="white" stroke-width="4"/>
<path d="M24.5496 30.2267L24.0925 32.0972L25.9442 32.6249C26.8049 32.8702 27.5514 32.7501 28.1261 32.5692C28.3915 32.4857 28.6345 32.3845 28.8147 32.3079C28.864 32.2869 28.909 32.2677 28.951 32.2497C29.0825 32.1935 29.1848 32.1497 29.2998 32.1051C29.7116 31.9458 30.172 31.8003 31.1379 32.1335C32.7153 32.724 34.1897 33.5582 35.5074 34.6054L35.5091 34.6068C36.1651 35.1269 36.7616 35.7661 37.3694 36.4174C37.448 36.5016 37.5268 36.586 37.6059 36.6704C37.9163 37.0014 38.2848 37.3886 38.6422 37.6839C38.8217 37.8323 39.0746 38.0224 39.3812 38.1706C39.6707 38.3106 40.2179 38.5154 40.8888 38.3901L41.0037 38.3686L41.1152 38.3339C42.1305 38.0183 42.6824 37.217 42.9654 36.6558C43.2661 36.0598 43.4505 35.3718 43.5732 34.7078C43.8215 33.3643 43.8946 31.6751 43.8631 29.9209C43.7996 26.3922 43.3026 22.2019 42.6325 19.1103C41.588 14.2905 39.1695 9.87538 35.669 6.39658L32.4098 8.57672C32.8293 9.59553 33.1854 10.6392 33.476 11.7018L33.476 11.7018L33.4776 11.7076C33.6781 12.4325 33.8357 13.13 33.9521 13.8008L33.9632 13.8649L33.9785 13.9281C34.5724 16.39 34.5932 17.5125 34.1256 18.3929L33.9567 18.7109L33.9093 19.0678C33.826 19.6956 33.6015 20.2966 33.2525 20.8261L33.204 20.8997L33.1622 20.9773C33.1675 20.9674 33.1675 20.9674 33.1594 20.9781C33.1382 21.0062 33.062 21.1072 32.8834 21.2931C32.6616 21.5238 32.362 21.8043 31.9867 22.1368C31.5365 22.5357 31.0519 22.9453 30.527 23.389C30.1422 23.7143 29.7358 24.0579 29.3053 24.429C28.339 25.262 27.3172 26.1796 26.4846 27.086C25.7143 27.9244 24.8435 29.0243 24.5496 30.2267Z" fill="white" stroke="white" stroke-width="4"/>
<path d="M36.6528 16.1478L34.6699 16.409L36.6528 16.1478C36.4879 14.8961 35.9549 13.7219 35.1217 12.7734C34.2886 11.8249 33.1928 11.1448 31.9732 10.8185C30.7537 10.4921 29.4646 10.534 28.2689 10.9388C26.6655 11.4817 25.3426 12.6385 24.5924 14.156C23.8421 15.6736 23.7265 17.427 24.2713 19.0299C24.6776 20.2253 25.4297 21.2729 26.4319 22.0407C27.434 22.8084 28.6413 23.262 29.901 23.3447C31.1607 23.4274 32.417 23.1354 33.511 22.5054C34.605 21.8753 35.4879 20.9353 36.0474 19.8036C36.6069 18.6718 36.8177 17.3995 36.6528 16.1478Z" fill="white" stroke="white" stroke-width="4"/>
<path d="M34.0425 53.0657L34.876 52.1973L34.4989 51.0542C34.3439 50.5841 34.3459 50.0766 34.5049 49.6078C34.6638 49.139 34.9713 48.7336 35.3819 48.453L35.4732 48.3907L35.557 48.3187C37.7953 46.3959 40.3595 45.6728 42.4153 45.172C42.5307 45.1439 42.6478 45.1157 42.765 45.0874C43.1468 44.9954 43.53 44.9031 43.861 44.8127C44.2745 44.6998 44.7886 44.5439 45.2357 44.3028C45.6442 44.0826 46.4841 43.5276 46.6609 42.4114C46.8263 41.3669 46.2809 40.5705 45.9742 40.1898C43.9586 37.6885 39.3596 34.1238 30.5393 30.8722C25.8699 29.1507 21.1386 28.9846 17.667 29.3938C15.9387 29.5976 14.4332 29.9542 13.3507 30.3883C12.841 30.5927 12.2566 30.8796 11.803 31.2922C11.5786 31.4963 11.2392 31.8624 11.0631 32.4086C10.8539 33.0576 10.9401 33.7735 11.3382 34.3659C11.9771 35.3167 12.9083 35.6005 13.6121 35.6813C14.0336 35.7296 14.5776 35.7186 15.008 35.7098C15.129 35.7073 15.2411 35.705 15.3389 35.7043C16.4028 35.6964 17.916 35.7632 20.1428 36.6094C20.2716 36.6583 20.3975 36.7061 20.5206 36.7528C21.6274 37.1729 22.5069 37.5067 23.2488 37.8354C24.0684 38.1986 24.5916 38.502 24.9535 38.8009C25.5132 39.263 25.9359 39.8962 26.0801 41.7937L26.0831 41.8332L26.0877 41.8725C26.5718 46.048 27.7545 50.1128 29.5865 53.8974L30.9281 56.6688L32.9147 54.3164C33.2688 53.8971 33.6446 53.4802 34.0425 53.0657Z" fill="white" stroke="white" stroke-width="4"/>
<path d="M30.5959 53.0732L31.9823 54.3982L33.3643 53.0688C34.0109 52.4468 34.2813 51.7389 34.4123 51.15C34.4727 50.8782 34.5065 50.6171 34.5302 50.4229C34.5367 50.3696 34.5425 50.321 34.5479 50.2757C34.5648 50.134 34.5779 50.0238 34.5968 49.9023C34.6642 49.4683 34.7674 48.9991 35.5388 48.3321C36.84 47.2643 38.3014 46.4069 39.8696 45.7913L39.8705 45.791C40.6498 45.4846 41.5019 45.289 42.3699 45.0897C42.4835 45.0637 42.5974 45.0375 42.7115 45.0111C43.154 44.9084 43.6742 44.7835 44.1093 44.6221C44.3278 44.541 44.6193 44.4173 44.9015 44.226C45.168 44.0452 45.6199 43.6736 45.8471 43.029L45.8858 42.9192L45.9115 42.8056C46.1467 41.7663 45.7259 40.8866 45.3812 40.3621C45.0145 39.8043 44.5101 39.3012 43.9956 38.8632C42.9546 37.9772 41.526 37.0694 39.9883 36.2194C36.8953 34.5097 33.0115 32.8438 29.9953 31.8771C25.2952 30.3704 20.259 30.2513 15.4927 31.5341L15.7459 35.4475C16.8405 35.5947 17.9249 35.8088 18.9931 36.0887L18.9931 36.0887L18.9973 36.0898C19.7277 36.2794 20.4123 36.4922 21.0527 36.727L21.1135 36.7493L21.1756 36.7676C23.6079 37.4848 24.5967 38.0298 25.1293 38.8775L25.3205 39.1816L25.6055 39.4003C26.1095 39.7868 26.5192 40.2818 26.8042 40.8479L26.8408 40.9208L26.8833 40.9904C26.8784 40.9824 26.8786 40.9829 26.8833 40.9939C26.8968 41.0256 26.9471 41.1439 27.0204 41.3979C27.1094 41.7066 27.2025 42.1071 27.3028 42.5985C27.4224 43.184 27.534 43.8017 27.6548 44.4703C27.7451 44.9707 27.8407 45.4996 27.9486 46.0649C28.1876 47.3169 28.4723 48.6587 28.8418 49.8315C29.1837 50.9168 29.7018 52.2186 30.5959 53.0732Z" fill="white" stroke="white" stroke-width="4"/>
<path d="M17.4762 36.9434L17.4762 36.9434C18.3701 36.0519 19.5084 35.4456 20.7468 35.2003C21.9851 34.955 23.2687 35.0816 24.4352 35.5644C25.6017 36.0472 26.5992 36.8647 27.3011 37.9141C28.003 38.9635 28.3776 40.1975 28.377 41.46C28.3765 42.7225 28.0007 43.9562 27.2978 45.0049L25.6365 43.8914L27.2978 45.0049C26.595 46.0536 25.5967 46.8702 24.4297 47.3519C23.263 47.8335 21.9796 47.9591 20.7416 47.7128C19.9193 47.5494 19.1371 47.2259 18.4398 46.7605C17.7425 46.2952 17.1436 45.6971 16.6775 45.0003L18.3399 43.8884L16.6775 45.0003C16.2115 44.3035 15.8873 43.5217 15.7239 42.6994C15.5606 41.8774 15.5611 41.0312 15.7254 40.2094L17.4762 36.9434ZM17.4762 36.9434C16.5823 37.8347 15.9729 38.971 15.7255 40.2088L17.4762 36.9434Z" fill="white" stroke="white" stroke-width="4"/>
<path fill-rule="evenodd" clip-rule="evenodd" d="M58.6063 58.7673C52.9511 56.8816 50.5253 57.0911 50.0171 52.974C49.1693 46.1224 53.9032 41.3207 51.1912 41.5609C48.4793 41.8011 43.3015 43.4359 35.8597 48.8355C28.4179 54.2352 25.5629 63.1153 26.9309 63.1087C28.2989 63.102 28.1345 60.533 32.53 57.4114C36.9255 54.2899 38.4352 53.0808 42.2919 55.2428C48.3589 58.6446 58.403 59.7442 58.6063 58.7673Z" fill="url(#paint0_linear)"/>
<path fill-rule="evenodd" clip-rule="evenodd" d="M52.776 57.5369C52.4992 56.0222 50.4037 56.1423 50.0119 52.974C49.8194 51.0856 49.9263 49.1787 50.3288 47.3235C50.8062 45.1175 52.0833 42.9622 51.6982 42.4524C50.1911 40.8722 41.2088 46.0236 36.4536 49.7924C32.8895 52.6209 30.2211 56.4177 28.7698 60.7251C29.5535 59.8365 30.3913 58.9968 31.2784 58.2109C31.8864 57.6699 32.494 57.1779 33.1011 56.7348C35.0227 55.1333 36.5539 54.1084 38.3926 54.1591C39.2799 53.8584 40.2239 53.7617 41.154 53.8762C43.077 53.9456 50.0828 58.1374 52.776 57.5369Z" fill="url(#paint1_linear)"/>
<path fill-rule="evenodd" clip-rule="evenodd" d="M35.6525 63.2915C35.0387 62.6792 34.6206 61.899 34.4511 61.0496C34.2817 60.2001 34.3685 59.3196 34.7005 58.5194C35.0325 57.7192 35.5949 57.0352 36.3164 56.554C37.038 56.0728 37.8863 55.8159 38.7542 55.8159C39.622 55.8159 40.4704 56.0728 41.192 56.554C41.9135 57.0352 42.4759 57.7192 42.8079 58.5194C43.1399 59.3196 43.2267 60.2001 43.0573 61.0496C42.8878 61.899 42.4697 62.6792 41.8559 63.2915C41.4486 63.6981 40.9651 64.0205 40.4329 64.2406C39.9007 64.4606 39.3302 64.5738 38.7542 64.5738C38.1781 64.5738 37.6077 64.4606 37.0755 64.2406C36.5433 64.0205 36.0598 63.6981 35.6525 63.2915Z" fill="url(#paint2_linear)"/>
<path fill-rule="evenodd" clip-rule="evenodd" d="M73.1515 38.8572C68.8803 43.009 67.9549 45.2564 64.0582 43.8204C57.5672 41.4315 55.4611 35.0323 54.43 37.548C53.399 40.0636 52.4817 45.4098 53.8818 54.4808C55.2819 63.5518 61.8718 70.1606 62.5003 68.9435C63.1288 67.7263 60.7619 66.6894 59.993 61.3659C59.2241 56.0423 58.8429 54.1419 62.5337 51.713C68.3481 47.8868 73.9311 39.4804 73.1515 38.8572Z" fill="url(#paint3_linear)"/>
<path fill-rule="evenodd" clip-rule="evenodd" d="M69.3844 43.4613C67.9135 43.0129 67.0563 44.9293 64.0542 43.8216C62.2839 43.1266 60.6344 42.1574 59.1666 40.9497C57.4201 39.515 56.0909 37.3944 55.4557 37.5025C53.3575 38.1151 53.8283 48.4459 55.0104 54.3874C55.8961 58.8451 58.0541 62.9522 61.2246 66.2142C60.7925 65.1117 60.429 63.9836 60.136 62.8364C59.9328 62.0491 59.7732 61.2848 59.6573 60.5436C59.113 58.1054 58.9004 56.2731 59.791 54.6716C59.9305 53.7468 60.2775 52.8655 60.806 52.0932C61.7461 50.4197 68.6851 46.1251 69.3844 43.4613Z" fill="url(#paint4_linear)"/>
<path fill-rule="evenodd" clip-rule="evenodd" d="M66.6618 61.2885C65.8354 61.5527 64.949 61.5663 64.1148 61.3277C63.2806 61.0891 62.536 60.609 61.9752 59.9481C61.4144 59.2871 61.0626 58.4751 60.9643 57.6147C60.866 56.7542 61.0255 55.8839 61.4228 55.1139C61.82 54.344 62.4372 53.7089 63.1961 53.2889C63.9551 52.869 64.8218 52.6831 65.6866 52.7548C66.5514 52.8264 67.3755 53.1524 68.0547 53.6915C68.7338 54.2306 69.2376 54.9586 69.5021 55.7834C69.8569 56.8893 69.757 58.0906 69.2243 59.123C68.6917 60.1553 67.7699 60.9343 66.6618 61.2885Z" fill="url(#paint5_linear)"/>
<path fill-rule="evenodd" clip-rule="evenodd" d="M61.8318 16.2375C63.3388 21.9948 64.8392 23.9072 61.6606 26.5817C56.3731 31.0325 49.7591 29.6992 51.4387 31.8359C53.1183 33.9725 57.3226 37.4117 65.9184 40.6787C74.5142 43.9457 83.5259 41.4927 82.7757 40.3463C82.0255 39.2 79.9528 40.7467 74.9354 38.7782C69.9181 36.8098 68.074 36.2066 67.7825 31.8025C67.3251 24.8668 62.7598 15.8692 61.8318 16.2375Z" fill="url(#paint6_linear)"/>
<path fill-rule="evenodd" clip-rule="evenodd" d="M63.982 21.78C62.8614 22.8397 64.1077 24.5239 61.6619 26.5845C60.1822 27.7774 58.5233 28.7299 56.7462 29.407C54.6333 30.2078 52.126 30.3239 51.9094 30.9231C51.4066 33.0451 60.6362 37.7413 66.3997 39.6511C70.7203 41.0856 75.3643 41.2428 79.7722 40.1035C78.5994 39.9335 77.4383 39.6915 76.2953 39.3789C75.5091 39.1662 74.7642 38.9269 74.0608 38.6609C71.6685 37.9296 69.9702 37.2102 69.0087 35.6448C68.2719 35.0671 67.6753 34.3308 67.2636 33.4908C66.2687 31.8479 65.9571 23.7071 63.982 21.78Z" fill="url(#paint7_linear)"/>
<path fill-rule="evenodd" clip-rule="evenodd" d="M78.1648 32.9449C77.9867 33.7926 77.5607 34.5686 76.9407 35.1746C76.3207 35.7807 75.5345 36.1896 74.6816 36.3497C73.8286 36.5098 72.9473 36.4138 72.149 36.0739C71.3508 35.7341 70.6714 35.1655 70.1969 34.4403C69.7224 33.7151 69.4741 32.8657 69.4834 31.9996C69.4927 31.1335 69.7591 30.2897 70.249 29.5747C70.7389 28.8598 71.4303 28.3059 72.2357 27.9831C73.041 27.6604 73.9242 27.5832 74.7735 27.7614C75.912 28 76.9089 28.6801 77.5449 29.6522C78.1808 30.6243 78.4038 31.8087 78.1648 32.9449Z" fill="url(#paint8_linear)"/>
<path fill-rule="evenodd" clip-rule="evenodd" d="M36.1968 14.1997C41.967 15.6971 44.3727 15.3234 45.1563 19.3965C46.4682 26.1747 42.0807 31.2861 44.7632 30.8643C47.4457 30.4426 52.5125 28.4621 59.5625 22.5647C66.6124 16.6673 68.8657 7.62434 67.4977 7.71776C66.1297 7.81118 66.4667 10.3709 62.3012 13.782C58.1356 17.1931 56.7048 18.505 52.7091 16.6086C46.4241 13.6272 36.3278 13.2121 36.1968 14.1997Z" fill="url(#paint9_linear)"/>
<path fill-rule="evenodd" clip-rule="evenodd" d="M42.094 15.0325C42.4738 16.5259 44.5545 16.2617 45.1616 19.3965C45.4826 21.2678 45.5061 23.1778 45.2312 25.0564C44.9062 27.2904 43.7776 29.5272 44.1975 30.0103C45.8022 31.4783 54.4194 25.7397 58.9072 21.6479C62.2701 18.5838 64.6738 14.6147 65.8288 10.2188C65.1074 11.1586 64.3285 12.0532 63.4966 12.8972C62.9269 13.4782 62.3541 14.012 61.7782 14.4987C59.9703 16.2256 58.5127 17.3533 56.6753 17.4281C55.8103 17.7877 54.875 17.9478 53.9393 17.8965C52.015 17.9512 44.7404 14.2491 42.094 15.0325Z" fill="url(#paint10_linear)"/>
<path fill-rule="evenodd" clip-rule="evenodd" d="M58.7841 8.12741C59.4385 8.69626 59.9092 9.44605 60.1366 10.2819C60.364 11.1177 60.338 12.0021 60.0617 12.8232C59.7854 13.6442 59.2714 14.3651 58.5845 14.8945C57.8977 15.424 57.069 15.7383 56.2032 15.7977C55.3374 15.857 54.4733 15.6588 53.7204 15.2281C52.9675 14.7974 52.3595 14.1535 51.9733 13.3778C51.5871 12.6022 51.44 11.7297 51.5507 10.8707C51.6615 10.0116 52.025 9.20463 52.5953 8.55179C52.9737 8.11835 53.434 7.76357 53.9498 7.50766C54.4656 7.25175 55.0269 7.09976 55.6016 7.06035C56.1763 7.02094 56.7532 7.09486 57.2992 7.27796C57.8453 7.46105 58.3498 7.7497 58.7841 8.12741Z" fill="url(#paint11_linear)"/>
<path fill-rule="evenodd" clip-rule="evenodd" d="M22.8043 35.3685C27.0046 31.1446 27.8859 28.8812 31.8147 30.2518C38.3445 32.5299 40.5603 38.8917 41.5472 36.3601C42.534 33.8284 43.3618 28.4662 41.8066 19.4205C40.2514 10.3749 33.5491 3.87956 32.942 5.10735C32.3349 6.33515 34.7205 7.33071 35.579 12.6409C36.4375 17.9511 36.8521 19.8476 33.2028 22.3352C27.4526 26.2601 22.0154 34.7586 22.8043 35.3685Z" fill="url(#paint12_linear)"/>
<path fill-rule="evenodd" clip-rule="evenodd" d="M26.4924 30.7015C27.9768 31.1246 28.7951 29.1975 31.816 30.2518C33.598 30.9161 35.2637 31.857 36.7518 33.0397C38.5223 34.4436 39.893 36.5415 40.5215 36.4241C42.6076 35.7755 41.9617 25.4567 40.6779 19.5339C39.7152 15.0917 37.4861 11.0221 34.2591 7.81519C34.7101 8.91027 35.0928 10.0321 35.4052 11.1743C35.6218 11.9572 35.7943 12.7188 35.9227 13.459C36.5084 15.8866 36.7518 17.7123 35.8919 19.3311C35.7688 20.2582 35.4374 21.1455 34.9224 21.9268C34.0117 23.615 27.1463 28.0257 26.4924 30.7015Z" fill="url(#paint13_linear)"/>
<path fill-rule="evenodd" clip-rule="evenodd" d="M28.9103 12.8332C29.732 12.555 30.618 12.5262 31.4562 12.7505C32.2944 12.9748 33.0471 13.4421 33.6191 14.0933C34.1911 14.7445 34.5568 15.5504 34.6699 16.409C34.783 17.2677 34.6385 18.1406 34.2545 18.9172C33.8706 19.6938 33.2645 20.3394 32.5129 20.7723C31.7613 21.2051 30.8979 21.4058 30.032 21.349C29.1661 21.2922 28.3365 20.9804 27.6482 20.453C26.9598 19.9257 26.4437 19.2065 26.1649 18.3863C25.7911 17.2866 25.8704 16.0837 26.3852 15.0423C26.9001 14.0009 27.8084 13.2063 28.9103 12.8332Z" fill="url(#paint14_linear)"/>
<path fill-rule="evenodd" clip-rule="evenodd" d="M32.5996 51.6807C32.3085 50.7984 32.3125 49.8456 32.6108 48.9657C32.9091 48.0857 33.4857 47.3263 34.2538 46.8016C39.4971 42.2975 46.1245 43.564 44.4168 41.4447C42.7092 39.3254 38.4741 35.929 29.8475 32.7487C21.221 29.5684 12.2334 32.1121 12.9983 33.2505C13.7632 34.3888 15.8172 32.8261 20.8532 34.7398C25.8893 36.6536 27.74 37.2422 28.0744 41.6422C28.5326 45.595 29.6523 49.443 31.3867 53.026C31.7692 52.5731 32.1734 52.1247 32.5996 51.6807Z" fill="url(#paint15_linear)"/>
<path fill-rule="evenodd" clip-rule="evenodd" d="M31.9778 51.6274C33.0877 50.5597 31.824 48.8848 34.2511 46.8016C35.7189 45.5938 37.3684 44.6246 39.1388 43.9296C41.2436 43.1022 43.7482 42.9674 43.9609 42.3642C44.4423 40.2369 35.1645 35.634 29.3849 33.7816C25.0511 32.3924 20.4073 32.2825 16.0125 33.4653C17.188 33.6234 18.3527 33.8534 19.5 34.154C20.2881 34.3586 21.0351 34.5904 21.7412 34.8493C24.1402 35.5566 25.8465 36.2599 26.8227 37.8133C27.5656 38.3831 28.17 39.1131 28.5906 39.9486C29.5922 41.5901 29.9867 49.7243 31.9778 51.6274Z" fill="url(#paint16_linear)"/>
<path fill-rule="evenodd" clip-rule="evenodd" d="M17.6867 40.6011C17.8563 39.7518 18.2745 38.9717 18.8884 38.3596C19.5023 37.7475 20.2842 37.3308 21.1354 37.1622C21.9866 36.9936 22.8688 37.0806 23.6703 37.4124C24.4719 37.7442 25.1569 38.3057 25.6387 39.026C26.1205 39.7463 26.3775 40.593 26.3771 41.4591C26.3766 42.3251 26.1189 43.1716 25.6365 43.8914C25.154 44.6113 24.4685 45.1722 23.6666 45.5032C22.8647 45.8343 21.9825 45.9206 21.1314 45.7512C20.5663 45.6389 20.0289 45.4166 19.55 45.0969C19.071 44.7773 18.6598 44.3666 18.3399 43.8884C18.02 43.4101 17.7977 42.8737 17.6856 42.3096C17.5735 41.7456 17.5739 41.165 17.6867 40.6011Z" fill="url(#paint17_linear)"/>
<path fill-rule="evenodd" clip-rule="evenodd" d="M4.85165 96.4018C4.84766 96.1419 4.78068 95.8869 4.65641 95.6585C4.54733 95.4676 4.39591 95.3041 4.21377 95.1807C4.033 95.0596 3.83121 94.9731 3.61871 94.9258C3.40779 94.8769 3.19203 94.8518 2.97549 94.851C2.79354 94.8529 2.61201 94.869 2.43256 94.8991C2.23485 94.9298 2.04395 94.9944 1.86825 95.0899C1.69092 95.1864 1.53919 95.3236 1.42563 95.4903C1.2969 95.6987 1.23442 95.9411 1.24644 96.1856C1.24206 96.3259 1.26902 96.4654 1.32534 96.594C1.37477 96.6989 1.44479 96.7928 1.53127 96.8702C1.61557 96.9442 1.71189 97.0034 1.8161 97.0451C1.92226 97.0881 2.03129 97.1238 2.14239 97.1518L4.2967 97.6536C4.534 97.707 4.7639 97.789 4.98136 97.8979C5.18616 97.9992 5.37028 98.1377 5.52429 98.3062C5.67926 98.4786 5.80077 98.6781 5.88266 98.8947C5.9766 99.1511 6.02196 99.4226 6.01639 99.6955C6.03551 100.063 5.95258 100.428 5.77678 100.751C5.60097 101.074 5.33914 101.343 5.02015 101.527C4.72369 101.702 4.39946 101.826 4.06133 101.894C3.43323 102.021 2.78707 102.034 2.15443 101.931C1.93425 101.894 1.71864 101.833 1.51121 101.751C1.35476 101.689 1.2062 101.609 1.06859 101.512C0.964247 101.436 0.864244 101.355 0.769047 101.268C0.481343 101.023 0.264724 100.706 0.141867 100.349C0.0450901 100.02 -0.00267318 99.6784 0.000115402 99.3352H0.958934C0.947757 99.6331 1.01312 99.929 1.14882 100.195C1.26711 100.412 1.43469 100.6 1.63825 100.742C1.84043 100.881 2.06737 100.98 2.30687 101.034C2.54888 101.09 2.79653 101.119 3.04503 101.119C3.25316 101.118 3.46091 101.102 3.66685 101.071C3.89106 101.042 4.10964 100.98 4.31541 100.886C4.51132 100.797 4.68424 100.665 4.8209 100.499C4.96661 100.308 5.03959 100.071 5.02682 99.8316C5.0311 99.6601 5.00439 99.4892 4.94794 99.3272C4.89252 99.1869 4.80008 99.0642 4.68047 98.9722C4.53145 98.8565 4.36426 98.7663 4.1857 98.7052C3.97887 98.6314 3.72079 98.5553 3.41144 98.477L1.8629 98.1167C1.70526 98.0787 1.55026 98.0306 1.39888 97.9726C1.2081 97.9011 1.03017 97.7992 0.87201 97.671C0.694045 97.5251 0.545633 97.3466 0.434736 97.1451C0.302732 96.8913 0.239138 96.6075 0.250196 96.3217C0.249986 96.0255 0.299713 95.7314 0.397294 95.4516C0.495078 95.1695 0.653447 94.9122 0.861318 94.6976C1.09092 94.4642 1.3676 94.2823 1.67302 94.1638C2.04942 94.0211 2.44997 93.9527 2.85247 93.9622C3.38862 93.9423 3.92311 94.0331 4.42239 94.2291C4.76239 94.3682 5.0641 94.5865 5.30231 94.8657C5.49374 95.0983 5.62751 95.3726 5.69277 95.6664C5.74733 95.9095 5.78443 96.1561 5.80377 96.4045L4.85165 96.4018ZM18.2936 97.9833C18.2921 98.275 18.2657 98.5661 18.2147 98.8534C18.1607 99.1617 18.0761 99.464 17.962 99.7556C17.8444 100.055 17.6922 100.341 17.5087 100.606C17.3179 100.879 17.0851 101.121 16.8187 101.322C16.5289 101.539 16.2048 101.706 15.8598 101.816C15.0409 102.056 14.1701 102.056 13.3512 101.816C13.0062 101.706 12.6821 101.539 12.3924 101.322C12.126 101.121 11.8931 100.879 11.7024 100.606C11.5184 100.341 11.3662 100.056 11.249 99.7556C11.1347 99.4641 11.05 99.1618 10.9963 98.8534C10.8919 98.2798 10.8919 97.6921 10.9963 97.1185C11.0501 96.8101 11.1348 96.5078 11.249 96.2163C11.3664 95.9167 11.5186 95.6318 11.7024 95.3675C11.8931 95.0939 12.126 94.852 12.3924 94.6509C12.682 94.4338 13.0061 94.2669 13.3512 94.1571C14.17 93.9161 15.041 93.9161 15.8598 94.1571C16.2049 94.2669 16.529 94.4338 16.8187 94.6509C17.085 94.852 17.3179 95.0939 17.5087 95.3675C17.692 95.632 17.8442 95.9169 17.962 96.2163C18.076 96.5079 18.1606 96.8101 18.2147 97.1185C18.2657 97.4062 18.2921 97.6977 18.2936 97.9899V97.9833ZM17.2399 97.9833C17.2439 97.5642 17.1835 97.1469 17.0607 96.7461C16.9524 96.388 16.7752 96.0544 16.5392 95.7639C16.3129 95.4893 16.0283 95.2682 15.7061 95.1166C15.3585 94.9627 14.9824 94.8831 14.6022 94.8831C14.2219 94.8831 13.8459 94.9627 13.4983 95.1166C13.1783 95.2695 12.8958 95.4904 12.6705 95.7639C12.4343 96.0543 12.2571 96.388 12.149 96.7461C11.9101 97.5537 11.9101 98.4129 12.149 99.2204C12.2573 99.5785 12.4345 99.9121 12.6705 100.203C12.8961 100.476 13.1786 100.697 13.4983 100.85C13.8459 101.004 14.2219 101.083 14.6022 101.083C14.9824 101.083 15.3585 101.004 15.7061 100.85C16.0281 100.698 16.3125 100.477 16.5392 100.203C16.7751 99.912 16.9522 99.5784 17.0607 99.2204C17.1835 98.8196 17.2439 98.4024 17.2399 97.9833ZM24.5172 100.882H28.3537V101.795H23.4955V94.1704H24.5172V100.882ZM34.5238 101.795H33.5021V94.1704H34.5238V101.791V101.795ZM41.3437 100.914H43.3255C43.6331 100.924 43.9387 100.86 44.2165 100.728C44.4944 100.596 44.7364 100.399 44.9222 100.155C45.3612 99.5029 45.5706 98.724 45.5173 97.9405C45.5748 97.1693 45.3584 96.4025 44.9061 95.7746C44.7038 95.5364 44.4496 95.3474 44.1629 95.2223C43.8762 95.0972 43.5646 95.0391 43.252 95.0526H41.3384V100.914H41.3437ZM40.3221 94.1704H43.3884C43.8452 94.162 44.2983 94.2531 44.7163 94.4373C45.1022 94.6128 45.444 94.8723 45.7165 95.1967C46.0011 95.5414 46.2159 95.938 46.349 96.3644C46.5015 96.8524 46.5759 97.3614 46.5697 97.8725C46.5674 98.3215 46.5163 98.769 46.4172 99.207C46.3206 99.6586 46.142 100.089 45.8903 100.476C45.6357 100.864 45.2947 101.188 44.8941 101.422C44.421 101.685 43.8851 101.813 43.3442 101.793H40.3194V94.1691L40.3221 94.1704ZM54.3966 93.4271H53.6905L54.6266 91.9297H55.7646L54.3952 93.4271H54.3966ZM55.3032 98.6626L54.1866 95.3061H54.1652L52.9537 98.6626H55.3032ZM52.6367 99.5754L51.8464 101.795H50.7927L53.6383 94.1704H54.7977L57.5378 101.795H56.4211L55.6736 99.5754H52.6367ZM63.6129 97.6429H65.9838C66.1711 97.643 66.3582 97.6269 66.5427 97.5949C66.7174 97.566 66.8841 97.501 67.0322 97.404C67.1816 97.3021 67.3029 97.1645 67.3852 97.0037C67.4773 96.7853 67.5247 96.5507 67.5247 96.3137C67.5247 96.0768 67.4773 95.8422 67.3852 95.6238C67.3042 95.4684 67.1845 95.3365 67.0375 95.2407C66.9029 95.1571 66.7521 95.103 66.5949 95.0819C66.4536 95.0618 66.3111 95.0512 66.1683 95.0499H63.6182V97.6403L63.6129 97.6429ZM63.6129 101.795H62.5899V94.1704H66.0774C66.3839 94.1703 66.6896 94.2025 66.9894 94.2665C67.2724 94.3238 67.5423 94.4333 67.785 94.5895C68.0229 94.7481 68.2169 94.9637 68.3494 95.2167C68.5036 95.5282 68.5776 95.8731 68.5647 96.2203C68.5698 96.4644 68.5378 96.7078 68.4697 96.9423C68.4151 97.1227 68.3316 97.2931 68.2223 97.4468C68.1257 97.5795 68.0104 97.6977 67.88 97.7977C67.7616 97.8876 67.6384 97.9709 67.5109 98.0473C67.6188 98.0908 67.7242 98.1402 67.8265 98.1955C67.9363 98.2555 68.0331 98.3367 68.1113 98.4343C68.2049 98.5535 68.2748 98.6894 68.3173 98.8347C68.3773 99.0437 68.411 99.2593 68.4176 99.4766L68.4804 100.857C68.4798 100.946 68.4852 101.035 68.4965 101.123C68.5056 101.193 68.5249 101.261 68.554 101.325C68.5823 101.385 68.6218 101.439 68.6703 101.484C68.7279 101.536 68.7917 101.581 68.8602 101.617V101.788H67.6059C67.5641 101.64 67.5341 101.49 67.5163 101.337C67.4913 101.149 67.4721 100.96 67.4588 100.768C67.444 100.578 67.436 100.399 67.432 100.235C67.428 100.07 67.432 99.9504 67.432 99.8783C67.4315 99.7183 67.419 99.5586 67.3946 99.4005C67.3716 99.2414 67.3101 99.0903 67.2154 98.9602C67.1088 98.8199 66.9673 98.7099 66.8048 98.6412C66.5752 98.551 66.3293 98.5096 66.0827 98.5197H63.6062V101.791L63.6129 101.795ZM75.2469 101.795H74.2252V94.1704H75.2469V101.791V101.795ZM87.9721 97.9819C87.9708 98.2737 87.9444 98.5648 87.8932 98.8521C87.8393 99.1604 87.7546 99.4627 87.6404 99.7542C87.5228 100.054 87.3707 100.339 87.1871 100.604C86.9964 100.878 86.7635 101.12 86.4971 101.321C86.2074 101.538 85.8833 101.705 85.5383 101.815C84.7198 102.055 83.8494 102.055 83.031 101.815C82.686 101.705 82.362 101.538 82.0722 101.321C81.8059 101.12 81.573 100.878 81.3822 100.604C81.1982 100.34 81.0461 100.054 80.9288 99.7542C80.8145 99.4627 80.7298 99.1605 80.6761 98.8521C80.571 98.2785 80.571 97.6907 80.6761 97.1171C80.7299 96.8087 80.8146 96.5065 80.9288 96.215C81.0463 95.9154 81.1984 95.6305 81.3822 95.3662C81.573 95.0926 81.8059 94.8508 82.0722 94.6495C82.3618 94.4325 82.6859 94.2656 83.031 94.1557C83.8493 93.9149 84.7199 93.9149 85.5383 94.1557C85.8834 94.2655 86.2075 94.4324 86.4971 94.6495C86.7635 94.8507 86.9964 95.0926 87.1871 95.3662C87.3705 95.6307 87.5226 95.9155 87.6404 96.215C87.7545 96.5066 87.8392 96.8088 87.8932 97.1171C87.9445 97.4048 87.9709 97.6964 87.9721 97.9886V97.9819ZM86.9183 97.9819C86.9221 97.5628 86.8617 97.1456 86.7392 96.7448C86.6308 96.3867 86.4537 96.0531 86.2176 95.7626C85.9913 95.4879 85.7068 95.2668 85.3845 95.1153C85.037 94.9613 84.6609 94.8818 84.2806 94.8818C83.9004 94.8818 83.5243 94.9613 83.1768 95.1153C82.8567 95.268 82.5741 95.489 82.349 95.7626C82.1127 96.053 81.9356 96.3866 81.8275 96.7448C81.5886 97.5523 81.5886 98.4115 81.8275 99.2191C81.9358 99.5772 82.1129 99.9108 82.349 100.201C82.5745 100.475 82.857 100.695 83.1768 100.849C83.5243 101.003 83.9004 101.082 84.2806 101.082C84.6609 101.082 85.037 101.003 85.3845 100.849C85.7066 100.697 85.991 100.476 86.2176 100.201C86.4535 99.9106 86.6306 99.5771 86.7392 99.2191C86.8617 98.8182 86.9221 98.401 86.9183 97.9819ZM97.7367 96.4005C97.7327 96.1406 97.6657 95.8855 97.5414 95.6571C97.4324 95.4662 97.2809 95.3028 97.0988 95.1793C96.918 95.0582 96.7162 94.9718 96.5037 94.9244C96.2928 94.8756 96.077 94.8505 95.8605 94.8497C95.6785 94.8516 95.497 94.8677 95.3176 94.8977C95.1199 94.9285 94.9289 94.993 94.7533 95.0886C94.5759 95.1851 94.4242 95.3223 94.3106 95.4889C94.1819 95.6973 94.1194 95.9397 94.1314 96.1842C94.1271 96.3245 94.154 96.464 94.2104 96.5926C94.2598 96.6976 94.3298 96.7915 94.4163 96.8689C94.5006 96.9429 94.5969 97.002 94.7011 97.0437C94.8073 97.0868 94.9163 97.1224 95.0274 97.1505L97.187 97.6496C97.4243 97.703 97.6543 97.785 97.8717 97.8938C98.0765 97.9951 98.2606 98.1336 98.4146 98.3022C98.5696 98.4745 98.6911 98.6741 98.773 98.8908C98.8667 99.1471 98.9121 99.4186 98.9068 99.6915C98.9251 100.059 98.8419 100.424 98.6661 100.747C98.4904 101.07 98.229 101.338 97.9105 101.522C97.6141 101.698 97.2898 101.822 96.9517 101.89C96.3236 102.017 95.6774 102.03 95.0448 101.927C94.8246 101.89 94.609 101.829 94.4016 101.747C94.2451 101.685 94.0965 101.605 93.9589 101.508C93.8542 101.432 93.7538 101.35 93.658 101.264C93.3704 101.019 93.1539 100.702 93.0309 100.345C92.9341 100.016 92.8864 99.6743 92.8892 99.3311H93.8479C93.8367 99.6291 93.9021 99.925 94.0379 100.191C94.1562 100.409 94.3237 100.596 94.5273 100.738C94.7294 100.877 94.9564 100.976 95.1959 101.03C95.4379 101.086 95.6856 101.115 95.9341 101.115C96.1422 101.114 96.35 101.098 96.5559 101.067C96.7801 101.038 96.9987 100.976 97.2044 100.882C97.4003 100.793 97.5732 100.661 97.7099 100.495C97.8556 100.304 97.9286 100.067 97.9159 99.8276C97.9201 99.6561 97.8934 99.4852 97.8369 99.3232C97.7815 99.1829 97.6891 99.0602 97.5695 98.9681C97.4205 98.8525 97.2533 98.7623 97.0747 98.7012C96.8679 98.6274 96.6098 98.5513 96.3005 98.4731L94.7519 98.1127C94.5943 98.0748 94.4393 98.0266 94.2879 97.9686C94.0971 97.8971 93.9192 97.7952 93.761 97.667C93.5831 97.5211 93.4346 97.3426 93.3237 97.1411C93.1917 96.8873 93.1281 96.6035 93.1392 96.3177C93.139 96.0215 93.1887 95.7273 93.2863 95.4476C93.3841 95.1655 93.5425 94.9082 93.7503 94.6936C93.9799 94.4602 94.2566 94.2782 94.5621 94.1597C94.9385 94.0171 95.339 93.9487 95.7415 93.9582C96.2776 93.9383 96.8121 94.0291 97.3114 94.2251C97.6513 94.3644 97.953 94.5826 98.1913 94.8617C98.3828 95.0943 98.5165 95.3686 98.5818 95.6624C98.6364 95.9055 98.6735 96.1521 98.6928 96.4005H97.7367Z" fill="white"/>
<path fill-rule="evenodd" clip-rule="evenodd" d="M7.47264 82.1554C7.99366 82.1843 8.51342 82.0795 8.98238 81.8511C9.29925 81.6814 9.56582 81.4315 9.75531 81.1264C9.91376 80.8624 10.0136 80.5675 10.0482 80.2617C10.0759 80.021 10.0915 79.7792 10.095 79.537C10.1268 79.2044 10.0774 78.8691 9.95089 78.5597C9.82443 78.2503 9.62471 77.9762 9.36885 77.7607C8.65426 77.345 7.8289 77.1586 7.00461 77.2269H4.21645V82.1567L7.47264 82.1554ZM4.21645 91.105H0.704834V74.3282H8.38465C9.13118 74.317 9.87335 74.4437 10.5737 74.7019C11.1935 74.9329 11.7534 75.3 12.2118 75.7762C12.669 76.2639 13.0196 76.8411 13.2415 77.4711C13.4924 78.1879 13.6151 78.9432 13.6039 79.7025C13.5879 80.1973 13.5211 80.6892 13.4047 81.1705C13.2591 81.8072 12.9926 82.4102 12.6197 82.9468C12.1918 83.5576 11.632 84.0648 10.9816 84.4308C10.1402 84.877 9.19475 85.0907 8.24289 85.05H4.21645V91.1023V91.105ZM19.889 82.7159C19.8593 83.7007 20.0102 84.6826 20.3342 85.6132C20.5738 86.287 20.957 86.9008 21.4576 87.4122C21.8756 87.8272 22.3847 88.1392 22.9446 88.3237C23.9222 88.6665 24.9877 88.6665 25.9654 88.3237C26.5253 88.1393 27.0345 87.8273 27.4524 87.4122C27.9531 86.9007 28.3368 86.2869 28.577 85.6132C29.1699 83.727 29.1699 81.7048 28.577 79.8186C28.3368 79.1449 27.9531 78.5311 27.4524 78.0196C27.0346 77.6044 26.5254 77.2923 25.9654 77.1081C24.9877 76.7654 23.9222 76.7654 22.9446 77.1081C22.3846 77.2924 21.8755 77.6045 21.4576 78.0196C20.957 78.531 20.5738 79.1449 20.3342 79.8186C20.0103 80.7493 19.8594 81.7311 19.889 82.7159ZM16.3773 82.7159C16.355 81.5706 16.5052 80.4283 16.8227 79.3275C17.0755 78.4693 17.4666 77.658 17.9807 76.9253C18.4183 76.3092 18.9615 75.7751 19.5854 75.3478C20.1429 74.9685 20.7447 74.6584 21.3773 74.4243C21.9294 74.2183 22.5025 74.0733 23.0863 73.9919C23.9938 73.8518 24.9175 73.8518 25.825 73.9919C26.4088 74.0734 26.9818 74.2183 27.534 74.4243C28.1662 74.6583 28.7676 74.9684 29.3246 75.3478C29.9487 75.7749 30.492 76.309 30.9292 76.9253C31.4438 77.6579 31.8354 78.4692 32.0886 79.3275C32.6815 81.5472 32.6815 83.8832 32.0886 86.103C31.8356 86.9613 31.444 87.7727 30.9292 88.5052C30.492 89.1216 29.9487 89.6556 29.3246 90.0827C28.7674 90.4617 28.1661 90.7719 27.534 91.0062C26.9818 91.2121 26.4087 91.3571 25.825 91.4386C24.9175 91.5787 23.9938 91.5787 23.0863 91.4386C22.5025 91.3571 21.9294 91.2121 21.3773 91.0062C20.7448 90.7718 20.1431 90.4617 19.5854 90.0827C18.9614 89.6555 18.4181 89.1215 17.9807 88.5052C17.4665 87.7726 17.0753 86.9612 16.8227 86.103C16.5051 85.0021 16.355 83.8599 16.3773 82.7146V82.7159ZM46.4025 74.3269H49.6828V91.1036H46.1698L39.3098 79.1393H39.2629V91.1036H35.9854V74.3282H39.6842L46.357 86.0109H46.4038V74.3282L46.4025 74.3269ZM60.9985 91.1036H57.4856V77.2976H52.4041V74.3295H66.0774V77.2976H60.9959V91.1076L60.9985 91.1036ZM70.7938 82.7146C70.7638 83.6993 70.9143 84.6812 71.2378 85.6119C71.4778 86.2854 71.861 86.8991 72.3611 87.4109C72.7791 87.8259 73.2882 88.1379 73.8481 88.3224C74.8253 88.6649 75.8904 88.6649 76.8676 88.3224C77.4275 88.1379 77.9366 87.8259 78.3546 87.4109C78.8551 86.8995 79.2384 86.2857 79.4779 85.6119C80.0708 83.7257 80.0708 81.7035 79.4779 79.8173C79.2384 79.1435 78.8551 78.5297 78.3546 78.0183C77.9367 77.6031 77.4276 77.291 76.8676 77.1068C75.8904 76.7642 74.8253 76.7642 73.8481 77.1068C73.2881 77.291 72.779 77.6031 72.3611 78.0183C71.861 78.53 71.4778 79.1437 71.2378 79.8173C70.9144 80.748 70.7639 81.7299 70.7938 82.7146ZM67.2822 82.7146C67.26 81.5692 67.4101 80.427 67.7275 79.3261C67.9806 78.468 68.3717 77.6567 68.8856 76.9239C69.3229 76.3076 69.8662 75.7736 70.4903 75.3465C71.0473 74.9672 71.6486 74.6571 72.2809 74.423C72.833 74.217 73.4061 74.072 73.9899 73.9906C74.8974 73.8505 75.821 73.8505 76.7285 73.9906C77.3123 74.072 77.8854 74.217 78.4375 74.423C79.0702 74.6571 79.6719 74.9672 80.2294 75.3465C80.8536 75.7735 81.3969 76.3076 81.8341 76.9239C82.3489 77.6564 82.7405 78.4678 82.9935 79.3261C83.587 81.5458 83.587 83.882 82.9935 86.1017C82.7406 86.96 82.349 87.7715 81.8341 88.5039C81.3969 89.1202 80.8536 89.6543 80.2294 90.0814C79.6718 90.4604 79.0701 90.7705 78.4375 91.0049C77.8854 91.2108 77.3123 91.3558 76.7285 91.4373C75.821 91.5773 74.8974 91.5773 73.9899 91.4373C73.4061 91.3558 72.833 91.2108 72.2809 91.0049C71.6487 90.7705 71.0475 90.4604 70.4903 90.0814C69.8662 89.6543 69.3229 89.1202 68.8856 88.5039C68.3716 87.7712 67.9804 86.9598 67.7275 86.1017C67.41 85.0008 67.2599 83.8586 67.2822 82.7133V82.7146ZM89.5567 85.9389C89.5648 86.2163 89.6098 86.4914 89.6905 86.757C89.7868 87.0877 89.9589 87.3915 90.1933 87.6444C90.4942 87.9593 90.862 88.2029 91.2697 88.3571C91.8615 88.5727 92.4895 88.672 93.1191 88.6494C93.5386 88.6496 93.9574 88.6183 94.3722 88.556C94.7603 88.5012 95.1386 88.3911 95.4954 88.229C95.8194 88.0832 96.1013 87.8583 96.3152 87.575C96.5384 87.2535 96.6493 86.8675 96.6308 86.4767C96.6417 86.1878 96.5642 85.9025 96.4087 85.6586C96.2452 85.4276 96.0283 85.2395 95.7762 85.1101C95.4667 84.9477 95.1409 84.8184 94.8041 84.7244C94.4296 84.6159 94.0236 84.5069 93.5858 84.3975L91.7832 83.9771C91.0959 83.8214 90.4326 83.6496 89.7934 83.4619C89.1867 83.2922 88.613 83.0215 88.0965 82.6612C87.5964 82.3007 87.1875 81.8286 86.9023 81.2826C86.5706 80.5869 86.4141 79.821 86.4463 79.0512C86.4497 78.7062 86.4851 78.3622 86.552 78.0236C86.6275 77.633 86.7492 77.2527 86.9143 76.8906C87.1004 76.4864 87.3407 76.1092 87.6284 75.7695C87.9603 75.3806 88.361 75.0558 88.8106 74.8113C89.3581 74.5136 89.9426 74.2893 90.549 74.144C91.3233 73.961 92.1175 73.8745 92.9132 73.8865C94.002 73.8511 95.0863 74.042 96.0972 74.447C96.8566 74.7629 97.5423 75.2323 98.1111 75.8256C98.5865 76.3303 98.9461 76.9324 99.1648 77.5899C99.3545 78.1433 99.4573 78.7227 99.4697 79.3075H96.0852C96.054 79.1206 96.0031 78.883 95.9327 78.5948C95.8509 78.2851 95.6943 78.0001 95.4767 77.7647C95.1909 77.464 94.8433 77.2286 94.4577 77.0747C93.8787 76.8566 93.2615 76.7572 92.6431 76.7825C92.3008 76.784 91.9595 76.8192 91.6241 76.8879C91.2924 76.9513 90.9726 77.0656 90.676 77.2269C90.4012 77.3774 90.1651 77.5894 89.986 77.8461C89.8004 78.1261 89.7069 78.4568 89.7185 78.7923C89.7086 79.0697 89.7689 79.3451 89.8937 79.593C90.0014 79.7923 90.1538 79.9641 90.339 80.0948C90.5179 80.2191 90.7157 80.3137 90.9247 80.3751C91.1351 80.4374 91.3263 80.4921 91.4984 80.5392L95.5957 81.5442C96.1602 81.68 96.7154 81.8516 97.2579 82.058C97.7695 82.2491 98.2448 82.5258 98.6634 82.8761C99.0771 83.2288 99.4089 83.6674 99.6356 84.1612C99.8939 84.7579 100.018 85.404 99.9979 86.0537C100.017 86.793 99.8854 87.5284 99.6115 88.2156C99.3781 88.7789 99.036 89.2909 98.6045 89.7223C98.2043 90.1183 97.7417 90.446 97.2352 90.6926C96.7594 90.9251 96.2612 91.1089 95.7482 91.2411C95.2988 91.3583 94.841 91.4404 94.3788 91.4866C93.9572 91.5258 93.6215 91.5454 93.3719 91.5454C92.1088 91.5898 90.849 91.3914 89.661 90.9608C88.8337 90.6495 88.086 90.1585 87.472 89.5235C86.9849 89.0046 86.6315 88.3753 86.4423 87.6898C86.2824 87.1189 86.1957 86.5302 86.1842 85.9375L89.5567 85.9389Z" fill="white"/>
<ellipse cx="47.8724" cy="36.4792" rx="5.31915" ry="5.3125" fill="white"/>
<defs>
<linearGradient id="paint0_linear" x1="42.0911" y1="71.2139" x2="42.7012" y2="42.7221" gradientUnits="userSpaceOnUse">
<stop stop-color="#C71A1B"/>
<stop offset="0.63" stop-color="#F77C0C"/>
<stop offset="1" stop-color="#AE091B"/>
</linearGradient>
<linearGradient id="paint1_linear" x1="45.7902" y1="61.0964" x2="42.5538" y2="51.8502" gradientUnits="userSpaceOnUse">
<stop stop-color="#C71A1B"/>
<stop offset="0.63" stop-color="#F77C0C"/>
<stop offset="1" stop-color="#AE091B"/>
</linearGradient>
<linearGradient id="paint2_linear" x1="39.2719" y1="64.0571" x2="38.2404" y2="56.3321" gradientUnits="userSpaceOnUse">
<stop stop-color="#C71A1B"/>
<stop offset="0.63" stop-color="#F77C0C"/>
<stop offset="1" stop-color="#AE091B"/>
</linearGradient>
<linearGradient id="paint3_linear" x1="69.1731" y1="54.8928" x2="50.8419" y2="50.7715" gradientUnits="userSpaceOnUse">
<stop stop-color="#BD001A"/>
<stop offset="0.63" stop-color="#E50019"/>
<stop offset="1" stop-color="#57030C"/>
</linearGradient>
<linearGradient id="paint4_linear" x1="71.3225" y1="51.1959" x2="54.6245" y2="51.4432" gradientUnits="userSpaceOnUse">
<stop stop-color="#D1001A"/>
<stop offset="0.67" stop-color="#8A0A16"/>
<stop offset="1" stop-color="#C9001A"/>
</linearGradient>
<linearGradient id="paint5_linear" x1="68.5527" y1="58.2657" x2="62.0973" y2="55.9543" gradientUnits="userSpaceOnUse">
<stop stop-color="#E60C19"/>
<stop offset="0.73" stop-color="#790A13"/>
<stop offset="1" stop-color="#8A0A16"/>
</linearGradient>
<linearGradient id="paint6_linear" x1="72.6292" y1="28.3301" x2="60.4951" y2="38.7742" gradientUnits="userSpaceOnUse">
<stop stop-color="#005AA7"/>
<stop offset="0.73" stop-color="#008CD0"/>
<stop offset="1" stop-color="#006BB5"/>
</linearGradient>
<linearGradient id="paint7_linear" x1="69.7902" y1="27.6745" x2="67.674" y2="36.6511" gradientUnits="userSpaceOnUse">
<stop stop-color="#00407D"/>
<stop offset="0.73" stop-color="#008CD0"/>
<stop offset="1" stop-color="#006BB5"/>
</linearGradient>
<linearGradient id="paint8_linear" x1="76.2313" y1="30.0235" x2="71.5272" y2="34.0789" gradientUnits="userSpaceOnUse">
<stop stop-color="#006BB5"/>
<stop offset="0.73" stop-color="#008CD0"/>
<stop offset="1" stop-color="#006BB5"/>
</linearGradient>
<linearGradient id="paint9_linear" x1="51.8155" y1="1.53022" x2="52.1375" y2="29.0614" gradientUnits="userSpaceOnUse">
<stop stop-color="#118C5C"/>
<stop offset="0.63" stop-color="#007A4F"/>
<stop offset="1" stop-color="#4BB283"/>
</linearGradient>
<linearGradient id="paint10_linear" x1="49.167" y1="11.5004" x2="53.205" y2="19.8649" gradientUnits="userSpaceOnUse">
<stop stop-color="#118C5C"/>
<stop offset="0.63" stop-color="#007A4F"/>
<stop offset="1" stop-color="#4BB283"/>
</linearGradient>
<linearGradient id="paint11_linear" x1="55.1565" y1="7.79447" x2="56.6427" y2="15.0647" gradientUnits="userSpaceOnUse">
<stop stop-color="#118C5C"/>
<stop offset="0.63" stop-color="#007A4F"/>
<stop offset="1" stop-color="#4BB283"/>
</linearGradient>
<linearGradient id="paint12_linear" x1="26.2977" y1="19.1606" x2="45.0001" y2="23.176" gradientUnits="userSpaceOnUse">
<stop stop-color="#4C8330"/>
<stop offset="0.63" stop-color="#7DA42D"/>
<stop offset="1" stop-color="#29682C"/>
</linearGradient>
<linearGradient id="paint13_linear" x1="24.5395" y1="23.009" x2="40.7785" y2="22.6864" gradientUnits="userSpaceOnUse">
<stop stop-color="#4C8330"/>
<stop offset="0.63" stop-color="#7DA42D"/>
<stop offset="1" stop-color="#29682C"/>
</linearGradient>
<linearGradient id="paint14_linear" x1="27.0468" y1="15.8763" x2="33.599" y2="18.0912" gradientUnits="userSpaceOnUse">
<stop stop-color="#7DA42D"/>
<stop offset="0.73" stop-color="#528830"/>
<stop offset="1" stop-color="#2E6C2D"/>
</linearGradient>
<linearGradient id="paint15_linear" x1="21.6171" y1="43.251" x2="31.1701" y2="31.4303" gradientUnits="userSpaceOnUse">
<stop stop-color="#EC9C0A"/>
<stop offset="0.63" stop-color="#FFE800"/>
<stop offset="1" stop-color="#E99A0D"/>
</linearGradient>
<linearGradient id="paint16_linear" x1="26.1083" y1="45.821" x2="28.1637" y2="36.753" gradientUnits="userSpaceOnUse">
<stop stop-color="#EC9C0A"/>
<stop offset="0.63" stop-color="#FFE800"/>
<stop offset="1" stop-color="#E99A0D"/>
</linearGradient>
<linearGradient id="paint17_linear" x1="19.6552" y1="43.5063" x2="24.3153" y2="39.3984" gradientUnits="userSpaceOnUse">
<stop stop-color="#EC9C0A"/>
<stop offset="0.63" stop-color="#FFE800"/>
<stop offset="1" stop-color="#E99A0D"/>
</linearGradient>
</defs>
</svg>
