<svg xmlns="http://www.w3.org/2000/svg" width="65.906" height="17.562" viewBox="0 0 65.906 17.562"><g transform="translate(-158.463 -215.228)"><path d="M166.963,220.032c-.28,1.839-1.686,1.839-3.045,1.839h-.773l.543-3.435a.427.427,0,0,1,.422-.36h.355c.926,0,1.8,0,2.25.528A1.708,1.708,0,0,1,166.963,220.032Zm-.591-4.8h-5.126a.712.712,0,0,0-.7.6l-2.073,13.145a.426.426,0,0,0,.423.493h2.447a.712.712,0,0,0,.7-.6l.559-3.546a.712.712,0,0,1,.7-.6h1.623c3.377,0,5.326-1.634,5.835-4.872a3.949,3.949,0,0,0-.654-3.309A4.756,4.756,0,0,0,166.372,215.231Z" transform="translate(0 -0.002)" fill="#dcdedd"/><path d="M222,241.725a2.736,2.736,0,0,1-2.77,2.344,1.9,1.9,0,0,1-2.033-2.387,2.748,2.748,0,0,1,2.751-2.363,2.071,2.071,0,0,1,1.637.669A2.125,2.125,0,0,1,222,241.725Zm3.422-4.778H222.97a.428.428,0,0,0-.422.36l-.109.687-.172-.249a3.494,3.494,0,0,0-2.9-1.029,5.645,5.645,0,0,0-5.481,4.937,4.634,4.634,0,0,0,.915,3.771,3.841,3.841,0,0,0,3.092,1.249,4.7,4.7,0,0,0,3.4-1.405l-.11.682a.427.427,0,0,0,.421.495h2.211a.712.712,0,0,0,.7-.6l1.327-8.4A.425.425,0,0,0,225.425,236.947Z" transform="translate(-43.73 -16.976)" fill="#dcdedd"/><path d="M288.347,237.816H285.88a.715.715,0,0,0-.59.313l-3.4,5.011-1.442-4.816a.714.714,0,0,0-.684-.508h-2.424a.428.428,0,0,0-.406.565l2.717,7.974-2.555,3.606a.427.427,0,0,0,.349.675h2.464a.711.711,0,0,0,.585-.306l8.2-11.843A.427.427,0,0,0,288.347,237.816Z" transform="translate(-93.578 -17.846)" fill="#dcdedd"/><path d="M341.116,220.032c-.279,1.839-1.685,1.839-3.045,1.839H337.3l.543-3.435a.426.426,0,0,1,.421-.36h.354c.925,0,1.8,0,2.25.528A1.709,1.709,0,0,1,341.116,220.032Zm-.591-4.8H335.4a.712.712,0,0,0-.7.6l-2.073,13.145a.426.426,0,0,0,.421.493h2.631a.5.5,0,0,0,.492-.421l.588-3.726a.712.712,0,0,1,.7-.6h1.622c3.378,0,5.326-1.634,5.835-4.872a3.945,3.945,0,0,0-.654-3.309A4.751,4.751,0,0,0,340.524,215.231Z" transform="translate(-137.588 -0.002)" fill="#dcdedd"/><path d="M396.165,241.725a2.735,2.735,0,0,1-2.77,2.344,1.9,1.9,0,0,1-2.033-2.387,2.749,2.749,0,0,1,2.751-2.363,2.071,2.071,0,0,1,1.637.669A2.113,2.113,0,0,1,396.165,241.725Zm3.422-4.778h-2.453a.425.425,0,0,0-.421.36l-.109.687-.172-.249a3.492,3.492,0,0,0-2.9-1.029,5.644,5.644,0,0,0-5.48,4.937,4.635,4.635,0,0,0,.914,3.771,3.843,3.843,0,0,0,3.092,1.249,4.7,4.7,0,0,0,3.4-1.405l-.11.682a.427.427,0,0,0,.423.495h2.21a.712.712,0,0,0,.7-.6l1.327-8.4A.428.428,0,0,0,399.586,236.947Z" transform="translate(-181.328 -16.976)" fill="#dcdedd"/><path d="M449.111,215.589l-2.1,13.386a.426.426,0,0,0,.421.493h2.115a.711.711,0,0,0,.7-.6l2.075-13.144a.427.427,0,0,0-.421-.494h-2.368A.428.428,0,0,0,449.111,215.589Z" transform="translate(-227.958)" fill="#dcdedd"/></g></svg>