<svg id="Capa_1" enable-background="new 0 0 512 512" height="512" viewBox="0 0 512 512" width="512" xmlns="http://www.w3.org/2000/svg"><g><g><path d="m451 512-23.481-93.384c-4.277-16.992-15.703-31.23-31.348-39.067l-56.437-24.357 6.735 114.401-6.197 42.407z" fill="#b5dbff"/><path d="m172.198 355.214-56.398 24.335c-15.615 7.852-27.041 22.09-31.333 39.067l-23.467 93.384h110.724l-6.178-42.363z" fill="#d5e8fe"/></g><path d="m256 332-47.333 80.552 47.309 89.381.024-.046 47.285-89.366z" fill="#ff8fb8"/><path d="m256 332v169.887l47.285-89.366z" fill="#ff5f96"/><path d="m301 338.475-45-6.475-45 6.473-38.802 16.741 1.318 32.073 35.151 25.265 47.333-50.552 47.285 50.521 35.125-25.249 1.324-32.08z" fill="#edf5ff"/><path d="m338.41 387.272 1.324-32.08-38.734-16.717-45-6.475v30l47.285 50.521z" fill="#d5e8fe"/><path d="m339.734 355.192-36.449 57.329-47.285 74.375-.024.037-47.309-74.381-36.469-57.338-21.652 114.423 21.178 42.363h84.276 84.272l21.197-42.407z" fill="#474f54"/><path d="m361.469 469.593-21.735-114.401-36.449 57.329-47.285 74.375v25.104h84.272z" fill="#32393f"/><path d="m256 272h-45v66.473l45 23.527 45-23.525v-66.475z" fill="#ffd5cc"/><path d="m301 272h-45v90l45-23.525z" fill="#ffb3b3"/><path d="m353.822 61h-97.822-75.015l-20.013 195.041c16.684 35.91 52.824 60.959 95.028 60.959 22.216 0 42.746-6.991 59.713-18.765l20.039-9.108 54.893-73.597z" fill="#ffd5cc"/><path d="m335.752 289.128 54.893-73.597-36.823-154.531h-97.822v256c22.216 0 42.746-6.991 59.713-18.765z" fill="#ffb3b3"/><path d="m418.788 150.561c-7.207-74.312-65.449-150.546-162.773-150.561-.005 0-.009 0-.015 0-90.987.007-165 75.024-165 166v106h14.985c20.217 0 38.947-6.017 54.987-15.959 29.89-18.53 50.013-52.367 50.013-90.041v-75h22.837c7.537 0 14.912.884 22.178 2.113 58.804 9.943 106.467 59.345 104.615 122.009-1.005 31.461-16.78 63.605-44.903 83.113 79.152-17.415 109.005-86.669 103.076-147.674z" fill="#ffb366"/><path d="m360.615 215.122c-1.005 31.461-16.78 63.605-44.903 83.113 79.151-17.415 109.005-86.67 103.076-147.675-7.207-74.311-65.449-150.545-162.773-150.56-.005 0-.009 0-.015 0v93.113c58.804 9.943 106.467 59.345 104.615 122.009z" fill="#f93"/></g></svg>